M48
; DRILL file {KiCad (5.1.2-1)-1} date Thursday, August 13, 2020 at 02:37:14 PM
; FORMAT={-:-/ absolute / metric / decimal}
; #@! TF.CreationDate,2020-08-13T14:37:14-07:00
; #@! TF.GenerationSoftware,Kicad,Pcbnew,(5.1.2-1)-1
FMAT,2
METRIC
T1C0.300
T2C1.000
T3C1.220
T4C1.420
T5C1.430
%
G90
G05
T1
X154.838Y-72.517
X155.397Y-43.409
X155.55Y-41.224
X156.743Y-23.597
X157.124Y-38.125
X157.658Y-60.681
X158.775Y-81.432
X158.877Y-111.379
X159.029Y-39.421
X160.299Y-23.647
X161.849Y-79.68
X164.262Y-40.132
X164.287Y-43.688
X164.287Y-107.239
X164.338Y-52.476
X164.465Y-23.597
X164.668Y-83.388
X164.719Y-108.382
X164.795Y-113.259
X165.049Y-62.306
X165.227Y-30.074
T2
X155.346Y-74.828
X155.346Y-77.368
X157.886Y-74.828
X157.886Y-77.368
X160.426Y-74.828
X160.426Y-77.368
X162.966Y-74.828
X162.966Y-77.368
X165.506Y-74.828
X165.506Y-77.368
T3
X154.635Y-106.02
X166.243Y-67.386
X154.635Y-95.58
X166.243Y-57.226
X154.559Y-85.115
X154.61Y-116.18
X166.243Y-47.066
X154.61Y-126.289
X166.268Y-36.906
X166.294Y-26.746
T4
X163.143Y-57.226
X157.659Y-85.115
X157.71Y-116.18
X163.143Y-47.066
X157.71Y-126.289
X163.168Y-36.906
X157.735Y-106.02
X163.194Y-26.746
X163.143Y-67.386
X157.735Y-95.58
T5
X154.868Y-36.906
X154.894Y-26.746
X166.035Y-95.58
X154.843Y-57.226
X166.01Y-116.18
X154.843Y-47.066
X166.01Y-126.289
X166.035Y-106.02
X154.843Y-67.386
X165.959Y-85.115
T0
M30
