G04 #@! TF.GenerationSoftware,KiCad,Pcbnew,(5.1.2-1)-1*
G04 #@! TF.CreationDate,2020-08-10T22:20:09-07:00*
G04 #@! TF.ProjectId,active_dual_mult,61637469-7665-45f6-9475-616c5f6d756c,rev?*
G04 #@! TF.SameCoordinates,Original*
G04 #@! TF.FileFunction,Copper,L2,Bot*
G04 #@! TF.FilePolarity,Positive*
%FSLAX46Y46*%
G04 Gerber Fmt 4.6, Leading zero omitted, Abs format (unit mm)*
G04 Created by KiCad (PCBNEW (5.1.2-1)-1) date 2020-08-10 22:20:09*
%MOMM*%
%LPD*%
G04 APERTURE LIST*
%ADD10C,2.130000*%
%ADD11R,1.830000X1.930000*%
%ADD12O,1.700000X1.700000*%
%ADD13R,1.700000X1.700000*%
%ADD14C,0.540000*%
%ADD15C,0.450000*%
%ADD16C,0.254000*%
%ADD17C,0.127000*%
G04 APERTURE END LIST*
D10*
X165959000Y-85115400D03*
D11*
X154559000Y-85115400D03*
D10*
X157659000Y-85115400D03*
D12*
X155346400Y-77368400D03*
X155346400Y-74828400D03*
X157886400Y-77368400D03*
X157886400Y-74828400D03*
X160426400Y-77368400D03*
X160426400Y-74828400D03*
X162966400Y-77368400D03*
X162966400Y-74828400D03*
X165506400Y-77368400D03*
D13*
X165506400Y-74828400D03*
D10*
X163143000Y-67386200D03*
D11*
X166243000Y-67386200D03*
D10*
X154843000Y-67386200D03*
X163143000Y-57226200D03*
D11*
X166243000Y-57226200D03*
D10*
X154843000Y-57226200D03*
X154843000Y-47066200D03*
D11*
X166243000Y-47066200D03*
D10*
X163143000Y-47066200D03*
X154868400Y-36906200D03*
D11*
X166268400Y-36906200D03*
D10*
X163168400Y-36906200D03*
X163193800Y-26746200D03*
D11*
X166293800Y-26746200D03*
D10*
X154893800Y-26746200D03*
X166035200Y-95580200D03*
D11*
X154635200Y-95580200D03*
D10*
X157735200Y-95580200D03*
X157709800Y-116179600D03*
D11*
X154609800Y-116179600D03*
D10*
X166009800Y-116179600D03*
X166009800Y-126288800D03*
D11*
X154609800Y-126288800D03*
D10*
X157709800Y-126288800D03*
X157735200Y-106019600D03*
D11*
X154635200Y-106019600D03*
D10*
X166035200Y-106019600D03*
D14*
X164668200Y-83388200D03*
X154838400Y-72517000D03*
D15*
X164338000Y-52476400D03*
X165227000Y-30073600D03*
X157124400Y-38125400D03*
X159029400Y-39420800D03*
X156743400Y-23596600D03*
X160299400Y-23647400D03*
X164465000Y-23596600D03*
X165049200Y-62306200D03*
D14*
X161848800Y-79679800D03*
X158775400Y-81432400D03*
D15*
X164287200Y-107238800D03*
X157657800Y-60680600D03*
X164261800Y-40132000D03*
X164287200Y-43688000D03*
X155397200Y-43408600D03*
X155549600Y-41224200D03*
X164719000Y-108381800D03*
X164795200Y-113258600D03*
X158877000Y-111379000D03*
D16*
X154115399Y-77959281D02*
X154115399Y-73240001D01*
X155327918Y-79171800D02*
X154115399Y-77959281D01*
X158653830Y-79171800D02*
X155327918Y-79171800D01*
X162870230Y-83388200D02*
X158653830Y-79171800D01*
X164668200Y-83388200D02*
X162870230Y-83388200D01*
X154115399Y-73240001D02*
X154838400Y-72517000D01*
D17*
X163943602Y-40132000D02*
X164261800Y-40132000D01*
X159919058Y-40132000D02*
X163943602Y-40132000D01*
X153587499Y-66130699D02*
X153587499Y-46463559D01*
X154843000Y-67386200D02*
X153587499Y-66130699D01*
X155880129Y-44170929D02*
X155880129Y-43891529D01*
X153587499Y-46463559D02*
X155880129Y-44170929D01*
X155880129Y-43891529D02*
X155397200Y-43408600D01*
X157620029Y-42431029D02*
X156756429Y-42431029D01*
X155880129Y-44170929D02*
X157620029Y-42431029D01*
X156756429Y-42431029D02*
X155549600Y-41224200D01*
X157620029Y-42431029D02*
X159919058Y-40132000D01*
X165531142Y-108381800D02*
X164719000Y-108381800D01*
X165959000Y-85115400D02*
X167290701Y-86447101D01*
X167290701Y-106622241D02*
X165785471Y-108127471D01*
X165785471Y-108127471D02*
X165531142Y-108381800D01*
X165950571Y-107962371D02*
X165785471Y-108127471D01*
X164795200Y-113258600D02*
X165227000Y-113258600D01*
X167290701Y-111194899D02*
X167290701Y-106559301D01*
X165227000Y-113258600D02*
X167290701Y-111194899D01*
X167290701Y-106559301D02*
X167290701Y-106622241D01*
X167290701Y-86447101D02*
X167290701Y-106559301D01*
X164494001Y-108606799D02*
X164719000Y-108381800D01*
X161496801Y-111603999D02*
X164494001Y-108606799D01*
X159101999Y-111603999D02*
X161496801Y-111603999D01*
X158877000Y-111379000D02*
X159101999Y-111603999D01*
D16*
G36*
X153478754Y-78384673D02*
G01*
X153508424Y-78420826D01*
X153573977Y-78500703D01*
X153603053Y-78524565D01*
X154762638Y-79684151D01*
X154786496Y-79713222D01*
X154815566Y-79737079D01*
X154902525Y-79808445D01*
X154973282Y-79846265D01*
X155034903Y-79879202D01*
X155178540Y-79922774D01*
X155290492Y-79933800D01*
X155290495Y-79933800D01*
X155327918Y-79937486D01*
X155365341Y-79933800D01*
X158338200Y-79933800D01*
X161863382Y-83458983D01*
X159386024Y-83439004D01*
X159360224Y-83441440D01*
X159336399Y-83448667D01*
X159314443Y-83460403D01*
X159295197Y-83476197D01*
X159279403Y-83495443D01*
X159267667Y-83517399D01*
X159260440Y-83541224D01*
X159258000Y-83566000D01*
X159258000Y-84533413D01*
X159165521Y-84310148D01*
X158979477Y-84031713D01*
X158742687Y-83794923D01*
X158464252Y-83608879D01*
X158154872Y-83480730D01*
X157826435Y-83415400D01*
X157491565Y-83415400D01*
X157163128Y-83480730D01*
X156853748Y-83608879D01*
X156575313Y-83794923D01*
X156338523Y-84031713D01*
X156152479Y-84310148D01*
X156110895Y-84410540D01*
X156112072Y-84150400D01*
X156099812Y-84025918D01*
X156063502Y-83906220D01*
X156004537Y-83795906D01*
X155925185Y-83699215D01*
X155828494Y-83619863D01*
X155718180Y-83560898D01*
X155598482Y-83524588D01*
X155474000Y-83512328D01*
X154844750Y-83515400D01*
X154686000Y-83674150D01*
X154686000Y-84988400D01*
X154706000Y-84988400D01*
X154706000Y-85242400D01*
X154686000Y-85242400D01*
X154686000Y-86556650D01*
X154844750Y-86715400D01*
X155474000Y-86718472D01*
X155598482Y-86706212D01*
X155718180Y-86669902D01*
X155828494Y-86610937D01*
X155925185Y-86531585D01*
X156004537Y-86434894D01*
X156063502Y-86324580D01*
X156099812Y-86204882D01*
X156112072Y-86080400D01*
X156110895Y-85820260D01*
X156152479Y-85920652D01*
X156338523Y-86199087D01*
X156575313Y-86435877D01*
X156853748Y-86621921D01*
X157163128Y-86750070D01*
X157491565Y-86815400D01*
X157826435Y-86815400D01*
X158154872Y-86750070D01*
X158464252Y-86621921D01*
X158742687Y-86435877D01*
X158979477Y-86199087D01*
X159165521Y-85920652D01*
X159258000Y-85697387D01*
X159258000Y-86791800D01*
X159260057Y-86814564D01*
X159266899Y-86838502D01*
X159278279Y-86860645D01*
X159293761Y-86880143D01*
X159312749Y-86896245D01*
X159334513Y-86908334D01*
X159358218Y-86915944D01*
X159382952Y-86918783D01*
X162532552Y-86969583D01*
X162559376Y-86967160D01*
X162583201Y-86959933D01*
X162605157Y-86948197D01*
X162624403Y-86932403D01*
X162640197Y-86913157D01*
X162651933Y-86891201D01*
X162659160Y-86867376D01*
X162661600Y-86842600D01*
X162661600Y-84121200D01*
X162720852Y-84139174D01*
X162832804Y-84150200D01*
X162832806Y-84150200D01*
X162870229Y-84153886D01*
X162907652Y-84150200D01*
X164179657Y-84150200D01*
X164239522Y-84190201D01*
X164404221Y-84258421D01*
X164477325Y-84272963D01*
X164452479Y-84310148D01*
X164324330Y-84619528D01*
X164259000Y-84947965D01*
X164259000Y-85282835D01*
X164324330Y-85611272D01*
X164452479Y-85920652D01*
X164638523Y-86199087D01*
X164875313Y-86435877D01*
X165153748Y-86621921D01*
X165463128Y-86750070D01*
X165791565Y-86815400D01*
X166126435Y-86815400D01*
X166454872Y-86750070D01*
X166561624Y-86705852D01*
X166592201Y-86736429D01*
X166592201Y-93970851D01*
X166531072Y-93945530D01*
X166202635Y-93880200D01*
X165867765Y-93880200D01*
X165539328Y-93945530D01*
X165229948Y-94073679D01*
X164951513Y-94259723D01*
X164714723Y-94496513D01*
X164528679Y-94774948D01*
X164400530Y-95084328D01*
X164335200Y-95412765D01*
X164335200Y-95747635D01*
X164400530Y-96076072D01*
X164528679Y-96385452D01*
X164714723Y-96663887D01*
X164951513Y-96900677D01*
X165229948Y-97086721D01*
X165539328Y-97214870D01*
X165867765Y-97280200D01*
X166202635Y-97280200D01*
X166531072Y-97214870D01*
X166592202Y-97189549D01*
X166592202Y-104410251D01*
X166531072Y-104384930D01*
X166202635Y-104319600D01*
X165867765Y-104319600D01*
X165539328Y-104384930D01*
X165229948Y-104513079D01*
X164951513Y-104699123D01*
X164714723Y-104935913D01*
X164528679Y-105214348D01*
X164400530Y-105523728D01*
X164335200Y-105852165D01*
X164335200Y-106187035D01*
X164400530Y-106515472D01*
X164528679Y-106824852D01*
X164714723Y-107103287D01*
X164951513Y-107340077D01*
X165229948Y-107526121D01*
X165349482Y-107575633D01*
X165241815Y-107683300D01*
X165221579Y-107683300D01*
X165126363Y-107619678D01*
X164969853Y-107554849D01*
X164803703Y-107521800D01*
X164634297Y-107521800D01*
X164468147Y-107554849D01*
X164311637Y-107619678D01*
X164170782Y-107713795D01*
X164050995Y-107833582D01*
X163956878Y-107974437D01*
X163892049Y-108130947D01*
X163869708Y-108243264D01*
X161207474Y-110905499D01*
X159594930Y-110905499D01*
X159545005Y-110830782D01*
X159425218Y-110710995D01*
X159284363Y-110616878D01*
X159127853Y-110552049D01*
X158961703Y-110519000D01*
X158792297Y-110519000D01*
X158626147Y-110552049D01*
X158469637Y-110616878D01*
X158328782Y-110710995D01*
X158208995Y-110830782D01*
X158114878Y-110971637D01*
X158050049Y-111128147D01*
X158017000Y-111294297D01*
X158017000Y-111463703D01*
X158050049Y-111629853D01*
X158114878Y-111786363D01*
X158208995Y-111927218D01*
X158328782Y-112047005D01*
X158469637Y-112141122D01*
X158626147Y-112205951D01*
X158792297Y-112239000D01*
X158808237Y-112239000D01*
X158833402Y-112252451D01*
X158965069Y-112292392D01*
X159067690Y-112302499D01*
X159067701Y-112302499D01*
X159101999Y-112305877D01*
X159136297Y-112302499D01*
X161462503Y-112302499D01*
X161496801Y-112305877D01*
X161531099Y-112302499D01*
X161531110Y-112302499D01*
X161633731Y-112292392D01*
X161765398Y-112252451D01*
X161886744Y-112187590D01*
X161993104Y-112100302D01*
X162014976Y-112073651D01*
X164857536Y-109231092D01*
X164969853Y-109208751D01*
X165126363Y-109143922D01*
X165221579Y-109080300D01*
X165496844Y-109080300D01*
X165531142Y-109083678D01*
X165565440Y-109080300D01*
X165565451Y-109080300D01*
X165668072Y-109070193D01*
X165799739Y-109030252D01*
X165921085Y-108965391D01*
X166027445Y-108878103D01*
X166049317Y-108851452D01*
X166303645Y-108597124D01*
X166592202Y-108308568D01*
X166592201Y-110905571D01*
X165060245Y-112437528D01*
X165046053Y-112431649D01*
X164879903Y-112398600D01*
X164710497Y-112398600D01*
X164544347Y-112431649D01*
X164387837Y-112496478D01*
X164246982Y-112590595D01*
X164127195Y-112710382D01*
X164033078Y-112851237D01*
X163968249Y-113007747D01*
X163935200Y-113173897D01*
X163935200Y-113343303D01*
X163968249Y-113509453D01*
X164033078Y-113665963D01*
X164127195Y-113806818D01*
X164246982Y-113926605D01*
X164387837Y-114020722D01*
X164544347Y-114085551D01*
X164710497Y-114118600D01*
X164879903Y-114118600D01*
X165046053Y-114085551D01*
X165202563Y-114020722D01*
X165304084Y-113952887D01*
X165363930Y-113946993D01*
X165495597Y-113907052D01*
X165616943Y-113842191D01*
X165723303Y-113754903D01*
X165745175Y-113728252D01*
X167390857Y-112082571D01*
X167390138Y-115185502D01*
X167330277Y-115095913D01*
X167093487Y-114859123D01*
X166815052Y-114673079D01*
X166505672Y-114544930D01*
X166177235Y-114479600D01*
X165842365Y-114479600D01*
X165513928Y-114544930D01*
X165204548Y-114673079D01*
X164926113Y-114859123D01*
X164689323Y-115095913D01*
X164503279Y-115374348D01*
X164375130Y-115683728D01*
X164309800Y-116012165D01*
X164309800Y-116347035D01*
X164375130Y-116675472D01*
X164503279Y-116984852D01*
X164689323Y-117263287D01*
X164926113Y-117500077D01*
X165204548Y-117686121D01*
X165513928Y-117814270D01*
X165842365Y-117879600D01*
X166177235Y-117879600D01*
X166505672Y-117814270D01*
X166815052Y-117686121D01*
X167093487Y-117500077D01*
X167330277Y-117263287D01*
X167389677Y-117174388D01*
X167387797Y-125291198D01*
X167330277Y-125205113D01*
X167093487Y-124968323D01*
X166815052Y-124782279D01*
X166505672Y-124654130D01*
X166177235Y-124588800D01*
X165842365Y-124588800D01*
X165513928Y-124654130D01*
X165204548Y-124782279D01*
X164926113Y-124968323D01*
X164689323Y-125205113D01*
X164503279Y-125483548D01*
X164375130Y-125792928D01*
X164309800Y-126121365D01*
X164309800Y-126456235D01*
X164375130Y-126784672D01*
X164503279Y-127094052D01*
X164689323Y-127372487D01*
X164926113Y-127609277D01*
X165204548Y-127795321D01*
X165513928Y-127923470D01*
X165842365Y-127988800D01*
X166177235Y-127988800D01*
X166505672Y-127923470D01*
X166815052Y-127795321D01*
X167093487Y-127609277D01*
X167330277Y-127372487D01*
X167387334Y-127287094D01*
X167386553Y-130658000D01*
X153440693Y-130658000D01*
X153439385Y-127837297D01*
X153450620Y-127843302D01*
X153570318Y-127879612D01*
X153694800Y-127891872D01*
X154324050Y-127888800D01*
X154482800Y-127730050D01*
X154482800Y-126415800D01*
X154462800Y-126415800D01*
X154462800Y-126161800D01*
X154482800Y-126161800D01*
X154482800Y-124847550D01*
X154736800Y-124847550D01*
X154736800Y-126161800D01*
X154756800Y-126161800D01*
X154756800Y-126415800D01*
X154736800Y-126415800D01*
X154736800Y-127730050D01*
X154895550Y-127888800D01*
X155524800Y-127891872D01*
X155649282Y-127879612D01*
X155768980Y-127843302D01*
X155879294Y-127784337D01*
X155975985Y-127704985D01*
X156055337Y-127608294D01*
X156114302Y-127497980D01*
X156150612Y-127378282D01*
X156162872Y-127253800D01*
X156161695Y-126993660D01*
X156203279Y-127094052D01*
X156389323Y-127372487D01*
X156626113Y-127609277D01*
X156904548Y-127795321D01*
X157213928Y-127923470D01*
X157542365Y-127988800D01*
X157877235Y-127988800D01*
X158205672Y-127923470D01*
X158515052Y-127795321D01*
X158793487Y-127609277D01*
X159030277Y-127372487D01*
X159216321Y-127094052D01*
X159344470Y-126784672D01*
X159385000Y-126580913D01*
X159385000Y-127889000D01*
X159387057Y-127911764D01*
X159393899Y-127935702D01*
X159405279Y-127957845D01*
X159420761Y-127977343D01*
X159439749Y-127993445D01*
X159461513Y-128005534D01*
X159485218Y-128013144D01*
X159509952Y-128015983D01*
X162659552Y-128066783D01*
X162686376Y-128064360D01*
X162710201Y-128057133D01*
X162732157Y-128045397D01*
X162751403Y-128029603D01*
X162767197Y-128010357D01*
X162778933Y-127988401D01*
X162786160Y-127964576D01*
X162788600Y-127939800D01*
X162788600Y-124688600D01*
X162786355Y-124664829D01*
X162779321Y-124640947D01*
X162767762Y-124618896D01*
X162752124Y-124599525D01*
X162733007Y-124583576D01*
X162711145Y-124571663D01*
X162687380Y-124564244D01*
X162662624Y-124561604D01*
X159513024Y-124536204D01*
X159487224Y-124538640D01*
X159463399Y-124545867D01*
X159441443Y-124557603D01*
X159422197Y-124573397D01*
X159406403Y-124592643D01*
X159394667Y-124614599D01*
X159387440Y-124638424D01*
X159385000Y-124663200D01*
X159385000Y-125996687D01*
X159344470Y-125792928D01*
X159216321Y-125483548D01*
X159030277Y-125205113D01*
X158793487Y-124968323D01*
X158515052Y-124782279D01*
X158205672Y-124654130D01*
X157877235Y-124588800D01*
X157542365Y-124588800D01*
X157213928Y-124654130D01*
X156904548Y-124782279D01*
X156626113Y-124968323D01*
X156389323Y-125205113D01*
X156203279Y-125483548D01*
X156161695Y-125583940D01*
X156162872Y-125323800D01*
X156150612Y-125199318D01*
X156114302Y-125079620D01*
X156055337Y-124969306D01*
X155975985Y-124872615D01*
X155879294Y-124793263D01*
X155768980Y-124734298D01*
X155649282Y-124697988D01*
X155524800Y-124685728D01*
X154895550Y-124688800D01*
X154736800Y-124847550D01*
X154482800Y-124847550D01*
X154324050Y-124688800D01*
X153694800Y-124685728D01*
X153570318Y-124697988D01*
X153450620Y-124734298D01*
X153437949Y-124741071D01*
X153434696Y-117725590D01*
X153450620Y-117734102D01*
X153570318Y-117770412D01*
X153694800Y-117782672D01*
X154324050Y-117779600D01*
X154482800Y-117620850D01*
X154482800Y-116306600D01*
X154462800Y-116306600D01*
X154462800Y-116052600D01*
X154482800Y-116052600D01*
X154482800Y-114738350D01*
X154736800Y-114738350D01*
X154736800Y-116052600D01*
X154756800Y-116052600D01*
X154756800Y-116306600D01*
X154736800Y-116306600D01*
X154736800Y-117620850D01*
X154895550Y-117779600D01*
X155524800Y-117782672D01*
X155649282Y-117770412D01*
X155768980Y-117734102D01*
X155879294Y-117675137D01*
X155975985Y-117595785D01*
X156055337Y-117499094D01*
X156114302Y-117388780D01*
X156150612Y-117269082D01*
X156162872Y-117144600D01*
X156161695Y-116884460D01*
X156203279Y-116984852D01*
X156389323Y-117263287D01*
X156626113Y-117500077D01*
X156904548Y-117686121D01*
X157213928Y-117814270D01*
X157542365Y-117879600D01*
X157877235Y-117879600D01*
X158205672Y-117814270D01*
X158515052Y-117686121D01*
X158793487Y-117500077D01*
X159030277Y-117263287D01*
X159216321Y-116984852D01*
X159344470Y-116675472D01*
X159409800Y-116347035D01*
X159409800Y-116012165D01*
X159344470Y-115683728D01*
X159216321Y-115374348D01*
X159030277Y-115095913D01*
X158793487Y-114859123D01*
X158515052Y-114673079D01*
X158227569Y-114554000D01*
X159410400Y-114554000D01*
X159410400Y-117779800D01*
X159412457Y-117802564D01*
X159419299Y-117826502D01*
X159430679Y-117848645D01*
X159446161Y-117868143D01*
X159465149Y-117884245D01*
X159486913Y-117896334D01*
X159510618Y-117903944D01*
X159535352Y-117906783D01*
X162684952Y-117957583D01*
X162711776Y-117955160D01*
X162735601Y-117947933D01*
X162757557Y-117936197D01*
X162776803Y-117920403D01*
X162792597Y-117901157D01*
X162804333Y-117879201D01*
X162811560Y-117855376D01*
X162814000Y-117830600D01*
X162814000Y-114579400D01*
X162811755Y-114555629D01*
X162804721Y-114531747D01*
X162793162Y-114509696D01*
X162777524Y-114490325D01*
X162758407Y-114474376D01*
X162736545Y-114462463D01*
X162712780Y-114455044D01*
X162688024Y-114452404D01*
X159538424Y-114427004D01*
X159512624Y-114429440D01*
X159488799Y-114436667D01*
X159466843Y-114448403D01*
X159447597Y-114464197D01*
X159431803Y-114483443D01*
X159420067Y-114505399D01*
X159412840Y-114529224D01*
X159410400Y-114554000D01*
X158227569Y-114554000D01*
X158205672Y-114544930D01*
X157877235Y-114479600D01*
X157542365Y-114479600D01*
X157213928Y-114544930D01*
X156904548Y-114673079D01*
X156626113Y-114859123D01*
X156389323Y-115095913D01*
X156203279Y-115374348D01*
X156161695Y-115474740D01*
X156162872Y-115214600D01*
X156150612Y-115090118D01*
X156114302Y-114970420D01*
X156055337Y-114860106D01*
X155975985Y-114763415D01*
X155879294Y-114684063D01*
X155768980Y-114625098D01*
X155649282Y-114588788D01*
X155524800Y-114576528D01*
X154895550Y-114579600D01*
X154736800Y-114738350D01*
X154482800Y-114738350D01*
X154324050Y-114579600D01*
X153694800Y-114576528D01*
X153570318Y-114588788D01*
X153450620Y-114625098D01*
X153433263Y-114634376D01*
X153429977Y-107549491D01*
X153476020Y-107574102D01*
X153595718Y-107610412D01*
X153720200Y-107622672D01*
X154349450Y-107619600D01*
X154508200Y-107460850D01*
X154508200Y-106146600D01*
X154488200Y-106146600D01*
X154488200Y-105892600D01*
X154508200Y-105892600D01*
X154508200Y-104578350D01*
X154762200Y-104578350D01*
X154762200Y-105892600D01*
X154782200Y-105892600D01*
X154782200Y-106146600D01*
X154762200Y-106146600D01*
X154762200Y-107460850D01*
X154920950Y-107619600D01*
X155550200Y-107622672D01*
X155674682Y-107610412D01*
X155794380Y-107574102D01*
X155904694Y-107515137D01*
X156001385Y-107435785D01*
X156080737Y-107339094D01*
X156139702Y-107228780D01*
X156176012Y-107109082D01*
X156188272Y-106984600D01*
X156187095Y-106724460D01*
X156228679Y-106824852D01*
X156414723Y-107103287D01*
X156651513Y-107340077D01*
X156929948Y-107526121D01*
X157239328Y-107654270D01*
X157567765Y-107719600D01*
X157902635Y-107719600D01*
X158231072Y-107654270D01*
X158540452Y-107526121D01*
X158818887Y-107340077D01*
X159055677Y-107103287D01*
X159241721Y-106824852D01*
X159369870Y-106515472D01*
X159410400Y-106311713D01*
X159410400Y-107619800D01*
X159412457Y-107642564D01*
X159419299Y-107666502D01*
X159430679Y-107688645D01*
X159446161Y-107708143D01*
X159465149Y-107724245D01*
X159486913Y-107736334D01*
X159510618Y-107743944D01*
X159535352Y-107746783D01*
X162684952Y-107797583D01*
X162711776Y-107795160D01*
X162735601Y-107787933D01*
X162757557Y-107776197D01*
X162776803Y-107760403D01*
X162792597Y-107741157D01*
X162804333Y-107719201D01*
X162811560Y-107695376D01*
X162814000Y-107670600D01*
X162814000Y-104419400D01*
X162811755Y-104395629D01*
X162804721Y-104371747D01*
X162793162Y-104349696D01*
X162777524Y-104330325D01*
X162758407Y-104314376D01*
X162736545Y-104302463D01*
X162712780Y-104295044D01*
X162688024Y-104292404D01*
X159538424Y-104267004D01*
X159512624Y-104269440D01*
X159488799Y-104276667D01*
X159466843Y-104288403D01*
X159447597Y-104304197D01*
X159431803Y-104323443D01*
X159420067Y-104345399D01*
X159412840Y-104369224D01*
X159410400Y-104394000D01*
X159410400Y-105727487D01*
X159369870Y-105523728D01*
X159241721Y-105214348D01*
X159055677Y-104935913D01*
X158818887Y-104699123D01*
X158540452Y-104513079D01*
X158231072Y-104384930D01*
X157902635Y-104319600D01*
X157567765Y-104319600D01*
X157239328Y-104384930D01*
X156929948Y-104513079D01*
X156651513Y-104699123D01*
X156414723Y-104935913D01*
X156228679Y-105214348D01*
X156187095Y-105314740D01*
X156188272Y-105054600D01*
X156176012Y-104930118D01*
X156139702Y-104810420D01*
X156080737Y-104700106D01*
X156001385Y-104603415D01*
X155904694Y-104524063D01*
X155794380Y-104465098D01*
X155674682Y-104428788D01*
X155550200Y-104416528D01*
X154920950Y-104419600D01*
X154762200Y-104578350D01*
X154508200Y-104578350D01*
X154349450Y-104419600D01*
X153720200Y-104416528D01*
X153595718Y-104428788D01*
X153476020Y-104465098D01*
X153428559Y-104490467D01*
X153425135Y-97107503D01*
X153476020Y-97134702D01*
X153595718Y-97171012D01*
X153720200Y-97183272D01*
X154349450Y-97180200D01*
X154508200Y-97021450D01*
X154508200Y-95707200D01*
X154488200Y-95707200D01*
X154488200Y-95453200D01*
X154508200Y-95453200D01*
X154508200Y-94138950D01*
X154762200Y-94138950D01*
X154762200Y-95453200D01*
X154782200Y-95453200D01*
X154782200Y-95707200D01*
X154762200Y-95707200D01*
X154762200Y-97021450D01*
X154920950Y-97180200D01*
X155550200Y-97183272D01*
X155674682Y-97171012D01*
X155794380Y-97134702D01*
X155904694Y-97075737D01*
X156001385Y-96996385D01*
X156080737Y-96899694D01*
X156139702Y-96789380D01*
X156176012Y-96669682D01*
X156188272Y-96545200D01*
X156187095Y-96285060D01*
X156228679Y-96385452D01*
X156414723Y-96663887D01*
X156651513Y-96900677D01*
X156929948Y-97086721D01*
X157239328Y-97214870D01*
X157567765Y-97280200D01*
X157902635Y-97280200D01*
X158231072Y-97214870D01*
X158540452Y-97086721D01*
X158818887Y-96900677D01*
X159055677Y-96663887D01*
X159241721Y-96385452D01*
X159369870Y-96076072D01*
X159435200Y-95747635D01*
X159435200Y-95412765D01*
X159369870Y-95084328D01*
X159241721Y-94774948D01*
X159055677Y-94496513D01*
X158818887Y-94259723D01*
X158540452Y-94073679D01*
X158231072Y-93945530D01*
X157902635Y-93880200D01*
X157567765Y-93880200D01*
X157239328Y-93945530D01*
X156929948Y-94073679D01*
X156651513Y-94259723D01*
X156414723Y-94496513D01*
X156228679Y-94774948D01*
X156187095Y-94875340D01*
X156188272Y-94615200D01*
X156176012Y-94490718D01*
X156139702Y-94371020D01*
X156080737Y-94260706D01*
X156001385Y-94164015D01*
X155904694Y-94084663D01*
X155794380Y-94025698D01*
X155674682Y-93989388D01*
X155550200Y-93977128D01*
X154920950Y-93980200D01*
X154762200Y-94138950D01*
X154508200Y-94138950D01*
X154349450Y-93980200D01*
X153720200Y-93977128D01*
X153595718Y-93989388D01*
X153476020Y-94025698D01*
X153423719Y-94053654D01*
X153423610Y-93818248D01*
X159490957Y-93818248D01*
X159490957Y-97044048D01*
X159493014Y-97066812D01*
X159499856Y-97090750D01*
X159511236Y-97112893D01*
X159526718Y-97132391D01*
X159545706Y-97148493D01*
X159567470Y-97160582D01*
X159591175Y-97168192D01*
X159615909Y-97171031D01*
X162765509Y-97221831D01*
X162792333Y-97219408D01*
X162816158Y-97212181D01*
X162838114Y-97200445D01*
X162857360Y-97184651D01*
X162873154Y-97165405D01*
X162884890Y-97143449D01*
X162892117Y-97119624D01*
X162894557Y-97094848D01*
X162894557Y-93843648D01*
X162892312Y-93819877D01*
X162885278Y-93795995D01*
X162873719Y-93773944D01*
X162858081Y-93754573D01*
X162838964Y-93738624D01*
X162817102Y-93726711D01*
X162793337Y-93719292D01*
X162768581Y-93716652D01*
X159618981Y-93691252D01*
X159593181Y-93693688D01*
X159569356Y-93700915D01*
X159547400Y-93712651D01*
X159528154Y-93728445D01*
X159512360Y-93747691D01*
X159500624Y-93769647D01*
X159493397Y-93793472D01*
X159490957Y-93818248D01*
X153423610Y-93818248D01*
X153420298Y-86676114D01*
X153519518Y-86706212D01*
X153644000Y-86718472D01*
X154273250Y-86715400D01*
X154432000Y-86556650D01*
X154432000Y-85242400D01*
X154412000Y-85242400D01*
X154412000Y-84988400D01*
X154432000Y-84988400D01*
X154432000Y-83674150D01*
X154273250Y-83515400D01*
X153644000Y-83512328D01*
X153519518Y-83524588D01*
X153418851Y-83555125D01*
X153416399Y-78268014D01*
X153478754Y-78384673D01*
X153478754Y-78384673D01*
G37*
X153478754Y-78384673D02*
X153508424Y-78420826D01*
X153573977Y-78500703D01*
X153603053Y-78524565D01*
X154762638Y-79684151D01*
X154786496Y-79713222D01*
X154815566Y-79737079D01*
X154902525Y-79808445D01*
X154973282Y-79846265D01*
X155034903Y-79879202D01*
X155178540Y-79922774D01*
X155290492Y-79933800D01*
X155290495Y-79933800D01*
X155327918Y-79937486D01*
X155365341Y-79933800D01*
X158338200Y-79933800D01*
X161863382Y-83458983D01*
X159386024Y-83439004D01*
X159360224Y-83441440D01*
X159336399Y-83448667D01*
X159314443Y-83460403D01*
X159295197Y-83476197D01*
X159279403Y-83495443D01*
X159267667Y-83517399D01*
X159260440Y-83541224D01*
X159258000Y-83566000D01*
X159258000Y-84533413D01*
X159165521Y-84310148D01*
X158979477Y-84031713D01*
X158742687Y-83794923D01*
X158464252Y-83608879D01*
X158154872Y-83480730D01*
X157826435Y-83415400D01*
X157491565Y-83415400D01*
X157163128Y-83480730D01*
X156853748Y-83608879D01*
X156575313Y-83794923D01*
X156338523Y-84031713D01*
X156152479Y-84310148D01*
X156110895Y-84410540D01*
X156112072Y-84150400D01*
X156099812Y-84025918D01*
X156063502Y-83906220D01*
X156004537Y-83795906D01*
X155925185Y-83699215D01*
X155828494Y-83619863D01*
X155718180Y-83560898D01*
X155598482Y-83524588D01*
X155474000Y-83512328D01*
X154844750Y-83515400D01*
X154686000Y-83674150D01*
X154686000Y-84988400D01*
X154706000Y-84988400D01*
X154706000Y-85242400D01*
X154686000Y-85242400D01*
X154686000Y-86556650D01*
X154844750Y-86715400D01*
X155474000Y-86718472D01*
X155598482Y-86706212D01*
X155718180Y-86669902D01*
X155828494Y-86610937D01*
X155925185Y-86531585D01*
X156004537Y-86434894D01*
X156063502Y-86324580D01*
X156099812Y-86204882D01*
X156112072Y-86080400D01*
X156110895Y-85820260D01*
X156152479Y-85920652D01*
X156338523Y-86199087D01*
X156575313Y-86435877D01*
X156853748Y-86621921D01*
X157163128Y-86750070D01*
X157491565Y-86815400D01*
X157826435Y-86815400D01*
X158154872Y-86750070D01*
X158464252Y-86621921D01*
X158742687Y-86435877D01*
X158979477Y-86199087D01*
X159165521Y-85920652D01*
X159258000Y-85697387D01*
X159258000Y-86791800D01*
X159260057Y-86814564D01*
X159266899Y-86838502D01*
X159278279Y-86860645D01*
X159293761Y-86880143D01*
X159312749Y-86896245D01*
X159334513Y-86908334D01*
X159358218Y-86915944D01*
X159382952Y-86918783D01*
X162532552Y-86969583D01*
X162559376Y-86967160D01*
X162583201Y-86959933D01*
X162605157Y-86948197D01*
X162624403Y-86932403D01*
X162640197Y-86913157D01*
X162651933Y-86891201D01*
X162659160Y-86867376D01*
X162661600Y-86842600D01*
X162661600Y-84121200D01*
X162720852Y-84139174D01*
X162832804Y-84150200D01*
X162832806Y-84150200D01*
X162870229Y-84153886D01*
X162907652Y-84150200D01*
X164179657Y-84150200D01*
X164239522Y-84190201D01*
X164404221Y-84258421D01*
X164477325Y-84272963D01*
X164452479Y-84310148D01*
X164324330Y-84619528D01*
X164259000Y-84947965D01*
X164259000Y-85282835D01*
X164324330Y-85611272D01*
X164452479Y-85920652D01*
X164638523Y-86199087D01*
X164875313Y-86435877D01*
X165153748Y-86621921D01*
X165463128Y-86750070D01*
X165791565Y-86815400D01*
X166126435Y-86815400D01*
X166454872Y-86750070D01*
X166561624Y-86705852D01*
X166592201Y-86736429D01*
X166592201Y-93970851D01*
X166531072Y-93945530D01*
X166202635Y-93880200D01*
X165867765Y-93880200D01*
X165539328Y-93945530D01*
X165229948Y-94073679D01*
X164951513Y-94259723D01*
X164714723Y-94496513D01*
X164528679Y-94774948D01*
X164400530Y-95084328D01*
X164335200Y-95412765D01*
X164335200Y-95747635D01*
X164400530Y-96076072D01*
X164528679Y-96385452D01*
X164714723Y-96663887D01*
X164951513Y-96900677D01*
X165229948Y-97086721D01*
X165539328Y-97214870D01*
X165867765Y-97280200D01*
X166202635Y-97280200D01*
X166531072Y-97214870D01*
X166592202Y-97189549D01*
X166592202Y-104410251D01*
X166531072Y-104384930D01*
X166202635Y-104319600D01*
X165867765Y-104319600D01*
X165539328Y-104384930D01*
X165229948Y-104513079D01*
X164951513Y-104699123D01*
X164714723Y-104935913D01*
X164528679Y-105214348D01*
X164400530Y-105523728D01*
X164335200Y-105852165D01*
X164335200Y-106187035D01*
X164400530Y-106515472D01*
X164528679Y-106824852D01*
X164714723Y-107103287D01*
X164951513Y-107340077D01*
X165229948Y-107526121D01*
X165349482Y-107575633D01*
X165241815Y-107683300D01*
X165221579Y-107683300D01*
X165126363Y-107619678D01*
X164969853Y-107554849D01*
X164803703Y-107521800D01*
X164634297Y-107521800D01*
X164468147Y-107554849D01*
X164311637Y-107619678D01*
X164170782Y-107713795D01*
X164050995Y-107833582D01*
X163956878Y-107974437D01*
X163892049Y-108130947D01*
X163869708Y-108243264D01*
X161207474Y-110905499D01*
X159594930Y-110905499D01*
X159545005Y-110830782D01*
X159425218Y-110710995D01*
X159284363Y-110616878D01*
X159127853Y-110552049D01*
X158961703Y-110519000D01*
X158792297Y-110519000D01*
X158626147Y-110552049D01*
X158469637Y-110616878D01*
X158328782Y-110710995D01*
X158208995Y-110830782D01*
X158114878Y-110971637D01*
X158050049Y-111128147D01*
X158017000Y-111294297D01*
X158017000Y-111463703D01*
X158050049Y-111629853D01*
X158114878Y-111786363D01*
X158208995Y-111927218D01*
X158328782Y-112047005D01*
X158469637Y-112141122D01*
X158626147Y-112205951D01*
X158792297Y-112239000D01*
X158808237Y-112239000D01*
X158833402Y-112252451D01*
X158965069Y-112292392D01*
X159067690Y-112302499D01*
X159067701Y-112302499D01*
X159101999Y-112305877D01*
X159136297Y-112302499D01*
X161462503Y-112302499D01*
X161496801Y-112305877D01*
X161531099Y-112302499D01*
X161531110Y-112302499D01*
X161633731Y-112292392D01*
X161765398Y-112252451D01*
X161886744Y-112187590D01*
X161993104Y-112100302D01*
X162014976Y-112073651D01*
X164857536Y-109231092D01*
X164969853Y-109208751D01*
X165126363Y-109143922D01*
X165221579Y-109080300D01*
X165496844Y-109080300D01*
X165531142Y-109083678D01*
X165565440Y-109080300D01*
X165565451Y-109080300D01*
X165668072Y-109070193D01*
X165799739Y-109030252D01*
X165921085Y-108965391D01*
X166027445Y-108878103D01*
X166049317Y-108851452D01*
X166303645Y-108597124D01*
X166592202Y-108308568D01*
X166592201Y-110905571D01*
X165060245Y-112437528D01*
X165046053Y-112431649D01*
X164879903Y-112398600D01*
X164710497Y-112398600D01*
X164544347Y-112431649D01*
X164387837Y-112496478D01*
X164246982Y-112590595D01*
X164127195Y-112710382D01*
X164033078Y-112851237D01*
X163968249Y-113007747D01*
X163935200Y-113173897D01*
X163935200Y-113343303D01*
X163968249Y-113509453D01*
X164033078Y-113665963D01*
X164127195Y-113806818D01*
X164246982Y-113926605D01*
X164387837Y-114020722D01*
X164544347Y-114085551D01*
X164710497Y-114118600D01*
X164879903Y-114118600D01*
X165046053Y-114085551D01*
X165202563Y-114020722D01*
X165304084Y-113952887D01*
X165363930Y-113946993D01*
X165495597Y-113907052D01*
X165616943Y-113842191D01*
X165723303Y-113754903D01*
X165745175Y-113728252D01*
X167390857Y-112082571D01*
X167390138Y-115185502D01*
X167330277Y-115095913D01*
X167093487Y-114859123D01*
X166815052Y-114673079D01*
X166505672Y-114544930D01*
X166177235Y-114479600D01*
X165842365Y-114479600D01*
X165513928Y-114544930D01*
X165204548Y-114673079D01*
X164926113Y-114859123D01*
X164689323Y-115095913D01*
X164503279Y-115374348D01*
X164375130Y-115683728D01*
X164309800Y-116012165D01*
X164309800Y-116347035D01*
X164375130Y-116675472D01*
X164503279Y-116984852D01*
X164689323Y-117263287D01*
X164926113Y-117500077D01*
X165204548Y-117686121D01*
X165513928Y-117814270D01*
X165842365Y-117879600D01*
X166177235Y-117879600D01*
X166505672Y-117814270D01*
X166815052Y-117686121D01*
X167093487Y-117500077D01*
X167330277Y-117263287D01*
X167389677Y-117174388D01*
X167387797Y-125291198D01*
X167330277Y-125205113D01*
X167093487Y-124968323D01*
X166815052Y-124782279D01*
X166505672Y-124654130D01*
X166177235Y-124588800D01*
X165842365Y-124588800D01*
X165513928Y-124654130D01*
X165204548Y-124782279D01*
X164926113Y-124968323D01*
X164689323Y-125205113D01*
X164503279Y-125483548D01*
X164375130Y-125792928D01*
X164309800Y-126121365D01*
X164309800Y-126456235D01*
X164375130Y-126784672D01*
X164503279Y-127094052D01*
X164689323Y-127372487D01*
X164926113Y-127609277D01*
X165204548Y-127795321D01*
X165513928Y-127923470D01*
X165842365Y-127988800D01*
X166177235Y-127988800D01*
X166505672Y-127923470D01*
X166815052Y-127795321D01*
X167093487Y-127609277D01*
X167330277Y-127372487D01*
X167387334Y-127287094D01*
X167386553Y-130658000D01*
X153440693Y-130658000D01*
X153439385Y-127837297D01*
X153450620Y-127843302D01*
X153570318Y-127879612D01*
X153694800Y-127891872D01*
X154324050Y-127888800D01*
X154482800Y-127730050D01*
X154482800Y-126415800D01*
X154462800Y-126415800D01*
X154462800Y-126161800D01*
X154482800Y-126161800D01*
X154482800Y-124847550D01*
X154736800Y-124847550D01*
X154736800Y-126161800D01*
X154756800Y-126161800D01*
X154756800Y-126415800D01*
X154736800Y-126415800D01*
X154736800Y-127730050D01*
X154895550Y-127888800D01*
X155524800Y-127891872D01*
X155649282Y-127879612D01*
X155768980Y-127843302D01*
X155879294Y-127784337D01*
X155975985Y-127704985D01*
X156055337Y-127608294D01*
X156114302Y-127497980D01*
X156150612Y-127378282D01*
X156162872Y-127253800D01*
X156161695Y-126993660D01*
X156203279Y-127094052D01*
X156389323Y-127372487D01*
X156626113Y-127609277D01*
X156904548Y-127795321D01*
X157213928Y-127923470D01*
X157542365Y-127988800D01*
X157877235Y-127988800D01*
X158205672Y-127923470D01*
X158515052Y-127795321D01*
X158793487Y-127609277D01*
X159030277Y-127372487D01*
X159216321Y-127094052D01*
X159344470Y-126784672D01*
X159385000Y-126580913D01*
X159385000Y-127889000D01*
X159387057Y-127911764D01*
X159393899Y-127935702D01*
X159405279Y-127957845D01*
X159420761Y-127977343D01*
X159439749Y-127993445D01*
X159461513Y-128005534D01*
X159485218Y-128013144D01*
X159509952Y-128015983D01*
X162659552Y-128066783D01*
X162686376Y-128064360D01*
X162710201Y-128057133D01*
X162732157Y-128045397D01*
X162751403Y-128029603D01*
X162767197Y-128010357D01*
X162778933Y-127988401D01*
X162786160Y-127964576D01*
X162788600Y-127939800D01*
X162788600Y-124688600D01*
X162786355Y-124664829D01*
X162779321Y-124640947D01*
X162767762Y-124618896D01*
X162752124Y-124599525D01*
X162733007Y-124583576D01*
X162711145Y-124571663D01*
X162687380Y-124564244D01*
X162662624Y-124561604D01*
X159513024Y-124536204D01*
X159487224Y-124538640D01*
X159463399Y-124545867D01*
X159441443Y-124557603D01*
X159422197Y-124573397D01*
X159406403Y-124592643D01*
X159394667Y-124614599D01*
X159387440Y-124638424D01*
X159385000Y-124663200D01*
X159385000Y-125996687D01*
X159344470Y-125792928D01*
X159216321Y-125483548D01*
X159030277Y-125205113D01*
X158793487Y-124968323D01*
X158515052Y-124782279D01*
X158205672Y-124654130D01*
X157877235Y-124588800D01*
X157542365Y-124588800D01*
X157213928Y-124654130D01*
X156904548Y-124782279D01*
X156626113Y-124968323D01*
X156389323Y-125205113D01*
X156203279Y-125483548D01*
X156161695Y-125583940D01*
X156162872Y-125323800D01*
X156150612Y-125199318D01*
X156114302Y-125079620D01*
X156055337Y-124969306D01*
X155975985Y-124872615D01*
X155879294Y-124793263D01*
X155768980Y-124734298D01*
X155649282Y-124697988D01*
X155524800Y-124685728D01*
X154895550Y-124688800D01*
X154736800Y-124847550D01*
X154482800Y-124847550D01*
X154324050Y-124688800D01*
X153694800Y-124685728D01*
X153570318Y-124697988D01*
X153450620Y-124734298D01*
X153437949Y-124741071D01*
X153434696Y-117725590D01*
X153450620Y-117734102D01*
X153570318Y-117770412D01*
X153694800Y-117782672D01*
X154324050Y-117779600D01*
X154482800Y-117620850D01*
X154482800Y-116306600D01*
X154462800Y-116306600D01*
X154462800Y-116052600D01*
X154482800Y-116052600D01*
X154482800Y-114738350D01*
X154736800Y-114738350D01*
X154736800Y-116052600D01*
X154756800Y-116052600D01*
X154756800Y-116306600D01*
X154736800Y-116306600D01*
X154736800Y-117620850D01*
X154895550Y-117779600D01*
X155524800Y-117782672D01*
X155649282Y-117770412D01*
X155768980Y-117734102D01*
X155879294Y-117675137D01*
X155975985Y-117595785D01*
X156055337Y-117499094D01*
X156114302Y-117388780D01*
X156150612Y-117269082D01*
X156162872Y-117144600D01*
X156161695Y-116884460D01*
X156203279Y-116984852D01*
X156389323Y-117263287D01*
X156626113Y-117500077D01*
X156904548Y-117686121D01*
X157213928Y-117814270D01*
X157542365Y-117879600D01*
X157877235Y-117879600D01*
X158205672Y-117814270D01*
X158515052Y-117686121D01*
X158793487Y-117500077D01*
X159030277Y-117263287D01*
X159216321Y-116984852D01*
X159344470Y-116675472D01*
X159409800Y-116347035D01*
X159409800Y-116012165D01*
X159344470Y-115683728D01*
X159216321Y-115374348D01*
X159030277Y-115095913D01*
X158793487Y-114859123D01*
X158515052Y-114673079D01*
X158227569Y-114554000D01*
X159410400Y-114554000D01*
X159410400Y-117779800D01*
X159412457Y-117802564D01*
X159419299Y-117826502D01*
X159430679Y-117848645D01*
X159446161Y-117868143D01*
X159465149Y-117884245D01*
X159486913Y-117896334D01*
X159510618Y-117903944D01*
X159535352Y-117906783D01*
X162684952Y-117957583D01*
X162711776Y-117955160D01*
X162735601Y-117947933D01*
X162757557Y-117936197D01*
X162776803Y-117920403D01*
X162792597Y-117901157D01*
X162804333Y-117879201D01*
X162811560Y-117855376D01*
X162814000Y-117830600D01*
X162814000Y-114579400D01*
X162811755Y-114555629D01*
X162804721Y-114531747D01*
X162793162Y-114509696D01*
X162777524Y-114490325D01*
X162758407Y-114474376D01*
X162736545Y-114462463D01*
X162712780Y-114455044D01*
X162688024Y-114452404D01*
X159538424Y-114427004D01*
X159512624Y-114429440D01*
X159488799Y-114436667D01*
X159466843Y-114448403D01*
X159447597Y-114464197D01*
X159431803Y-114483443D01*
X159420067Y-114505399D01*
X159412840Y-114529224D01*
X159410400Y-114554000D01*
X158227569Y-114554000D01*
X158205672Y-114544930D01*
X157877235Y-114479600D01*
X157542365Y-114479600D01*
X157213928Y-114544930D01*
X156904548Y-114673079D01*
X156626113Y-114859123D01*
X156389323Y-115095913D01*
X156203279Y-115374348D01*
X156161695Y-115474740D01*
X156162872Y-115214600D01*
X156150612Y-115090118D01*
X156114302Y-114970420D01*
X156055337Y-114860106D01*
X155975985Y-114763415D01*
X155879294Y-114684063D01*
X155768980Y-114625098D01*
X155649282Y-114588788D01*
X155524800Y-114576528D01*
X154895550Y-114579600D01*
X154736800Y-114738350D01*
X154482800Y-114738350D01*
X154324050Y-114579600D01*
X153694800Y-114576528D01*
X153570318Y-114588788D01*
X153450620Y-114625098D01*
X153433263Y-114634376D01*
X153429977Y-107549491D01*
X153476020Y-107574102D01*
X153595718Y-107610412D01*
X153720200Y-107622672D01*
X154349450Y-107619600D01*
X154508200Y-107460850D01*
X154508200Y-106146600D01*
X154488200Y-106146600D01*
X154488200Y-105892600D01*
X154508200Y-105892600D01*
X154508200Y-104578350D01*
X154762200Y-104578350D01*
X154762200Y-105892600D01*
X154782200Y-105892600D01*
X154782200Y-106146600D01*
X154762200Y-106146600D01*
X154762200Y-107460850D01*
X154920950Y-107619600D01*
X155550200Y-107622672D01*
X155674682Y-107610412D01*
X155794380Y-107574102D01*
X155904694Y-107515137D01*
X156001385Y-107435785D01*
X156080737Y-107339094D01*
X156139702Y-107228780D01*
X156176012Y-107109082D01*
X156188272Y-106984600D01*
X156187095Y-106724460D01*
X156228679Y-106824852D01*
X156414723Y-107103287D01*
X156651513Y-107340077D01*
X156929948Y-107526121D01*
X157239328Y-107654270D01*
X157567765Y-107719600D01*
X157902635Y-107719600D01*
X158231072Y-107654270D01*
X158540452Y-107526121D01*
X158818887Y-107340077D01*
X159055677Y-107103287D01*
X159241721Y-106824852D01*
X159369870Y-106515472D01*
X159410400Y-106311713D01*
X159410400Y-107619800D01*
X159412457Y-107642564D01*
X159419299Y-107666502D01*
X159430679Y-107688645D01*
X159446161Y-107708143D01*
X159465149Y-107724245D01*
X159486913Y-107736334D01*
X159510618Y-107743944D01*
X159535352Y-107746783D01*
X162684952Y-107797583D01*
X162711776Y-107795160D01*
X162735601Y-107787933D01*
X162757557Y-107776197D01*
X162776803Y-107760403D01*
X162792597Y-107741157D01*
X162804333Y-107719201D01*
X162811560Y-107695376D01*
X162814000Y-107670600D01*
X162814000Y-104419400D01*
X162811755Y-104395629D01*
X162804721Y-104371747D01*
X162793162Y-104349696D01*
X162777524Y-104330325D01*
X162758407Y-104314376D01*
X162736545Y-104302463D01*
X162712780Y-104295044D01*
X162688024Y-104292404D01*
X159538424Y-104267004D01*
X159512624Y-104269440D01*
X159488799Y-104276667D01*
X159466843Y-104288403D01*
X159447597Y-104304197D01*
X159431803Y-104323443D01*
X159420067Y-104345399D01*
X159412840Y-104369224D01*
X159410400Y-104394000D01*
X159410400Y-105727487D01*
X159369870Y-105523728D01*
X159241721Y-105214348D01*
X159055677Y-104935913D01*
X158818887Y-104699123D01*
X158540452Y-104513079D01*
X158231072Y-104384930D01*
X157902635Y-104319600D01*
X157567765Y-104319600D01*
X157239328Y-104384930D01*
X156929948Y-104513079D01*
X156651513Y-104699123D01*
X156414723Y-104935913D01*
X156228679Y-105214348D01*
X156187095Y-105314740D01*
X156188272Y-105054600D01*
X156176012Y-104930118D01*
X156139702Y-104810420D01*
X156080737Y-104700106D01*
X156001385Y-104603415D01*
X155904694Y-104524063D01*
X155794380Y-104465098D01*
X155674682Y-104428788D01*
X155550200Y-104416528D01*
X154920950Y-104419600D01*
X154762200Y-104578350D01*
X154508200Y-104578350D01*
X154349450Y-104419600D01*
X153720200Y-104416528D01*
X153595718Y-104428788D01*
X153476020Y-104465098D01*
X153428559Y-104490467D01*
X153425135Y-97107503D01*
X153476020Y-97134702D01*
X153595718Y-97171012D01*
X153720200Y-97183272D01*
X154349450Y-97180200D01*
X154508200Y-97021450D01*
X154508200Y-95707200D01*
X154488200Y-95707200D01*
X154488200Y-95453200D01*
X154508200Y-95453200D01*
X154508200Y-94138950D01*
X154762200Y-94138950D01*
X154762200Y-95453200D01*
X154782200Y-95453200D01*
X154782200Y-95707200D01*
X154762200Y-95707200D01*
X154762200Y-97021450D01*
X154920950Y-97180200D01*
X155550200Y-97183272D01*
X155674682Y-97171012D01*
X155794380Y-97134702D01*
X155904694Y-97075737D01*
X156001385Y-96996385D01*
X156080737Y-96899694D01*
X156139702Y-96789380D01*
X156176012Y-96669682D01*
X156188272Y-96545200D01*
X156187095Y-96285060D01*
X156228679Y-96385452D01*
X156414723Y-96663887D01*
X156651513Y-96900677D01*
X156929948Y-97086721D01*
X157239328Y-97214870D01*
X157567765Y-97280200D01*
X157902635Y-97280200D01*
X158231072Y-97214870D01*
X158540452Y-97086721D01*
X158818887Y-96900677D01*
X159055677Y-96663887D01*
X159241721Y-96385452D01*
X159369870Y-96076072D01*
X159435200Y-95747635D01*
X159435200Y-95412765D01*
X159369870Y-95084328D01*
X159241721Y-94774948D01*
X159055677Y-94496513D01*
X158818887Y-94259723D01*
X158540452Y-94073679D01*
X158231072Y-93945530D01*
X157902635Y-93880200D01*
X157567765Y-93880200D01*
X157239328Y-93945530D01*
X156929948Y-94073679D01*
X156651513Y-94259723D01*
X156414723Y-94496513D01*
X156228679Y-94774948D01*
X156187095Y-94875340D01*
X156188272Y-94615200D01*
X156176012Y-94490718D01*
X156139702Y-94371020D01*
X156080737Y-94260706D01*
X156001385Y-94164015D01*
X155904694Y-94084663D01*
X155794380Y-94025698D01*
X155674682Y-93989388D01*
X155550200Y-93977128D01*
X154920950Y-93980200D01*
X154762200Y-94138950D01*
X154508200Y-94138950D01*
X154349450Y-93980200D01*
X153720200Y-93977128D01*
X153595718Y-93989388D01*
X153476020Y-94025698D01*
X153423719Y-94053654D01*
X153423610Y-93818248D01*
X159490957Y-93818248D01*
X159490957Y-97044048D01*
X159493014Y-97066812D01*
X159499856Y-97090750D01*
X159511236Y-97112893D01*
X159526718Y-97132391D01*
X159545706Y-97148493D01*
X159567470Y-97160582D01*
X159591175Y-97168192D01*
X159615909Y-97171031D01*
X162765509Y-97221831D01*
X162792333Y-97219408D01*
X162816158Y-97212181D01*
X162838114Y-97200445D01*
X162857360Y-97184651D01*
X162873154Y-97165405D01*
X162884890Y-97143449D01*
X162892117Y-97119624D01*
X162894557Y-97094848D01*
X162894557Y-93843648D01*
X162892312Y-93819877D01*
X162885278Y-93795995D01*
X162873719Y-93773944D01*
X162858081Y-93754573D01*
X162838964Y-93738624D01*
X162817102Y-93726711D01*
X162793337Y-93719292D01*
X162768581Y-93716652D01*
X159618981Y-93691252D01*
X159593181Y-93693688D01*
X159569356Y-93700915D01*
X159547400Y-93712651D01*
X159528154Y-93728445D01*
X159512360Y-93747691D01*
X159500624Y-93769647D01*
X159493397Y-93793472D01*
X159490957Y-93818248D01*
X153423610Y-93818248D01*
X153420298Y-86676114D01*
X153519518Y-86706212D01*
X153644000Y-86718472D01*
X154273250Y-86715400D01*
X154432000Y-86556650D01*
X154432000Y-85242400D01*
X154412000Y-85242400D01*
X154412000Y-84988400D01*
X154432000Y-84988400D01*
X154432000Y-83674150D01*
X154273250Y-83515400D01*
X153644000Y-83512328D01*
X153519518Y-83524588D01*
X153418851Y-83555125D01*
X153416399Y-78268014D01*
X153478754Y-78384673D01*
G36*
X167410992Y-25178961D02*
G01*
X167333282Y-25155388D01*
X167208800Y-25143128D01*
X166579550Y-25146200D01*
X166420800Y-25304950D01*
X166420800Y-26619200D01*
X166440800Y-26619200D01*
X166440800Y-26873200D01*
X166420800Y-26873200D01*
X166420800Y-28187450D01*
X166579550Y-28346200D01*
X167208800Y-28349272D01*
X167333282Y-28337012D01*
X167410266Y-28313659D01*
X167408637Y-35345952D01*
X167307882Y-35315388D01*
X167183400Y-35303128D01*
X166554150Y-35306200D01*
X166395400Y-35464950D01*
X166395400Y-36779200D01*
X166415400Y-36779200D01*
X166415400Y-37033200D01*
X166395400Y-37033200D01*
X166395400Y-38347450D01*
X166554150Y-38506200D01*
X167183400Y-38509272D01*
X167307882Y-38497012D01*
X167407914Y-38466668D01*
X167406281Y-45513890D01*
X167402180Y-45511698D01*
X167282482Y-45475388D01*
X167158000Y-45463128D01*
X166528750Y-45466200D01*
X166370000Y-45624950D01*
X166370000Y-46939200D01*
X166390000Y-46939200D01*
X166390000Y-47193200D01*
X166370000Y-47193200D01*
X166370000Y-48507450D01*
X166528750Y-48666200D01*
X167158000Y-48669272D01*
X167282482Y-48657012D01*
X167402180Y-48620702D01*
X167405562Y-48618895D01*
X167403927Y-55672632D01*
X167402180Y-55671698D01*
X167282482Y-55635388D01*
X167158000Y-55623128D01*
X166528750Y-55626200D01*
X166370000Y-55784950D01*
X166370000Y-57099200D01*
X166390000Y-57099200D01*
X166390000Y-57353200D01*
X166370000Y-57353200D01*
X166370000Y-58667450D01*
X166528750Y-58826200D01*
X167158000Y-58829272D01*
X167282482Y-58817012D01*
X167402180Y-58780702D01*
X167403207Y-58780153D01*
X167401573Y-65831514D01*
X167282482Y-65795388D01*
X167158000Y-65783128D01*
X166528750Y-65786200D01*
X166370000Y-65944950D01*
X166370000Y-67259200D01*
X166390000Y-67259200D01*
X166390000Y-67513200D01*
X166370000Y-67513200D01*
X166370000Y-68827450D01*
X166528750Y-68986200D01*
X167158000Y-68989272D01*
X167282482Y-68977012D01*
X167400853Y-68941105D01*
X167397316Y-84208071D01*
X167279477Y-84031713D01*
X167042687Y-83794923D01*
X166764252Y-83608879D01*
X166454872Y-83480730D01*
X166126435Y-83415400D01*
X165791565Y-83415400D01*
X165573200Y-83458835D01*
X165573200Y-83299065D01*
X165538421Y-83124221D01*
X165470201Y-82959522D01*
X165371159Y-82811296D01*
X165245104Y-82685241D01*
X165096878Y-82586199D01*
X164932179Y-82517979D01*
X164757335Y-82483200D01*
X164579065Y-82483200D01*
X164404221Y-82517979D01*
X164239522Y-82586199D01*
X164179657Y-82626200D01*
X163185861Y-82626200D01*
X159219114Y-78659454D01*
X159195252Y-78630378D01*
X159079222Y-78535155D01*
X158946845Y-78464398D01*
X158900716Y-78450405D01*
X159081578Y-78249755D01*
X159156400Y-78124145D01*
X159231222Y-78249755D01*
X159426131Y-78465988D01*
X159659480Y-78640041D01*
X159922301Y-78765225D01*
X160069510Y-78809876D01*
X160299400Y-78688555D01*
X160299400Y-77495400D01*
X160553400Y-77495400D01*
X160553400Y-78688555D01*
X160783290Y-78809876D01*
X160930499Y-78765225D01*
X161193320Y-78640041D01*
X161426669Y-78465988D01*
X161621578Y-78249755D01*
X161696400Y-78124145D01*
X161771222Y-78249755D01*
X161966131Y-78465988D01*
X162199480Y-78640041D01*
X162462301Y-78765225D01*
X162609510Y-78809876D01*
X162839400Y-78688555D01*
X162839400Y-77495400D01*
X160553400Y-77495400D01*
X160299400Y-77495400D01*
X158013400Y-77495400D01*
X158013400Y-77515400D01*
X157759400Y-77515400D01*
X157759400Y-77495400D01*
X157739400Y-77495400D01*
X157739400Y-77241400D01*
X157759400Y-77241400D01*
X157759400Y-74955400D01*
X158013400Y-74955400D01*
X158013400Y-77241400D01*
X160299400Y-77241400D01*
X160299400Y-74955400D01*
X160553400Y-74955400D01*
X160553400Y-77241400D01*
X162839400Y-77241400D01*
X162839400Y-74955400D01*
X160553400Y-74955400D01*
X160299400Y-74955400D01*
X158013400Y-74955400D01*
X157759400Y-74955400D01*
X157739400Y-74955400D01*
X157739400Y-74701400D01*
X157759400Y-74701400D01*
X157759400Y-73508245D01*
X158013400Y-73508245D01*
X158013400Y-74701400D01*
X160299400Y-74701400D01*
X160299400Y-73508245D01*
X160553400Y-73508245D01*
X160553400Y-74701400D01*
X162839400Y-74701400D01*
X162839400Y-73508245D01*
X163093400Y-73508245D01*
X163093400Y-74701400D01*
X163113400Y-74701400D01*
X163113400Y-74955400D01*
X163093400Y-74955400D01*
X163093400Y-77241400D01*
X163113400Y-77241400D01*
X163113400Y-77495400D01*
X163093400Y-77495400D01*
X163093400Y-78688555D01*
X163323290Y-78809876D01*
X163470499Y-78765225D01*
X163733320Y-78640041D01*
X163966669Y-78465988D01*
X164161578Y-78249755D01*
X164231199Y-78132877D01*
X164265694Y-78197414D01*
X164451266Y-78423534D01*
X164677386Y-78609106D01*
X164935366Y-78746999D01*
X165215289Y-78831913D01*
X165433450Y-78853400D01*
X165579350Y-78853400D01*
X165797511Y-78831913D01*
X166077434Y-78746999D01*
X166335414Y-78609106D01*
X166561534Y-78423534D01*
X166747106Y-78197414D01*
X166884999Y-77939434D01*
X166969913Y-77659511D01*
X166998585Y-77368400D01*
X166969913Y-77077289D01*
X166884999Y-76797366D01*
X166747106Y-76539386D01*
X166561534Y-76313266D01*
X166531713Y-76288793D01*
X166600580Y-76267902D01*
X166710894Y-76208937D01*
X166807585Y-76129585D01*
X166886937Y-76032894D01*
X166945902Y-75922580D01*
X166982212Y-75802882D01*
X166994472Y-75678400D01*
X166994472Y-73978400D01*
X166982212Y-73853918D01*
X166945902Y-73734220D01*
X166886937Y-73623906D01*
X166807585Y-73527215D01*
X166710894Y-73447863D01*
X166600580Y-73388898D01*
X166480882Y-73352588D01*
X166356400Y-73340328D01*
X164656400Y-73340328D01*
X164531918Y-73352588D01*
X164412220Y-73388898D01*
X164301906Y-73447863D01*
X164205215Y-73527215D01*
X164125863Y-73623906D01*
X164066898Y-73734220D01*
X164042434Y-73814866D01*
X163966669Y-73730812D01*
X163733320Y-73556759D01*
X163470499Y-73431575D01*
X163323290Y-73386924D01*
X163093400Y-73508245D01*
X162839400Y-73508245D01*
X162609510Y-73386924D01*
X162462301Y-73431575D01*
X162199480Y-73556759D01*
X161966131Y-73730812D01*
X161771222Y-73947045D01*
X161696400Y-74072655D01*
X161621578Y-73947045D01*
X161426669Y-73730812D01*
X161193320Y-73556759D01*
X160930499Y-73431575D01*
X160783290Y-73386924D01*
X160553400Y-73508245D01*
X160299400Y-73508245D01*
X160069510Y-73386924D01*
X159922301Y-73431575D01*
X159659480Y-73556759D01*
X159426131Y-73730812D01*
X159231222Y-73947045D01*
X159156400Y-74072655D01*
X159081578Y-73947045D01*
X158886669Y-73730812D01*
X158653320Y-73556759D01*
X158390499Y-73431575D01*
X158243290Y-73386924D01*
X158013400Y-73508245D01*
X157759400Y-73508245D01*
X157529510Y-73386924D01*
X157382301Y-73431575D01*
X157119480Y-73556759D01*
X156886131Y-73730812D01*
X156691222Y-73947045D01*
X156621601Y-74063923D01*
X156587106Y-73999386D01*
X156401534Y-73773266D01*
X156175414Y-73587694D01*
X155917434Y-73449801D01*
X155637511Y-73364887D01*
X155419350Y-73343400D01*
X155273450Y-73343400D01*
X155187809Y-73351835D01*
X155267078Y-73319001D01*
X155415304Y-73219959D01*
X155541359Y-73093904D01*
X155640401Y-72945678D01*
X155708621Y-72780979D01*
X155743400Y-72606135D01*
X155743400Y-72427865D01*
X155708621Y-72253021D01*
X155640401Y-72088322D01*
X155541359Y-71940096D01*
X155415304Y-71814041D01*
X155267078Y-71714999D01*
X155102379Y-71646779D01*
X154927535Y-71612000D01*
X154749265Y-71612000D01*
X154574421Y-71646779D01*
X154409722Y-71714999D01*
X154261496Y-71814041D01*
X154135441Y-71940096D01*
X154036399Y-72088322D01*
X153968179Y-72253021D01*
X153954132Y-72323637D01*
X153603048Y-72674722D01*
X153573978Y-72698579D01*
X153550121Y-72727649D01*
X153550120Y-72727650D01*
X153478754Y-72814609D01*
X153413927Y-72935894D01*
X153411779Y-68304146D01*
X153522523Y-68469887D01*
X153759313Y-68706677D01*
X154037748Y-68892721D01*
X154347128Y-69020870D01*
X154675565Y-69086200D01*
X155010435Y-69086200D01*
X155338872Y-69020870D01*
X155648252Y-68892721D01*
X155926687Y-68706677D01*
X156163477Y-68469887D01*
X156349521Y-68191452D01*
X156477670Y-67882072D01*
X156543000Y-67553635D01*
X156543000Y-67218765D01*
X156477670Y-66890328D01*
X156349521Y-66580948D01*
X156163477Y-66302513D01*
X155926687Y-66065723D01*
X155648252Y-65879679D01*
X155338872Y-65751530D01*
X155010435Y-65686200D01*
X154675565Y-65686200D01*
X154347128Y-65751530D01*
X154285999Y-65776850D01*
X154285999Y-65684400D01*
X158013400Y-65684400D01*
X158013400Y-68910200D01*
X158015457Y-68932964D01*
X158022299Y-68956902D01*
X158033679Y-68979045D01*
X158049161Y-68998543D01*
X158068149Y-69014645D01*
X158089913Y-69026734D01*
X158113618Y-69034344D01*
X158138352Y-69037183D01*
X161287952Y-69087983D01*
X161314776Y-69085560D01*
X161338601Y-69078333D01*
X161360557Y-69066597D01*
X161379803Y-69050803D01*
X161395597Y-69031557D01*
X161407333Y-69009601D01*
X161414560Y-68985776D01*
X161417000Y-68961000D01*
X161417000Y-67218765D01*
X161443000Y-67218765D01*
X161443000Y-67553635D01*
X161508330Y-67882072D01*
X161636479Y-68191452D01*
X161822523Y-68469887D01*
X162059313Y-68706677D01*
X162337748Y-68892721D01*
X162647128Y-69020870D01*
X162975565Y-69086200D01*
X163310435Y-69086200D01*
X163638872Y-69020870D01*
X163948252Y-68892721D01*
X164226687Y-68706677D01*
X164463477Y-68469887D01*
X164649521Y-68191452D01*
X164691105Y-68091060D01*
X164689928Y-68351200D01*
X164702188Y-68475682D01*
X164738498Y-68595380D01*
X164797463Y-68705694D01*
X164876815Y-68802385D01*
X164973506Y-68881737D01*
X165083820Y-68940702D01*
X165203518Y-68977012D01*
X165328000Y-68989272D01*
X165957250Y-68986200D01*
X166116000Y-68827450D01*
X166116000Y-67513200D01*
X166096000Y-67513200D01*
X166096000Y-67259200D01*
X166116000Y-67259200D01*
X166116000Y-65944950D01*
X165957250Y-65786200D01*
X165328000Y-65783128D01*
X165203518Y-65795388D01*
X165083820Y-65831698D01*
X164973506Y-65890663D01*
X164876815Y-65970015D01*
X164797463Y-66066706D01*
X164738498Y-66177020D01*
X164702188Y-66296718D01*
X164689928Y-66421200D01*
X164691105Y-66681340D01*
X164649521Y-66580948D01*
X164463477Y-66302513D01*
X164226687Y-66065723D01*
X163948252Y-65879679D01*
X163638872Y-65751530D01*
X163310435Y-65686200D01*
X162975565Y-65686200D01*
X162647128Y-65751530D01*
X162337748Y-65879679D01*
X162059313Y-66065723D01*
X161822523Y-66302513D01*
X161636479Y-66580948D01*
X161508330Y-66890328D01*
X161443000Y-67218765D01*
X161417000Y-67218765D01*
X161417000Y-65709800D01*
X161414755Y-65686029D01*
X161407721Y-65662147D01*
X161396162Y-65640096D01*
X161380524Y-65620725D01*
X161361407Y-65604776D01*
X161339545Y-65592863D01*
X161315780Y-65585444D01*
X161291024Y-65582804D01*
X158141424Y-65557404D01*
X158115624Y-65559840D01*
X158091799Y-65567067D01*
X158069843Y-65578803D01*
X158050597Y-65594597D01*
X158034803Y-65613843D01*
X158023067Y-65635799D01*
X158015840Y-65659624D01*
X158013400Y-65684400D01*
X154285999Y-65684400D01*
X154285999Y-58835550D01*
X154347128Y-58860870D01*
X154675565Y-58926200D01*
X155010435Y-58926200D01*
X155338872Y-58860870D01*
X155648252Y-58732721D01*
X155926687Y-58546677D01*
X156163477Y-58309887D01*
X156349521Y-58031452D01*
X156477670Y-57722072D01*
X156543000Y-57393635D01*
X156543000Y-57058765D01*
X156477670Y-56730328D01*
X156349521Y-56420948D01*
X156163477Y-56142513D01*
X155926687Y-55905723D01*
X155648252Y-55719679D01*
X155338872Y-55591530D01*
X155010435Y-55526200D01*
X154675565Y-55526200D01*
X154347128Y-55591530D01*
X154285999Y-55616850D01*
X154285999Y-55524400D01*
X158038800Y-55524400D01*
X158038800Y-58750200D01*
X158040857Y-58772964D01*
X158047699Y-58796902D01*
X158059079Y-58819045D01*
X158074561Y-58838543D01*
X158093549Y-58854645D01*
X158115313Y-58866734D01*
X158139018Y-58874344D01*
X158163752Y-58877183D01*
X161313352Y-58927983D01*
X161340176Y-58925560D01*
X161364001Y-58918333D01*
X161385957Y-58906597D01*
X161405203Y-58890803D01*
X161420997Y-58871557D01*
X161432733Y-58849601D01*
X161439960Y-58825776D01*
X161442400Y-58801000D01*
X161442400Y-57058765D01*
X161443000Y-57058765D01*
X161443000Y-57393635D01*
X161508330Y-57722072D01*
X161636479Y-58031452D01*
X161822523Y-58309887D01*
X162059313Y-58546677D01*
X162337748Y-58732721D01*
X162647128Y-58860870D01*
X162975565Y-58926200D01*
X163310435Y-58926200D01*
X163638872Y-58860870D01*
X163948252Y-58732721D01*
X164226687Y-58546677D01*
X164463477Y-58309887D01*
X164649521Y-58031452D01*
X164691105Y-57931060D01*
X164689928Y-58191200D01*
X164702188Y-58315682D01*
X164738498Y-58435380D01*
X164797463Y-58545694D01*
X164876815Y-58642385D01*
X164973506Y-58721737D01*
X165083820Y-58780702D01*
X165203518Y-58817012D01*
X165328000Y-58829272D01*
X165957250Y-58826200D01*
X166116000Y-58667450D01*
X166116000Y-57353200D01*
X166096000Y-57353200D01*
X166096000Y-57099200D01*
X166116000Y-57099200D01*
X166116000Y-55784950D01*
X165957250Y-55626200D01*
X165328000Y-55623128D01*
X165203518Y-55635388D01*
X165083820Y-55671698D01*
X164973506Y-55730663D01*
X164876815Y-55810015D01*
X164797463Y-55906706D01*
X164738498Y-56017020D01*
X164702188Y-56136718D01*
X164689928Y-56261200D01*
X164691105Y-56521340D01*
X164649521Y-56420948D01*
X164463477Y-56142513D01*
X164226687Y-55905723D01*
X163948252Y-55719679D01*
X163638872Y-55591530D01*
X163310435Y-55526200D01*
X162975565Y-55526200D01*
X162647128Y-55591530D01*
X162337748Y-55719679D01*
X162059313Y-55905723D01*
X161822523Y-56142513D01*
X161636479Y-56420948D01*
X161508330Y-56730328D01*
X161443000Y-57058765D01*
X161442400Y-57058765D01*
X161442400Y-55549800D01*
X161440155Y-55526029D01*
X161433121Y-55502147D01*
X161421562Y-55480096D01*
X161405924Y-55460725D01*
X161386807Y-55444776D01*
X161364945Y-55432863D01*
X161341180Y-55425444D01*
X161316424Y-55422804D01*
X158166824Y-55397404D01*
X158141024Y-55399840D01*
X158117199Y-55407067D01*
X158095243Y-55418803D01*
X158075997Y-55434597D01*
X158060203Y-55453843D01*
X158048467Y-55475799D01*
X158041240Y-55499624D01*
X158038800Y-55524400D01*
X154285999Y-55524400D01*
X154285999Y-48675550D01*
X154347128Y-48700870D01*
X154675565Y-48766200D01*
X155010435Y-48766200D01*
X155338872Y-48700870D01*
X155648252Y-48572721D01*
X155926687Y-48386677D01*
X156163477Y-48149887D01*
X156349521Y-47871452D01*
X156477670Y-47562072D01*
X156543000Y-47233635D01*
X156543000Y-46898765D01*
X156477670Y-46570328D01*
X156349521Y-46260948D01*
X156163477Y-45982513D01*
X155926687Y-45745723D01*
X155648252Y-45559679D01*
X155528719Y-45510167D01*
X155649086Y-45389800D01*
X158064200Y-45389800D01*
X158064200Y-48615600D01*
X158066257Y-48638364D01*
X158073099Y-48662302D01*
X158084479Y-48684445D01*
X158099961Y-48703943D01*
X158118949Y-48720045D01*
X158140713Y-48732134D01*
X158164418Y-48739744D01*
X158189152Y-48742583D01*
X161338752Y-48793383D01*
X161365576Y-48790960D01*
X161389401Y-48783733D01*
X161411357Y-48771997D01*
X161430603Y-48756203D01*
X161446397Y-48736957D01*
X161458133Y-48715001D01*
X161465360Y-48691176D01*
X161467800Y-48666400D01*
X161467800Y-47358313D01*
X161508330Y-47562072D01*
X161636479Y-47871452D01*
X161822523Y-48149887D01*
X162059313Y-48386677D01*
X162337748Y-48572721D01*
X162647128Y-48700870D01*
X162975565Y-48766200D01*
X163310435Y-48766200D01*
X163638872Y-48700870D01*
X163948252Y-48572721D01*
X164226687Y-48386677D01*
X164463477Y-48149887D01*
X164649521Y-47871452D01*
X164691105Y-47771060D01*
X164689928Y-48031200D01*
X164702188Y-48155682D01*
X164738498Y-48275380D01*
X164797463Y-48385694D01*
X164876815Y-48482385D01*
X164973506Y-48561737D01*
X165083820Y-48620702D01*
X165203518Y-48657012D01*
X165328000Y-48669272D01*
X165957250Y-48666200D01*
X166116000Y-48507450D01*
X166116000Y-47193200D01*
X166096000Y-47193200D01*
X166096000Y-46939200D01*
X166116000Y-46939200D01*
X166116000Y-45624950D01*
X165957250Y-45466200D01*
X165328000Y-45463128D01*
X165203518Y-45475388D01*
X165083820Y-45511698D01*
X164973506Y-45570663D01*
X164876815Y-45650015D01*
X164797463Y-45746706D01*
X164738498Y-45857020D01*
X164702188Y-45976718D01*
X164689928Y-46101200D01*
X164691105Y-46361340D01*
X164649521Y-46260948D01*
X164463477Y-45982513D01*
X164226687Y-45745723D01*
X163948252Y-45559679D01*
X163638872Y-45431530D01*
X163310435Y-45366200D01*
X162975565Y-45366200D01*
X162647128Y-45431530D01*
X162337748Y-45559679D01*
X162059313Y-45745723D01*
X161822523Y-45982513D01*
X161636479Y-46260948D01*
X161508330Y-46570328D01*
X161467800Y-46774087D01*
X161467800Y-45415200D01*
X161465555Y-45391429D01*
X161458521Y-45367547D01*
X161446962Y-45345496D01*
X161431324Y-45326125D01*
X161412207Y-45310176D01*
X161390345Y-45298263D01*
X161366580Y-45290844D01*
X161341824Y-45288204D01*
X158192224Y-45262804D01*
X158166424Y-45265240D01*
X158142599Y-45272467D01*
X158120643Y-45284203D01*
X158101397Y-45299997D01*
X158085603Y-45319243D01*
X158073867Y-45341199D01*
X158066640Y-45365024D01*
X158064200Y-45389800D01*
X155649086Y-45389800D01*
X156349791Y-44689095D01*
X156376431Y-44667232D01*
X156398296Y-44640590D01*
X156398302Y-44640584D01*
X156398306Y-44640579D01*
X157435589Y-43603297D01*
X163427200Y-43603297D01*
X163427200Y-43772703D01*
X163460249Y-43938853D01*
X163525078Y-44095363D01*
X163619195Y-44236218D01*
X163738982Y-44356005D01*
X163879837Y-44450122D01*
X164036347Y-44514951D01*
X164202497Y-44548000D01*
X164371903Y-44548000D01*
X164538053Y-44514951D01*
X164694563Y-44450122D01*
X164835418Y-44356005D01*
X164955205Y-44236218D01*
X165049322Y-44095363D01*
X165114151Y-43938853D01*
X165147200Y-43772703D01*
X165147200Y-43603297D01*
X165114151Y-43437147D01*
X165049322Y-43280637D01*
X164955205Y-43139782D01*
X164835418Y-43019995D01*
X164694563Y-42925878D01*
X164538053Y-42861049D01*
X164371903Y-42828000D01*
X164202497Y-42828000D01*
X164036347Y-42861049D01*
X163879837Y-42925878D01*
X163738982Y-43019995D01*
X163619195Y-43139782D01*
X163525078Y-43280637D01*
X163460249Y-43437147D01*
X163427200Y-43603297D01*
X157435589Y-43603297D01*
X158089692Y-42949195D01*
X158116332Y-42927332D01*
X158138195Y-42900692D01*
X158138203Y-42900684D01*
X158138212Y-42900673D01*
X160208386Y-40830500D01*
X163759221Y-40830500D01*
X163854437Y-40894122D01*
X164010947Y-40958951D01*
X164177097Y-40992000D01*
X164346503Y-40992000D01*
X164512653Y-40958951D01*
X164669163Y-40894122D01*
X164810018Y-40800005D01*
X164929805Y-40680218D01*
X165023922Y-40539363D01*
X165088751Y-40382853D01*
X165121800Y-40216703D01*
X165121800Y-40047297D01*
X165088751Y-39881147D01*
X165023922Y-39724637D01*
X164929805Y-39583782D01*
X164810018Y-39463995D01*
X164669163Y-39369878D01*
X164512653Y-39305049D01*
X164346503Y-39272000D01*
X164177097Y-39272000D01*
X164010947Y-39305049D01*
X163854437Y-39369878D01*
X163759221Y-39433500D01*
X159953356Y-39433500D01*
X159919058Y-39430122D01*
X159884760Y-39433500D01*
X159884749Y-39433500D01*
X159782128Y-39443607D01*
X159650461Y-39483548D01*
X159650459Y-39483549D01*
X159529114Y-39548409D01*
X159449404Y-39613826D01*
X159449401Y-39613829D01*
X159422755Y-39635697D01*
X159400887Y-39662343D01*
X157330702Y-41732529D01*
X157045757Y-41732529D01*
X156398892Y-41085665D01*
X156376551Y-40973347D01*
X156311722Y-40816837D01*
X156217605Y-40675982D01*
X156097818Y-40556195D01*
X155956963Y-40462078D01*
X155800453Y-40397249D01*
X155634303Y-40364200D01*
X155464897Y-40364200D01*
X155298747Y-40397249D01*
X155142237Y-40462078D01*
X155001382Y-40556195D01*
X154881595Y-40675982D01*
X154787478Y-40816837D01*
X154722649Y-40973347D01*
X154689600Y-41139497D01*
X154689600Y-41308903D01*
X154722649Y-41475053D01*
X154787478Y-41631563D01*
X154881595Y-41772418D01*
X155001382Y-41892205D01*
X155142237Y-41986322D01*
X155298747Y-42051151D01*
X155411065Y-42073492D01*
X156200401Y-42862829D01*
X156120337Y-42942893D01*
X156065205Y-42860382D01*
X155945418Y-42740595D01*
X155804563Y-42646478D01*
X155648053Y-42581649D01*
X155481903Y-42548600D01*
X155312497Y-42548600D01*
X155146347Y-42581649D01*
X154989837Y-42646478D01*
X154848982Y-42740595D01*
X154729195Y-42860382D01*
X154635078Y-43001237D01*
X154570249Y-43157747D01*
X154537200Y-43323897D01*
X154537200Y-43493303D01*
X154570249Y-43659453D01*
X154635078Y-43815963D01*
X154729195Y-43956818D01*
X154848982Y-44076605D01*
X154931493Y-44131737D01*
X153401279Y-45661952D01*
X153397617Y-37764938D01*
X153547923Y-37989887D01*
X153784713Y-38226677D01*
X154063148Y-38412721D01*
X154372528Y-38540870D01*
X154700965Y-38606200D01*
X155035835Y-38606200D01*
X155364272Y-38540870D01*
X155673652Y-38412721D01*
X155952087Y-38226677D01*
X156188877Y-37989887D01*
X156374921Y-37711452D01*
X156503070Y-37402072D01*
X156568400Y-37073635D01*
X156568400Y-36738765D01*
X156503070Y-36410328D01*
X156374921Y-36100948D01*
X156188877Y-35822513D01*
X155952087Y-35585723D01*
X155673652Y-35399679D01*
X155364272Y-35271530D01*
X155282176Y-35255200D01*
X158038800Y-35255200D01*
X158038800Y-38481000D01*
X158040857Y-38503764D01*
X158047699Y-38527702D01*
X158059079Y-38549845D01*
X158074561Y-38569343D01*
X158093549Y-38585445D01*
X158115313Y-38597534D01*
X158139018Y-38605144D01*
X158163752Y-38607983D01*
X161313352Y-38658783D01*
X161340176Y-38656360D01*
X161364001Y-38649133D01*
X161385957Y-38637397D01*
X161405203Y-38621603D01*
X161420997Y-38602357D01*
X161432733Y-38580401D01*
X161439960Y-38556576D01*
X161442400Y-38531800D01*
X161442400Y-36738765D01*
X161468400Y-36738765D01*
X161468400Y-37073635D01*
X161533730Y-37402072D01*
X161661879Y-37711452D01*
X161847923Y-37989887D01*
X162084713Y-38226677D01*
X162363148Y-38412721D01*
X162672528Y-38540870D01*
X163000965Y-38606200D01*
X163335835Y-38606200D01*
X163664272Y-38540870D01*
X163973652Y-38412721D01*
X164252087Y-38226677D01*
X164488877Y-37989887D01*
X164674921Y-37711452D01*
X164716505Y-37611060D01*
X164715328Y-37871200D01*
X164727588Y-37995682D01*
X164763898Y-38115380D01*
X164822863Y-38225694D01*
X164902215Y-38322385D01*
X164998906Y-38401737D01*
X165109220Y-38460702D01*
X165228918Y-38497012D01*
X165353400Y-38509272D01*
X165982650Y-38506200D01*
X166141400Y-38347450D01*
X166141400Y-37033200D01*
X166121400Y-37033200D01*
X166121400Y-36779200D01*
X166141400Y-36779200D01*
X166141400Y-35464950D01*
X165982650Y-35306200D01*
X165353400Y-35303128D01*
X165228918Y-35315388D01*
X165109220Y-35351698D01*
X164998906Y-35410663D01*
X164902215Y-35490015D01*
X164822863Y-35586706D01*
X164763898Y-35697020D01*
X164727588Y-35816718D01*
X164715328Y-35941200D01*
X164716505Y-36201340D01*
X164674921Y-36100948D01*
X164488877Y-35822513D01*
X164252087Y-35585723D01*
X163973652Y-35399679D01*
X163664272Y-35271530D01*
X163335835Y-35206200D01*
X163000965Y-35206200D01*
X162672528Y-35271530D01*
X162363148Y-35399679D01*
X162084713Y-35585723D01*
X161847923Y-35822513D01*
X161661879Y-36100948D01*
X161533730Y-36410328D01*
X161468400Y-36738765D01*
X161442400Y-36738765D01*
X161442400Y-35280600D01*
X161440155Y-35256829D01*
X161433121Y-35232947D01*
X161421562Y-35210896D01*
X161405924Y-35191525D01*
X161386807Y-35175576D01*
X161364945Y-35163663D01*
X161341180Y-35156244D01*
X161316424Y-35153604D01*
X158166824Y-35128204D01*
X158141024Y-35130640D01*
X158117199Y-35137867D01*
X158095243Y-35149603D01*
X158075997Y-35165397D01*
X158060203Y-35184643D01*
X158048467Y-35206599D01*
X158041240Y-35230424D01*
X158038800Y-35255200D01*
X155282176Y-35255200D01*
X155035835Y-35206200D01*
X154700965Y-35206200D01*
X154372528Y-35271530D01*
X154063148Y-35399679D01*
X153784713Y-35585723D01*
X153547923Y-35822513D01*
X153396821Y-36048653D01*
X153392885Y-27559842D01*
X153573323Y-27829887D01*
X153810113Y-28066677D01*
X154088548Y-28252721D01*
X154397928Y-28380870D01*
X154726365Y-28446200D01*
X155061235Y-28446200D01*
X155389672Y-28380870D01*
X155699052Y-28252721D01*
X155977487Y-28066677D01*
X156214277Y-27829887D01*
X156400321Y-27551452D01*
X156528470Y-27242072D01*
X156593800Y-26913635D01*
X156593800Y-26578765D01*
X156528470Y-26250328D01*
X156400321Y-25940948D01*
X156214277Y-25662513D01*
X155977487Y-25425723D01*
X155699052Y-25239679D01*
X155411569Y-25120600D01*
X158013400Y-25120600D01*
X158013400Y-28346400D01*
X158015457Y-28369164D01*
X158022299Y-28393102D01*
X158033679Y-28415245D01*
X158049161Y-28434743D01*
X158068149Y-28450845D01*
X158089913Y-28462934D01*
X158113618Y-28470544D01*
X158138352Y-28473383D01*
X161287952Y-28524183D01*
X161314776Y-28521760D01*
X161338601Y-28514533D01*
X161360557Y-28502797D01*
X161379803Y-28487003D01*
X161395597Y-28467757D01*
X161407333Y-28445801D01*
X161414560Y-28421976D01*
X161417000Y-28397200D01*
X161417000Y-26578765D01*
X161493800Y-26578765D01*
X161493800Y-26913635D01*
X161559130Y-27242072D01*
X161687279Y-27551452D01*
X161873323Y-27829887D01*
X162110113Y-28066677D01*
X162388548Y-28252721D01*
X162697928Y-28380870D01*
X163026365Y-28446200D01*
X163361235Y-28446200D01*
X163689672Y-28380870D01*
X163999052Y-28252721D01*
X164277487Y-28066677D01*
X164514277Y-27829887D01*
X164700321Y-27551452D01*
X164741905Y-27451060D01*
X164740728Y-27711200D01*
X164752988Y-27835682D01*
X164789298Y-27955380D01*
X164848263Y-28065694D01*
X164927615Y-28162385D01*
X165024306Y-28241737D01*
X165134620Y-28300702D01*
X165254318Y-28337012D01*
X165378800Y-28349272D01*
X166008050Y-28346200D01*
X166166800Y-28187450D01*
X166166800Y-26873200D01*
X166146800Y-26873200D01*
X166146800Y-26619200D01*
X166166800Y-26619200D01*
X166166800Y-25304950D01*
X166008050Y-25146200D01*
X165378800Y-25143128D01*
X165254318Y-25155388D01*
X165134620Y-25191698D01*
X165024306Y-25250663D01*
X164927615Y-25330015D01*
X164848263Y-25426706D01*
X164789298Y-25537020D01*
X164752988Y-25656718D01*
X164740728Y-25781200D01*
X164741905Y-26041340D01*
X164700321Y-25940948D01*
X164514277Y-25662513D01*
X164277487Y-25425723D01*
X163999052Y-25239679D01*
X163689672Y-25111530D01*
X163361235Y-25046200D01*
X163026365Y-25046200D01*
X162697928Y-25111530D01*
X162388548Y-25239679D01*
X162110113Y-25425723D01*
X161873323Y-25662513D01*
X161687279Y-25940948D01*
X161559130Y-26250328D01*
X161493800Y-26578765D01*
X161417000Y-26578765D01*
X161417000Y-25146000D01*
X161414755Y-25122229D01*
X161407721Y-25098347D01*
X161396162Y-25076296D01*
X161380524Y-25056925D01*
X161361407Y-25040976D01*
X161339545Y-25029063D01*
X161315780Y-25021644D01*
X161291024Y-25019004D01*
X158141424Y-24993604D01*
X158115624Y-24996040D01*
X158091799Y-25003267D01*
X158069843Y-25015003D01*
X158050597Y-25030797D01*
X158034803Y-25050043D01*
X158023067Y-25071999D01*
X158015840Y-25095824D01*
X158013400Y-25120600D01*
X155411569Y-25120600D01*
X155389672Y-25111530D01*
X155061235Y-25046200D01*
X154726365Y-25046200D01*
X154397928Y-25111530D01*
X154088548Y-25239679D01*
X153810113Y-25425723D01*
X153573323Y-25662513D01*
X153392131Y-25933687D01*
X153390470Y-22351600D01*
X167411648Y-22351600D01*
X167410992Y-25178961D01*
X167410992Y-25178961D01*
G37*
X167410992Y-25178961D02*
X167333282Y-25155388D01*
X167208800Y-25143128D01*
X166579550Y-25146200D01*
X166420800Y-25304950D01*
X166420800Y-26619200D01*
X166440800Y-26619200D01*
X166440800Y-26873200D01*
X166420800Y-26873200D01*
X166420800Y-28187450D01*
X166579550Y-28346200D01*
X167208800Y-28349272D01*
X167333282Y-28337012D01*
X167410266Y-28313659D01*
X167408637Y-35345952D01*
X167307882Y-35315388D01*
X167183400Y-35303128D01*
X166554150Y-35306200D01*
X166395400Y-35464950D01*
X166395400Y-36779200D01*
X166415400Y-36779200D01*
X166415400Y-37033200D01*
X166395400Y-37033200D01*
X166395400Y-38347450D01*
X166554150Y-38506200D01*
X167183400Y-38509272D01*
X167307882Y-38497012D01*
X167407914Y-38466668D01*
X167406281Y-45513890D01*
X167402180Y-45511698D01*
X167282482Y-45475388D01*
X167158000Y-45463128D01*
X166528750Y-45466200D01*
X166370000Y-45624950D01*
X166370000Y-46939200D01*
X166390000Y-46939200D01*
X166390000Y-47193200D01*
X166370000Y-47193200D01*
X166370000Y-48507450D01*
X166528750Y-48666200D01*
X167158000Y-48669272D01*
X167282482Y-48657012D01*
X167402180Y-48620702D01*
X167405562Y-48618895D01*
X167403927Y-55672632D01*
X167402180Y-55671698D01*
X167282482Y-55635388D01*
X167158000Y-55623128D01*
X166528750Y-55626200D01*
X166370000Y-55784950D01*
X166370000Y-57099200D01*
X166390000Y-57099200D01*
X166390000Y-57353200D01*
X166370000Y-57353200D01*
X166370000Y-58667450D01*
X166528750Y-58826200D01*
X167158000Y-58829272D01*
X167282482Y-58817012D01*
X167402180Y-58780702D01*
X167403207Y-58780153D01*
X167401573Y-65831514D01*
X167282482Y-65795388D01*
X167158000Y-65783128D01*
X166528750Y-65786200D01*
X166370000Y-65944950D01*
X166370000Y-67259200D01*
X166390000Y-67259200D01*
X166390000Y-67513200D01*
X166370000Y-67513200D01*
X166370000Y-68827450D01*
X166528750Y-68986200D01*
X167158000Y-68989272D01*
X167282482Y-68977012D01*
X167400853Y-68941105D01*
X167397316Y-84208071D01*
X167279477Y-84031713D01*
X167042687Y-83794923D01*
X166764252Y-83608879D01*
X166454872Y-83480730D01*
X166126435Y-83415400D01*
X165791565Y-83415400D01*
X165573200Y-83458835D01*
X165573200Y-83299065D01*
X165538421Y-83124221D01*
X165470201Y-82959522D01*
X165371159Y-82811296D01*
X165245104Y-82685241D01*
X165096878Y-82586199D01*
X164932179Y-82517979D01*
X164757335Y-82483200D01*
X164579065Y-82483200D01*
X164404221Y-82517979D01*
X164239522Y-82586199D01*
X164179657Y-82626200D01*
X163185861Y-82626200D01*
X159219114Y-78659454D01*
X159195252Y-78630378D01*
X159079222Y-78535155D01*
X158946845Y-78464398D01*
X158900716Y-78450405D01*
X159081578Y-78249755D01*
X159156400Y-78124145D01*
X159231222Y-78249755D01*
X159426131Y-78465988D01*
X159659480Y-78640041D01*
X159922301Y-78765225D01*
X160069510Y-78809876D01*
X160299400Y-78688555D01*
X160299400Y-77495400D01*
X160553400Y-77495400D01*
X160553400Y-78688555D01*
X160783290Y-78809876D01*
X160930499Y-78765225D01*
X161193320Y-78640041D01*
X161426669Y-78465988D01*
X161621578Y-78249755D01*
X161696400Y-78124145D01*
X161771222Y-78249755D01*
X161966131Y-78465988D01*
X162199480Y-78640041D01*
X162462301Y-78765225D01*
X162609510Y-78809876D01*
X162839400Y-78688555D01*
X162839400Y-77495400D01*
X160553400Y-77495400D01*
X160299400Y-77495400D01*
X158013400Y-77495400D01*
X158013400Y-77515400D01*
X157759400Y-77515400D01*
X157759400Y-77495400D01*
X157739400Y-77495400D01*
X157739400Y-77241400D01*
X157759400Y-77241400D01*
X157759400Y-74955400D01*
X158013400Y-74955400D01*
X158013400Y-77241400D01*
X160299400Y-77241400D01*
X160299400Y-74955400D01*
X160553400Y-74955400D01*
X160553400Y-77241400D01*
X162839400Y-77241400D01*
X162839400Y-74955400D01*
X160553400Y-74955400D01*
X160299400Y-74955400D01*
X158013400Y-74955400D01*
X157759400Y-74955400D01*
X157739400Y-74955400D01*
X157739400Y-74701400D01*
X157759400Y-74701400D01*
X157759400Y-73508245D01*
X158013400Y-73508245D01*
X158013400Y-74701400D01*
X160299400Y-74701400D01*
X160299400Y-73508245D01*
X160553400Y-73508245D01*
X160553400Y-74701400D01*
X162839400Y-74701400D01*
X162839400Y-73508245D01*
X163093400Y-73508245D01*
X163093400Y-74701400D01*
X163113400Y-74701400D01*
X163113400Y-74955400D01*
X163093400Y-74955400D01*
X163093400Y-77241400D01*
X163113400Y-77241400D01*
X163113400Y-77495400D01*
X163093400Y-77495400D01*
X163093400Y-78688555D01*
X163323290Y-78809876D01*
X163470499Y-78765225D01*
X163733320Y-78640041D01*
X163966669Y-78465988D01*
X164161578Y-78249755D01*
X164231199Y-78132877D01*
X164265694Y-78197414D01*
X164451266Y-78423534D01*
X164677386Y-78609106D01*
X164935366Y-78746999D01*
X165215289Y-78831913D01*
X165433450Y-78853400D01*
X165579350Y-78853400D01*
X165797511Y-78831913D01*
X166077434Y-78746999D01*
X166335414Y-78609106D01*
X166561534Y-78423534D01*
X166747106Y-78197414D01*
X166884999Y-77939434D01*
X166969913Y-77659511D01*
X166998585Y-77368400D01*
X166969913Y-77077289D01*
X166884999Y-76797366D01*
X166747106Y-76539386D01*
X166561534Y-76313266D01*
X166531713Y-76288793D01*
X166600580Y-76267902D01*
X166710894Y-76208937D01*
X166807585Y-76129585D01*
X166886937Y-76032894D01*
X166945902Y-75922580D01*
X166982212Y-75802882D01*
X166994472Y-75678400D01*
X166994472Y-73978400D01*
X166982212Y-73853918D01*
X166945902Y-73734220D01*
X166886937Y-73623906D01*
X166807585Y-73527215D01*
X166710894Y-73447863D01*
X166600580Y-73388898D01*
X166480882Y-73352588D01*
X166356400Y-73340328D01*
X164656400Y-73340328D01*
X164531918Y-73352588D01*
X164412220Y-73388898D01*
X164301906Y-73447863D01*
X164205215Y-73527215D01*
X164125863Y-73623906D01*
X164066898Y-73734220D01*
X164042434Y-73814866D01*
X163966669Y-73730812D01*
X163733320Y-73556759D01*
X163470499Y-73431575D01*
X163323290Y-73386924D01*
X163093400Y-73508245D01*
X162839400Y-73508245D01*
X162609510Y-73386924D01*
X162462301Y-73431575D01*
X162199480Y-73556759D01*
X161966131Y-73730812D01*
X161771222Y-73947045D01*
X161696400Y-74072655D01*
X161621578Y-73947045D01*
X161426669Y-73730812D01*
X161193320Y-73556759D01*
X160930499Y-73431575D01*
X160783290Y-73386924D01*
X160553400Y-73508245D01*
X160299400Y-73508245D01*
X160069510Y-73386924D01*
X159922301Y-73431575D01*
X159659480Y-73556759D01*
X159426131Y-73730812D01*
X159231222Y-73947045D01*
X159156400Y-74072655D01*
X159081578Y-73947045D01*
X158886669Y-73730812D01*
X158653320Y-73556759D01*
X158390499Y-73431575D01*
X158243290Y-73386924D01*
X158013400Y-73508245D01*
X157759400Y-73508245D01*
X157529510Y-73386924D01*
X157382301Y-73431575D01*
X157119480Y-73556759D01*
X156886131Y-73730812D01*
X156691222Y-73947045D01*
X156621601Y-74063923D01*
X156587106Y-73999386D01*
X156401534Y-73773266D01*
X156175414Y-73587694D01*
X155917434Y-73449801D01*
X155637511Y-73364887D01*
X155419350Y-73343400D01*
X155273450Y-73343400D01*
X155187809Y-73351835D01*
X155267078Y-73319001D01*
X155415304Y-73219959D01*
X155541359Y-73093904D01*
X155640401Y-72945678D01*
X155708621Y-72780979D01*
X155743400Y-72606135D01*
X155743400Y-72427865D01*
X155708621Y-72253021D01*
X155640401Y-72088322D01*
X155541359Y-71940096D01*
X155415304Y-71814041D01*
X155267078Y-71714999D01*
X155102379Y-71646779D01*
X154927535Y-71612000D01*
X154749265Y-71612000D01*
X154574421Y-71646779D01*
X154409722Y-71714999D01*
X154261496Y-71814041D01*
X154135441Y-71940096D01*
X154036399Y-72088322D01*
X153968179Y-72253021D01*
X153954132Y-72323637D01*
X153603048Y-72674722D01*
X153573978Y-72698579D01*
X153550121Y-72727649D01*
X153550120Y-72727650D01*
X153478754Y-72814609D01*
X153413927Y-72935894D01*
X153411779Y-68304146D01*
X153522523Y-68469887D01*
X153759313Y-68706677D01*
X154037748Y-68892721D01*
X154347128Y-69020870D01*
X154675565Y-69086200D01*
X155010435Y-69086200D01*
X155338872Y-69020870D01*
X155648252Y-68892721D01*
X155926687Y-68706677D01*
X156163477Y-68469887D01*
X156349521Y-68191452D01*
X156477670Y-67882072D01*
X156543000Y-67553635D01*
X156543000Y-67218765D01*
X156477670Y-66890328D01*
X156349521Y-66580948D01*
X156163477Y-66302513D01*
X155926687Y-66065723D01*
X155648252Y-65879679D01*
X155338872Y-65751530D01*
X155010435Y-65686200D01*
X154675565Y-65686200D01*
X154347128Y-65751530D01*
X154285999Y-65776850D01*
X154285999Y-65684400D01*
X158013400Y-65684400D01*
X158013400Y-68910200D01*
X158015457Y-68932964D01*
X158022299Y-68956902D01*
X158033679Y-68979045D01*
X158049161Y-68998543D01*
X158068149Y-69014645D01*
X158089913Y-69026734D01*
X158113618Y-69034344D01*
X158138352Y-69037183D01*
X161287952Y-69087983D01*
X161314776Y-69085560D01*
X161338601Y-69078333D01*
X161360557Y-69066597D01*
X161379803Y-69050803D01*
X161395597Y-69031557D01*
X161407333Y-69009601D01*
X161414560Y-68985776D01*
X161417000Y-68961000D01*
X161417000Y-67218765D01*
X161443000Y-67218765D01*
X161443000Y-67553635D01*
X161508330Y-67882072D01*
X161636479Y-68191452D01*
X161822523Y-68469887D01*
X162059313Y-68706677D01*
X162337748Y-68892721D01*
X162647128Y-69020870D01*
X162975565Y-69086200D01*
X163310435Y-69086200D01*
X163638872Y-69020870D01*
X163948252Y-68892721D01*
X164226687Y-68706677D01*
X164463477Y-68469887D01*
X164649521Y-68191452D01*
X164691105Y-68091060D01*
X164689928Y-68351200D01*
X164702188Y-68475682D01*
X164738498Y-68595380D01*
X164797463Y-68705694D01*
X164876815Y-68802385D01*
X164973506Y-68881737D01*
X165083820Y-68940702D01*
X165203518Y-68977012D01*
X165328000Y-68989272D01*
X165957250Y-68986200D01*
X166116000Y-68827450D01*
X166116000Y-67513200D01*
X166096000Y-67513200D01*
X166096000Y-67259200D01*
X166116000Y-67259200D01*
X166116000Y-65944950D01*
X165957250Y-65786200D01*
X165328000Y-65783128D01*
X165203518Y-65795388D01*
X165083820Y-65831698D01*
X164973506Y-65890663D01*
X164876815Y-65970015D01*
X164797463Y-66066706D01*
X164738498Y-66177020D01*
X164702188Y-66296718D01*
X164689928Y-66421200D01*
X164691105Y-66681340D01*
X164649521Y-66580948D01*
X164463477Y-66302513D01*
X164226687Y-66065723D01*
X163948252Y-65879679D01*
X163638872Y-65751530D01*
X163310435Y-65686200D01*
X162975565Y-65686200D01*
X162647128Y-65751530D01*
X162337748Y-65879679D01*
X162059313Y-66065723D01*
X161822523Y-66302513D01*
X161636479Y-66580948D01*
X161508330Y-66890328D01*
X161443000Y-67218765D01*
X161417000Y-67218765D01*
X161417000Y-65709800D01*
X161414755Y-65686029D01*
X161407721Y-65662147D01*
X161396162Y-65640096D01*
X161380524Y-65620725D01*
X161361407Y-65604776D01*
X161339545Y-65592863D01*
X161315780Y-65585444D01*
X161291024Y-65582804D01*
X158141424Y-65557404D01*
X158115624Y-65559840D01*
X158091799Y-65567067D01*
X158069843Y-65578803D01*
X158050597Y-65594597D01*
X158034803Y-65613843D01*
X158023067Y-65635799D01*
X158015840Y-65659624D01*
X158013400Y-65684400D01*
X154285999Y-65684400D01*
X154285999Y-58835550D01*
X154347128Y-58860870D01*
X154675565Y-58926200D01*
X155010435Y-58926200D01*
X155338872Y-58860870D01*
X155648252Y-58732721D01*
X155926687Y-58546677D01*
X156163477Y-58309887D01*
X156349521Y-58031452D01*
X156477670Y-57722072D01*
X156543000Y-57393635D01*
X156543000Y-57058765D01*
X156477670Y-56730328D01*
X156349521Y-56420948D01*
X156163477Y-56142513D01*
X155926687Y-55905723D01*
X155648252Y-55719679D01*
X155338872Y-55591530D01*
X155010435Y-55526200D01*
X154675565Y-55526200D01*
X154347128Y-55591530D01*
X154285999Y-55616850D01*
X154285999Y-55524400D01*
X158038800Y-55524400D01*
X158038800Y-58750200D01*
X158040857Y-58772964D01*
X158047699Y-58796902D01*
X158059079Y-58819045D01*
X158074561Y-58838543D01*
X158093549Y-58854645D01*
X158115313Y-58866734D01*
X158139018Y-58874344D01*
X158163752Y-58877183D01*
X161313352Y-58927983D01*
X161340176Y-58925560D01*
X161364001Y-58918333D01*
X161385957Y-58906597D01*
X161405203Y-58890803D01*
X161420997Y-58871557D01*
X161432733Y-58849601D01*
X161439960Y-58825776D01*
X161442400Y-58801000D01*
X161442400Y-57058765D01*
X161443000Y-57058765D01*
X161443000Y-57393635D01*
X161508330Y-57722072D01*
X161636479Y-58031452D01*
X161822523Y-58309887D01*
X162059313Y-58546677D01*
X162337748Y-58732721D01*
X162647128Y-58860870D01*
X162975565Y-58926200D01*
X163310435Y-58926200D01*
X163638872Y-58860870D01*
X163948252Y-58732721D01*
X164226687Y-58546677D01*
X164463477Y-58309887D01*
X164649521Y-58031452D01*
X164691105Y-57931060D01*
X164689928Y-58191200D01*
X164702188Y-58315682D01*
X164738498Y-58435380D01*
X164797463Y-58545694D01*
X164876815Y-58642385D01*
X164973506Y-58721737D01*
X165083820Y-58780702D01*
X165203518Y-58817012D01*
X165328000Y-58829272D01*
X165957250Y-58826200D01*
X166116000Y-58667450D01*
X166116000Y-57353200D01*
X166096000Y-57353200D01*
X166096000Y-57099200D01*
X166116000Y-57099200D01*
X166116000Y-55784950D01*
X165957250Y-55626200D01*
X165328000Y-55623128D01*
X165203518Y-55635388D01*
X165083820Y-55671698D01*
X164973506Y-55730663D01*
X164876815Y-55810015D01*
X164797463Y-55906706D01*
X164738498Y-56017020D01*
X164702188Y-56136718D01*
X164689928Y-56261200D01*
X164691105Y-56521340D01*
X164649521Y-56420948D01*
X164463477Y-56142513D01*
X164226687Y-55905723D01*
X163948252Y-55719679D01*
X163638872Y-55591530D01*
X163310435Y-55526200D01*
X162975565Y-55526200D01*
X162647128Y-55591530D01*
X162337748Y-55719679D01*
X162059313Y-55905723D01*
X161822523Y-56142513D01*
X161636479Y-56420948D01*
X161508330Y-56730328D01*
X161443000Y-57058765D01*
X161442400Y-57058765D01*
X161442400Y-55549800D01*
X161440155Y-55526029D01*
X161433121Y-55502147D01*
X161421562Y-55480096D01*
X161405924Y-55460725D01*
X161386807Y-55444776D01*
X161364945Y-55432863D01*
X161341180Y-55425444D01*
X161316424Y-55422804D01*
X158166824Y-55397404D01*
X158141024Y-55399840D01*
X158117199Y-55407067D01*
X158095243Y-55418803D01*
X158075997Y-55434597D01*
X158060203Y-55453843D01*
X158048467Y-55475799D01*
X158041240Y-55499624D01*
X158038800Y-55524400D01*
X154285999Y-55524400D01*
X154285999Y-48675550D01*
X154347128Y-48700870D01*
X154675565Y-48766200D01*
X155010435Y-48766200D01*
X155338872Y-48700870D01*
X155648252Y-48572721D01*
X155926687Y-48386677D01*
X156163477Y-48149887D01*
X156349521Y-47871452D01*
X156477670Y-47562072D01*
X156543000Y-47233635D01*
X156543000Y-46898765D01*
X156477670Y-46570328D01*
X156349521Y-46260948D01*
X156163477Y-45982513D01*
X155926687Y-45745723D01*
X155648252Y-45559679D01*
X155528719Y-45510167D01*
X155649086Y-45389800D01*
X158064200Y-45389800D01*
X158064200Y-48615600D01*
X158066257Y-48638364D01*
X158073099Y-48662302D01*
X158084479Y-48684445D01*
X158099961Y-48703943D01*
X158118949Y-48720045D01*
X158140713Y-48732134D01*
X158164418Y-48739744D01*
X158189152Y-48742583D01*
X161338752Y-48793383D01*
X161365576Y-48790960D01*
X161389401Y-48783733D01*
X161411357Y-48771997D01*
X161430603Y-48756203D01*
X161446397Y-48736957D01*
X161458133Y-48715001D01*
X161465360Y-48691176D01*
X161467800Y-48666400D01*
X161467800Y-47358313D01*
X161508330Y-47562072D01*
X161636479Y-47871452D01*
X161822523Y-48149887D01*
X162059313Y-48386677D01*
X162337748Y-48572721D01*
X162647128Y-48700870D01*
X162975565Y-48766200D01*
X163310435Y-48766200D01*
X163638872Y-48700870D01*
X163948252Y-48572721D01*
X164226687Y-48386677D01*
X164463477Y-48149887D01*
X164649521Y-47871452D01*
X164691105Y-47771060D01*
X164689928Y-48031200D01*
X164702188Y-48155682D01*
X164738498Y-48275380D01*
X164797463Y-48385694D01*
X164876815Y-48482385D01*
X164973506Y-48561737D01*
X165083820Y-48620702D01*
X165203518Y-48657012D01*
X165328000Y-48669272D01*
X165957250Y-48666200D01*
X166116000Y-48507450D01*
X166116000Y-47193200D01*
X166096000Y-47193200D01*
X166096000Y-46939200D01*
X166116000Y-46939200D01*
X166116000Y-45624950D01*
X165957250Y-45466200D01*
X165328000Y-45463128D01*
X165203518Y-45475388D01*
X165083820Y-45511698D01*
X164973506Y-45570663D01*
X164876815Y-45650015D01*
X164797463Y-45746706D01*
X164738498Y-45857020D01*
X164702188Y-45976718D01*
X164689928Y-46101200D01*
X164691105Y-46361340D01*
X164649521Y-46260948D01*
X164463477Y-45982513D01*
X164226687Y-45745723D01*
X163948252Y-45559679D01*
X163638872Y-45431530D01*
X163310435Y-45366200D01*
X162975565Y-45366200D01*
X162647128Y-45431530D01*
X162337748Y-45559679D01*
X162059313Y-45745723D01*
X161822523Y-45982513D01*
X161636479Y-46260948D01*
X161508330Y-46570328D01*
X161467800Y-46774087D01*
X161467800Y-45415200D01*
X161465555Y-45391429D01*
X161458521Y-45367547D01*
X161446962Y-45345496D01*
X161431324Y-45326125D01*
X161412207Y-45310176D01*
X161390345Y-45298263D01*
X161366580Y-45290844D01*
X161341824Y-45288204D01*
X158192224Y-45262804D01*
X158166424Y-45265240D01*
X158142599Y-45272467D01*
X158120643Y-45284203D01*
X158101397Y-45299997D01*
X158085603Y-45319243D01*
X158073867Y-45341199D01*
X158066640Y-45365024D01*
X158064200Y-45389800D01*
X155649086Y-45389800D01*
X156349791Y-44689095D01*
X156376431Y-44667232D01*
X156398296Y-44640590D01*
X156398302Y-44640584D01*
X156398306Y-44640579D01*
X157435589Y-43603297D01*
X163427200Y-43603297D01*
X163427200Y-43772703D01*
X163460249Y-43938853D01*
X163525078Y-44095363D01*
X163619195Y-44236218D01*
X163738982Y-44356005D01*
X163879837Y-44450122D01*
X164036347Y-44514951D01*
X164202497Y-44548000D01*
X164371903Y-44548000D01*
X164538053Y-44514951D01*
X164694563Y-44450122D01*
X164835418Y-44356005D01*
X164955205Y-44236218D01*
X165049322Y-44095363D01*
X165114151Y-43938853D01*
X165147200Y-43772703D01*
X165147200Y-43603297D01*
X165114151Y-43437147D01*
X165049322Y-43280637D01*
X164955205Y-43139782D01*
X164835418Y-43019995D01*
X164694563Y-42925878D01*
X164538053Y-42861049D01*
X164371903Y-42828000D01*
X164202497Y-42828000D01*
X164036347Y-42861049D01*
X163879837Y-42925878D01*
X163738982Y-43019995D01*
X163619195Y-43139782D01*
X163525078Y-43280637D01*
X163460249Y-43437147D01*
X163427200Y-43603297D01*
X157435589Y-43603297D01*
X158089692Y-42949195D01*
X158116332Y-42927332D01*
X158138195Y-42900692D01*
X158138203Y-42900684D01*
X158138212Y-42900673D01*
X160208386Y-40830500D01*
X163759221Y-40830500D01*
X163854437Y-40894122D01*
X164010947Y-40958951D01*
X164177097Y-40992000D01*
X164346503Y-40992000D01*
X164512653Y-40958951D01*
X164669163Y-40894122D01*
X164810018Y-40800005D01*
X164929805Y-40680218D01*
X165023922Y-40539363D01*
X165088751Y-40382853D01*
X165121800Y-40216703D01*
X165121800Y-40047297D01*
X165088751Y-39881147D01*
X165023922Y-39724637D01*
X164929805Y-39583782D01*
X164810018Y-39463995D01*
X164669163Y-39369878D01*
X164512653Y-39305049D01*
X164346503Y-39272000D01*
X164177097Y-39272000D01*
X164010947Y-39305049D01*
X163854437Y-39369878D01*
X163759221Y-39433500D01*
X159953356Y-39433500D01*
X159919058Y-39430122D01*
X159884760Y-39433500D01*
X159884749Y-39433500D01*
X159782128Y-39443607D01*
X159650461Y-39483548D01*
X159650459Y-39483549D01*
X159529114Y-39548409D01*
X159449404Y-39613826D01*
X159449401Y-39613829D01*
X159422755Y-39635697D01*
X159400887Y-39662343D01*
X157330702Y-41732529D01*
X157045757Y-41732529D01*
X156398892Y-41085665D01*
X156376551Y-40973347D01*
X156311722Y-40816837D01*
X156217605Y-40675982D01*
X156097818Y-40556195D01*
X155956963Y-40462078D01*
X155800453Y-40397249D01*
X155634303Y-40364200D01*
X155464897Y-40364200D01*
X155298747Y-40397249D01*
X155142237Y-40462078D01*
X155001382Y-40556195D01*
X154881595Y-40675982D01*
X154787478Y-40816837D01*
X154722649Y-40973347D01*
X154689600Y-41139497D01*
X154689600Y-41308903D01*
X154722649Y-41475053D01*
X154787478Y-41631563D01*
X154881595Y-41772418D01*
X155001382Y-41892205D01*
X155142237Y-41986322D01*
X155298747Y-42051151D01*
X155411065Y-42073492D01*
X156200401Y-42862829D01*
X156120337Y-42942893D01*
X156065205Y-42860382D01*
X155945418Y-42740595D01*
X155804563Y-42646478D01*
X155648053Y-42581649D01*
X155481903Y-42548600D01*
X155312497Y-42548600D01*
X155146347Y-42581649D01*
X154989837Y-42646478D01*
X154848982Y-42740595D01*
X154729195Y-42860382D01*
X154635078Y-43001237D01*
X154570249Y-43157747D01*
X154537200Y-43323897D01*
X154537200Y-43493303D01*
X154570249Y-43659453D01*
X154635078Y-43815963D01*
X154729195Y-43956818D01*
X154848982Y-44076605D01*
X154931493Y-44131737D01*
X153401279Y-45661952D01*
X153397617Y-37764938D01*
X153547923Y-37989887D01*
X153784713Y-38226677D01*
X154063148Y-38412721D01*
X154372528Y-38540870D01*
X154700965Y-38606200D01*
X155035835Y-38606200D01*
X155364272Y-38540870D01*
X155673652Y-38412721D01*
X155952087Y-38226677D01*
X156188877Y-37989887D01*
X156374921Y-37711452D01*
X156503070Y-37402072D01*
X156568400Y-37073635D01*
X156568400Y-36738765D01*
X156503070Y-36410328D01*
X156374921Y-36100948D01*
X156188877Y-35822513D01*
X155952087Y-35585723D01*
X155673652Y-35399679D01*
X155364272Y-35271530D01*
X155282176Y-35255200D01*
X158038800Y-35255200D01*
X158038800Y-38481000D01*
X158040857Y-38503764D01*
X158047699Y-38527702D01*
X158059079Y-38549845D01*
X158074561Y-38569343D01*
X158093549Y-38585445D01*
X158115313Y-38597534D01*
X158139018Y-38605144D01*
X158163752Y-38607983D01*
X161313352Y-38658783D01*
X161340176Y-38656360D01*
X161364001Y-38649133D01*
X161385957Y-38637397D01*
X161405203Y-38621603D01*
X161420997Y-38602357D01*
X161432733Y-38580401D01*
X161439960Y-38556576D01*
X161442400Y-38531800D01*
X161442400Y-36738765D01*
X161468400Y-36738765D01*
X161468400Y-37073635D01*
X161533730Y-37402072D01*
X161661879Y-37711452D01*
X161847923Y-37989887D01*
X162084713Y-38226677D01*
X162363148Y-38412721D01*
X162672528Y-38540870D01*
X163000965Y-38606200D01*
X163335835Y-38606200D01*
X163664272Y-38540870D01*
X163973652Y-38412721D01*
X164252087Y-38226677D01*
X164488877Y-37989887D01*
X164674921Y-37711452D01*
X164716505Y-37611060D01*
X164715328Y-37871200D01*
X164727588Y-37995682D01*
X164763898Y-38115380D01*
X164822863Y-38225694D01*
X164902215Y-38322385D01*
X164998906Y-38401737D01*
X165109220Y-38460702D01*
X165228918Y-38497012D01*
X165353400Y-38509272D01*
X165982650Y-38506200D01*
X166141400Y-38347450D01*
X166141400Y-37033200D01*
X166121400Y-37033200D01*
X166121400Y-36779200D01*
X166141400Y-36779200D01*
X166141400Y-35464950D01*
X165982650Y-35306200D01*
X165353400Y-35303128D01*
X165228918Y-35315388D01*
X165109220Y-35351698D01*
X164998906Y-35410663D01*
X164902215Y-35490015D01*
X164822863Y-35586706D01*
X164763898Y-35697020D01*
X164727588Y-35816718D01*
X164715328Y-35941200D01*
X164716505Y-36201340D01*
X164674921Y-36100948D01*
X164488877Y-35822513D01*
X164252087Y-35585723D01*
X163973652Y-35399679D01*
X163664272Y-35271530D01*
X163335835Y-35206200D01*
X163000965Y-35206200D01*
X162672528Y-35271530D01*
X162363148Y-35399679D01*
X162084713Y-35585723D01*
X161847923Y-35822513D01*
X161661879Y-36100948D01*
X161533730Y-36410328D01*
X161468400Y-36738765D01*
X161442400Y-36738765D01*
X161442400Y-35280600D01*
X161440155Y-35256829D01*
X161433121Y-35232947D01*
X161421562Y-35210896D01*
X161405924Y-35191525D01*
X161386807Y-35175576D01*
X161364945Y-35163663D01*
X161341180Y-35156244D01*
X161316424Y-35153604D01*
X158166824Y-35128204D01*
X158141024Y-35130640D01*
X158117199Y-35137867D01*
X158095243Y-35149603D01*
X158075997Y-35165397D01*
X158060203Y-35184643D01*
X158048467Y-35206599D01*
X158041240Y-35230424D01*
X158038800Y-35255200D01*
X155282176Y-35255200D01*
X155035835Y-35206200D01*
X154700965Y-35206200D01*
X154372528Y-35271530D01*
X154063148Y-35399679D01*
X153784713Y-35585723D01*
X153547923Y-35822513D01*
X153396821Y-36048653D01*
X153392885Y-27559842D01*
X153573323Y-27829887D01*
X153810113Y-28066677D01*
X154088548Y-28252721D01*
X154397928Y-28380870D01*
X154726365Y-28446200D01*
X155061235Y-28446200D01*
X155389672Y-28380870D01*
X155699052Y-28252721D01*
X155977487Y-28066677D01*
X156214277Y-27829887D01*
X156400321Y-27551452D01*
X156528470Y-27242072D01*
X156593800Y-26913635D01*
X156593800Y-26578765D01*
X156528470Y-26250328D01*
X156400321Y-25940948D01*
X156214277Y-25662513D01*
X155977487Y-25425723D01*
X155699052Y-25239679D01*
X155411569Y-25120600D01*
X158013400Y-25120600D01*
X158013400Y-28346400D01*
X158015457Y-28369164D01*
X158022299Y-28393102D01*
X158033679Y-28415245D01*
X158049161Y-28434743D01*
X158068149Y-28450845D01*
X158089913Y-28462934D01*
X158113618Y-28470544D01*
X158138352Y-28473383D01*
X161287952Y-28524183D01*
X161314776Y-28521760D01*
X161338601Y-28514533D01*
X161360557Y-28502797D01*
X161379803Y-28487003D01*
X161395597Y-28467757D01*
X161407333Y-28445801D01*
X161414560Y-28421976D01*
X161417000Y-28397200D01*
X161417000Y-26578765D01*
X161493800Y-26578765D01*
X161493800Y-26913635D01*
X161559130Y-27242072D01*
X161687279Y-27551452D01*
X161873323Y-27829887D01*
X162110113Y-28066677D01*
X162388548Y-28252721D01*
X162697928Y-28380870D01*
X163026365Y-28446200D01*
X163361235Y-28446200D01*
X163689672Y-28380870D01*
X163999052Y-28252721D01*
X164277487Y-28066677D01*
X164514277Y-27829887D01*
X164700321Y-27551452D01*
X164741905Y-27451060D01*
X164740728Y-27711200D01*
X164752988Y-27835682D01*
X164789298Y-27955380D01*
X164848263Y-28065694D01*
X164927615Y-28162385D01*
X165024306Y-28241737D01*
X165134620Y-28300702D01*
X165254318Y-28337012D01*
X165378800Y-28349272D01*
X166008050Y-28346200D01*
X166166800Y-28187450D01*
X166166800Y-26873200D01*
X166146800Y-26873200D01*
X166146800Y-26619200D01*
X166166800Y-26619200D01*
X166166800Y-25304950D01*
X166008050Y-25146200D01*
X165378800Y-25143128D01*
X165254318Y-25155388D01*
X165134620Y-25191698D01*
X165024306Y-25250663D01*
X164927615Y-25330015D01*
X164848263Y-25426706D01*
X164789298Y-25537020D01*
X164752988Y-25656718D01*
X164740728Y-25781200D01*
X164741905Y-26041340D01*
X164700321Y-25940948D01*
X164514277Y-25662513D01*
X164277487Y-25425723D01*
X163999052Y-25239679D01*
X163689672Y-25111530D01*
X163361235Y-25046200D01*
X163026365Y-25046200D01*
X162697928Y-25111530D01*
X162388548Y-25239679D01*
X162110113Y-25425723D01*
X161873323Y-25662513D01*
X161687279Y-25940948D01*
X161559130Y-26250328D01*
X161493800Y-26578765D01*
X161417000Y-26578765D01*
X161417000Y-25146000D01*
X161414755Y-25122229D01*
X161407721Y-25098347D01*
X161396162Y-25076296D01*
X161380524Y-25056925D01*
X161361407Y-25040976D01*
X161339545Y-25029063D01*
X161315780Y-25021644D01*
X161291024Y-25019004D01*
X158141424Y-24993604D01*
X158115624Y-24996040D01*
X158091799Y-25003267D01*
X158069843Y-25015003D01*
X158050597Y-25030797D01*
X158034803Y-25050043D01*
X158023067Y-25071999D01*
X158015840Y-25095824D01*
X158013400Y-25120600D01*
X155411569Y-25120600D01*
X155389672Y-25111530D01*
X155061235Y-25046200D01*
X154726365Y-25046200D01*
X154397928Y-25111530D01*
X154088548Y-25239679D01*
X153810113Y-25425723D01*
X153573323Y-25662513D01*
X153392131Y-25933687D01*
X153390470Y-22351600D01*
X167411648Y-22351600D01*
X167410992Y-25178961D01*
M02*
