G04 #@! TF.GenerationSoftware,KiCad,Pcbnew,(5.1.2-1)-1*
G04 #@! TF.CreationDate,2020-08-10T22:20:09-07:00*
G04 #@! TF.ProjectId,active_dual_mult,61637469-7665-45f6-9475-616c5f6d756c,rev?*
G04 #@! TF.SameCoordinates,Original*
G04 #@! TF.FileFunction,Copper,L1,Top*
G04 #@! TF.FilePolarity,Positive*
%FSLAX46Y46*%
G04 Gerber Fmt 4.6, Leading zero omitted, Abs format (unit mm)*
G04 Created by KiCad (PCBNEW (5.1.2-1)-1) date 2020-08-10 22:20:09*
%MOMM*%
%LPD*%
G04 APERTURE LIST*
%ADD10C,0.100000*%
%ADD11C,1.150000*%
%ADD12R,1.000000X1.000000*%
%ADD13C,2.130000*%
%ADD14R,1.830000X1.930000*%
%ADD15O,1.700000X1.700000*%
%ADD16R,1.700000X1.700000*%
%ADD17C,1.600000*%
%ADD18R,1.450000X0.450000*%
%ADD19C,0.540000*%
%ADD20C,0.450000*%
%ADD21C,0.254000*%
%ADD22C,0.127000*%
G04 APERTURE END LIST*
D10*
G36*
X160538305Y-101485404D02*
G01*
X160562573Y-101489004D01*
X160586372Y-101494965D01*
X160609471Y-101503230D01*
X160631650Y-101513720D01*
X160652693Y-101526332D01*
X160672399Y-101540947D01*
X160690577Y-101557423D01*
X160707053Y-101575601D01*
X160721668Y-101595307D01*
X160734280Y-101616350D01*
X160744770Y-101638529D01*
X160753035Y-101661628D01*
X160758996Y-101685427D01*
X160762596Y-101709695D01*
X160763800Y-101734199D01*
X160763800Y-102634201D01*
X160762596Y-102658705D01*
X160758996Y-102682973D01*
X160753035Y-102706772D01*
X160744770Y-102729871D01*
X160734280Y-102752050D01*
X160721668Y-102773093D01*
X160707053Y-102792799D01*
X160690577Y-102810977D01*
X160672399Y-102827453D01*
X160652693Y-102842068D01*
X160631650Y-102854680D01*
X160609471Y-102865170D01*
X160586372Y-102873435D01*
X160562573Y-102879396D01*
X160538305Y-102882996D01*
X160513801Y-102884200D01*
X159863799Y-102884200D01*
X159839295Y-102882996D01*
X159815027Y-102879396D01*
X159791228Y-102873435D01*
X159768129Y-102865170D01*
X159745950Y-102854680D01*
X159724907Y-102842068D01*
X159705201Y-102827453D01*
X159687023Y-102810977D01*
X159670547Y-102792799D01*
X159655932Y-102773093D01*
X159643320Y-102752050D01*
X159632830Y-102729871D01*
X159624565Y-102706772D01*
X159618604Y-102682973D01*
X159615004Y-102658705D01*
X159613800Y-102634201D01*
X159613800Y-101734199D01*
X159615004Y-101709695D01*
X159618604Y-101685427D01*
X159624565Y-101661628D01*
X159632830Y-101638529D01*
X159643320Y-101616350D01*
X159655932Y-101595307D01*
X159670547Y-101575601D01*
X159687023Y-101557423D01*
X159705201Y-101540947D01*
X159724907Y-101526332D01*
X159745950Y-101513720D01*
X159768129Y-101503230D01*
X159791228Y-101494965D01*
X159815027Y-101489004D01*
X159839295Y-101485404D01*
X159863799Y-101484200D01*
X160513801Y-101484200D01*
X160538305Y-101485404D01*
X160538305Y-101485404D01*
G37*
D11*
X160188800Y-102184200D03*
D10*
G36*
X162588305Y-101485404D02*
G01*
X162612573Y-101489004D01*
X162636372Y-101494965D01*
X162659471Y-101503230D01*
X162681650Y-101513720D01*
X162702693Y-101526332D01*
X162722399Y-101540947D01*
X162740577Y-101557423D01*
X162757053Y-101575601D01*
X162771668Y-101595307D01*
X162784280Y-101616350D01*
X162794770Y-101638529D01*
X162803035Y-101661628D01*
X162808996Y-101685427D01*
X162812596Y-101709695D01*
X162813800Y-101734199D01*
X162813800Y-102634201D01*
X162812596Y-102658705D01*
X162808996Y-102682973D01*
X162803035Y-102706772D01*
X162794770Y-102729871D01*
X162784280Y-102752050D01*
X162771668Y-102773093D01*
X162757053Y-102792799D01*
X162740577Y-102810977D01*
X162722399Y-102827453D01*
X162702693Y-102842068D01*
X162681650Y-102854680D01*
X162659471Y-102865170D01*
X162636372Y-102873435D01*
X162612573Y-102879396D01*
X162588305Y-102882996D01*
X162563801Y-102884200D01*
X161913799Y-102884200D01*
X161889295Y-102882996D01*
X161865027Y-102879396D01*
X161841228Y-102873435D01*
X161818129Y-102865170D01*
X161795950Y-102854680D01*
X161774907Y-102842068D01*
X161755201Y-102827453D01*
X161737023Y-102810977D01*
X161720547Y-102792799D01*
X161705932Y-102773093D01*
X161693320Y-102752050D01*
X161682830Y-102729871D01*
X161674565Y-102706772D01*
X161668604Y-102682973D01*
X161665004Y-102658705D01*
X161663800Y-102634201D01*
X161663800Y-101734199D01*
X161665004Y-101709695D01*
X161668604Y-101685427D01*
X161674565Y-101661628D01*
X161682830Y-101638529D01*
X161693320Y-101616350D01*
X161705932Y-101595307D01*
X161720547Y-101575601D01*
X161737023Y-101557423D01*
X161755201Y-101540947D01*
X161774907Y-101526332D01*
X161795950Y-101513720D01*
X161818129Y-101503230D01*
X161841228Y-101494965D01*
X161865027Y-101489004D01*
X161889295Y-101485404D01*
X161913799Y-101484200D01*
X162563801Y-101484200D01*
X162588305Y-101485404D01*
X162588305Y-101485404D01*
G37*
D11*
X162238800Y-102184200D03*
D12*
X154680600Y-81788000D03*
X157180600Y-81788000D03*
D10*
G36*
X155084305Y-41675404D02*
G01*
X155108573Y-41679004D01*
X155132372Y-41684965D01*
X155155471Y-41693230D01*
X155177650Y-41703720D01*
X155198693Y-41716332D01*
X155218399Y-41730947D01*
X155236577Y-41747423D01*
X155253053Y-41765601D01*
X155267668Y-41785307D01*
X155280280Y-41806350D01*
X155290770Y-41828529D01*
X155299035Y-41851628D01*
X155304996Y-41875427D01*
X155308596Y-41899695D01*
X155309800Y-41924199D01*
X155309800Y-42574201D01*
X155308596Y-42598705D01*
X155304996Y-42622973D01*
X155299035Y-42646772D01*
X155290770Y-42669871D01*
X155280280Y-42692050D01*
X155267668Y-42713093D01*
X155253053Y-42732799D01*
X155236577Y-42750977D01*
X155218399Y-42767453D01*
X155198693Y-42782068D01*
X155177650Y-42794680D01*
X155155471Y-42805170D01*
X155132372Y-42813435D01*
X155108573Y-42819396D01*
X155084305Y-42822996D01*
X155059801Y-42824200D01*
X154159799Y-42824200D01*
X154135295Y-42822996D01*
X154111027Y-42819396D01*
X154087228Y-42813435D01*
X154064129Y-42805170D01*
X154041950Y-42794680D01*
X154020907Y-42782068D01*
X154001201Y-42767453D01*
X153983023Y-42750977D01*
X153966547Y-42732799D01*
X153951932Y-42713093D01*
X153939320Y-42692050D01*
X153928830Y-42669871D01*
X153920565Y-42646772D01*
X153914604Y-42622973D01*
X153911004Y-42598705D01*
X153909800Y-42574201D01*
X153909800Y-41924199D01*
X153911004Y-41899695D01*
X153914604Y-41875427D01*
X153920565Y-41851628D01*
X153928830Y-41828529D01*
X153939320Y-41806350D01*
X153951932Y-41785307D01*
X153966547Y-41765601D01*
X153983023Y-41747423D01*
X154001201Y-41730947D01*
X154020907Y-41716332D01*
X154041950Y-41703720D01*
X154064129Y-41693230D01*
X154087228Y-41684965D01*
X154111027Y-41679004D01*
X154135295Y-41675404D01*
X154159799Y-41674200D01*
X155059801Y-41674200D01*
X155084305Y-41675404D01*
X155084305Y-41675404D01*
G37*
D11*
X154609800Y-42249200D03*
D10*
G36*
X155084305Y-39625404D02*
G01*
X155108573Y-39629004D01*
X155132372Y-39634965D01*
X155155471Y-39643230D01*
X155177650Y-39653720D01*
X155198693Y-39666332D01*
X155218399Y-39680947D01*
X155236577Y-39697423D01*
X155253053Y-39715601D01*
X155267668Y-39735307D01*
X155280280Y-39756350D01*
X155290770Y-39778529D01*
X155299035Y-39801628D01*
X155304996Y-39825427D01*
X155308596Y-39849695D01*
X155309800Y-39874199D01*
X155309800Y-40524201D01*
X155308596Y-40548705D01*
X155304996Y-40572973D01*
X155299035Y-40596772D01*
X155290770Y-40619871D01*
X155280280Y-40642050D01*
X155267668Y-40663093D01*
X155253053Y-40682799D01*
X155236577Y-40700977D01*
X155218399Y-40717453D01*
X155198693Y-40732068D01*
X155177650Y-40744680D01*
X155155471Y-40755170D01*
X155132372Y-40763435D01*
X155108573Y-40769396D01*
X155084305Y-40772996D01*
X155059801Y-40774200D01*
X154159799Y-40774200D01*
X154135295Y-40772996D01*
X154111027Y-40769396D01*
X154087228Y-40763435D01*
X154064129Y-40755170D01*
X154041950Y-40744680D01*
X154020907Y-40732068D01*
X154001201Y-40717453D01*
X153983023Y-40700977D01*
X153966547Y-40682799D01*
X153951932Y-40663093D01*
X153939320Y-40642050D01*
X153928830Y-40619871D01*
X153920565Y-40596772D01*
X153914604Y-40572973D01*
X153911004Y-40548705D01*
X153909800Y-40524201D01*
X153909800Y-39874199D01*
X153911004Y-39849695D01*
X153914604Y-39825427D01*
X153920565Y-39801628D01*
X153928830Y-39778529D01*
X153939320Y-39756350D01*
X153951932Y-39735307D01*
X153966547Y-39715601D01*
X153983023Y-39697423D01*
X154001201Y-39680947D01*
X154020907Y-39666332D01*
X154041950Y-39653720D01*
X154064129Y-39643230D01*
X154087228Y-39634965D01*
X154111027Y-39629004D01*
X154135295Y-39625404D01*
X154159799Y-39624200D01*
X155059801Y-39624200D01*
X155084305Y-39625404D01*
X155084305Y-39625404D01*
G37*
D11*
X154609800Y-40199200D03*
D12*
X156977400Y-70789800D03*
X154477400Y-70789800D03*
D13*
X165959000Y-85115400D03*
D14*
X154559000Y-85115400D03*
D13*
X157659000Y-85115400D03*
D15*
X155346400Y-77368400D03*
X155346400Y-74828400D03*
X157886400Y-77368400D03*
X157886400Y-74828400D03*
X160426400Y-77368400D03*
X160426400Y-74828400D03*
X162966400Y-77368400D03*
X162966400Y-74828400D03*
X165506400Y-77368400D03*
D16*
X165506400Y-74828400D03*
D13*
X163143000Y-67386200D03*
D14*
X166243000Y-67386200D03*
D13*
X154843000Y-67386200D03*
X163143000Y-57226200D03*
D14*
X166243000Y-57226200D03*
D13*
X154843000Y-57226200D03*
X154843000Y-47066200D03*
D14*
X166243000Y-47066200D03*
D13*
X163143000Y-47066200D03*
X154868400Y-36906200D03*
D14*
X166268400Y-36906200D03*
D13*
X163168400Y-36906200D03*
X163193800Y-26746200D03*
D14*
X166293800Y-26746200D03*
D13*
X154893800Y-26746200D03*
X166035200Y-95580200D03*
D14*
X154635200Y-95580200D03*
D13*
X157735200Y-95580200D03*
X157709800Y-116179600D03*
D14*
X154609800Y-116179600D03*
D13*
X166009800Y-116179600D03*
X166009800Y-126288800D03*
D14*
X154609800Y-126288800D03*
D13*
X157709800Y-126288800D03*
D10*
G36*
X156148104Y-61609004D02*
G01*
X156172373Y-61612604D01*
X156196171Y-61618565D01*
X156219271Y-61626830D01*
X156241449Y-61637320D01*
X156262493Y-61649933D01*
X156282198Y-61664547D01*
X156300377Y-61681023D01*
X156316853Y-61699202D01*
X156331467Y-61718907D01*
X156344080Y-61739951D01*
X156354570Y-61762129D01*
X156362835Y-61785229D01*
X156368796Y-61809027D01*
X156372396Y-61833296D01*
X156373600Y-61857800D01*
X156373600Y-62957800D01*
X156372396Y-62982304D01*
X156368796Y-63006573D01*
X156362835Y-63030371D01*
X156354570Y-63053471D01*
X156344080Y-63075649D01*
X156331467Y-63096693D01*
X156316853Y-63116398D01*
X156300377Y-63134577D01*
X156282198Y-63151053D01*
X156262493Y-63165667D01*
X156241449Y-63178280D01*
X156219271Y-63188770D01*
X156196171Y-63197035D01*
X156172373Y-63202996D01*
X156148104Y-63206596D01*
X156123600Y-63207800D01*
X153623600Y-63207800D01*
X153599096Y-63206596D01*
X153574827Y-63202996D01*
X153551029Y-63197035D01*
X153527929Y-63188770D01*
X153505751Y-63178280D01*
X153484707Y-63165667D01*
X153465002Y-63151053D01*
X153446823Y-63134577D01*
X153430347Y-63116398D01*
X153415733Y-63096693D01*
X153403120Y-63075649D01*
X153392630Y-63053471D01*
X153384365Y-63030371D01*
X153378404Y-63006573D01*
X153374804Y-62982304D01*
X153373600Y-62957800D01*
X153373600Y-61857800D01*
X153374804Y-61833296D01*
X153378404Y-61809027D01*
X153384365Y-61785229D01*
X153392630Y-61762129D01*
X153403120Y-61739951D01*
X153415733Y-61718907D01*
X153430347Y-61699202D01*
X153446823Y-61681023D01*
X153465002Y-61664547D01*
X153484707Y-61649933D01*
X153505751Y-61637320D01*
X153527929Y-61626830D01*
X153551029Y-61618565D01*
X153574827Y-61612604D01*
X153599096Y-61609004D01*
X153623600Y-61607800D01*
X156123600Y-61607800D01*
X156148104Y-61609004D01*
X156148104Y-61609004D01*
G37*
D17*
X154873600Y-62407800D03*
D10*
G36*
X160548104Y-61609004D02*
G01*
X160572373Y-61612604D01*
X160596171Y-61618565D01*
X160619271Y-61626830D01*
X160641449Y-61637320D01*
X160662493Y-61649933D01*
X160682198Y-61664547D01*
X160700377Y-61681023D01*
X160716853Y-61699202D01*
X160731467Y-61718907D01*
X160744080Y-61739951D01*
X160754570Y-61762129D01*
X160762835Y-61785229D01*
X160768796Y-61809027D01*
X160772396Y-61833296D01*
X160773600Y-61857800D01*
X160773600Y-62957800D01*
X160772396Y-62982304D01*
X160768796Y-63006573D01*
X160762835Y-63030371D01*
X160754570Y-63053471D01*
X160744080Y-63075649D01*
X160731467Y-63096693D01*
X160716853Y-63116398D01*
X160700377Y-63134577D01*
X160682198Y-63151053D01*
X160662493Y-63165667D01*
X160641449Y-63178280D01*
X160619271Y-63188770D01*
X160596171Y-63197035D01*
X160572373Y-63202996D01*
X160548104Y-63206596D01*
X160523600Y-63207800D01*
X158023600Y-63207800D01*
X157999096Y-63206596D01*
X157974827Y-63202996D01*
X157951029Y-63197035D01*
X157927929Y-63188770D01*
X157905751Y-63178280D01*
X157884707Y-63165667D01*
X157865002Y-63151053D01*
X157846823Y-63134577D01*
X157830347Y-63116398D01*
X157815733Y-63096693D01*
X157803120Y-63075649D01*
X157792630Y-63053471D01*
X157784365Y-63030371D01*
X157778404Y-63006573D01*
X157774804Y-62982304D01*
X157773600Y-62957800D01*
X157773600Y-61857800D01*
X157774804Y-61833296D01*
X157778404Y-61809027D01*
X157784365Y-61785229D01*
X157792630Y-61762129D01*
X157803120Y-61739951D01*
X157815733Y-61718907D01*
X157830347Y-61699202D01*
X157846823Y-61681023D01*
X157865002Y-61664547D01*
X157884707Y-61649933D01*
X157905751Y-61637320D01*
X157927929Y-61626830D01*
X157951029Y-61618565D01*
X157974827Y-61612604D01*
X157999096Y-61609004D01*
X158023600Y-61607800D01*
X160523600Y-61607800D01*
X160548104Y-61609004D01*
X160548104Y-61609004D01*
G37*
D17*
X159273600Y-62407800D03*
D10*
G36*
X156325904Y-89345804D02*
G01*
X156350173Y-89349404D01*
X156373971Y-89355365D01*
X156397071Y-89363630D01*
X156419249Y-89374120D01*
X156440293Y-89386733D01*
X156459998Y-89401347D01*
X156478177Y-89417823D01*
X156494653Y-89436002D01*
X156509267Y-89455707D01*
X156521880Y-89476751D01*
X156532370Y-89498929D01*
X156540635Y-89522029D01*
X156546596Y-89545827D01*
X156550196Y-89570096D01*
X156551400Y-89594600D01*
X156551400Y-90694600D01*
X156550196Y-90719104D01*
X156546596Y-90743373D01*
X156540635Y-90767171D01*
X156532370Y-90790271D01*
X156521880Y-90812449D01*
X156509267Y-90833493D01*
X156494653Y-90853198D01*
X156478177Y-90871377D01*
X156459998Y-90887853D01*
X156440293Y-90902467D01*
X156419249Y-90915080D01*
X156397071Y-90925570D01*
X156373971Y-90933835D01*
X156350173Y-90939796D01*
X156325904Y-90943396D01*
X156301400Y-90944600D01*
X153801400Y-90944600D01*
X153776896Y-90943396D01*
X153752627Y-90939796D01*
X153728829Y-90933835D01*
X153705729Y-90925570D01*
X153683551Y-90915080D01*
X153662507Y-90902467D01*
X153642802Y-90887853D01*
X153624623Y-90871377D01*
X153608147Y-90853198D01*
X153593533Y-90833493D01*
X153580920Y-90812449D01*
X153570430Y-90790271D01*
X153562165Y-90767171D01*
X153556204Y-90743373D01*
X153552604Y-90719104D01*
X153551400Y-90694600D01*
X153551400Y-89594600D01*
X153552604Y-89570096D01*
X153556204Y-89545827D01*
X153562165Y-89522029D01*
X153570430Y-89498929D01*
X153580920Y-89476751D01*
X153593533Y-89455707D01*
X153608147Y-89436002D01*
X153624623Y-89417823D01*
X153642802Y-89401347D01*
X153662507Y-89386733D01*
X153683551Y-89374120D01*
X153705729Y-89363630D01*
X153728829Y-89355365D01*
X153752627Y-89349404D01*
X153776896Y-89345804D01*
X153801400Y-89344600D01*
X156301400Y-89344600D01*
X156325904Y-89345804D01*
X156325904Y-89345804D01*
G37*
D17*
X155051400Y-90144600D03*
D10*
G36*
X160725904Y-89345804D02*
G01*
X160750173Y-89349404D01*
X160773971Y-89355365D01*
X160797071Y-89363630D01*
X160819249Y-89374120D01*
X160840293Y-89386733D01*
X160859998Y-89401347D01*
X160878177Y-89417823D01*
X160894653Y-89436002D01*
X160909267Y-89455707D01*
X160921880Y-89476751D01*
X160932370Y-89498929D01*
X160940635Y-89522029D01*
X160946596Y-89545827D01*
X160950196Y-89570096D01*
X160951400Y-89594600D01*
X160951400Y-90694600D01*
X160950196Y-90719104D01*
X160946596Y-90743373D01*
X160940635Y-90767171D01*
X160932370Y-90790271D01*
X160921880Y-90812449D01*
X160909267Y-90833493D01*
X160894653Y-90853198D01*
X160878177Y-90871377D01*
X160859998Y-90887853D01*
X160840293Y-90902467D01*
X160819249Y-90915080D01*
X160797071Y-90925570D01*
X160773971Y-90933835D01*
X160750173Y-90939796D01*
X160725904Y-90943396D01*
X160701400Y-90944600D01*
X158201400Y-90944600D01*
X158176896Y-90943396D01*
X158152627Y-90939796D01*
X158128829Y-90933835D01*
X158105729Y-90925570D01*
X158083551Y-90915080D01*
X158062507Y-90902467D01*
X158042802Y-90887853D01*
X158024623Y-90871377D01*
X158008147Y-90853198D01*
X157993533Y-90833493D01*
X157980920Y-90812449D01*
X157970430Y-90790271D01*
X157962165Y-90767171D01*
X157956204Y-90743373D01*
X157952604Y-90719104D01*
X157951400Y-90694600D01*
X157951400Y-89594600D01*
X157952604Y-89570096D01*
X157956204Y-89545827D01*
X157962165Y-89522029D01*
X157970430Y-89498929D01*
X157980920Y-89476751D01*
X157993533Y-89455707D01*
X158008147Y-89436002D01*
X158024623Y-89417823D01*
X158042802Y-89401347D01*
X158062507Y-89386733D01*
X158083551Y-89374120D01*
X158105729Y-89363630D01*
X158128829Y-89355365D01*
X158152627Y-89349404D01*
X158176896Y-89345804D01*
X158201400Y-89344600D01*
X160701400Y-89344600D01*
X160725904Y-89345804D01*
X160725904Y-89345804D01*
G37*
D17*
X159451400Y-90144600D03*
D10*
G36*
X166133305Y-40641404D02*
G01*
X166157573Y-40645004D01*
X166181372Y-40650965D01*
X166204471Y-40659230D01*
X166226650Y-40669720D01*
X166247693Y-40682332D01*
X166267399Y-40696947D01*
X166285577Y-40713423D01*
X166302053Y-40731601D01*
X166316668Y-40751307D01*
X166329280Y-40772350D01*
X166339770Y-40794529D01*
X166348035Y-40817628D01*
X166353996Y-40841427D01*
X166357596Y-40865695D01*
X166358800Y-40890199D01*
X166358800Y-41540201D01*
X166357596Y-41564705D01*
X166353996Y-41588973D01*
X166348035Y-41612772D01*
X166339770Y-41635871D01*
X166329280Y-41658050D01*
X166316668Y-41679093D01*
X166302053Y-41698799D01*
X166285577Y-41716977D01*
X166267399Y-41733453D01*
X166247693Y-41748068D01*
X166226650Y-41760680D01*
X166204471Y-41771170D01*
X166181372Y-41779435D01*
X166157573Y-41785396D01*
X166133305Y-41788996D01*
X166108801Y-41790200D01*
X165208799Y-41790200D01*
X165184295Y-41788996D01*
X165160027Y-41785396D01*
X165136228Y-41779435D01*
X165113129Y-41771170D01*
X165090950Y-41760680D01*
X165069907Y-41748068D01*
X165050201Y-41733453D01*
X165032023Y-41716977D01*
X165015547Y-41698799D01*
X165000932Y-41679093D01*
X164988320Y-41658050D01*
X164977830Y-41635871D01*
X164969565Y-41612772D01*
X164963604Y-41588973D01*
X164960004Y-41564705D01*
X164958800Y-41540201D01*
X164958800Y-40890199D01*
X164960004Y-40865695D01*
X164963604Y-40841427D01*
X164969565Y-40817628D01*
X164977830Y-40794529D01*
X164988320Y-40772350D01*
X165000932Y-40751307D01*
X165015547Y-40731601D01*
X165032023Y-40713423D01*
X165050201Y-40696947D01*
X165069907Y-40682332D01*
X165090950Y-40669720D01*
X165113129Y-40659230D01*
X165136228Y-40650965D01*
X165160027Y-40645004D01*
X165184295Y-40641404D01*
X165208799Y-40640200D01*
X166108801Y-40640200D01*
X166133305Y-40641404D01*
X166133305Y-40641404D01*
G37*
D11*
X165658800Y-41215200D03*
D10*
G36*
X166133305Y-42691404D02*
G01*
X166157573Y-42695004D01*
X166181372Y-42700965D01*
X166204471Y-42709230D01*
X166226650Y-42719720D01*
X166247693Y-42732332D01*
X166267399Y-42746947D01*
X166285577Y-42763423D01*
X166302053Y-42781601D01*
X166316668Y-42801307D01*
X166329280Y-42822350D01*
X166339770Y-42844529D01*
X166348035Y-42867628D01*
X166353996Y-42891427D01*
X166357596Y-42915695D01*
X166358800Y-42940199D01*
X166358800Y-43590201D01*
X166357596Y-43614705D01*
X166353996Y-43638973D01*
X166348035Y-43662772D01*
X166339770Y-43685871D01*
X166329280Y-43708050D01*
X166316668Y-43729093D01*
X166302053Y-43748799D01*
X166285577Y-43766977D01*
X166267399Y-43783453D01*
X166247693Y-43798068D01*
X166226650Y-43810680D01*
X166204471Y-43821170D01*
X166181372Y-43829435D01*
X166157573Y-43835396D01*
X166133305Y-43838996D01*
X166108801Y-43840200D01*
X165208799Y-43840200D01*
X165184295Y-43838996D01*
X165160027Y-43835396D01*
X165136228Y-43829435D01*
X165113129Y-43821170D01*
X165090950Y-43810680D01*
X165069907Y-43798068D01*
X165050201Y-43783453D01*
X165032023Y-43766977D01*
X165015547Y-43748799D01*
X165000932Y-43729093D01*
X164988320Y-43708050D01*
X164977830Y-43685871D01*
X164969565Y-43662772D01*
X164963604Y-43638973D01*
X164960004Y-43614705D01*
X164958800Y-43590201D01*
X164958800Y-42940199D01*
X164960004Y-42915695D01*
X164963604Y-42891427D01*
X164969565Y-42867628D01*
X164977830Y-42844529D01*
X164988320Y-42822350D01*
X165000932Y-42801307D01*
X165015547Y-42781601D01*
X165032023Y-42763423D01*
X165050201Y-42746947D01*
X165069907Y-42732332D01*
X165090950Y-42719720D01*
X165113129Y-42709230D01*
X165136228Y-42700965D01*
X165160027Y-42695004D01*
X165184295Y-42691404D01*
X165208799Y-42690200D01*
X166108801Y-42690200D01*
X166133305Y-42691404D01*
X166133305Y-42691404D01*
G37*
D11*
X165658800Y-43265200D03*
D10*
G36*
X166590505Y-110687204D02*
G01*
X166614773Y-110690804D01*
X166638572Y-110696765D01*
X166661671Y-110705030D01*
X166683850Y-110715520D01*
X166704893Y-110728132D01*
X166724599Y-110742747D01*
X166742777Y-110759223D01*
X166759253Y-110777401D01*
X166773868Y-110797107D01*
X166786480Y-110818150D01*
X166796970Y-110840329D01*
X166805235Y-110863428D01*
X166811196Y-110887227D01*
X166814796Y-110911495D01*
X166816000Y-110935999D01*
X166816000Y-111586001D01*
X166814796Y-111610505D01*
X166811196Y-111634773D01*
X166805235Y-111658572D01*
X166796970Y-111681671D01*
X166786480Y-111703850D01*
X166773868Y-111724893D01*
X166759253Y-111744599D01*
X166742777Y-111762777D01*
X166724599Y-111779253D01*
X166704893Y-111793868D01*
X166683850Y-111806480D01*
X166661671Y-111816970D01*
X166638572Y-111825235D01*
X166614773Y-111831196D01*
X166590505Y-111834796D01*
X166566001Y-111836000D01*
X165665999Y-111836000D01*
X165641495Y-111834796D01*
X165617227Y-111831196D01*
X165593428Y-111825235D01*
X165570329Y-111816970D01*
X165548150Y-111806480D01*
X165527107Y-111793868D01*
X165507401Y-111779253D01*
X165489223Y-111762777D01*
X165472747Y-111744599D01*
X165458132Y-111724893D01*
X165445520Y-111703850D01*
X165435030Y-111681671D01*
X165426765Y-111658572D01*
X165420804Y-111634773D01*
X165417204Y-111610505D01*
X165416000Y-111586001D01*
X165416000Y-110935999D01*
X165417204Y-110911495D01*
X165420804Y-110887227D01*
X165426765Y-110863428D01*
X165435030Y-110840329D01*
X165445520Y-110818150D01*
X165458132Y-110797107D01*
X165472747Y-110777401D01*
X165489223Y-110759223D01*
X165507401Y-110742747D01*
X165527107Y-110728132D01*
X165548150Y-110715520D01*
X165570329Y-110705030D01*
X165593428Y-110696765D01*
X165617227Y-110690804D01*
X165641495Y-110687204D01*
X165665999Y-110686000D01*
X166566001Y-110686000D01*
X166590505Y-110687204D01*
X166590505Y-110687204D01*
G37*
D11*
X166116000Y-111261000D03*
D10*
G36*
X166590505Y-108637204D02*
G01*
X166614773Y-108640804D01*
X166638572Y-108646765D01*
X166661671Y-108655030D01*
X166683850Y-108665520D01*
X166704893Y-108678132D01*
X166724599Y-108692747D01*
X166742777Y-108709223D01*
X166759253Y-108727401D01*
X166773868Y-108747107D01*
X166786480Y-108768150D01*
X166796970Y-108790329D01*
X166805235Y-108813428D01*
X166811196Y-108837227D01*
X166814796Y-108861495D01*
X166816000Y-108885999D01*
X166816000Y-109536001D01*
X166814796Y-109560505D01*
X166811196Y-109584773D01*
X166805235Y-109608572D01*
X166796970Y-109631671D01*
X166786480Y-109653850D01*
X166773868Y-109674893D01*
X166759253Y-109694599D01*
X166742777Y-109712777D01*
X166724599Y-109729253D01*
X166704893Y-109743868D01*
X166683850Y-109756480D01*
X166661671Y-109766970D01*
X166638572Y-109775235D01*
X166614773Y-109781196D01*
X166590505Y-109784796D01*
X166566001Y-109786000D01*
X165665999Y-109786000D01*
X165641495Y-109784796D01*
X165617227Y-109781196D01*
X165593428Y-109775235D01*
X165570329Y-109766970D01*
X165548150Y-109756480D01*
X165527107Y-109743868D01*
X165507401Y-109729253D01*
X165489223Y-109712777D01*
X165472747Y-109694599D01*
X165458132Y-109674893D01*
X165445520Y-109653850D01*
X165435030Y-109631671D01*
X165426765Y-109608572D01*
X165420804Y-109584773D01*
X165417204Y-109560505D01*
X165416000Y-109536001D01*
X165416000Y-108885999D01*
X165417204Y-108861495D01*
X165420804Y-108837227D01*
X165426765Y-108813428D01*
X165435030Y-108790329D01*
X165445520Y-108768150D01*
X165458132Y-108747107D01*
X165472747Y-108727401D01*
X165489223Y-108709223D01*
X165507401Y-108692747D01*
X165527107Y-108678132D01*
X165548150Y-108665520D01*
X165570329Y-108655030D01*
X165593428Y-108646765D01*
X165617227Y-108640804D01*
X165641495Y-108637204D01*
X165665999Y-108636000D01*
X166566001Y-108636000D01*
X166590505Y-108637204D01*
X166590505Y-108637204D01*
G37*
D11*
X166116000Y-109211000D03*
D10*
G36*
X155770105Y-108611804D02*
G01*
X155794373Y-108615404D01*
X155818172Y-108621365D01*
X155841271Y-108629630D01*
X155863450Y-108640120D01*
X155884493Y-108652732D01*
X155904199Y-108667347D01*
X155922377Y-108683823D01*
X155938853Y-108702001D01*
X155953468Y-108721707D01*
X155966080Y-108742750D01*
X155976570Y-108764929D01*
X155984835Y-108788028D01*
X155990796Y-108811827D01*
X155994396Y-108836095D01*
X155995600Y-108860599D01*
X155995600Y-109510601D01*
X155994396Y-109535105D01*
X155990796Y-109559373D01*
X155984835Y-109583172D01*
X155976570Y-109606271D01*
X155966080Y-109628450D01*
X155953468Y-109649493D01*
X155938853Y-109669199D01*
X155922377Y-109687377D01*
X155904199Y-109703853D01*
X155884493Y-109718468D01*
X155863450Y-109731080D01*
X155841271Y-109741570D01*
X155818172Y-109749835D01*
X155794373Y-109755796D01*
X155770105Y-109759396D01*
X155745601Y-109760600D01*
X154845599Y-109760600D01*
X154821095Y-109759396D01*
X154796827Y-109755796D01*
X154773028Y-109749835D01*
X154749929Y-109741570D01*
X154727750Y-109731080D01*
X154706707Y-109718468D01*
X154687001Y-109703853D01*
X154668823Y-109687377D01*
X154652347Y-109669199D01*
X154637732Y-109649493D01*
X154625120Y-109628450D01*
X154614630Y-109606271D01*
X154606365Y-109583172D01*
X154600404Y-109559373D01*
X154596804Y-109535105D01*
X154595600Y-109510601D01*
X154595600Y-108860599D01*
X154596804Y-108836095D01*
X154600404Y-108811827D01*
X154606365Y-108788028D01*
X154614630Y-108764929D01*
X154625120Y-108742750D01*
X154637732Y-108721707D01*
X154652347Y-108702001D01*
X154668823Y-108683823D01*
X154687001Y-108667347D01*
X154706707Y-108652732D01*
X154727750Y-108640120D01*
X154749929Y-108629630D01*
X154773028Y-108621365D01*
X154796827Y-108615404D01*
X154821095Y-108611804D01*
X154845599Y-108610600D01*
X155745601Y-108610600D01*
X155770105Y-108611804D01*
X155770105Y-108611804D01*
G37*
D11*
X155295600Y-109185600D03*
D10*
G36*
X155770105Y-110661804D02*
G01*
X155794373Y-110665404D01*
X155818172Y-110671365D01*
X155841271Y-110679630D01*
X155863450Y-110690120D01*
X155884493Y-110702732D01*
X155904199Y-110717347D01*
X155922377Y-110733823D01*
X155938853Y-110752001D01*
X155953468Y-110771707D01*
X155966080Y-110792750D01*
X155976570Y-110814929D01*
X155984835Y-110838028D01*
X155990796Y-110861827D01*
X155994396Y-110886095D01*
X155995600Y-110910599D01*
X155995600Y-111560601D01*
X155994396Y-111585105D01*
X155990796Y-111609373D01*
X155984835Y-111633172D01*
X155976570Y-111656271D01*
X155966080Y-111678450D01*
X155953468Y-111699493D01*
X155938853Y-111719199D01*
X155922377Y-111737377D01*
X155904199Y-111753853D01*
X155884493Y-111768468D01*
X155863450Y-111781080D01*
X155841271Y-111791570D01*
X155818172Y-111799835D01*
X155794373Y-111805796D01*
X155770105Y-111809396D01*
X155745601Y-111810600D01*
X154845599Y-111810600D01*
X154821095Y-111809396D01*
X154796827Y-111805796D01*
X154773028Y-111799835D01*
X154749929Y-111791570D01*
X154727750Y-111781080D01*
X154706707Y-111768468D01*
X154687001Y-111753853D01*
X154668823Y-111737377D01*
X154652347Y-111719199D01*
X154637732Y-111699493D01*
X154625120Y-111678450D01*
X154614630Y-111656271D01*
X154606365Y-111633172D01*
X154600404Y-111609373D01*
X154596804Y-111585105D01*
X154595600Y-111560601D01*
X154595600Y-110910599D01*
X154596804Y-110886095D01*
X154600404Y-110861827D01*
X154606365Y-110838028D01*
X154614630Y-110814929D01*
X154625120Y-110792750D01*
X154637732Y-110771707D01*
X154652347Y-110752001D01*
X154668823Y-110733823D01*
X154687001Y-110717347D01*
X154706707Y-110702732D01*
X154727750Y-110690120D01*
X154749929Y-110679630D01*
X154773028Y-110671365D01*
X154796827Y-110665404D01*
X154821095Y-110661804D01*
X154845599Y-110660600D01*
X155745601Y-110660600D01*
X155770105Y-110661804D01*
X155770105Y-110661804D01*
G37*
D11*
X155295600Y-111235600D03*
D13*
X157735200Y-106019600D03*
D14*
X154635200Y-106019600D03*
D13*
X166035200Y-106019600D03*
D10*
G36*
X160784905Y-52946004D02*
G01*
X160809173Y-52949604D01*
X160832972Y-52955565D01*
X160856071Y-52963830D01*
X160878250Y-52974320D01*
X160899293Y-52986932D01*
X160918999Y-53001547D01*
X160937177Y-53018023D01*
X160953653Y-53036201D01*
X160968268Y-53055907D01*
X160980880Y-53076950D01*
X160991370Y-53099129D01*
X160999635Y-53122228D01*
X161005596Y-53146027D01*
X161009196Y-53170295D01*
X161010400Y-53194799D01*
X161010400Y-54094801D01*
X161009196Y-54119305D01*
X161005596Y-54143573D01*
X160999635Y-54167372D01*
X160991370Y-54190471D01*
X160980880Y-54212650D01*
X160968268Y-54233693D01*
X160953653Y-54253399D01*
X160937177Y-54271577D01*
X160918999Y-54288053D01*
X160899293Y-54302668D01*
X160878250Y-54315280D01*
X160856071Y-54325770D01*
X160832972Y-54334035D01*
X160809173Y-54339996D01*
X160784905Y-54343596D01*
X160760401Y-54344800D01*
X160110399Y-54344800D01*
X160085895Y-54343596D01*
X160061627Y-54339996D01*
X160037828Y-54334035D01*
X160014729Y-54325770D01*
X159992550Y-54315280D01*
X159971507Y-54302668D01*
X159951801Y-54288053D01*
X159933623Y-54271577D01*
X159917147Y-54253399D01*
X159902532Y-54233693D01*
X159889920Y-54212650D01*
X159879430Y-54190471D01*
X159871165Y-54167372D01*
X159865204Y-54143573D01*
X159861604Y-54119305D01*
X159860400Y-54094801D01*
X159860400Y-53194799D01*
X159861604Y-53170295D01*
X159865204Y-53146027D01*
X159871165Y-53122228D01*
X159879430Y-53099129D01*
X159889920Y-53076950D01*
X159902532Y-53055907D01*
X159917147Y-53036201D01*
X159933623Y-53018023D01*
X159951801Y-53001547D01*
X159971507Y-52986932D01*
X159992550Y-52974320D01*
X160014729Y-52963830D01*
X160037828Y-52955565D01*
X160061627Y-52949604D01*
X160085895Y-52946004D01*
X160110399Y-52944800D01*
X160760401Y-52944800D01*
X160784905Y-52946004D01*
X160784905Y-52946004D01*
G37*
D11*
X160435400Y-53644800D03*
D10*
G36*
X158734905Y-52946004D02*
G01*
X158759173Y-52949604D01*
X158782972Y-52955565D01*
X158806071Y-52963830D01*
X158828250Y-52974320D01*
X158849293Y-52986932D01*
X158868999Y-53001547D01*
X158887177Y-53018023D01*
X158903653Y-53036201D01*
X158918268Y-53055907D01*
X158930880Y-53076950D01*
X158941370Y-53099129D01*
X158949635Y-53122228D01*
X158955596Y-53146027D01*
X158959196Y-53170295D01*
X158960400Y-53194799D01*
X158960400Y-54094801D01*
X158959196Y-54119305D01*
X158955596Y-54143573D01*
X158949635Y-54167372D01*
X158941370Y-54190471D01*
X158930880Y-54212650D01*
X158918268Y-54233693D01*
X158903653Y-54253399D01*
X158887177Y-54271577D01*
X158868999Y-54288053D01*
X158849293Y-54302668D01*
X158828250Y-54315280D01*
X158806071Y-54325770D01*
X158782972Y-54334035D01*
X158759173Y-54339996D01*
X158734905Y-54343596D01*
X158710401Y-54344800D01*
X158060399Y-54344800D01*
X158035895Y-54343596D01*
X158011627Y-54339996D01*
X157987828Y-54334035D01*
X157964729Y-54325770D01*
X157942550Y-54315280D01*
X157921507Y-54302668D01*
X157901801Y-54288053D01*
X157883623Y-54271577D01*
X157867147Y-54253399D01*
X157852532Y-54233693D01*
X157839920Y-54212650D01*
X157829430Y-54190471D01*
X157821165Y-54167372D01*
X157815204Y-54143573D01*
X157811604Y-54119305D01*
X157810400Y-54094801D01*
X157810400Y-53194799D01*
X157811604Y-53170295D01*
X157815204Y-53146027D01*
X157821165Y-53122228D01*
X157829430Y-53099129D01*
X157839920Y-53076950D01*
X157852532Y-53055907D01*
X157867147Y-53036201D01*
X157883623Y-53018023D01*
X157901801Y-53001547D01*
X157921507Y-52986932D01*
X157942550Y-52974320D01*
X157964729Y-52963830D01*
X157987828Y-52955565D01*
X158011627Y-52949604D01*
X158035895Y-52946004D01*
X158060399Y-52944800D01*
X158710401Y-52944800D01*
X158734905Y-52946004D01*
X158734905Y-52946004D01*
G37*
D11*
X158385400Y-53644800D03*
D10*
G36*
X158607905Y-50634604D02*
G01*
X158632173Y-50638204D01*
X158655972Y-50644165D01*
X158679071Y-50652430D01*
X158701250Y-50662920D01*
X158722293Y-50675532D01*
X158741999Y-50690147D01*
X158760177Y-50706623D01*
X158776653Y-50724801D01*
X158791268Y-50744507D01*
X158803880Y-50765550D01*
X158814370Y-50787729D01*
X158822635Y-50810828D01*
X158828596Y-50834627D01*
X158832196Y-50858895D01*
X158833400Y-50883399D01*
X158833400Y-51783401D01*
X158832196Y-51807905D01*
X158828596Y-51832173D01*
X158822635Y-51855972D01*
X158814370Y-51879071D01*
X158803880Y-51901250D01*
X158791268Y-51922293D01*
X158776653Y-51941999D01*
X158760177Y-51960177D01*
X158741999Y-51976653D01*
X158722293Y-51991268D01*
X158701250Y-52003880D01*
X158679071Y-52014370D01*
X158655972Y-52022635D01*
X158632173Y-52028596D01*
X158607905Y-52032196D01*
X158583401Y-52033400D01*
X157933399Y-52033400D01*
X157908895Y-52032196D01*
X157884627Y-52028596D01*
X157860828Y-52022635D01*
X157837729Y-52014370D01*
X157815550Y-52003880D01*
X157794507Y-51991268D01*
X157774801Y-51976653D01*
X157756623Y-51960177D01*
X157740147Y-51941999D01*
X157725532Y-51922293D01*
X157712920Y-51901250D01*
X157702430Y-51879071D01*
X157694165Y-51855972D01*
X157688204Y-51832173D01*
X157684604Y-51807905D01*
X157683400Y-51783401D01*
X157683400Y-50883399D01*
X157684604Y-50858895D01*
X157688204Y-50834627D01*
X157694165Y-50810828D01*
X157702430Y-50787729D01*
X157712920Y-50765550D01*
X157725532Y-50744507D01*
X157740147Y-50724801D01*
X157756623Y-50706623D01*
X157774801Y-50690147D01*
X157794507Y-50675532D01*
X157815550Y-50662920D01*
X157837729Y-50652430D01*
X157860828Y-50644165D01*
X157884627Y-50638204D01*
X157908895Y-50634604D01*
X157933399Y-50633400D01*
X158583401Y-50633400D01*
X158607905Y-50634604D01*
X158607905Y-50634604D01*
G37*
D11*
X158258400Y-51333400D03*
D10*
G36*
X160657905Y-50634604D02*
G01*
X160682173Y-50638204D01*
X160705972Y-50644165D01*
X160729071Y-50652430D01*
X160751250Y-50662920D01*
X160772293Y-50675532D01*
X160791999Y-50690147D01*
X160810177Y-50706623D01*
X160826653Y-50724801D01*
X160841268Y-50744507D01*
X160853880Y-50765550D01*
X160864370Y-50787729D01*
X160872635Y-50810828D01*
X160878596Y-50834627D01*
X160882196Y-50858895D01*
X160883400Y-50883399D01*
X160883400Y-51783401D01*
X160882196Y-51807905D01*
X160878596Y-51832173D01*
X160872635Y-51855972D01*
X160864370Y-51879071D01*
X160853880Y-51901250D01*
X160841268Y-51922293D01*
X160826653Y-51941999D01*
X160810177Y-51960177D01*
X160791999Y-51976653D01*
X160772293Y-51991268D01*
X160751250Y-52003880D01*
X160729071Y-52014370D01*
X160705972Y-52022635D01*
X160682173Y-52028596D01*
X160657905Y-52032196D01*
X160633401Y-52033400D01*
X159983399Y-52033400D01*
X159958895Y-52032196D01*
X159934627Y-52028596D01*
X159910828Y-52022635D01*
X159887729Y-52014370D01*
X159865550Y-52003880D01*
X159844507Y-51991268D01*
X159824801Y-51976653D01*
X159806623Y-51960177D01*
X159790147Y-51941999D01*
X159775532Y-51922293D01*
X159762920Y-51901250D01*
X159752430Y-51879071D01*
X159744165Y-51855972D01*
X159738204Y-51832173D01*
X159734604Y-51807905D01*
X159733400Y-51783401D01*
X159733400Y-50883399D01*
X159734604Y-50858895D01*
X159738204Y-50834627D01*
X159744165Y-50810828D01*
X159752430Y-50787729D01*
X159762920Y-50765550D01*
X159775532Y-50744507D01*
X159790147Y-50724801D01*
X159806623Y-50706623D01*
X159824801Y-50690147D01*
X159844507Y-50675532D01*
X159865550Y-50662920D01*
X159887729Y-50652430D01*
X159910828Y-50644165D01*
X159934627Y-50638204D01*
X159958895Y-50634604D01*
X159983399Y-50633400D01*
X160633401Y-50633400D01*
X160657905Y-50634604D01*
X160657905Y-50634604D01*
G37*
D11*
X160308400Y-51333400D03*
D10*
G36*
X161140505Y-32803804D02*
G01*
X161164773Y-32807404D01*
X161188572Y-32813365D01*
X161211671Y-32821630D01*
X161233850Y-32832120D01*
X161254893Y-32844732D01*
X161274599Y-32859347D01*
X161292777Y-32875823D01*
X161309253Y-32894001D01*
X161323868Y-32913707D01*
X161336480Y-32934750D01*
X161346970Y-32956929D01*
X161355235Y-32980028D01*
X161361196Y-33003827D01*
X161364796Y-33028095D01*
X161366000Y-33052599D01*
X161366000Y-33952601D01*
X161364796Y-33977105D01*
X161361196Y-34001373D01*
X161355235Y-34025172D01*
X161346970Y-34048271D01*
X161336480Y-34070450D01*
X161323868Y-34091493D01*
X161309253Y-34111199D01*
X161292777Y-34129377D01*
X161274599Y-34145853D01*
X161254893Y-34160468D01*
X161233850Y-34173080D01*
X161211671Y-34183570D01*
X161188572Y-34191835D01*
X161164773Y-34197796D01*
X161140505Y-34201396D01*
X161116001Y-34202600D01*
X160465999Y-34202600D01*
X160441495Y-34201396D01*
X160417227Y-34197796D01*
X160393428Y-34191835D01*
X160370329Y-34183570D01*
X160348150Y-34173080D01*
X160327107Y-34160468D01*
X160307401Y-34145853D01*
X160289223Y-34129377D01*
X160272747Y-34111199D01*
X160258132Y-34091493D01*
X160245520Y-34070450D01*
X160235030Y-34048271D01*
X160226765Y-34025172D01*
X160220804Y-34001373D01*
X160217204Y-33977105D01*
X160216000Y-33952601D01*
X160216000Y-33052599D01*
X160217204Y-33028095D01*
X160220804Y-33003827D01*
X160226765Y-32980028D01*
X160235030Y-32956929D01*
X160245520Y-32934750D01*
X160258132Y-32913707D01*
X160272747Y-32894001D01*
X160289223Y-32875823D01*
X160307401Y-32859347D01*
X160327107Y-32844732D01*
X160348150Y-32832120D01*
X160370329Y-32821630D01*
X160393428Y-32813365D01*
X160417227Y-32807404D01*
X160441495Y-32803804D01*
X160465999Y-32802600D01*
X161116001Y-32802600D01*
X161140505Y-32803804D01*
X161140505Y-32803804D01*
G37*
D11*
X160791000Y-33502600D03*
D10*
G36*
X159090505Y-32803804D02*
G01*
X159114773Y-32807404D01*
X159138572Y-32813365D01*
X159161671Y-32821630D01*
X159183850Y-32832120D01*
X159204893Y-32844732D01*
X159224599Y-32859347D01*
X159242777Y-32875823D01*
X159259253Y-32894001D01*
X159273868Y-32913707D01*
X159286480Y-32934750D01*
X159296970Y-32956929D01*
X159305235Y-32980028D01*
X159311196Y-33003827D01*
X159314796Y-33028095D01*
X159316000Y-33052599D01*
X159316000Y-33952601D01*
X159314796Y-33977105D01*
X159311196Y-34001373D01*
X159305235Y-34025172D01*
X159296970Y-34048271D01*
X159286480Y-34070450D01*
X159273868Y-34091493D01*
X159259253Y-34111199D01*
X159242777Y-34129377D01*
X159224599Y-34145853D01*
X159204893Y-34160468D01*
X159183850Y-34173080D01*
X159161671Y-34183570D01*
X159138572Y-34191835D01*
X159114773Y-34197796D01*
X159090505Y-34201396D01*
X159066001Y-34202600D01*
X158415999Y-34202600D01*
X158391495Y-34201396D01*
X158367227Y-34197796D01*
X158343428Y-34191835D01*
X158320329Y-34183570D01*
X158298150Y-34173080D01*
X158277107Y-34160468D01*
X158257401Y-34145853D01*
X158239223Y-34129377D01*
X158222747Y-34111199D01*
X158208132Y-34091493D01*
X158195520Y-34070450D01*
X158185030Y-34048271D01*
X158176765Y-34025172D01*
X158170804Y-34001373D01*
X158167204Y-33977105D01*
X158166000Y-33952601D01*
X158166000Y-33052599D01*
X158167204Y-33028095D01*
X158170804Y-33003827D01*
X158176765Y-32980028D01*
X158185030Y-32956929D01*
X158195520Y-32934750D01*
X158208132Y-32913707D01*
X158222747Y-32894001D01*
X158239223Y-32875823D01*
X158257401Y-32859347D01*
X158277107Y-32844732D01*
X158298150Y-32832120D01*
X158320329Y-32821630D01*
X158343428Y-32813365D01*
X158367227Y-32807404D01*
X158391495Y-32803804D01*
X158415999Y-32802600D01*
X159066001Y-32802600D01*
X159090505Y-32803804D01*
X159090505Y-32803804D01*
G37*
D11*
X158741000Y-33502600D03*
D10*
G36*
X158938105Y-29908204D02*
G01*
X158962373Y-29911804D01*
X158986172Y-29917765D01*
X159009271Y-29926030D01*
X159031450Y-29936520D01*
X159052493Y-29949132D01*
X159072199Y-29963747D01*
X159090377Y-29980223D01*
X159106853Y-29998401D01*
X159121468Y-30018107D01*
X159134080Y-30039150D01*
X159144570Y-30061329D01*
X159152835Y-30084428D01*
X159158796Y-30108227D01*
X159162396Y-30132495D01*
X159163600Y-30156999D01*
X159163600Y-31057001D01*
X159162396Y-31081505D01*
X159158796Y-31105773D01*
X159152835Y-31129572D01*
X159144570Y-31152671D01*
X159134080Y-31174850D01*
X159121468Y-31195893D01*
X159106853Y-31215599D01*
X159090377Y-31233777D01*
X159072199Y-31250253D01*
X159052493Y-31264868D01*
X159031450Y-31277480D01*
X159009271Y-31287970D01*
X158986172Y-31296235D01*
X158962373Y-31302196D01*
X158938105Y-31305796D01*
X158913601Y-31307000D01*
X158263599Y-31307000D01*
X158239095Y-31305796D01*
X158214827Y-31302196D01*
X158191028Y-31296235D01*
X158167929Y-31287970D01*
X158145750Y-31277480D01*
X158124707Y-31264868D01*
X158105001Y-31250253D01*
X158086823Y-31233777D01*
X158070347Y-31215599D01*
X158055732Y-31195893D01*
X158043120Y-31174850D01*
X158032630Y-31152671D01*
X158024365Y-31129572D01*
X158018404Y-31105773D01*
X158014804Y-31081505D01*
X158013600Y-31057001D01*
X158013600Y-30156999D01*
X158014804Y-30132495D01*
X158018404Y-30108227D01*
X158024365Y-30084428D01*
X158032630Y-30061329D01*
X158043120Y-30039150D01*
X158055732Y-30018107D01*
X158070347Y-29998401D01*
X158086823Y-29980223D01*
X158105001Y-29963747D01*
X158124707Y-29949132D01*
X158145750Y-29936520D01*
X158167929Y-29926030D01*
X158191028Y-29917765D01*
X158214827Y-29911804D01*
X158239095Y-29908204D01*
X158263599Y-29907000D01*
X158913601Y-29907000D01*
X158938105Y-29908204D01*
X158938105Y-29908204D01*
G37*
D11*
X158588600Y-30607000D03*
D10*
G36*
X160988105Y-29908204D02*
G01*
X161012373Y-29911804D01*
X161036172Y-29917765D01*
X161059271Y-29926030D01*
X161081450Y-29936520D01*
X161102493Y-29949132D01*
X161122199Y-29963747D01*
X161140377Y-29980223D01*
X161156853Y-29998401D01*
X161171468Y-30018107D01*
X161184080Y-30039150D01*
X161194570Y-30061329D01*
X161202835Y-30084428D01*
X161208796Y-30108227D01*
X161212396Y-30132495D01*
X161213600Y-30156999D01*
X161213600Y-31057001D01*
X161212396Y-31081505D01*
X161208796Y-31105773D01*
X161202835Y-31129572D01*
X161194570Y-31152671D01*
X161184080Y-31174850D01*
X161171468Y-31195893D01*
X161156853Y-31215599D01*
X161140377Y-31233777D01*
X161122199Y-31250253D01*
X161102493Y-31264868D01*
X161081450Y-31277480D01*
X161059271Y-31287970D01*
X161036172Y-31296235D01*
X161012373Y-31302196D01*
X160988105Y-31305796D01*
X160963601Y-31307000D01*
X160313599Y-31307000D01*
X160289095Y-31305796D01*
X160264827Y-31302196D01*
X160241028Y-31296235D01*
X160217929Y-31287970D01*
X160195750Y-31277480D01*
X160174707Y-31264868D01*
X160155001Y-31250253D01*
X160136823Y-31233777D01*
X160120347Y-31215599D01*
X160105732Y-31195893D01*
X160093120Y-31174850D01*
X160082630Y-31152671D01*
X160074365Y-31129572D01*
X160068404Y-31105773D01*
X160064804Y-31081505D01*
X160063600Y-31057001D01*
X160063600Y-30156999D01*
X160064804Y-30132495D01*
X160068404Y-30108227D01*
X160074365Y-30084428D01*
X160082630Y-30061329D01*
X160093120Y-30039150D01*
X160105732Y-30018107D01*
X160120347Y-29998401D01*
X160136823Y-29980223D01*
X160155001Y-29963747D01*
X160174707Y-29949132D01*
X160195750Y-29936520D01*
X160217929Y-29926030D01*
X160241028Y-29917765D01*
X160264827Y-29911804D01*
X160289095Y-29908204D01*
X160313599Y-29907000D01*
X160963601Y-29907000D01*
X160988105Y-29908204D01*
X160988105Y-29908204D01*
G37*
D11*
X160638600Y-30607000D03*
D10*
G36*
X162537505Y-99402604D02*
G01*
X162561773Y-99406204D01*
X162585572Y-99412165D01*
X162608671Y-99420430D01*
X162630850Y-99430920D01*
X162651893Y-99443532D01*
X162671599Y-99458147D01*
X162689777Y-99474623D01*
X162706253Y-99492801D01*
X162720868Y-99512507D01*
X162733480Y-99533550D01*
X162743970Y-99555729D01*
X162752235Y-99578828D01*
X162758196Y-99602627D01*
X162761796Y-99626895D01*
X162763000Y-99651399D01*
X162763000Y-100551401D01*
X162761796Y-100575905D01*
X162758196Y-100600173D01*
X162752235Y-100623972D01*
X162743970Y-100647071D01*
X162733480Y-100669250D01*
X162720868Y-100690293D01*
X162706253Y-100709999D01*
X162689777Y-100728177D01*
X162671599Y-100744653D01*
X162651893Y-100759268D01*
X162630850Y-100771880D01*
X162608671Y-100782370D01*
X162585572Y-100790635D01*
X162561773Y-100796596D01*
X162537505Y-100800196D01*
X162513001Y-100801400D01*
X161862999Y-100801400D01*
X161838495Y-100800196D01*
X161814227Y-100796596D01*
X161790428Y-100790635D01*
X161767329Y-100782370D01*
X161745150Y-100771880D01*
X161724107Y-100759268D01*
X161704401Y-100744653D01*
X161686223Y-100728177D01*
X161669747Y-100709999D01*
X161655132Y-100690293D01*
X161642520Y-100669250D01*
X161632030Y-100647071D01*
X161623765Y-100623972D01*
X161617804Y-100600173D01*
X161614204Y-100575905D01*
X161613000Y-100551401D01*
X161613000Y-99651399D01*
X161614204Y-99626895D01*
X161617804Y-99602627D01*
X161623765Y-99578828D01*
X161632030Y-99555729D01*
X161642520Y-99533550D01*
X161655132Y-99512507D01*
X161669747Y-99492801D01*
X161686223Y-99474623D01*
X161704401Y-99458147D01*
X161724107Y-99443532D01*
X161745150Y-99430920D01*
X161767329Y-99420430D01*
X161790428Y-99412165D01*
X161814227Y-99406204D01*
X161838495Y-99402604D01*
X161862999Y-99401400D01*
X162513001Y-99401400D01*
X162537505Y-99402604D01*
X162537505Y-99402604D01*
G37*
D11*
X162188000Y-100101400D03*
D10*
G36*
X160487505Y-99402604D02*
G01*
X160511773Y-99406204D01*
X160535572Y-99412165D01*
X160558671Y-99420430D01*
X160580850Y-99430920D01*
X160601893Y-99443532D01*
X160621599Y-99458147D01*
X160639777Y-99474623D01*
X160656253Y-99492801D01*
X160670868Y-99512507D01*
X160683480Y-99533550D01*
X160693970Y-99555729D01*
X160702235Y-99578828D01*
X160708196Y-99602627D01*
X160711796Y-99626895D01*
X160713000Y-99651399D01*
X160713000Y-100551401D01*
X160711796Y-100575905D01*
X160708196Y-100600173D01*
X160702235Y-100623972D01*
X160693970Y-100647071D01*
X160683480Y-100669250D01*
X160670868Y-100690293D01*
X160656253Y-100709999D01*
X160639777Y-100728177D01*
X160621599Y-100744653D01*
X160601893Y-100759268D01*
X160580850Y-100771880D01*
X160558671Y-100782370D01*
X160535572Y-100790635D01*
X160511773Y-100796596D01*
X160487505Y-100800196D01*
X160463001Y-100801400D01*
X159812999Y-100801400D01*
X159788495Y-100800196D01*
X159764227Y-100796596D01*
X159740428Y-100790635D01*
X159717329Y-100782370D01*
X159695150Y-100771880D01*
X159674107Y-100759268D01*
X159654401Y-100744653D01*
X159636223Y-100728177D01*
X159619747Y-100709999D01*
X159605132Y-100690293D01*
X159592520Y-100669250D01*
X159582030Y-100647071D01*
X159573765Y-100623972D01*
X159567804Y-100600173D01*
X159564204Y-100575905D01*
X159563000Y-100551401D01*
X159563000Y-99651399D01*
X159564204Y-99626895D01*
X159567804Y-99602627D01*
X159573765Y-99578828D01*
X159582030Y-99555729D01*
X159592520Y-99533550D01*
X159605132Y-99512507D01*
X159619747Y-99492801D01*
X159636223Y-99474623D01*
X159654401Y-99458147D01*
X159674107Y-99443532D01*
X159695150Y-99430920D01*
X159717329Y-99420430D01*
X159740428Y-99412165D01*
X159764227Y-99406204D01*
X159788495Y-99402604D01*
X159812999Y-99401400D01*
X160463001Y-99401400D01*
X160487505Y-99402604D01*
X160487505Y-99402604D01*
G37*
D11*
X160138000Y-100101400D03*
D10*
G36*
X162512105Y-119290804D02*
G01*
X162536373Y-119294404D01*
X162560172Y-119300365D01*
X162583271Y-119308630D01*
X162605450Y-119319120D01*
X162626493Y-119331732D01*
X162646199Y-119346347D01*
X162664377Y-119362823D01*
X162680853Y-119381001D01*
X162695468Y-119400707D01*
X162708080Y-119421750D01*
X162718570Y-119443929D01*
X162726835Y-119467028D01*
X162732796Y-119490827D01*
X162736396Y-119515095D01*
X162737600Y-119539599D01*
X162737600Y-120439601D01*
X162736396Y-120464105D01*
X162732796Y-120488373D01*
X162726835Y-120512172D01*
X162718570Y-120535271D01*
X162708080Y-120557450D01*
X162695468Y-120578493D01*
X162680853Y-120598199D01*
X162664377Y-120616377D01*
X162646199Y-120632853D01*
X162626493Y-120647468D01*
X162605450Y-120660080D01*
X162583271Y-120670570D01*
X162560172Y-120678835D01*
X162536373Y-120684796D01*
X162512105Y-120688396D01*
X162487601Y-120689600D01*
X161837599Y-120689600D01*
X161813095Y-120688396D01*
X161788827Y-120684796D01*
X161765028Y-120678835D01*
X161741929Y-120670570D01*
X161719750Y-120660080D01*
X161698707Y-120647468D01*
X161679001Y-120632853D01*
X161660823Y-120616377D01*
X161644347Y-120598199D01*
X161629732Y-120578493D01*
X161617120Y-120557450D01*
X161606630Y-120535271D01*
X161598365Y-120512172D01*
X161592404Y-120488373D01*
X161588804Y-120464105D01*
X161587600Y-120439601D01*
X161587600Y-119539599D01*
X161588804Y-119515095D01*
X161592404Y-119490827D01*
X161598365Y-119467028D01*
X161606630Y-119443929D01*
X161617120Y-119421750D01*
X161629732Y-119400707D01*
X161644347Y-119381001D01*
X161660823Y-119362823D01*
X161679001Y-119346347D01*
X161698707Y-119331732D01*
X161719750Y-119319120D01*
X161741929Y-119308630D01*
X161765028Y-119300365D01*
X161788827Y-119294404D01*
X161813095Y-119290804D01*
X161837599Y-119289600D01*
X162487601Y-119289600D01*
X162512105Y-119290804D01*
X162512105Y-119290804D01*
G37*
D11*
X162162600Y-119989600D03*
D10*
G36*
X160462105Y-119290804D02*
G01*
X160486373Y-119294404D01*
X160510172Y-119300365D01*
X160533271Y-119308630D01*
X160555450Y-119319120D01*
X160576493Y-119331732D01*
X160596199Y-119346347D01*
X160614377Y-119362823D01*
X160630853Y-119381001D01*
X160645468Y-119400707D01*
X160658080Y-119421750D01*
X160668570Y-119443929D01*
X160676835Y-119467028D01*
X160682796Y-119490827D01*
X160686396Y-119515095D01*
X160687600Y-119539599D01*
X160687600Y-120439601D01*
X160686396Y-120464105D01*
X160682796Y-120488373D01*
X160676835Y-120512172D01*
X160668570Y-120535271D01*
X160658080Y-120557450D01*
X160645468Y-120578493D01*
X160630853Y-120598199D01*
X160614377Y-120616377D01*
X160596199Y-120632853D01*
X160576493Y-120647468D01*
X160555450Y-120660080D01*
X160533271Y-120670570D01*
X160510172Y-120678835D01*
X160486373Y-120684796D01*
X160462105Y-120688396D01*
X160437601Y-120689600D01*
X159787599Y-120689600D01*
X159763095Y-120688396D01*
X159738827Y-120684796D01*
X159715028Y-120678835D01*
X159691929Y-120670570D01*
X159669750Y-120660080D01*
X159648707Y-120647468D01*
X159629001Y-120632853D01*
X159610823Y-120616377D01*
X159594347Y-120598199D01*
X159579732Y-120578493D01*
X159567120Y-120557450D01*
X159556630Y-120535271D01*
X159548365Y-120512172D01*
X159542404Y-120488373D01*
X159538804Y-120464105D01*
X159537600Y-120439601D01*
X159537600Y-119539599D01*
X159538804Y-119515095D01*
X159542404Y-119490827D01*
X159548365Y-119467028D01*
X159556630Y-119443929D01*
X159567120Y-119421750D01*
X159579732Y-119400707D01*
X159594347Y-119381001D01*
X159610823Y-119362823D01*
X159629001Y-119346347D01*
X159648707Y-119331732D01*
X159669750Y-119319120D01*
X159691929Y-119308630D01*
X159715028Y-119300365D01*
X159738827Y-119294404D01*
X159763095Y-119290804D01*
X159787599Y-119289600D01*
X160437601Y-119289600D01*
X160462105Y-119290804D01*
X160462105Y-119290804D01*
G37*
D11*
X160112600Y-119989600D03*
D10*
G36*
X160462105Y-121678404D02*
G01*
X160486373Y-121682004D01*
X160510172Y-121687965D01*
X160533271Y-121696230D01*
X160555450Y-121706720D01*
X160576493Y-121719332D01*
X160596199Y-121733947D01*
X160614377Y-121750423D01*
X160630853Y-121768601D01*
X160645468Y-121788307D01*
X160658080Y-121809350D01*
X160668570Y-121831529D01*
X160676835Y-121854628D01*
X160682796Y-121878427D01*
X160686396Y-121902695D01*
X160687600Y-121927199D01*
X160687600Y-122827201D01*
X160686396Y-122851705D01*
X160682796Y-122875973D01*
X160676835Y-122899772D01*
X160668570Y-122922871D01*
X160658080Y-122945050D01*
X160645468Y-122966093D01*
X160630853Y-122985799D01*
X160614377Y-123003977D01*
X160596199Y-123020453D01*
X160576493Y-123035068D01*
X160555450Y-123047680D01*
X160533271Y-123058170D01*
X160510172Y-123066435D01*
X160486373Y-123072396D01*
X160462105Y-123075996D01*
X160437601Y-123077200D01*
X159787599Y-123077200D01*
X159763095Y-123075996D01*
X159738827Y-123072396D01*
X159715028Y-123066435D01*
X159691929Y-123058170D01*
X159669750Y-123047680D01*
X159648707Y-123035068D01*
X159629001Y-123020453D01*
X159610823Y-123003977D01*
X159594347Y-122985799D01*
X159579732Y-122966093D01*
X159567120Y-122945050D01*
X159556630Y-122922871D01*
X159548365Y-122899772D01*
X159542404Y-122875973D01*
X159538804Y-122851705D01*
X159537600Y-122827201D01*
X159537600Y-121927199D01*
X159538804Y-121902695D01*
X159542404Y-121878427D01*
X159548365Y-121854628D01*
X159556630Y-121831529D01*
X159567120Y-121809350D01*
X159579732Y-121788307D01*
X159594347Y-121768601D01*
X159610823Y-121750423D01*
X159629001Y-121733947D01*
X159648707Y-121719332D01*
X159669750Y-121706720D01*
X159691929Y-121696230D01*
X159715028Y-121687965D01*
X159738827Y-121682004D01*
X159763095Y-121678404D01*
X159787599Y-121677200D01*
X160437601Y-121677200D01*
X160462105Y-121678404D01*
X160462105Y-121678404D01*
G37*
D11*
X160112600Y-122377200D03*
D10*
G36*
X162512105Y-121678404D02*
G01*
X162536373Y-121682004D01*
X162560172Y-121687965D01*
X162583271Y-121696230D01*
X162605450Y-121706720D01*
X162626493Y-121719332D01*
X162646199Y-121733947D01*
X162664377Y-121750423D01*
X162680853Y-121768601D01*
X162695468Y-121788307D01*
X162708080Y-121809350D01*
X162718570Y-121831529D01*
X162726835Y-121854628D01*
X162732796Y-121878427D01*
X162736396Y-121902695D01*
X162737600Y-121927199D01*
X162737600Y-122827201D01*
X162736396Y-122851705D01*
X162732796Y-122875973D01*
X162726835Y-122899772D01*
X162718570Y-122922871D01*
X162708080Y-122945050D01*
X162695468Y-122966093D01*
X162680853Y-122985799D01*
X162664377Y-123003977D01*
X162646199Y-123020453D01*
X162626493Y-123035068D01*
X162605450Y-123047680D01*
X162583271Y-123058170D01*
X162560172Y-123066435D01*
X162536373Y-123072396D01*
X162512105Y-123075996D01*
X162487601Y-123077200D01*
X161837599Y-123077200D01*
X161813095Y-123075996D01*
X161788827Y-123072396D01*
X161765028Y-123066435D01*
X161741929Y-123058170D01*
X161719750Y-123047680D01*
X161698707Y-123035068D01*
X161679001Y-123020453D01*
X161660823Y-123003977D01*
X161644347Y-122985799D01*
X161629732Y-122966093D01*
X161617120Y-122945050D01*
X161606630Y-122922871D01*
X161598365Y-122899772D01*
X161592404Y-122875973D01*
X161588804Y-122851705D01*
X161587600Y-122827201D01*
X161587600Y-121927199D01*
X161588804Y-121902695D01*
X161592404Y-121878427D01*
X161598365Y-121854628D01*
X161606630Y-121831529D01*
X161617120Y-121809350D01*
X161629732Y-121788307D01*
X161644347Y-121768601D01*
X161660823Y-121750423D01*
X161679001Y-121733947D01*
X161698707Y-121719332D01*
X161719750Y-121706720D01*
X161741929Y-121696230D01*
X161765028Y-121687965D01*
X161788827Y-121682004D01*
X161813095Y-121678404D01*
X161837599Y-121677200D01*
X162487601Y-121677200D01*
X162512105Y-121678404D01*
X162512105Y-121678404D01*
G37*
D11*
X162162600Y-122377200D03*
D18*
X156816000Y-39934600D03*
X156816000Y-40584600D03*
X156816000Y-41234600D03*
X156816000Y-41884600D03*
X156816000Y-42534600D03*
X156816000Y-43184600D03*
X156816000Y-43834600D03*
X162716000Y-43834600D03*
X162716000Y-43184600D03*
X162716000Y-42534600D03*
X162716000Y-41884600D03*
X162716000Y-41234600D03*
X162716000Y-40584600D03*
X162716000Y-39934600D03*
X157451000Y-113176600D03*
X157451000Y-112526600D03*
X157451000Y-111876600D03*
X157451000Y-111226600D03*
X157451000Y-110576600D03*
X157451000Y-109926600D03*
X157451000Y-109276600D03*
X163351000Y-109276600D03*
X163351000Y-109926600D03*
X163351000Y-110576600D03*
X163351000Y-111226600D03*
X163351000Y-111876600D03*
X163351000Y-112526600D03*
X163351000Y-113176600D03*
D12*
X166248400Y-81737200D03*
X163748400Y-81737200D03*
X166578600Y-70866000D03*
X164078600Y-70866000D03*
D19*
X164668200Y-83388200D03*
X154838400Y-72517000D03*
D20*
X164338000Y-52476400D03*
X165227000Y-30073600D03*
X157124400Y-38125400D03*
X159029400Y-39420800D03*
X156743400Y-23596600D03*
X160299400Y-23647400D03*
X164465000Y-23596600D03*
X165049200Y-62306200D03*
D19*
X161848800Y-79679800D03*
X158775400Y-81432400D03*
D20*
X164287200Y-107238800D03*
X157657800Y-60680600D03*
X164261800Y-40132000D03*
X164287200Y-43688000D03*
X155397200Y-43408600D03*
X155549600Y-41224200D03*
X164719000Y-108381800D03*
X164795200Y-113258600D03*
X158877000Y-111379000D03*
D21*
X163385400Y-111261000D02*
X163351000Y-111226600D01*
X166116000Y-111261000D02*
X163385400Y-111261000D01*
X166116000Y-111261000D02*
X167605201Y-109771799D01*
X156807000Y-41875600D02*
X156816000Y-41884600D01*
X154974400Y-41884600D02*
X156816000Y-41884600D01*
X154609800Y-42249200D02*
X154974400Y-41884600D01*
X153314391Y-60848591D02*
X154873600Y-62407800D01*
X153314391Y-43544609D02*
X153314391Y-60848591D01*
X154609800Y-42249200D02*
X153314391Y-43544609D01*
X167605201Y-82340001D02*
X167605201Y-109771799D01*
X167002400Y-81737200D02*
X167605201Y-82340001D01*
X166248400Y-81737200D02*
X167002400Y-81737200D01*
X153509800Y-63771600D02*
X154873600Y-62407800D01*
X153396999Y-63884401D02*
X153509800Y-63771600D01*
X153396999Y-68955399D02*
X153396999Y-63884401D01*
X154477400Y-70035800D02*
X153396999Y-68955399D01*
X154477400Y-70789800D02*
X154477400Y-70035800D01*
X165351400Y-83388200D02*
X164668200Y-83388200D01*
X166248400Y-82491200D02*
X165351400Y-83388200D01*
X166248400Y-81737200D02*
X166248400Y-82491200D01*
X154838400Y-71150800D02*
X154477400Y-70789800D01*
X154838400Y-72517000D02*
X154838400Y-71150800D01*
X155295600Y-109185600D02*
X155295600Y-108813600D01*
X166116000Y-109211000D02*
X166116000Y-108788200D01*
X155304600Y-111226600D02*
X155295600Y-111235600D01*
X157451000Y-111226600D02*
X155304600Y-111226600D01*
X164278200Y-41884600D02*
X165658800Y-43265200D01*
X162716000Y-41884600D02*
X164278200Y-41884600D01*
X155922110Y-89273890D02*
X155051400Y-90144600D01*
X153212800Y-110236000D02*
X153212800Y-91983200D01*
X153212800Y-91983200D02*
X155051400Y-90144600D01*
X154212400Y-111235600D02*
X153212800Y-110236000D01*
X155295600Y-111235600D02*
X154212400Y-111235600D01*
X154680600Y-82542000D02*
X154680600Y-81788000D01*
X153262999Y-87456199D02*
X153262999Y-83959601D01*
X155051400Y-89244600D02*
X153262999Y-87456199D01*
X155051400Y-90144600D02*
X155051400Y-89244600D01*
X166282172Y-43888572D02*
X165658800Y-43265200D01*
X167539001Y-45145401D02*
X166282172Y-43888572D01*
X167539001Y-69151599D02*
X167539001Y-45145401D01*
X166578600Y-70112000D02*
X167539001Y-69151599D01*
X166578600Y-70866000D02*
X166578600Y-70112000D01*
X165367399Y-81804003D02*
X165367399Y-80403001D01*
X153701400Y-83521200D02*
X154485401Y-82737199D01*
X154485401Y-82737199D02*
X164434203Y-82737199D01*
X153262999Y-83959601D02*
X153701400Y-83521200D01*
X164434203Y-82737199D02*
X165367399Y-81804003D01*
X153701400Y-83521200D02*
X154680600Y-82542000D01*
X165367399Y-80403001D02*
X167462200Y-78308200D01*
X166578600Y-71620000D02*
X166578600Y-70866000D01*
X167462200Y-72503600D02*
X166578600Y-71620000D01*
X167462200Y-78308200D02*
X167462200Y-72503600D01*
D22*
X156816000Y-40584600D02*
X156816000Y-39934600D01*
X157316000Y-39934600D02*
X156816000Y-39934600D01*
X158859938Y-44424600D02*
X158859938Y-41478538D01*
X161814499Y-52265701D02*
X161058772Y-53021428D01*
X161058772Y-53021428D02*
X160435400Y-53644800D01*
X161814499Y-44433099D02*
X161814499Y-52265701D01*
X158792100Y-41410700D02*
X161814499Y-44433099D01*
X158859938Y-41478538D02*
X158792100Y-41410700D01*
X158792100Y-41410700D02*
X157316000Y-39934600D01*
X156816000Y-43834600D02*
X156816000Y-43184600D01*
X157668000Y-43834600D02*
X157835600Y-44002200D01*
X156816000Y-43834600D02*
X157668000Y-43834600D01*
X157835600Y-48860600D02*
X160308400Y-51333400D01*
X157835600Y-45008800D02*
X157835600Y-48860600D01*
X157835600Y-44002200D02*
X157835600Y-45008800D01*
X157835600Y-45008800D02*
X157835600Y-45089714D01*
X162716000Y-43834600D02*
X162216000Y-43834600D01*
X162716000Y-43834600D02*
X162716000Y-43184600D01*
X161604310Y-35146048D02*
X161604310Y-38615552D01*
X161604310Y-38615552D02*
X160824462Y-39395400D01*
X160791000Y-34332738D02*
X161604310Y-35146048D01*
X160791000Y-33502600D02*
X160791000Y-34332738D01*
X161864000Y-43184600D02*
X162716000Y-43184600D01*
X160824462Y-42145062D02*
X161864000Y-43184600D01*
X160824462Y-39395400D02*
X160824462Y-42145062D01*
X162716000Y-39934600D02*
X162716000Y-40584600D01*
X163216000Y-39934600D02*
X164642800Y-38507800D01*
X162716000Y-39934600D02*
X163216000Y-39934600D01*
X164642800Y-34611200D02*
X160638600Y-30607000D01*
X164642800Y-38507800D02*
X164642800Y-34611200D01*
X163351000Y-113176600D02*
X163351000Y-112526600D01*
X162308499Y-112336099D02*
X162308499Y-108861901D01*
X162499000Y-112526600D02*
X162308499Y-112336099D01*
X163351000Y-112526600D02*
X162499000Y-112526600D01*
X160138000Y-100059600D02*
X160138000Y-100101400D01*
X159463000Y-100101400D02*
X159080200Y-100484200D01*
X160138000Y-100101400D02*
X159463000Y-100101400D01*
X162821552Y-104130490D02*
X163144200Y-104453138D01*
X160737112Y-104130490D02*
X162821552Y-104130490D01*
X159080200Y-102473578D02*
X160737112Y-104130490D01*
X159080200Y-100484200D02*
X159080200Y-102473578D01*
X163144200Y-108026200D02*
X162308499Y-108861901D01*
X163144200Y-104453138D02*
X163144200Y-108026200D01*
X163351000Y-109926600D02*
X163351000Y-109276600D01*
X163351000Y-109276600D02*
X163851000Y-109276600D01*
X163351000Y-108683000D02*
X163423600Y-108610400D01*
X163351000Y-109276600D02*
X163351000Y-108683000D01*
X163398209Y-104347923D02*
X162926766Y-103876480D01*
X163398210Y-108131414D02*
X163398209Y-104347923D01*
X163351000Y-108178624D02*
X163398210Y-108131414D01*
X163351000Y-108683000D02*
X163351000Y-108178624D01*
X162926766Y-103876480D02*
X161077280Y-103876480D01*
X160188800Y-102988000D02*
X160188800Y-102184200D01*
X161077280Y-103876480D02*
X160188800Y-102988000D01*
X157451000Y-109926600D02*
X157451000Y-109276600D01*
X159489228Y-119366228D02*
X160112600Y-119989600D01*
X159299290Y-119176290D02*
X159489228Y-119366228D01*
X158303000Y-109926600D02*
X159299290Y-110922890D01*
X159299290Y-110922890D02*
X159299290Y-119176290D01*
X157451000Y-109926600D02*
X158303000Y-109926600D01*
X157451000Y-113176600D02*
X157451000Y-112526600D01*
X157451000Y-113176600D02*
X157451000Y-113528600D01*
X159437600Y-122377200D02*
X156133800Y-119073400D01*
X160112600Y-122377200D02*
X159437600Y-122377200D01*
X156133800Y-114845800D02*
X156533700Y-114445900D01*
X156133800Y-119073400D02*
X156133800Y-114845800D01*
X156533700Y-114445900D02*
X156454299Y-114525301D01*
X157451000Y-113528600D02*
X156533700Y-114445900D01*
D21*
X163748400Y-79126400D02*
X165506400Y-77368400D01*
X163748400Y-81737200D02*
X163748400Y-79126400D01*
X165506400Y-73724400D02*
X165506400Y-74828400D01*
X165506400Y-70607998D02*
X165506400Y-73724400D01*
X164883401Y-69984999D02*
X165506400Y-70607998D01*
X160804831Y-69984999D02*
X164883401Y-69984999D01*
X160000030Y-70789800D02*
X160804831Y-69984999D01*
X156977400Y-70789800D02*
X160000030Y-70789800D01*
X165506400Y-77368400D02*
X165506400Y-74828400D01*
X157180600Y-79202600D02*
X155346400Y-77368400D01*
X157180600Y-81788000D02*
X157180600Y-79202600D01*
X162892790Y-71297810D02*
X163324600Y-70866000D01*
X158876990Y-71297810D02*
X162892790Y-71297810D01*
X163324600Y-70866000D02*
X164078600Y-70866000D01*
X155346400Y-74828400D02*
X158876990Y-71297810D01*
X155346400Y-77368400D02*
X155346400Y-74828400D01*
D22*
X155685600Y-57226200D02*
X154843000Y-57226200D01*
X154843000Y-57187200D02*
X154843000Y-57226200D01*
X158385400Y-53644800D02*
X154843000Y-57187200D01*
X158222663Y-51952000D02*
X158978600Y-51952000D01*
X154843000Y-48593000D02*
X154843000Y-48382400D01*
X157583400Y-51333400D02*
X154843000Y-48593000D01*
X158258400Y-51333400D02*
X157583400Y-51333400D01*
X154843000Y-48382400D02*
X154843000Y-48572337D01*
X154843000Y-47066200D02*
X154843000Y-48382400D01*
X155337400Y-36906200D02*
X154868400Y-36906200D01*
X158741000Y-33502600D02*
X155337400Y-36906200D01*
X154893800Y-26912200D02*
X154893800Y-26746200D01*
X158588600Y-30607000D02*
X154893800Y-26912200D01*
X166302800Y-95847800D02*
X166035200Y-95580200D01*
X166035200Y-96254200D02*
X166035200Y-95580200D01*
X162188000Y-100101400D02*
X166035200Y-96254200D01*
X166302800Y-105752000D02*
X166035200Y-106019600D01*
X162238800Y-102184200D02*
X166268400Y-106213800D01*
X165972600Y-116179600D02*
X166009800Y-116179600D01*
X162162600Y-119989600D02*
X165972600Y-116179600D01*
X166009800Y-126224400D02*
X166009800Y-126288800D01*
X162162600Y-122377200D02*
X166009800Y-126224400D01*
X163568000Y-41234600D02*
X164261800Y-40540800D01*
X164261800Y-40540800D02*
X164261800Y-40132000D01*
X162716000Y-41234600D02*
X163568000Y-41234600D01*
X164287200Y-43253800D02*
X164287200Y-43688000D01*
X163568000Y-42534600D02*
X164287200Y-43253800D01*
X162716000Y-42534600D02*
X163568000Y-42534600D01*
X155627310Y-42871290D02*
X155964000Y-42534600D01*
X155627310Y-43178490D02*
X155627310Y-42871290D01*
X155964000Y-42534600D02*
X156816000Y-42534600D01*
X155397200Y-43408600D02*
X155627310Y-43178490D01*
X156805600Y-41224200D02*
X156816000Y-41234600D01*
X155549600Y-41224200D02*
X156805600Y-41224200D01*
X164203000Y-110576600D02*
X163351000Y-110576600D01*
X164719000Y-110060600D02*
X164203000Y-110576600D01*
X164719000Y-108381800D02*
X164719000Y-110060600D01*
X164795200Y-112468800D02*
X164795200Y-113258600D01*
X164203000Y-111876600D02*
X164795200Y-112468800D01*
X163351000Y-111876600D02*
X164203000Y-111876600D01*
X158877000Y-111150600D02*
X158877000Y-111379000D01*
X158303000Y-110576600D02*
X158877000Y-111150600D01*
X157451000Y-110576600D02*
X158303000Y-110576600D01*
X158379400Y-111876600D02*
X158877000Y-111379000D01*
X157451000Y-111876600D02*
X158379400Y-111876600D01*
D21*
G36*
X153647121Y-111747951D02*
G01*
X153670978Y-111777022D01*
X153700048Y-111800879D01*
X153787007Y-111872245D01*
X153844144Y-111902785D01*
X153919385Y-111943002D01*
X154063022Y-111986574D01*
X154071614Y-111987420D01*
X154107195Y-112053987D01*
X154217638Y-112188562D01*
X154352213Y-112299005D01*
X154505749Y-112381072D01*
X154672345Y-112431608D01*
X154845599Y-112448672D01*
X155745601Y-112448672D01*
X155918855Y-112431608D01*
X156085451Y-112381072D01*
X156087928Y-112379748D01*
X156087928Y-112751600D01*
X156097777Y-112851600D01*
X156087928Y-112951600D01*
X156087928Y-113401600D01*
X156100188Y-113526082D01*
X156136498Y-113645780D01*
X156195463Y-113756094D01*
X156213590Y-113778182D01*
X156064046Y-113927726D01*
X156064047Y-113927726D01*
X155664144Y-114327629D01*
X155637498Y-114349497D01*
X155615630Y-114376143D01*
X155615626Y-114376147D01*
X155550209Y-114455857D01*
X155485607Y-114576719D01*
X154895550Y-114579600D01*
X154736800Y-114738350D01*
X154736800Y-116052600D01*
X154756800Y-116052600D01*
X154756800Y-116306600D01*
X154736800Y-116306600D01*
X154736800Y-117620850D01*
X154895550Y-117779600D01*
X155435300Y-117782235D01*
X155435300Y-119039102D01*
X155431922Y-119073400D01*
X155435300Y-119107698D01*
X155435300Y-119107708D01*
X155445407Y-119210329D01*
X155451162Y-119229299D01*
X155485349Y-119341998D01*
X155550209Y-119463343D01*
X155615626Y-119543053D01*
X155615629Y-119543056D01*
X155637497Y-119569702D01*
X155664144Y-119591571D01*
X158899528Y-122826956D01*
X158899528Y-122827201D01*
X158916592Y-123000455D01*
X158967128Y-123167051D01*
X159049195Y-123320587D01*
X159159638Y-123455162D01*
X159294213Y-123565605D01*
X159447749Y-123647672D01*
X159614345Y-123698208D01*
X159787599Y-123715272D01*
X160437601Y-123715272D01*
X160610855Y-123698208D01*
X160777451Y-123647672D01*
X160930987Y-123565605D01*
X161065562Y-123455162D01*
X161137600Y-123367384D01*
X161209638Y-123455162D01*
X161344213Y-123565605D01*
X161497749Y-123647672D01*
X161664345Y-123698208D01*
X161837599Y-123715272D01*
X162487601Y-123715272D01*
X162510581Y-123713009D01*
X164438210Y-125640638D01*
X164375130Y-125792928D01*
X164309800Y-126121365D01*
X164309800Y-126456235D01*
X164375130Y-126784672D01*
X164503279Y-127094052D01*
X164689323Y-127372487D01*
X164926113Y-127609277D01*
X165204548Y-127795321D01*
X165513928Y-127923470D01*
X165842365Y-127988800D01*
X166177235Y-127988800D01*
X166505672Y-127923470D01*
X166815052Y-127795321D01*
X167093487Y-127609277D01*
X167330277Y-127372487D01*
X167387334Y-127287094D01*
X167386553Y-130658000D01*
X153440693Y-130658000D01*
X153439385Y-127837297D01*
X153450620Y-127843302D01*
X153570318Y-127879612D01*
X153694800Y-127891872D01*
X154324050Y-127888800D01*
X154482800Y-127730050D01*
X154482800Y-126415800D01*
X154462800Y-126415800D01*
X154462800Y-126161800D01*
X154482800Y-126161800D01*
X154482800Y-124847550D01*
X154736800Y-124847550D01*
X154736800Y-126161800D01*
X154756800Y-126161800D01*
X154756800Y-126415800D01*
X154736800Y-126415800D01*
X154736800Y-127730050D01*
X154895550Y-127888800D01*
X155524800Y-127891872D01*
X155649282Y-127879612D01*
X155768980Y-127843302D01*
X155879294Y-127784337D01*
X155975985Y-127704985D01*
X156055337Y-127608294D01*
X156114302Y-127497980D01*
X156150612Y-127378282D01*
X156162872Y-127253800D01*
X156161695Y-126993660D01*
X156203279Y-127094052D01*
X156389323Y-127372487D01*
X156626113Y-127609277D01*
X156904548Y-127795321D01*
X157213928Y-127923470D01*
X157542365Y-127988800D01*
X157877235Y-127988800D01*
X158205672Y-127923470D01*
X158515052Y-127795321D01*
X158793487Y-127609277D01*
X159030277Y-127372487D01*
X159216321Y-127094052D01*
X159344470Y-126784672D01*
X159409800Y-126456235D01*
X159409800Y-126121365D01*
X159344470Y-125792928D01*
X159216321Y-125483548D01*
X159030277Y-125205113D01*
X158793487Y-124968323D01*
X158515052Y-124782279D01*
X158350212Y-124714000D01*
X159410400Y-124714000D01*
X159410400Y-127939800D01*
X159413044Y-127965580D01*
X159420463Y-127989345D01*
X159432376Y-128011207D01*
X159448325Y-128030324D01*
X159467696Y-128045962D01*
X159489747Y-128057521D01*
X159513629Y-128064555D01*
X159538424Y-128066796D01*
X162688024Y-128041396D01*
X162711776Y-128038960D01*
X162735601Y-128031733D01*
X162757557Y-128019997D01*
X162776803Y-128004203D01*
X162792597Y-127984957D01*
X162804333Y-127963001D01*
X162811560Y-127939176D01*
X162814000Y-127914400D01*
X162814000Y-124663200D01*
X162811144Y-124636418D01*
X162803534Y-124612713D01*
X162791445Y-124590949D01*
X162775343Y-124571961D01*
X162755845Y-124556479D01*
X162733702Y-124545099D01*
X162709764Y-124538257D01*
X162684952Y-124536217D01*
X159535352Y-124587017D01*
X159512624Y-124589440D01*
X159488799Y-124596667D01*
X159466843Y-124608403D01*
X159447597Y-124624197D01*
X159431803Y-124643443D01*
X159420067Y-124665399D01*
X159412840Y-124689224D01*
X159410400Y-124714000D01*
X158350212Y-124714000D01*
X158205672Y-124654130D01*
X157877235Y-124588800D01*
X157542365Y-124588800D01*
X157213928Y-124654130D01*
X156904548Y-124782279D01*
X156626113Y-124968323D01*
X156389323Y-125205113D01*
X156203279Y-125483548D01*
X156161695Y-125583940D01*
X156162872Y-125323800D01*
X156150612Y-125199318D01*
X156114302Y-125079620D01*
X156055337Y-124969306D01*
X155975985Y-124872615D01*
X155879294Y-124793263D01*
X155768980Y-124734298D01*
X155649282Y-124697988D01*
X155524800Y-124685728D01*
X154895550Y-124688800D01*
X154736800Y-124847550D01*
X154482800Y-124847550D01*
X154324050Y-124688800D01*
X153694800Y-124685728D01*
X153570318Y-124697988D01*
X153450620Y-124734298D01*
X153437949Y-124741071D01*
X153434696Y-117725590D01*
X153450620Y-117734102D01*
X153570318Y-117770412D01*
X153694800Y-117782672D01*
X154324050Y-117779600D01*
X154482800Y-117620850D01*
X154482800Y-116306600D01*
X154462800Y-116306600D01*
X154462800Y-116052600D01*
X154482800Y-116052600D01*
X154482800Y-114738350D01*
X154324050Y-114579600D01*
X153694800Y-114576528D01*
X153570318Y-114588788D01*
X153450620Y-114625098D01*
X153433263Y-114634376D01*
X153431824Y-111532655D01*
X153647121Y-111747951D01*
X153647121Y-111747951D01*
G37*
X153647121Y-111747951D02*
X153670978Y-111777022D01*
X153700048Y-111800879D01*
X153787007Y-111872245D01*
X153844144Y-111902785D01*
X153919385Y-111943002D01*
X154063022Y-111986574D01*
X154071614Y-111987420D01*
X154107195Y-112053987D01*
X154217638Y-112188562D01*
X154352213Y-112299005D01*
X154505749Y-112381072D01*
X154672345Y-112431608D01*
X154845599Y-112448672D01*
X155745601Y-112448672D01*
X155918855Y-112431608D01*
X156085451Y-112381072D01*
X156087928Y-112379748D01*
X156087928Y-112751600D01*
X156097777Y-112851600D01*
X156087928Y-112951600D01*
X156087928Y-113401600D01*
X156100188Y-113526082D01*
X156136498Y-113645780D01*
X156195463Y-113756094D01*
X156213590Y-113778182D01*
X156064046Y-113927726D01*
X156064047Y-113927726D01*
X155664144Y-114327629D01*
X155637498Y-114349497D01*
X155615630Y-114376143D01*
X155615626Y-114376147D01*
X155550209Y-114455857D01*
X155485607Y-114576719D01*
X154895550Y-114579600D01*
X154736800Y-114738350D01*
X154736800Y-116052600D01*
X154756800Y-116052600D01*
X154756800Y-116306600D01*
X154736800Y-116306600D01*
X154736800Y-117620850D01*
X154895550Y-117779600D01*
X155435300Y-117782235D01*
X155435300Y-119039102D01*
X155431922Y-119073400D01*
X155435300Y-119107698D01*
X155435300Y-119107708D01*
X155445407Y-119210329D01*
X155451162Y-119229299D01*
X155485349Y-119341998D01*
X155550209Y-119463343D01*
X155615626Y-119543053D01*
X155615629Y-119543056D01*
X155637497Y-119569702D01*
X155664144Y-119591571D01*
X158899528Y-122826956D01*
X158899528Y-122827201D01*
X158916592Y-123000455D01*
X158967128Y-123167051D01*
X159049195Y-123320587D01*
X159159638Y-123455162D01*
X159294213Y-123565605D01*
X159447749Y-123647672D01*
X159614345Y-123698208D01*
X159787599Y-123715272D01*
X160437601Y-123715272D01*
X160610855Y-123698208D01*
X160777451Y-123647672D01*
X160930987Y-123565605D01*
X161065562Y-123455162D01*
X161137600Y-123367384D01*
X161209638Y-123455162D01*
X161344213Y-123565605D01*
X161497749Y-123647672D01*
X161664345Y-123698208D01*
X161837599Y-123715272D01*
X162487601Y-123715272D01*
X162510581Y-123713009D01*
X164438210Y-125640638D01*
X164375130Y-125792928D01*
X164309800Y-126121365D01*
X164309800Y-126456235D01*
X164375130Y-126784672D01*
X164503279Y-127094052D01*
X164689323Y-127372487D01*
X164926113Y-127609277D01*
X165204548Y-127795321D01*
X165513928Y-127923470D01*
X165842365Y-127988800D01*
X166177235Y-127988800D01*
X166505672Y-127923470D01*
X166815052Y-127795321D01*
X167093487Y-127609277D01*
X167330277Y-127372487D01*
X167387334Y-127287094D01*
X167386553Y-130658000D01*
X153440693Y-130658000D01*
X153439385Y-127837297D01*
X153450620Y-127843302D01*
X153570318Y-127879612D01*
X153694800Y-127891872D01*
X154324050Y-127888800D01*
X154482800Y-127730050D01*
X154482800Y-126415800D01*
X154462800Y-126415800D01*
X154462800Y-126161800D01*
X154482800Y-126161800D01*
X154482800Y-124847550D01*
X154736800Y-124847550D01*
X154736800Y-126161800D01*
X154756800Y-126161800D01*
X154756800Y-126415800D01*
X154736800Y-126415800D01*
X154736800Y-127730050D01*
X154895550Y-127888800D01*
X155524800Y-127891872D01*
X155649282Y-127879612D01*
X155768980Y-127843302D01*
X155879294Y-127784337D01*
X155975985Y-127704985D01*
X156055337Y-127608294D01*
X156114302Y-127497980D01*
X156150612Y-127378282D01*
X156162872Y-127253800D01*
X156161695Y-126993660D01*
X156203279Y-127094052D01*
X156389323Y-127372487D01*
X156626113Y-127609277D01*
X156904548Y-127795321D01*
X157213928Y-127923470D01*
X157542365Y-127988800D01*
X157877235Y-127988800D01*
X158205672Y-127923470D01*
X158515052Y-127795321D01*
X158793487Y-127609277D01*
X159030277Y-127372487D01*
X159216321Y-127094052D01*
X159344470Y-126784672D01*
X159409800Y-126456235D01*
X159409800Y-126121365D01*
X159344470Y-125792928D01*
X159216321Y-125483548D01*
X159030277Y-125205113D01*
X158793487Y-124968323D01*
X158515052Y-124782279D01*
X158350212Y-124714000D01*
X159410400Y-124714000D01*
X159410400Y-127939800D01*
X159413044Y-127965580D01*
X159420463Y-127989345D01*
X159432376Y-128011207D01*
X159448325Y-128030324D01*
X159467696Y-128045962D01*
X159489747Y-128057521D01*
X159513629Y-128064555D01*
X159538424Y-128066796D01*
X162688024Y-128041396D01*
X162711776Y-128038960D01*
X162735601Y-128031733D01*
X162757557Y-128019997D01*
X162776803Y-128004203D01*
X162792597Y-127984957D01*
X162804333Y-127963001D01*
X162811560Y-127939176D01*
X162814000Y-127914400D01*
X162814000Y-124663200D01*
X162811144Y-124636418D01*
X162803534Y-124612713D01*
X162791445Y-124590949D01*
X162775343Y-124571961D01*
X162755845Y-124556479D01*
X162733702Y-124545099D01*
X162709764Y-124538257D01*
X162684952Y-124536217D01*
X159535352Y-124587017D01*
X159512624Y-124589440D01*
X159488799Y-124596667D01*
X159466843Y-124608403D01*
X159447597Y-124624197D01*
X159431803Y-124643443D01*
X159420067Y-124665399D01*
X159412840Y-124689224D01*
X159410400Y-124714000D01*
X158350212Y-124714000D01*
X158205672Y-124654130D01*
X157877235Y-124588800D01*
X157542365Y-124588800D01*
X157213928Y-124654130D01*
X156904548Y-124782279D01*
X156626113Y-124968323D01*
X156389323Y-125205113D01*
X156203279Y-125483548D01*
X156161695Y-125583940D01*
X156162872Y-125323800D01*
X156150612Y-125199318D01*
X156114302Y-125079620D01*
X156055337Y-124969306D01*
X155975985Y-124872615D01*
X155879294Y-124793263D01*
X155768980Y-124734298D01*
X155649282Y-124697988D01*
X155524800Y-124685728D01*
X154895550Y-124688800D01*
X154736800Y-124847550D01*
X154482800Y-124847550D01*
X154324050Y-124688800D01*
X153694800Y-124685728D01*
X153570318Y-124697988D01*
X153450620Y-124734298D01*
X153437949Y-124741071D01*
X153434696Y-117725590D01*
X153450620Y-117734102D01*
X153570318Y-117770412D01*
X153694800Y-117782672D01*
X154324050Y-117779600D01*
X154482800Y-117620850D01*
X154482800Y-116306600D01*
X154462800Y-116306600D01*
X154462800Y-116052600D01*
X154482800Y-116052600D01*
X154482800Y-114738350D01*
X154324050Y-114579600D01*
X153694800Y-114576528D01*
X153570318Y-114588788D01*
X153450620Y-114625098D01*
X153433263Y-114634376D01*
X153431824Y-111532655D01*
X153647121Y-111747951D01*
G36*
X163797979Y-83652179D02*
G01*
X163866199Y-83816878D01*
X163965241Y-83965104D01*
X164091296Y-84091159D01*
X164239522Y-84190201D01*
X164404221Y-84258421D01*
X164477325Y-84272963D01*
X164452479Y-84310148D01*
X164324330Y-84619528D01*
X164259000Y-84947965D01*
X164259000Y-85282835D01*
X164324330Y-85611272D01*
X164452479Y-85920652D01*
X164638523Y-86199087D01*
X164875313Y-86435877D01*
X165153748Y-86621921D01*
X165463128Y-86750070D01*
X165791565Y-86815400D01*
X166126435Y-86815400D01*
X166454872Y-86750070D01*
X166764252Y-86621921D01*
X166843201Y-86569169D01*
X166843201Y-94075516D01*
X166840452Y-94073679D01*
X166531072Y-93945530D01*
X166202635Y-93880200D01*
X165867765Y-93880200D01*
X165539328Y-93945530D01*
X165229948Y-94073679D01*
X164951513Y-94259723D01*
X164714723Y-94496513D01*
X164528679Y-94774948D01*
X164400530Y-95084328D01*
X164335200Y-95412765D01*
X164335200Y-95747635D01*
X164400530Y-96076072D01*
X164528679Y-96385452D01*
X164683866Y-96617706D01*
X162535981Y-98765591D01*
X162513001Y-98763328D01*
X161862999Y-98763328D01*
X161689745Y-98780392D01*
X161523149Y-98830928D01*
X161369613Y-98912995D01*
X161235038Y-99023438D01*
X161163000Y-99111216D01*
X161090962Y-99023438D01*
X160956387Y-98912995D01*
X160802851Y-98830928D01*
X160636255Y-98780392D01*
X160463001Y-98763328D01*
X159812999Y-98763328D01*
X159639745Y-98780392D01*
X159473149Y-98830928D01*
X159319613Y-98912995D01*
X159185038Y-99023438D01*
X159074595Y-99158013D01*
X158992528Y-99311549D01*
X158941992Y-99478145D01*
X158924928Y-99651399D01*
X158924928Y-99651645D01*
X158610544Y-99966029D01*
X158583897Y-99987898D01*
X158562029Y-100014544D01*
X158562026Y-100014547D01*
X158496609Y-100094257D01*
X158474453Y-100135708D01*
X158431748Y-100215604D01*
X158391807Y-100347271D01*
X158381700Y-100449892D01*
X158381700Y-100449902D01*
X158378322Y-100484200D01*
X158381700Y-100518499D01*
X158381701Y-102439270D01*
X158378322Y-102473578D01*
X158381701Y-102507886D01*
X158381701Y-102507887D01*
X158388227Y-102574143D01*
X158391808Y-102610507D01*
X158431749Y-102742176D01*
X158496609Y-102863521D01*
X158562026Y-102943231D01*
X158562030Y-102943235D01*
X158583898Y-102969881D01*
X158610544Y-102991749D01*
X159930645Y-104311851D01*
X159560752Y-104317817D01*
X159538024Y-104320240D01*
X159514199Y-104327467D01*
X159492243Y-104339203D01*
X159472997Y-104354997D01*
X159457203Y-104374243D01*
X159445467Y-104396199D01*
X159438240Y-104420024D01*
X159435800Y-104444800D01*
X159435800Y-107670600D01*
X159438444Y-107696380D01*
X159445863Y-107720145D01*
X159457776Y-107742007D01*
X159473725Y-107761124D01*
X159493096Y-107776762D01*
X159515147Y-107788321D01*
X159539029Y-107795355D01*
X159563824Y-107797596D01*
X162407912Y-107774660D01*
X161838842Y-108343730D01*
X161812197Y-108365598D01*
X161790329Y-108392244D01*
X161790325Y-108392248D01*
X161724908Y-108471958D01*
X161660048Y-108593303D01*
X161647096Y-108636000D01*
X161620107Y-108724971D01*
X161614658Y-108780297D01*
X161606621Y-108861901D01*
X161610000Y-108896209D01*
X161609999Y-112301801D01*
X161606621Y-112336099D01*
X161609999Y-112370397D01*
X161609999Y-112370407D01*
X161620106Y-112473028D01*
X161657745Y-112597106D01*
X161660048Y-112604697D01*
X161724908Y-112726042D01*
X161790325Y-112805752D01*
X161790328Y-112805755D01*
X161812196Y-112832401D01*
X161838842Y-112854269D01*
X161980828Y-112996256D01*
X161987928Y-113004907D01*
X161987928Y-113401600D01*
X162000188Y-113526082D01*
X162036498Y-113645780D01*
X162095463Y-113756094D01*
X162174815Y-113852785D01*
X162271506Y-113932137D01*
X162381820Y-113991102D01*
X162501518Y-114027412D01*
X162626000Y-114039672D01*
X164076000Y-114039672D01*
X164200482Y-114027412D01*
X164320180Y-113991102D01*
X164333140Y-113984175D01*
X164387837Y-114020722D01*
X164544347Y-114085551D01*
X164710497Y-114118600D01*
X164879903Y-114118600D01*
X165046053Y-114085551D01*
X165202563Y-114020722D01*
X165343418Y-113926605D01*
X165463205Y-113806818D01*
X165557322Y-113665963D01*
X165622151Y-113509453D01*
X165655200Y-113343303D01*
X165655200Y-113173897D01*
X165622151Y-113007747D01*
X165557322Y-112851237D01*
X165493700Y-112756021D01*
X165493700Y-112503097D01*
X165497078Y-112468799D01*
X165495948Y-112457323D01*
X165665999Y-112474072D01*
X166566001Y-112474072D01*
X166739255Y-112457008D01*
X166905851Y-112406472D01*
X167059387Y-112324405D01*
X167193962Y-112213962D01*
X167304405Y-112079387D01*
X167386472Y-111925851D01*
X167390897Y-111911264D01*
X167390138Y-115185502D01*
X167330277Y-115095913D01*
X167093487Y-114859123D01*
X166815052Y-114673079D01*
X166505672Y-114544930D01*
X166177235Y-114479600D01*
X165842365Y-114479600D01*
X165513928Y-114544930D01*
X165204548Y-114673079D01*
X164926113Y-114859123D01*
X164689323Y-115095913D01*
X164503279Y-115374348D01*
X164375130Y-115683728D01*
X164309800Y-116012165D01*
X164309800Y-116347035D01*
X164375130Y-116675472D01*
X164408452Y-116755920D01*
X162510581Y-118653791D01*
X162487601Y-118651528D01*
X161837599Y-118651528D01*
X161664345Y-118668592D01*
X161497749Y-118719128D01*
X161344213Y-118801195D01*
X161209638Y-118911638D01*
X161137600Y-118999416D01*
X161065562Y-118911638D01*
X160930987Y-118801195D01*
X160777451Y-118719128D01*
X160610855Y-118668592D01*
X160437601Y-118651528D01*
X159997790Y-118651528D01*
X159997790Y-117954096D01*
X162713424Y-117932196D01*
X162737176Y-117929760D01*
X162761001Y-117922533D01*
X162782957Y-117910797D01*
X162802203Y-117895003D01*
X162817997Y-117875757D01*
X162829733Y-117853801D01*
X162836960Y-117829976D01*
X162839400Y-117805200D01*
X162839400Y-114554000D01*
X162836544Y-114527218D01*
X162828934Y-114503513D01*
X162816845Y-114481749D01*
X162800743Y-114462761D01*
X162781245Y-114447279D01*
X162759102Y-114435899D01*
X162735164Y-114429057D01*
X162710352Y-114427017D01*
X159997790Y-114470768D01*
X159997790Y-110957188D01*
X160001168Y-110922890D01*
X159997790Y-110888592D01*
X159997790Y-110888581D01*
X159987683Y-110785960D01*
X159947742Y-110654293D01*
X159895686Y-110556903D01*
X159882881Y-110532946D01*
X159817464Y-110453236D01*
X159817457Y-110453229D01*
X159795592Y-110426587D01*
X159768952Y-110404724D01*
X158821175Y-109456948D01*
X158814072Y-109448293D01*
X158814072Y-109051600D01*
X158801812Y-108927118D01*
X158765502Y-108807420D01*
X158706537Y-108697106D01*
X158627185Y-108600415D01*
X158530494Y-108521063D01*
X158420180Y-108462098D01*
X158300482Y-108425788D01*
X158176000Y-108413528D01*
X156726000Y-108413528D01*
X156603065Y-108425636D01*
X156585102Y-108366420D01*
X156526137Y-108256106D01*
X156446785Y-108159415D01*
X156350094Y-108080063D01*
X156239780Y-108021098D01*
X156120082Y-107984788D01*
X155995600Y-107972528D01*
X155581350Y-107975600D01*
X155422600Y-108134350D01*
X155422600Y-109058600D01*
X155442600Y-109058600D01*
X155442600Y-109312600D01*
X155422600Y-109312600D01*
X155422600Y-109332600D01*
X155168600Y-109332600D01*
X155168600Y-109312600D01*
X155148600Y-109312600D01*
X155148600Y-109058600D01*
X155168600Y-109058600D01*
X155168600Y-108134350D01*
X155009850Y-107975600D01*
X154595600Y-107972528D01*
X154471118Y-107984788D01*
X154351420Y-108021098D01*
X154241106Y-108080063D01*
X154144415Y-108159415D01*
X154065063Y-108256106D01*
X154006098Y-108366420D01*
X153974800Y-108469596D01*
X153974800Y-107621429D01*
X154349450Y-107619600D01*
X154508200Y-107460850D01*
X154508200Y-106146600D01*
X154488200Y-106146600D01*
X154488200Y-105892600D01*
X154508200Y-105892600D01*
X154508200Y-104578350D01*
X154762200Y-104578350D01*
X154762200Y-105892600D01*
X154782200Y-105892600D01*
X154782200Y-106146600D01*
X154762200Y-106146600D01*
X154762200Y-107460850D01*
X154920950Y-107619600D01*
X155550200Y-107622672D01*
X155674682Y-107610412D01*
X155794380Y-107574102D01*
X155904694Y-107515137D01*
X156001385Y-107435785D01*
X156080737Y-107339094D01*
X156139702Y-107228780D01*
X156176012Y-107109082D01*
X156188272Y-106984600D01*
X156187095Y-106724460D01*
X156228679Y-106824852D01*
X156414723Y-107103287D01*
X156651513Y-107340077D01*
X156929948Y-107526121D01*
X157239328Y-107654270D01*
X157567765Y-107719600D01*
X157902635Y-107719600D01*
X158231072Y-107654270D01*
X158540452Y-107526121D01*
X158818887Y-107340077D01*
X159055677Y-107103287D01*
X159241721Y-106824852D01*
X159369870Y-106515472D01*
X159435200Y-106187035D01*
X159435200Y-105852165D01*
X159369870Y-105523728D01*
X159241721Y-105214348D01*
X159055677Y-104935913D01*
X158818887Y-104699123D01*
X158540452Y-104513079D01*
X158231072Y-104384930D01*
X157902635Y-104319600D01*
X157567765Y-104319600D01*
X157239328Y-104384930D01*
X156929948Y-104513079D01*
X156651513Y-104699123D01*
X156414723Y-104935913D01*
X156228679Y-105214348D01*
X156187095Y-105314740D01*
X156188272Y-105054600D01*
X156176012Y-104930118D01*
X156139702Y-104810420D01*
X156080737Y-104700106D01*
X156001385Y-104603415D01*
X155904694Y-104524063D01*
X155794380Y-104465098D01*
X155674682Y-104428788D01*
X155550200Y-104416528D01*
X154920950Y-104419600D01*
X154762200Y-104578350D01*
X154508200Y-104578350D01*
X154349450Y-104419600D01*
X153974800Y-104417771D01*
X153974800Y-97182029D01*
X154349450Y-97180200D01*
X154508200Y-97021450D01*
X154508200Y-95707200D01*
X154488200Y-95707200D01*
X154488200Y-95453200D01*
X154508200Y-95453200D01*
X154508200Y-94138950D01*
X154762200Y-94138950D01*
X154762200Y-95453200D01*
X154782200Y-95453200D01*
X154782200Y-95707200D01*
X154762200Y-95707200D01*
X154762200Y-97021450D01*
X154920950Y-97180200D01*
X155550200Y-97183272D01*
X155674682Y-97171012D01*
X155794380Y-97134702D01*
X155904694Y-97075737D01*
X156001385Y-96996385D01*
X156080737Y-96899694D01*
X156139702Y-96789380D01*
X156176012Y-96669682D01*
X156188272Y-96545200D01*
X156187095Y-96285060D01*
X156228679Y-96385452D01*
X156414723Y-96663887D01*
X156651513Y-96900677D01*
X156929948Y-97086721D01*
X157239328Y-97214870D01*
X157567765Y-97280200D01*
X157902635Y-97280200D01*
X158231072Y-97214870D01*
X158540452Y-97086721D01*
X158818887Y-96900677D01*
X159055677Y-96663887D01*
X159241721Y-96385452D01*
X159369870Y-96076072D01*
X159435200Y-95747635D01*
X159435200Y-95412765D01*
X159369870Y-95084328D01*
X159241721Y-94774948D01*
X159055677Y-94496513D01*
X158818887Y-94259723D01*
X158540452Y-94073679D01*
X158231072Y-93945530D01*
X157902635Y-93880200D01*
X157567765Y-93880200D01*
X157239328Y-93945530D01*
X156929948Y-94073679D01*
X156651513Y-94259723D01*
X156414723Y-94496513D01*
X156228679Y-94774948D01*
X156187095Y-94875340D01*
X156188272Y-94615200D01*
X156176012Y-94490718D01*
X156139702Y-94371020D01*
X156080737Y-94260706D01*
X156001385Y-94164015D01*
X155904694Y-94084663D01*
X155794380Y-94025698D01*
X155674682Y-93989388D01*
X155550200Y-93977128D01*
X154920950Y-93980200D01*
X154762200Y-94138950D01*
X154508200Y-94138950D01*
X154349450Y-93980200D01*
X153974800Y-93978371D01*
X153974800Y-93853000D01*
X159486600Y-93853000D01*
X159486600Y-97078800D01*
X159489244Y-97104580D01*
X159496663Y-97128345D01*
X159508576Y-97150207D01*
X159524525Y-97169324D01*
X159543896Y-97184962D01*
X159565947Y-97196521D01*
X159589829Y-97203555D01*
X159614624Y-97205796D01*
X162764224Y-97180396D01*
X162787976Y-97177960D01*
X162811801Y-97170733D01*
X162833757Y-97158997D01*
X162853003Y-97143203D01*
X162868797Y-97123957D01*
X162880533Y-97102001D01*
X162887760Y-97078176D01*
X162890200Y-97053400D01*
X162890200Y-93802200D01*
X162887344Y-93775418D01*
X162879734Y-93751713D01*
X162867645Y-93729949D01*
X162851543Y-93710961D01*
X162832045Y-93695479D01*
X162809902Y-93684099D01*
X162785964Y-93677257D01*
X162761152Y-93675217D01*
X159611552Y-93726017D01*
X159588824Y-93728440D01*
X159564999Y-93735667D01*
X159543043Y-93747403D01*
X159523797Y-93763197D01*
X159508003Y-93782443D01*
X159496267Y-93804399D01*
X159489040Y-93828224D01*
X159486600Y-93853000D01*
X153974800Y-93853000D01*
X153974800Y-92298830D01*
X154690959Y-91582672D01*
X156301400Y-91582672D01*
X156474654Y-91565608D01*
X156641250Y-91515072D01*
X156794786Y-91433005D01*
X156929362Y-91322562D01*
X157039805Y-91187986D01*
X157121872Y-91034450D01*
X157149127Y-90944600D01*
X157313328Y-90944600D01*
X157325588Y-91069082D01*
X157361898Y-91188780D01*
X157420863Y-91299094D01*
X157500215Y-91395785D01*
X157596906Y-91475137D01*
X157707220Y-91534102D01*
X157826918Y-91570412D01*
X157951400Y-91582672D01*
X159165650Y-91579600D01*
X159324400Y-91420850D01*
X159324400Y-90271600D01*
X159578400Y-90271600D01*
X159578400Y-91420850D01*
X159737150Y-91579600D01*
X160951400Y-91582672D01*
X161075882Y-91570412D01*
X161195580Y-91534102D01*
X161305894Y-91475137D01*
X161402585Y-91395785D01*
X161481937Y-91299094D01*
X161540902Y-91188780D01*
X161577212Y-91069082D01*
X161589472Y-90944600D01*
X161586400Y-90430350D01*
X161427650Y-90271600D01*
X159578400Y-90271600D01*
X159324400Y-90271600D01*
X157475150Y-90271600D01*
X157316400Y-90430350D01*
X157313328Y-90944600D01*
X157149127Y-90944600D01*
X157172408Y-90867854D01*
X157189472Y-90694600D01*
X157189472Y-89594600D01*
X157172408Y-89421346D01*
X157149128Y-89344600D01*
X157313328Y-89344600D01*
X157316400Y-89858850D01*
X157475150Y-90017600D01*
X159324400Y-90017600D01*
X159324400Y-88868350D01*
X159578400Y-88868350D01*
X159578400Y-90017600D01*
X161427650Y-90017600D01*
X161586400Y-89858850D01*
X161589472Y-89344600D01*
X161577212Y-89220118D01*
X161540902Y-89100420D01*
X161481937Y-88990106D01*
X161402585Y-88893415D01*
X161305894Y-88814063D01*
X161195580Y-88755098D01*
X161075882Y-88718788D01*
X160951400Y-88706528D01*
X159737150Y-88709600D01*
X159578400Y-88868350D01*
X159324400Y-88868350D01*
X159165650Y-88709600D01*
X157951400Y-88706528D01*
X157826918Y-88718788D01*
X157707220Y-88755098D01*
X157596906Y-88814063D01*
X157500215Y-88893415D01*
X157420863Y-88990106D01*
X157361898Y-89100420D01*
X157325588Y-89220118D01*
X157313328Y-89344600D01*
X157149128Y-89344600D01*
X157121872Y-89254750D01*
X157039805Y-89101214D01*
X156929362Y-88966638D01*
X156794786Y-88856195D01*
X156641250Y-88774128D01*
X156474654Y-88723592D01*
X156449722Y-88721136D01*
X156347502Y-88637245D01*
X156215125Y-88566489D01*
X156071488Y-88522917D01*
X155922110Y-88508204D01*
X155772731Y-88522917D01*
X155629094Y-88566489D01*
X155512982Y-88628551D01*
X154024999Y-87140569D01*
X154024999Y-86716612D01*
X154273250Y-86715400D01*
X154432000Y-86556650D01*
X154432000Y-85242400D01*
X154412000Y-85242400D01*
X154412000Y-84988400D01*
X154432000Y-84988400D01*
X154432000Y-84968400D01*
X154686000Y-84968400D01*
X154686000Y-84988400D01*
X154706000Y-84988400D01*
X154706000Y-85242400D01*
X154686000Y-85242400D01*
X154686000Y-86556650D01*
X154844750Y-86715400D01*
X155474000Y-86718472D01*
X155598482Y-86706212D01*
X155718180Y-86669902D01*
X155828494Y-86610937D01*
X155925185Y-86531585D01*
X156004537Y-86434894D01*
X156063502Y-86324580D01*
X156099812Y-86204882D01*
X156112072Y-86080400D01*
X156110895Y-85820260D01*
X156152479Y-85920652D01*
X156338523Y-86199087D01*
X156575313Y-86435877D01*
X156853748Y-86621921D01*
X157163128Y-86750070D01*
X157491565Y-86815400D01*
X157826435Y-86815400D01*
X158154872Y-86750070D01*
X158464252Y-86621921D01*
X158742687Y-86435877D01*
X158979477Y-86199087D01*
X159165521Y-85920652D01*
X159232600Y-85758708D01*
X159232600Y-86868000D01*
X159235244Y-86893780D01*
X159242663Y-86917545D01*
X159254576Y-86939407D01*
X159270525Y-86958524D01*
X159289896Y-86974162D01*
X159311947Y-86985721D01*
X159335829Y-86992755D01*
X159360624Y-86994996D01*
X162510224Y-86969596D01*
X162533976Y-86967160D01*
X162557801Y-86959933D01*
X162579757Y-86948197D01*
X162599003Y-86932403D01*
X162614797Y-86913157D01*
X162626533Y-86891201D01*
X162633760Y-86867376D01*
X162636200Y-86842600D01*
X162636200Y-83591400D01*
X162633344Y-83564618D01*
X162625734Y-83540913D01*
X162613645Y-83519149D01*
X162597543Y-83500161D01*
X162596331Y-83499199D01*
X163767549Y-83499199D01*
X163797979Y-83652179D01*
X163797979Y-83652179D01*
G37*
X163797979Y-83652179D02*
X163866199Y-83816878D01*
X163965241Y-83965104D01*
X164091296Y-84091159D01*
X164239522Y-84190201D01*
X164404221Y-84258421D01*
X164477325Y-84272963D01*
X164452479Y-84310148D01*
X164324330Y-84619528D01*
X164259000Y-84947965D01*
X164259000Y-85282835D01*
X164324330Y-85611272D01*
X164452479Y-85920652D01*
X164638523Y-86199087D01*
X164875313Y-86435877D01*
X165153748Y-86621921D01*
X165463128Y-86750070D01*
X165791565Y-86815400D01*
X166126435Y-86815400D01*
X166454872Y-86750070D01*
X166764252Y-86621921D01*
X166843201Y-86569169D01*
X166843201Y-94075516D01*
X166840452Y-94073679D01*
X166531072Y-93945530D01*
X166202635Y-93880200D01*
X165867765Y-93880200D01*
X165539328Y-93945530D01*
X165229948Y-94073679D01*
X164951513Y-94259723D01*
X164714723Y-94496513D01*
X164528679Y-94774948D01*
X164400530Y-95084328D01*
X164335200Y-95412765D01*
X164335200Y-95747635D01*
X164400530Y-96076072D01*
X164528679Y-96385452D01*
X164683866Y-96617706D01*
X162535981Y-98765591D01*
X162513001Y-98763328D01*
X161862999Y-98763328D01*
X161689745Y-98780392D01*
X161523149Y-98830928D01*
X161369613Y-98912995D01*
X161235038Y-99023438D01*
X161163000Y-99111216D01*
X161090962Y-99023438D01*
X160956387Y-98912995D01*
X160802851Y-98830928D01*
X160636255Y-98780392D01*
X160463001Y-98763328D01*
X159812999Y-98763328D01*
X159639745Y-98780392D01*
X159473149Y-98830928D01*
X159319613Y-98912995D01*
X159185038Y-99023438D01*
X159074595Y-99158013D01*
X158992528Y-99311549D01*
X158941992Y-99478145D01*
X158924928Y-99651399D01*
X158924928Y-99651645D01*
X158610544Y-99966029D01*
X158583897Y-99987898D01*
X158562029Y-100014544D01*
X158562026Y-100014547D01*
X158496609Y-100094257D01*
X158474453Y-100135708D01*
X158431748Y-100215604D01*
X158391807Y-100347271D01*
X158381700Y-100449892D01*
X158381700Y-100449902D01*
X158378322Y-100484200D01*
X158381700Y-100518499D01*
X158381701Y-102439270D01*
X158378322Y-102473578D01*
X158381701Y-102507886D01*
X158381701Y-102507887D01*
X158388227Y-102574143D01*
X158391808Y-102610507D01*
X158431749Y-102742176D01*
X158496609Y-102863521D01*
X158562026Y-102943231D01*
X158562030Y-102943235D01*
X158583898Y-102969881D01*
X158610544Y-102991749D01*
X159930645Y-104311851D01*
X159560752Y-104317817D01*
X159538024Y-104320240D01*
X159514199Y-104327467D01*
X159492243Y-104339203D01*
X159472997Y-104354997D01*
X159457203Y-104374243D01*
X159445467Y-104396199D01*
X159438240Y-104420024D01*
X159435800Y-104444800D01*
X159435800Y-107670600D01*
X159438444Y-107696380D01*
X159445863Y-107720145D01*
X159457776Y-107742007D01*
X159473725Y-107761124D01*
X159493096Y-107776762D01*
X159515147Y-107788321D01*
X159539029Y-107795355D01*
X159563824Y-107797596D01*
X162407912Y-107774660D01*
X161838842Y-108343730D01*
X161812197Y-108365598D01*
X161790329Y-108392244D01*
X161790325Y-108392248D01*
X161724908Y-108471958D01*
X161660048Y-108593303D01*
X161647096Y-108636000D01*
X161620107Y-108724971D01*
X161614658Y-108780297D01*
X161606621Y-108861901D01*
X161610000Y-108896209D01*
X161609999Y-112301801D01*
X161606621Y-112336099D01*
X161609999Y-112370397D01*
X161609999Y-112370407D01*
X161620106Y-112473028D01*
X161657745Y-112597106D01*
X161660048Y-112604697D01*
X161724908Y-112726042D01*
X161790325Y-112805752D01*
X161790328Y-112805755D01*
X161812196Y-112832401D01*
X161838842Y-112854269D01*
X161980828Y-112996256D01*
X161987928Y-113004907D01*
X161987928Y-113401600D01*
X162000188Y-113526082D01*
X162036498Y-113645780D01*
X162095463Y-113756094D01*
X162174815Y-113852785D01*
X162271506Y-113932137D01*
X162381820Y-113991102D01*
X162501518Y-114027412D01*
X162626000Y-114039672D01*
X164076000Y-114039672D01*
X164200482Y-114027412D01*
X164320180Y-113991102D01*
X164333140Y-113984175D01*
X164387837Y-114020722D01*
X164544347Y-114085551D01*
X164710497Y-114118600D01*
X164879903Y-114118600D01*
X165046053Y-114085551D01*
X165202563Y-114020722D01*
X165343418Y-113926605D01*
X165463205Y-113806818D01*
X165557322Y-113665963D01*
X165622151Y-113509453D01*
X165655200Y-113343303D01*
X165655200Y-113173897D01*
X165622151Y-113007747D01*
X165557322Y-112851237D01*
X165493700Y-112756021D01*
X165493700Y-112503097D01*
X165497078Y-112468799D01*
X165495948Y-112457323D01*
X165665999Y-112474072D01*
X166566001Y-112474072D01*
X166739255Y-112457008D01*
X166905851Y-112406472D01*
X167059387Y-112324405D01*
X167193962Y-112213962D01*
X167304405Y-112079387D01*
X167386472Y-111925851D01*
X167390897Y-111911264D01*
X167390138Y-115185502D01*
X167330277Y-115095913D01*
X167093487Y-114859123D01*
X166815052Y-114673079D01*
X166505672Y-114544930D01*
X166177235Y-114479600D01*
X165842365Y-114479600D01*
X165513928Y-114544930D01*
X165204548Y-114673079D01*
X164926113Y-114859123D01*
X164689323Y-115095913D01*
X164503279Y-115374348D01*
X164375130Y-115683728D01*
X164309800Y-116012165D01*
X164309800Y-116347035D01*
X164375130Y-116675472D01*
X164408452Y-116755920D01*
X162510581Y-118653791D01*
X162487601Y-118651528D01*
X161837599Y-118651528D01*
X161664345Y-118668592D01*
X161497749Y-118719128D01*
X161344213Y-118801195D01*
X161209638Y-118911638D01*
X161137600Y-118999416D01*
X161065562Y-118911638D01*
X160930987Y-118801195D01*
X160777451Y-118719128D01*
X160610855Y-118668592D01*
X160437601Y-118651528D01*
X159997790Y-118651528D01*
X159997790Y-117954096D01*
X162713424Y-117932196D01*
X162737176Y-117929760D01*
X162761001Y-117922533D01*
X162782957Y-117910797D01*
X162802203Y-117895003D01*
X162817997Y-117875757D01*
X162829733Y-117853801D01*
X162836960Y-117829976D01*
X162839400Y-117805200D01*
X162839400Y-114554000D01*
X162836544Y-114527218D01*
X162828934Y-114503513D01*
X162816845Y-114481749D01*
X162800743Y-114462761D01*
X162781245Y-114447279D01*
X162759102Y-114435899D01*
X162735164Y-114429057D01*
X162710352Y-114427017D01*
X159997790Y-114470768D01*
X159997790Y-110957188D01*
X160001168Y-110922890D01*
X159997790Y-110888592D01*
X159997790Y-110888581D01*
X159987683Y-110785960D01*
X159947742Y-110654293D01*
X159895686Y-110556903D01*
X159882881Y-110532946D01*
X159817464Y-110453236D01*
X159817457Y-110453229D01*
X159795592Y-110426587D01*
X159768952Y-110404724D01*
X158821175Y-109456948D01*
X158814072Y-109448293D01*
X158814072Y-109051600D01*
X158801812Y-108927118D01*
X158765502Y-108807420D01*
X158706537Y-108697106D01*
X158627185Y-108600415D01*
X158530494Y-108521063D01*
X158420180Y-108462098D01*
X158300482Y-108425788D01*
X158176000Y-108413528D01*
X156726000Y-108413528D01*
X156603065Y-108425636D01*
X156585102Y-108366420D01*
X156526137Y-108256106D01*
X156446785Y-108159415D01*
X156350094Y-108080063D01*
X156239780Y-108021098D01*
X156120082Y-107984788D01*
X155995600Y-107972528D01*
X155581350Y-107975600D01*
X155422600Y-108134350D01*
X155422600Y-109058600D01*
X155442600Y-109058600D01*
X155442600Y-109312600D01*
X155422600Y-109312600D01*
X155422600Y-109332600D01*
X155168600Y-109332600D01*
X155168600Y-109312600D01*
X155148600Y-109312600D01*
X155148600Y-109058600D01*
X155168600Y-109058600D01*
X155168600Y-108134350D01*
X155009850Y-107975600D01*
X154595600Y-107972528D01*
X154471118Y-107984788D01*
X154351420Y-108021098D01*
X154241106Y-108080063D01*
X154144415Y-108159415D01*
X154065063Y-108256106D01*
X154006098Y-108366420D01*
X153974800Y-108469596D01*
X153974800Y-107621429D01*
X154349450Y-107619600D01*
X154508200Y-107460850D01*
X154508200Y-106146600D01*
X154488200Y-106146600D01*
X154488200Y-105892600D01*
X154508200Y-105892600D01*
X154508200Y-104578350D01*
X154762200Y-104578350D01*
X154762200Y-105892600D01*
X154782200Y-105892600D01*
X154782200Y-106146600D01*
X154762200Y-106146600D01*
X154762200Y-107460850D01*
X154920950Y-107619600D01*
X155550200Y-107622672D01*
X155674682Y-107610412D01*
X155794380Y-107574102D01*
X155904694Y-107515137D01*
X156001385Y-107435785D01*
X156080737Y-107339094D01*
X156139702Y-107228780D01*
X156176012Y-107109082D01*
X156188272Y-106984600D01*
X156187095Y-106724460D01*
X156228679Y-106824852D01*
X156414723Y-107103287D01*
X156651513Y-107340077D01*
X156929948Y-107526121D01*
X157239328Y-107654270D01*
X157567765Y-107719600D01*
X157902635Y-107719600D01*
X158231072Y-107654270D01*
X158540452Y-107526121D01*
X158818887Y-107340077D01*
X159055677Y-107103287D01*
X159241721Y-106824852D01*
X159369870Y-106515472D01*
X159435200Y-106187035D01*
X159435200Y-105852165D01*
X159369870Y-105523728D01*
X159241721Y-105214348D01*
X159055677Y-104935913D01*
X158818887Y-104699123D01*
X158540452Y-104513079D01*
X158231072Y-104384930D01*
X157902635Y-104319600D01*
X157567765Y-104319600D01*
X157239328Y-104384930D01*
X156929948Y-104513079D01*
X156651513Y-104699123D01*
X156414723Y-104935913D01*
X156228679Y-105214348D01*
X156187095Y-105314740D01*
X156188272Y-105054600D01*
X156176012Y-104930118D01*
X156139702Y-104810420D01*
X156080737Y-104700106D01*
X156001385Y-104603415D01*
X155904694Y-104524063D01*
X155794380Y-104465098D01*
X155674682Y-104428788D01*
X155550200Y-104416528D01*
X154920950Y-104419600D01*
X154762200Y-104578350D01*
X154508200Y-104578350D01*
X154349450Y-104419600D01*
X153974800Y-104417771D01*
X153974800Y-97182029D01*
X154349450Y-97180200D01*
X154508200Y-97021450D01*
X154508200Y-95707200D01*
X154488200Y-95707200D01*
X154488200Y-95453200D01*
X154508200Y-95453200D01*
X154508200Y-94138950D01*
X154762200Y-94138950D01*
X154762200Y-95453200D01*
X154782200Y-95453200D01*
X154782200Y-95707200D01*
X154762200Y-95707200D01*
X154762200Y-97021450D01*
X154920950Y-97180200D01*
X155550200Y-97183272D01*
X155674682Y-97171012D01*
X155794380Y-97134702D01*
X155904694Y-97075737D01*
X156001385Y-96996385D01*
X156080737Y-96899694D01*
X156139702Y-96789380D01*
X156176012Y-96669682D01*
X156188272Y-96545200D01*
X156187095Y-96285060D01*
X156228679Y-96385452D01*
X156414723Y-96663887D01*
X156651513Y-96900677D01*
X156929948Y-97086721D01*
X157239328Y-97214870D01*
X157567765Y-97280200D01*
X157902635Y-97280200D01*
X158231072Y-97214870D01*
X158540452Y-97086721D01*
X158818887Y-96900677D01*
X159055677Y-96663887D01*
X159241721Y-96385452D01*
X159369870Y-96076072D01*
X159435200Y-95747635D01*
X159435200Y-95412765D01*
X159369870Y-95084328D01*
X159241721Y-94774948D01*
X159055677Y-94496513D01*
X158818887Y-94259723D01*
X158540452Y-94073679D01*
X158231072Y-93945530D01*
X157902635Y-93880200D01*
X157567765Y-93880200D01*
X157239328Y-93945530D01*
X156929948Y-94073679D01*
X156651513Y-94259723D01*
X156414723Y-94496513D01*
X156228679Y-94774948D01*
X156187095Y-94875340D01*
X156188272Y-94615200D01*
X156176012Y-94490718D01*
X156139702Y-94371020D01*
X156080737Y-94260706D01*
X156001385Y-94164015D01*
X155904694Y-94084663D01*
X155794380Y-94025698D01*
X155674682Y-93989388D01*
X155550200Y-93977128D01*
X154920950Y-93980200D01*
X154762200Y-94138950D01*
X154508200Y-94138950D01*
X154349450Y-93980200D01*
X153974800Y-93978371D01*
X153974800Y-93853000D01*
X159486600Y-93853000D01*
X159486600Y-97078800D01*
X159489244Y-97104580D01*
X159496663Y-97128345D01*
X159508576Y-97150207D01*
X159524525Y-97169324D01*
X159543896Y-97184962D01*
X159565947Y-97196521D01*
X159589829Y-97203555D01*
X159614624Y-97205796D01*
X162764224Y-97180396D01*
X162787976Y-97177960D01*
X162811801Y-97170733D01*
X162833757Y-97158997D01*
X162853003Y-97143203D01*
X162868797Y-97123957D01*
X162880533Y-97102001D01*
X162887760Y-97078176D01*
X162890200Y-97053400D01*
X162890200Y-93802200D01*
X162887344Y-93775418D01*
X162879734Y-93751713D01*
X162867645Y-93729949D01*
X162851543Y-93710961D01*
X162832045Y-93695479D01*
X162809902Y-93684099D01*
X162785964Y-93677257D01*
X162761152Y-93675217D01*
X159611552Y-93726017D01*
X159588824Y-93728440D01*
X159564999Y-93735667D01*
X159543043Y-93747403D01*
X159523797Y-93763197D01*
X159508003Y-93782443D01*
X159496267Y-93804399D01*
X159489040Y-93828224D01*
X159486600Y-93853000D01*
X153974800Y-93853000D01*
X153974800Y-92298830D01*
X154690959Y-91582672D01*
X156301400Y-91582672D01*
X156474654Y-91565608D01*
X156641250Y-91515072D01*
X156794786Y-91433005D01*
X156929362Y-91322562D01*
X157039805Y-91187986D01*
X157121872Y-91034450D01*
X157149127Y-90944600D01*
X157313328Y-90944600D01*
X157325588Y-91069082D01*
X157361898Y-91188780D01*
X157420863Y-91299094D01*
X157500215Y-91395785D01*
X157596906Y-91475137D01*
X157707220Y-91534102D01*
X157826918Y-91570412D01*
X157951400Y-91582672D01*
X159165650Y-91579600D01*
X159324400Y-91420850D01*
X159324400Y-90271600D01*
X159578400Y-90271600D01*
X159578400Y-91420850D01*
X159737150Y-91579600D01*
X160951400Y-91582672D01*
X161075882Y-91570412D01*
X161195580Y-91534102D01*
X161305894Y-91475137D01*
X161402585Y-91395785D01*
X161481937Y-91299094D01*
X161540902Y-91188780D01*
X161577212Y-91069082D01*
X161589472Y-90944600D01*
X161586400Y-90430350D01*
X161427650Y-90271600D01*
X159578400Y-90271600D01*
X159324400Y-90271600D01*
X157475150Y-90271600D01*
X157316400Y-90430350D01*
X157313328Y-90944600D01*
X157149127Y-90944600D01*
X157172408Y-90867854D01*
X157189472Y-90694600D01*
X157189472Y-89594600D01*
X157172408Y-89421346D01*
X157149128Y-89344600D01*
X157313328Y-89344600D01*
X157316400Y-89858850D01*
X157475150Y-90017600D01*
X159324400Y-90017600D01*
X159324400Y-88868350D01*
X159578400Y-88868350D01*
X159578400Y-90017600D01*
X161427650Y-90017600D01*
X161586400Y-89858850D01*
X161589472Y-89344600D01*
X161577212Y-89220118D01*
X161540902Y-89100420D01*
X161481937Y-88990106D01*
X161402585Y-88893415D01*
X161305894Y-88814063D01*
X161195580Y-88755098D01*
X161075882Y-88718788D01*
X160951400Y-88706528D01*
X159737150Y-88709600D01*
X159578400Y-88868350D01*
X159324400Y-88868350D01*
X159165650Y-88709600D01*
X157951400Y-88706528D01*
X157826918Y-88718788D01*
X157707220Y-88755098D01*
X157596906Y-88814063D01*
X157500215Y-88893415D01*
X157420863Y-88990106D01*
X157361898Y-89100420D01*
X157325588Y-89220118D01*
X157313328Y-89344600D01*
X157149128Y-89344600D01*
X157121872Y-89254750D01*
X157039805Y-89101214D01*
X156929362Y-88966638D01*
X156794786Y-88856195D01*
X156641250Y-88774128D01*
X156474654Y-88723592D01*
X156449722Y-88721136D01*
X156347502Y-88637245D01*
X156215125Y-88566489D01*
X156071488Y-88522917D01*
X155922110Y-88508204D01*
X155772731Y-88522917D01*
X155629094Y-88566489D01*
X155512982Y-88628551D01*
X154024999Y-87140569D01*
X154024999Y-86716612D01*
X154273250Y-86715400D01*
X154432000Y-86556650D01*
X154432000Y-85242400D01*
X154412000Y-85242400D01*
X154412000Y-84988400D01*
X154432000Y-84988400D01*
X154432000Y-84968400D01*
X154686000Y-84968400D01*
X154686000Y-84988400D01*
X154706000Y-84988400D01*
X154706000Y-85242400D01*
X154686000Y-85242400D01*
X154686000Y-86556650D01*
X154844750Y-86715400D01*
X155474000Y-86718472D01*
X155598482Y-86706212D01*
X155718180Y-86669902D01*
X155828494Y-86610937D01*
X155925185Y-86531585D01*
X156004537Y-86434894D01*
X156063502Y-86324580D01*
X156099812Y-86204882D01*
X156112072Y-86080400D01*
X156110895Y-85820260D01*
X156152479Y-85920652D01*
X156338523Y-86199087D01*
X156575313Y-86435877D01*
X156853748Y-86621921D01*
X157163128Y-86750070D01*
X157491565Y-86815400D01*
X157826435Y-86815400D01*
X158154872Y-86750070D01*
X158464252Y-86621921D01*
X158742687Y-86435877D01*
X158979477Y-86199087D01*
X159165521Y-85920652D01*
X159232600Y-85758708D01*
X159232600Y-86868000D01*
X159235244Y-86893780D01*
X159242663Y-86917545D01*
X159254576Y-86939407D01*
X159270525Y-86958524D01*
X159289896Y-86974162D01*
X159311947Y-86985721D01*
X159335829Y-86992755D01*
X159360624Y-86994996D01*
X162510224Y-86969596D01*
X162533976Y-86967160D01*
X162557801Y-86959933D01*
X162579757Y-86948197D01*
X162599003Y-86932403D01*
X162614797Y-86913157D01*
X162626533Y-86891201D01*
X162633760Y-86867376D01*
X162636200Y-86842600D01*
X162636200Y-83591400D01*
X162633344Y-83564618D01*
X162625734Y-83540913D01*
X162613645Y-83519149D01*
X162597543Y-83500161D01*
X162596331Y-83499199D01*
X163767549Y-83499199D01*
X163797979Y-83652179D01*
G36*
X164456171Y-105389399D02*
G01*
X164400530Y-105523728D01*
X164335200Y-105852165D01*
X164335200Y-106187035D01*
X164400530Y-106515472D01*
X164528679Y-106824852D01*
X164714723Y-107103287D01*
X164951513Y-107340077D01*
X165229948Y-107526121D01*
X165539328Y-107654270D01*
X165867765Y-107719600D01*
X166202635Y-107719600D01*
X166531072Y-107654270D01*
X166840452Y-107526121D01*
X166843202Y-107524284D01*
X166843202Y-108000607D01*
X166816000Y-107997928D01*
X166401750Y-108001000D01*
X166243000Y-108159750D01*
X166243000Y-109084000D01*
X166263000Y-109084000D01*
X166263000Y-109338000D01*
X166243000Y-109338000D01*
X166243000Y-109358000D01*
X165989000Y-109358000D01*
X165989000Y-109338000D01*
X165969000Y-109338000D01*
X165969000Y-109084000D01*
X165989000Y-109084000D01*
X165989000Y-108159750D01*
X165830250Y-108001000D01*
X165491083Y-107998485D01*
X165481122Y-107974437D01*
X165387005Y-107833582D01*
X165267218Y-107713795D01*
X165126363Y-107619678D01*
X164969853Y-107554849D01*
X164803703Y-107521800D01*
X164634297Y-107521800D01*
X164468147Y-107554849D01*
X164311637Y-107619678D01*
X164170782Y-107713795D01*
X164096710Y-107787867D01*
X164096708Y-105029936D01*
X164456171Y-105389399D01*
X164456171Y-105389399D01*
G37*
X164456171Y-105389399D02*
X164400530Y-105523728D01*
X164335200Y-105852165D01*
X164335200Y-106187035D01*
X164400530Y-106515472D01*
X164528679Y-106824852D01*
X164714723Y-107103287D01*
X164951513Y-107340077D01*
X165229948Y-107526121D01*
X165539328Y-107654270D01*
X165867765Y-107719600D01*
X166202635Y-107719600D01*
X166531072Y-107654270D01*
X166840452Y-107526121D01*
X166843202Y-107524284D01*
X166843202Y-108000607D01*
X166816000Y-107997928D01*
X166401750Y-108001000D01*
X166243000Y-108159750D01*
X166243000Y-109084000D01*
X166263000Y-109084000D01*
X166263000Y-109338000D01*
X166243000Y-109338000D01*
X166243000Y-109358000D01*
X165989000Y-109358000D01*
X165989000Y-109338000D01*
X165969000Y-109338000D01*
X165969000Y-109084000D01*
X165989000Y-109084000D01*
X165989000Y-108159750D01*
X165830250Y-108001000D01*
X165491083Y-107998485D01*
X165481122Y-107974437D01*
X165387005Y-107833582D01*
X165267218Y-107713795D01*
X165126363Y-107619678D01*
X164969853Y-107554849D01*
X164803703Y-107521800D01*
X164634297Y-107521800D01*
X164468147Y-107554849D01*
X164311637Y-107619678D01*
X164170782Y-107713795D01*
X164096710Y-107787867D01*
X164096708Y-105029936D01*
X164456171Y-105389399D01*
G36*
X163334420Y-71955502D02*
G01*
X163454118Y-71991812D01*
X163578600Y-72004072D01*
X164578600Y-72004072D01*
X164703082Y-71991812D01*
X164744400Y-71979278D01*
X164744401Y-73340328D01*
X164656400Y-73340328D01*
X164531918Y-73352588D01*
X164412220Y-73388898D01*
X164301906Y-73447863D01*
X164205215Y-73527215D01*
X164125863Y-73623906D01*
X164066898Y-73734220D01*
X164042434Y-73814866D01*
X163966669Y-73730812D01*
X163733320Y-73556759D01*
X163470499Y-73431575D01*
X163323290Y-73386924D01*
X163093400Y-73508245D01*
X163093400Y-74701400D01*
X163113400Y-74701400D01*
X163113400Y-74955400D01*
X163093400Y-74955400D01*
X163093400Y-77241400D01*
X163113400Y-77241400D01*
X163113400Y-77495400D01*
X163093400Y-77495400D01*
X163093400Y-78688555D01*
X163113339Y-78699078D01*
X163111755Y-78701008D01*
X163040999Y-78833385D01*
X162997427Y-78977022D01*
X162982714Y-79126400D01*
X162986401Y-79163833D01*
X162986400Y-80657223D01*
X162893906Y-80706663D01*
X162797215Y-80786015D01*
X162717863Y-80882706D01*
X162658898Y-80993020D01*
X162622588Y-81112718D01*
X162610328Y-81237200D01*
X162610328Y-81975199D01*
X158318672Y-81975199D01*
X158318672Y-81288000D01*
X158306412Y-81163518D01*
X158270102Y-81043820D01*
X158211137Y-80933506D01*
X158131785Y-80836815D01*
X158035094Y-80757463D01*
X157942600Y-80708023D01*
X157942600Y-79240023D01*
X157946286Y-79202600D01*
X157938781Y-79126400D01*
X157931574Y-79053222D01*
X157888002Y-78909585D01*
X157847272Y-78833385D01*
X157817245Y-78777207D01*
X157781450Y-78733591D01*
X157748996Y-78694046D01*
X157759400Y-78688555D01*
X157759400Y-77495400D01*
X158013400Y-77495400D01*
X158013400Y-78688555D01*
X158243290Y-78809876D01*
X158390499Y-78765225D01*
X158653320Y-78640041D01*
X158886669Y-78465988D01*
X159081578Y-78249755D01*
X159156400Y-78124145D01*
X159231222Y-78249755D01*
X159426131Y-78465988D01*
X159659480Y-78640041D01*
X159922301Y-78765225D01*
X160069510Y-78809876D01*
X160299400Y-78688555D01*
X160299400Y-77495400D01*
X160553400Y-77495400D01*
X160553400Y-78688555D01*
X160783290Y-78809876D01*
X160930499Y-78765225D01*
X161193320Y-78640041D01*
X161426669Y-78465988D01*
X161621578Y-78249755D01*
X161696400Y-78124145D01*
X161771222Y-78249755D01*
X161966131Y-78465988D01*
X162199480Y-78640041D01*
X162462301Y-78765225D01*
X162609510Y-78809876D01*
X162839400Y-78688555D01*
X162839400Y-77495400D01*
X160553400Y-77495400D01*
X160299400Y-77495400D01*
X158013400Y-77495400D01*
X157759400Y-77495400D01*
X157739400Y-77495400D01*
X157739400Y-77241400D01*
X157759400Y-77241400D01*
X157759400Y-74955400D01*
X158013400Y-74955400D01*
X158013400Y-77241400D01*
X160299400Y-77241400D01*
X160299400Y-74955400D01*
X160553400Y-74955400D01*
X160553400Y-77241400D01*
X162839400Y-77241400D01*
X162839400Y-74955400D01*
X160553400Y-74955400D01*
X160299400Y-74955400D01*
X158013400Y-74955400D01*
X157759400Y-74955400D01*
X157739400Y-74955400D01*
X157739400Y-74701400D01*
X157759400Y-74701400D01*
X157759400Y-74681400D01*
X158013400Y-74681400D01*
X158013400Y-74701400D01*
X160299400Y-74701400D01*
X160299400Y-73508245D01*
X160553400Y-73508245D01*
X160553400Y-74701400D01*
X162839400Y-74701400D01*
X162839400Y-73508245D01*
X162609510Y-73386924D01*
X162462301Y-73431575D01*
X162199480Y-73556759D01*
X161966131Y-73730812D01*
X161771222Y-73947045D01*
X161696400Y-74072655D01*
X161621578Y-73947045D01*
X161426669Y-73730812D01*
X161193320Y-73556759D01*
X160930499Y-73431575D01*
X160783290Y-73386924D01*
X160553400Y-73508245D01*
X160299400Y-73508245D01*
X160069510Y-73386924D01*
X159922301Y-73431575D01*
X159659480Y-73556759D01*
X159426131Y-73730812D01*
X159231222Y-73947045D01*
X159156400Y-74072655D01*
X159081578Y-73947045D01*
X158886669Y-73730812D01*
X158653320Y-73556759D01*
X158390499Y-73431575D01*
X158243290Y-73386924D01*
X158013402Y-73508244D01*
X158013402Y-73343400D01*
X157909030Y-73343400D01*
X159192621Y-72059810D01*
X162855367Y-72059810D01*
X162892790Y-72063496D01*
X162930213Y-72059810D01*
X162930216Y-72059810D01*
X163042168Y-72048784D01*
X163185805Y-72005212D01*
X163306613Y-71940639D01*
X163334420Y-71955502D01*
X163334420Y-71955502D01*
G37*
X163334420Y-71955502D02*
X163454118Y-71991812D01*
X163578600Y-72004072D01*
X164578600Y-72004072D01*
X164703082Y-71991812D01*
X164744400Y-71979278D01*
X164744401Y-73340328D01*
X164656400Y-73340328D01*
X164531918Y-73352588D01*
X164412220Y-73388898D01*
X164301906Y-73447863D01*
X164205215Y-73527215D01*
X164125863Y-73623906D01*
X164066898Y-73734220D01*
X164042434Y-73814866D01*
X163966669Y-73730812D01*
X163733320Y-73556759D01*
X163470499Y-73431575D01*
X163323290Y-73386924D01*
X163093400Y-73508245D01*
X163093400Y-74701400D01*
X163113400Y-74701400D01*
X163113400Y-74955400D01*
X163093400Y-74955400D01*
X163093400Y-77241400D01*
X163113400Y-77241400D01*
X163113400Y-77495400D01*
X163093400Y-77495400D01*
X163093400Y-78688555D01*
X163113339Y-78699078D01*
X163111755Y-78701008D01*
X163040999Y-78833385D01*
X162997427Y-78977022D01*
X162982714Y-79126400D01*
X162986401Y-79163833D01*
X162986400Y-80657223D01*
X162893906Y-80706663D01*
X162797215Y-80786015D01*
X162717863Y-80882706D01*
X162658898Y-80993020D01*
X162622588Y-81112718D01*
X162610328Y-81237200D01*
X162610328Y-81975199D01*
X158318672Y-81975199D01*
X158318672Y-81288000D01*
X158306412Y-81163518D01*
X158270102Y-81043820D01*
X158211137Y-80933506D01*
X158131785Y-80836815D01*
X158035094Y-80757463D01*
X157942600Y-80708023D01*
X157942600Y-79240023D01*
X157946286Y-79202600D01*
X157938781Y-79126400D01*
X157931574Y-79053222D01*
X157888002Y-78909585D01*
X157847272Y-78833385D01*
X157817245Y-78777207D01*
X157781450Y-78733591D01*
X157748996Y-78694046D01*
X157759400Y-78688555D01*
X157759400Y-77495400D01*
X158013400Y-77495400D01*
X158013400Y-78688555D01*
X158243290Y-78809876D01*
X158390499Y-78765225D01*
X158653320Y-78640041D01*
X158886669Y-78465988D01*
X159081578Y-78249755D01*
X159156400Y-78124145D01*
X159231222Y-78249755D01*
X159426131Y-78465988D01*
X159659480Y-78640041D01*
X159922301Y-78765225D01*
X160069510Y-78809876D01*
X160299400Y-78688555D01*
X160299400Y-77495400D01*
X160553400Y-77495400D01*
X160553400Y-78688555D01*
X160783290Y-78809876D01*
X160930499Y-78765225D01*
X161193320Y-78640041D01*
X161426669Y-78465988D01*
X161621578Y-78249755D01*
X161696400Y-78124145D01*
X161771222Y-78249755D01*
X161966131Y-78465988D01*
X162199480Y-78640041D01*
X162462301Y-78765225D01*
X162609510Y-78809876D01*
X162839400Y-78688555D01*
X162839400Y-77495400D01*
X160553400Y-77495400D01*
X160299400Y-77495400D01*
X158013400Y-77495400D01*
X157759400Y-77495400D01*
X157739400Y-77495400D01*
X157739400Y-77241400D01*
X157759400Y-77241400D01*
X157759400Y-74955400D01*
X158013400Y-74955400D01*
X158013400Y-77241400D01*
X160299400Y-77241400D01*
X160299400Y-74955400D01*
X160553400Y-74955400D01*
X160553400Y-77241400D01*
X162839400Y-77241400D01*
X162839400Y-74955400D01*
X160553400Y-74955400D01*
X160299400Y-74955400D01*
X158013400Y-74955400D01*
X157759400Y-74955400D01*
X157739400Y-74955400D01*
X157739400Y-74701400D01*
X157759400Y-74701400D01*
X157759400Y-74681400D01*
X158013400Y-74681400D01*
X158013400Y-74701400D01*
X160299400Y-74701400D01*
X160299400Y-73508245D01*
X160553400Y-73508245D01*
X160553400Y-74701400D01*
X162839400Y-74701400D01*
X162839400Y-73508245D01*
X162609510Y-73386924D01*
X162462301Y-73431575D01*
X162199480Y-73556759D01*
X161966131Y-73730812D01*
X161771222Y-73947045D01*
X161696400Y-74072655D01*
X161621578Y-73947045D01*
X161426669Y-73730812D01*
X161193320Y-73556759D01*
X160930499Y-73431575D01*
X160783290Y-73386924D01*
X160553400Y-73508245D01*
X160299400Y-73508245D01*
X160069510Y-73386924D01*
X159922301Y-73431575D01*
X159659480Y-73556759D01*
X159426131Y-73730812D01*
X159231222Y-73947045D01*
X159156400Y-74072655D01*
X159081578Y-73947045D01*
X158886669Y-73730812D01*
X158653320Y-73556759D01*
X158390499Y-73431575D01*
X158243290Y-73386924D01*
X158013402Y-73508244D01*
X158013402Y-73343400D01*
X157909030Y-73343400D01*
X159192621Y-72059810D01*
X162855367Y-72059810D01*
X162892790Y-72063496D01*
X162930213Y-72059810D01*
X162930216Y-72059810D01*
X163042168Y-72048784D01*
X163185805Y-72005212D01*
X163306613Y-71940639D01*
X163334420Y-71955502D01*
G36*
X164868949Y-44410672D02*
G01*
X165035545Y-44461208D01*
X165208799Y-44478272D01*
X165794242Y-44478272D01*
X166777002Y-45461032D01*
X166777002Y-45464988D01*
X166528750Y-45466200D01*
X166370000Y-45624950D01*
X166370000Y-46939200D01*
X166390000Y-46939200D01*
X166390000Y-47193200D01*
X166370000Y-47193200D01*
X166370000Y-48507450D01*
X166528750Y-48666200D01*
X166777002Y-48667412D01*
X166777002Y-55624988D01*
X166528750Y-55626200D01*
X166370000Y-55784950D01*
X166370000Y-57099200D01*
X166390000Y-57099200D01*
X166390000Y-57353200D01*
X166370000Y-57353200D01*
X166370000Y-58667450D01*
X166528750Y-58826200D01*
X166777001Y-58827412D01*
X166777001Y-65784988D01*
X166528750Y-65786200D01*
X166370000Y-65944950D01*
X166370000Y-67259200D01*
X166390000Y-67259200D01*
X166390000Y-67513200D01*
X166370000Y-67513200D01*
X166370000Y-68827450D01*
X166528750Y-68986200D01*
X166626293Y-68986676D01*
X166066249Y-69546721D01*
X166037179Y-69570578D01*
X166013322Y-69599648D01*
X166013321Y-69599649D01*
X165941955Y-69686608D01*
X165905420Y-69754960D01*
X165834420Y-69776498D01*
X165781055Y-69805023D01*
X165448685Y-69472653D01*
X165424823Y-69443577D01*
X165308793Y-69348354D01*
X165176416Y-69277597D01*
X165032779Y-69234025D01*
X164920827Y-69222999D01*
X164920824Y-69222999D01*
X164883401Y-69219313D01*
X164845978Y-69222999D01*
X160842246Y-69222999D01*
X160804830Y-69219314D01*
X160767414Y-69222999D01*
X160767405Y-69222999D01*
X160655453Y-69234025D01*
X160511816Y-69277597D01*
X160379439Y-69348354D01*
X160263409Y-69443577D01*
X160239551Y-69472648D01*
X159684400Y-70027800D01*
X158057377Y-70027800D01*
X158007937Y-69935306D01*
X157928585Y-69838615D01*
X157831894Y-69759263D01*
X157721580Y-69700298D01*
X157601882Y-69663988D01*
X157477400Y-69651728D01*
X156477400Y-69651728D01*
X156352918Y-69663988D01*
X156233220Y-69700298D01*
X156122906Y-69759263D01*
X156026215Y-69838615D01*
X155946863Y-69935306D01*
X155887898Y-70045620D01*
X155851588Y-70165318D01*
X155839328Y-70289800D01*
X155839328Y-71289800D01*
X155851588Y-71414282D01*
X155887898Y-71533980D01*
X155946863Y-71644294D01*
X156026215Y-71740985D01*
X156122906Y-71820337D01*
X156233220Y-71879302D01*
X156352918Y-71915612D01*
X156477400Y-71927872D01*
X157169297Y-71927872D01*
X155710225Y-73386945D01*
X155637511Y-73364887D01*
X155419350Y-73343400D01*
X155273450Y-73343400D01*
X155187809Y-73351835D01*
X155267078Y-73319001D01*
X155415304Y-73219959D01*
X155541359Y-73093904D01*
X155640401Y-72945678D01*
X155708621Y-72780979D01*
X155743400Y-72606135D01*
X155743400Y-72427865D01*
X155708621Y-72253021D01*
X155640401Y-72088322D01*
X155600400Y-72028457D01*
X155600400Y-71423552D01*
X155603212Y-71414282D01*
X155615472Y-71289800D01*
X155615472Y-70289800D01*
X155603212Y-70165318D01*
X155566902Y-70045620D01*
X155507937Y-69935306D01*
X155428585Y-69838615D01*
X155331894Y-69759263D01*
X155221580Y-69700298D01*
X155150580Y-69678760D01*
X155136131Y-69651728D01*
X155114045Y-69610407D01*
X155042679Y-69523448D01*
X155018822Y-69494378D01*
X154989752Y-69470521D01*
X154588016Y-69068785D01*
X154675565Y-69086200D01*
X155010435Y-69086200D01*
X155338872Y-69020870D01*
X155648252Y-68892721D01*
X155926687Y-68706677D01*
X156163477Y-68469887D01*
X156349521Y-68191452D01*
X156477670Y-67882072D01*
X156543000Y-67553635D01*
X156543000Y-67218765D01*
X156477670Y-66890328D01*
X156349521Y-66580948D01*
X156163477Y-66302513D01*
X155926687Y-66065723D01*
X155648252Y-65879679D01*
X155338872Y-65751530D01*
X155256776Y-65735200D01*
X158038800Y-65735200D01*
X158038800Y-68961000D01*
X158041444Y-68986780D01*
X158048863Y-69010545D01*
X158060776Y-69032407D01*
X158076725Y-69051524D01*
X158096096Y-69067162D01*
X158118147Y-69078721D01*
X158142029Y-69085755D01*
X158166824Y-69087996D01*
X161316424Y-69062596D01*
X161340176Y-69060160D01*
X161364001Y-69052933D01*
X161385957Y-69041197D01*
X161405203Y-69025403D01*
X161420997Y-69006157D01*
X161432733Y-68984201D01*
X161439960Y-68960376D01*
X161442400Y-68935600D01*
X161442400Y-67218765D01*
X161443000Y-67218765D01*
X161443000Y-67553635D01*
X161508330Y-67882072D01*
X161636479Y-68191452D01*
X161822523Y-68469887D01*
X162059313Y-68706677D01*
X162337748Y-68892721D01*
X162647128Y-69020870D01*
X162975565Y-69086200D01*
X163310435Y-69086200D01*
X163638872Y-69020870D01*
X163948252Y-68892721D01*
X164226687Y-68706677D01*
X164463477Y-68469887D01*
X164649521Y-68191452D01*
X164691105Y-68091060D01*
X164689928Y-68351200D01*
X164702188Y-68475682D01*
X164738498Y-68595380D01*
X164797463Y-68705694D01*
X164876815Y-68802385D01*
X164973506Y-68881737D01*
X165083820Y-68940702D01*
X165203518Y-68977012D01*
X165328000Y-68989272D01*
X165957250Y-68986200D01*
X166116000Y-68827450D01*
X166116000Y-67513200D01*
X166096000Y-67513200D01*
X166096000Y-67259200D01*
X166116000Y-67259200D01*
X166116000Y-65944950D01*
X165957250Y-65786200D01*
X165328000Y-65783128D01*
X165203518Y-65795388D01*
X165083820Y-65831698D01*
X164973506Y-65890663D01*
X164876815Y-65970015D01*
X164797463Y-66066706D01*
X164738498Y-66177020D01*
X164702188Y-66296718D01*
X164689928Y-66421200D01*
X164691105Y-66681340D01*
X164649521Y-66580948D01*
X164463477Y-66302513D01*
X164226687Y-66065723D01*
X163948252Y-65879679D01*
X163638872Y-65751530D01*
X163310435Y-65686200D01*
X162975565Y-65686200D01*
X162647128Y-65751530D01*
X162337748Y-65879679D01*
X162059313Y-66065723D01*
X161822523Y-66302513D01*
X161636479Y-66580948D01*
X161508330Y-66890328D01*
X161443000Y-67218765D01*
X161442400Y-67218765D01*
X161442400Y-65684400D01*
X161439544Y-65657618D01*
X161431934Y-65633913D01*
X161419845Y-65612149D01*
X161403743Y-65593161D01*
X161384245Y-65577679D01*
X161362102Y-65566299D01*
X161338164Y-65559457D01*
X161313352Y-65557417D01*
X158163752Y-65608217D01*
X158141024Y-65610640D01*
X158117199Y-65617867D01*
X158095243Y-65629603D01*
X158075997Y-65645397D01*
X158060203Y-65664643D01*
X158048467Y-65686599D01*
X158041240Y-65710424D01*
X158038800Y-65735200D01*
X155256776Y-65735200D01*
X155010435Y-65686200D01*
X154675565Y-65686200D01*
X154347128Y-65751530D01*
X154158999Y-65829455D01*
X154158999Y-64200031D01*
X154513158Y-63845872D01*
X156123600Y-63845872D01*
X156296854Y-63828808D01*
X156463450Y-63778272D01*
X156616986Y-63696205D01*
X156751562Y-63585762D01*
X156862005Y-63451186D01*
X156944072Y-63297650D01*
X156971327Y-63207800D01*
X157135528Y-63207800D01*
X157147788Y-63332282D01*
X157184098Y-63451980D01*
X157243063Y-63562294D01*
X157322415Y-63658985D01*
X157419106Y-63738337D01*
X157529420Y-63797302D01*
X157649118Y-63833612D01*
X157773600Y-63845872D01*
X158987850Y-63842800D01*
X159146600Y-63684050D01*
X159146600Y-62534800D01*
X159400600Y-62534800D01*
X159400600Y-63684050D01*
X159559350Y-63842800D01*
X160773600Y-63845872D01*
X160898082Y-63833612D01*
X161017780Y-63797302D01*
X161128094Y-63738337D01*
X161224785Y-63658985D01*
X161304137Y-63562294D01*
X161363102Y-63451980D01*
X161399412Y-63332282D01*
X161411672Y-63207800D01*
X161408600Y-62693550D01*
X161249850Y-62534800D01*
X159400600Y-62534800D01*
X159146600Y-62534800D01*
X157297350Y-62534800D01*
X157138600Y-62693550D01*
X157135528Y-63207800D01*
X156971327Y-63207800D01*
X156994608Y-63131054D01*
X157011672Y-62957800D01*
X157011672Y-61857800D01*
X156994608Y-61684546D01*
X156971328Y-61607800D01*
X157135528Y-61607800D01*
X157138600Y-62122050D01*
X157297350Y-62280800D01*
X159146600Y-62280800D01*
X159146600Y-61131550D01*
X159400600Y-61131550D01*
X159400600Y-62280800D01*
X161249850Y-62280800D01*
X161408600Y-62122050D01*
X161411672Y-61607800D01*
X161399412Y-61483318D01*
X161363102Y-61363620D01*
X161304137Y-61253306D01*
X161224785Y-61156615D01*
X161128094Y-61077263D01*
X161017780Y-61018298D01*
X160898082Y-60981988D01*
X160773600Y-60969728D01*
X159559350Y-60972800D01*
X159400600Y-61131550D01*
X159146600Y-61131550D01*
X158987850Y-60972800D01*
X157773600Y-60969728D01*
X157649118Y-60981988D01*
X157529420Y-61018298D01*
X157419106Y-61077263D01*
X157322415Y-61156615D01*
X157243063Y-61253306D01*
X157184098Y-61363620D01*
X157147788Y-61483318D01*
X157135528Y-61607800D01*
X156971328Y-61607800D01*
X156944072Y-61517950D01*
X156862005Y-61364414D01*
X156751562Y-61229838D01*
X156616986Y-61119395D01*
X156463450Y-61037328D01*
X156296854Y-60986792D01*
X156123600Y-60969728D01*
X154513158Y-60969728D01*
X154076391Y-60532961D01*
X154076391Y-58748727D01*
X154347128Y-58860870D01*
X154675565Y-58926200D01*
X155010435Y-58926200D01*
X155338872Y-58860870D01*
X155648252Y-58732721D01*
X155926687Y-58546677D01*
X156163477Y-58309887D01*
X156349521Y-58031452D01*
X156477670Y-57722072D01*
X156543000Y-57393635D01*
X156543000Y-57058765D01*
X156477670Y-56730328D01*
X156422029Y-56595999D01*
X157442828Y-55575200D01*
X158064200Y-55575200D01*
X158064200Y-58801000D01*
X158066844Y-58826780D01*
X158074263Y-58850545D01*
X158086176Y-58872407D01*
X158102125Y-58891524D01*
X158121496Y-58907162D01*
X158143547Y-58918721D01*
X158167429Y-58925755D01*
X158192224Y-58927996D01*
X161341824Y-58902596D01*
X161365576Y-58900160D01*
X161389401Y-58892933D01*
X161411357Y-58881197D01*
X161430603Y-58865403D01*
X161446397Y-58846157D01*
X161458133Y-58824201D01*
X161465360Y-58800376D01*
X161467800Y-58775600D01*
X161467800Y-57518313D01*
X161508330Y-57722072D01*
X161636479Y-58031452D01*
X161822523Y-58309887D01*
X162059313Y-58546677D01*
X162337748Y-58732721D01*
X162647128Y-58860870D01*
X162975565Y-58926200D01*
X163310435Y-58926200D01*
X163638872Y-58860870D01*
X163948252Y-58732721D01*
X164226687Y-58546677D01*
X164463477Y-58309887D01*
X164649521Y-58031452D01*
X164691105Y-57931060D01*
X164689928Y-58191200D01*
X164702188Y-58315682D01*
X164738498Y-58435380D01*
X164797463Y-58545694D01*
X164876815Y-58642385D01*
X164973506Y-58721737D01*
X165083820Y-58780702D01*
X165203518Y-58817012D01*
X165328000Y-58829272D01*
X165957250Y-58826200D01*
X166116000Y-58667450D01*
X166116000Y-57353200D01*
X166096000Y-57353200D01*
X166096000Y-57099200D01*
X166116000Y-57099200D01*
X166116000Y-55784950D01*
X165957250Y-55626200D01*
X165328000Y-55623128D01*
X165203518Y-55635388D01*
X165083820Y-55671698D01*
X164973506Y-55730663D01*
X164876815Y-55810015D01*
X164797463Y-55906706D01*
X164738498Y-56017020D01*
X164702188Y-56136718D01*
X164689928Y-56261200D01*
X164691105Y-56521340D01*
X164649521Y-56420948D01*
X164463477Y-56142513D01*
X164226687Y-55905723D01*
X163948252Y-55719679D01*
X163638872Y-55591530D01*
X163310435Y-55526200D01*
X162975565Y-55526200D01*
X162647128Y-55591530D01*
X162337748Y-55719679D01*
X162059313Y-55905723D01*
X161822523Y-56142513D01*
X161636479Y-56420948D01*
X161508330Y-56730328D01*
X161467800Y-56934087D01*
X161467800Y-55524400D01*
X161464944Y-55497618D01*
X161457334Y-55473913D01*
X161445245Y-55452149D01*
X161429143Y-55433161D01*
X161409645Y-55417679D01*
X161387502Y-55406299D01*
X161363564Y-55399457D01*
X161338752Y-55397417D01*
X158189152Y-55448217D01*
X158166424Y-55450640D01*
X158142599Y-55457867D01*
X158120643Y-55469603D01*
X158101397Y-55485397D01*
X158085603Y-55504643D01*
X158073867Y-55526599D01*
X158066640Y-55550424D01*
X158064200Y-55575200D01*
X157442828Y-55575200D01*
X158037420Y-54980609D01*
X158060399Y-54982872D01*
X158710401Y-54982872D01*
X158883655Y-54965808D01*
X159050251Y-54915272D01*
X159203787Y-54833205D01*
X159338362Y-54722762D01*
X159410400Y-54634984D01*
X159482438Y-54722762D01*
X159617013Y-54833205D01*
X159770549Y-54915272D01*
X159937145Y-54965808D01*
X160110399Y-54982872D01*
X160760401Y-54982872D01*
X160933655Y-54965808D01*
X161100251Y-54915272D01*
X161253787Y-54833205D01*
X161388362Y-54722762D01*
X161498805Y-54588187D01*
X161580872Y-54434651D01*
X161631408Y-54268055D01*
X161648472Y-54094801D01*
X161648472Y-53419555D01*
X162284156Y-52783872D01*
X162310802Y-52762004D01*
X162332672Y-52735356D01*
X162398090Y-52655645D01*
X162462950Y-52534300D01*
X162462951Y-52534298D01*
X162502892Y-52402631D01*
X162512999Y-52300010D01*
X162512999Y-52300000D01*
X162516377Y-52265702D01*
X162512999Y-52231404D01*
X162512999Y-48645312D01*
X162647128Y-48700870D01*
X162975565Y-48766200D01*
X163310435Y-48766200D01*
X163638872Y-48700870D01*
X163948252Y-48572721D01*
X164226687Y-48386677D01*
X164463477Y-48149887D01*
X164649521Y-47871452D01*
X164691105Y-47771060D01*
X164689928Y-48031200D01*
X164702188Y-48155682D01*
X164738498Y-48275380D01*
X164797463Y-48385694D01*
X164876815Y-48482385D01*
X164973506Y-48561737D01*
X165083820Y-48620702D01*
X165203518Y-48657012D01*
X165328000Y-48669272D01*
X165957250Y-48666200D01*
X166116000Y-48507450D01*
X166116000Y-47193200D01*
X166096000Y-47193200D01*
X166096000Y-46939200D01*
X166116000Y-46939200D01*
X166116000Y-45624950D01*
X165957250Y-45466200D01*
X165328000Y-45463128D01*
X165203518Y-45475388D01*
X165083820Y-45511698D01*
X164973506Y-45570663D01*
X164876815Y-45650015D01*
X164797463Y-45746706D01*
X164738498Y-45857020D01*
X164702188Y-45976718D01*
X164689928Y-46101200D01*
X164691105Y-46361340D01*
X164649521Y-46260948D01*
X164463477Y-45982513D01*
X164226687Y-45745723D01*
X163948252Y-45559679D01*
X163638872Y-45431530D01*
X163310435Y-45366200D01*
X162975565Y-45366200D01*
X162647128Y-45431530D01*
X162512999Y-45487088D01*
X162512999Y-44697672D01*
X163441000Y-44697672D01*
X163565482Y-44685412D01*
X163685180Y-44649102D01*
X163795494Y-44590137D01*
X163892185Y-44510785D01*
X163926207Y-44469329D01*
X164036347Y-44514951D01*
X164202497Y-44548000D01*
X164371903Y-44548000D01*
X164538053Y-44514951D01*
X164694563Y-44450122D01*
X164804866Y-44376419D01*
X164868949Y-44410672D01*
X164868949Y-44410672D01*
G37*
X164868949Y-44410672D02*
X165035545Y-44461208D01*
X165208799Y-44478272D01*
X165794242Y-44478272D01*
X166777002Y-45461032D01*
X166777002Y-45464988D01*
X166528750Y-45466200D01*
X166370000Y-45624950D01*
X166370000Y-46939200D01*
X166390000Y-46939200D01*
X166390000Y-47193200D01*
X166370000Y-47193200D01*
X166370000Y-48507450D01*
X166528750Y-48666200D01*
X166777002Y-48667412D01*
X166777002Y-55624988D01*
X166528750Y-55626200D01*
X166370000Y-55784950D01*
X166370000Y-57099200D01*
X166390000Y-57099200D01*
X166390000Y-57353200D01*
X166370000Y-57353200D01*
X166370000Y-58667450D01*
X166528750Y-58826200D01*
X166777001Y-58827412D01*
X166777001Y-65784988D01*
X166528750Y-65786200D01*
X166370000Y-65944950D01*
X166370000Y-67259200D01*
X166390000Y-67259200D01*
X166390000Y-67513200D01*
X166370000Y-67513200D01*
X166370000Y-68827450D01*
X166528750Y-68986200D01*
X166626293Y-68986676D01*
X166066249Y-69546721D01*
X166037179Y-69570578D01*
X166013322Y-69599648D01*
X166013321Y-69599649D01*
X165941955Y-69686608D01*
X165905420Y-69754960D01*
X165834420Y-69776498D01*
X165781055Y-69805023D01*
X165448685Y-69472653D01*
X165424823Y-69443577D01*
X165308793Y-69348354D01*
X165176416Y-69277597D01*
X165032779Y-69234025D01*
X164920827Y-69222999D01*
X164920824Y-69222999D01*
X164883401Y-69219313D01*
X164845978Y-69222999D01*
X160842246Y-69222999D01*
X160804830Y-69219314D01*
X160767414Y-69222999D01*
X160767405Y-69222999D01*
X160655453Y-69234025D01*
X160511816Y-69277597D01*
X160379439Y-69348354D01*
X160263409Y-69443577D01*
X160239551Y-69472648D01*
X159684400Y-70027800D01*
X158057377Y-70027800D01*
X158007937Y-69935306D01*
X157928585Y-69838615D01*
X157831894Y-69759263D01*
X157721580Y-69700298D01*
X157601882Y-69663988D01*
X157477400Y-69651728D01*
X156477400Y-69651728D01*
X156352918Y-69663988D01*
X156233220Y-69700298D01*
X156122906Y-69759263D01*
X156026215Y-69838615D01*
X155946863Y-69935306D01*
X155887898Y-70045620D01*
X155851588Y-70165318D01*
X155839328Y-70289800D01*
X155839328Y-71289800D01*
X155851588Y-71414282D01*
X155887898Y-71533980D01*
X155946863Y-71644294D01*
X156026215Y-71740985D01*
X156122906Y-71820337D01*
X156233220Y-71879302D01*
X156352918Y-71915612D01*
X156477400Y-71927872D01*
X157169297Y-71927872D01*
X155710225Y-73386945D01*
X155637511Y-73364887D01*
X155419350Y-73343400D01*
X155273450Y-73343400D01*
X155187809Y-73351835D01*
X155267078Y-73319001D01*
X155415304Y-73219959D01*
X155541359Y-73093904D01*
X155640401Y-72945678D01*
X155708621Y-72780979D01*
X155743400Y-72606135D01*
X155743400Y-72427865D01*
X155708621Y-72253021D01*
X155640401Y-72088322D01*
X155600400Y-72028457D01*
X155600400Y-71423552D01*
X155603212Y-71414282D01*
X155615472Y-71289800D01*
X155615472Y-70289800D01*
X155603212Y-70165318D01*
X155566902Y-70045620D01*
X155507937Y-69935306D01*
X155428585Y-69838615D01*
X155331894Y-69759263D01*
X155221580Y-69700298D01*
X155150580Y-69678760D01*
X155136131Y-69651728D01*
X155114045Y-69610407D01*
X155042679Y-69523448D01*
X155018822Y-69494378D01*
X154989752Y-69470521D01*
X154588016Y-69068785D01*
X154675565Y-69086200D01*
X155010435Y-69086200D01*
X155338872Y-69020870D01*
X155648252Y-68892721D01*
X155926687Y-68706677D01*
X156163477Y-68469887D01*
X156349521Y-68191452D01*
X156477670Y-67882072D01*
X156543000Y-67553635D01*
X156543000Y-67218765D01*
X156477670Y-66890328D01*
X156349521Y-66580948D01*
X156163477Y-66302513D01*
X155926687Y-66065723D01*
X155648252Y-65879679D01*
X155338872Y-65751530D01*
X155256776Y-65735200D01*
X158038800Y-65735200D01*
X158038800Y-68961000D01*
X158041444Y-68986780D01*
X158048863Y-69010545D01*
X158060776Y-69032407D01*
X158076725Y-69051524D01*
X158096096Y-69067162D01*
X158118147Y-69078721D01*
X158142029Y-69085755D01*
X158166824Y-69087996D01*
X161316424Y-69062596D01*
X161340176Y-69060160D01*
X161364001Y-69052933D01*
X161385957Y-69041197D01*
X161405203Y-69025403D01*
X161420997Y-69006157D01*
X161432733Y-68984201D01*
X161439960Y-68960376D01*
X161442400Y-68935600D01*
X161442400Y-67218765D01*
X161443000Y-67218765D01*
X161443000Y-67553635D01*
X161508330Y-67882072D01*
X161636479Y-68191452D01*
X161822523Y-68469887D01*
X162059313Y-68706677D01*
X162337748Y-68892721D01*
X162647128Y-69020870D01*
X162975565Y-69086200D01*
X163310435Y-69086200D01*
X163638872Y-69020870D01*
X163948252Y-68892721D01*
X164226687Y-68706677D01*
X164463477Y-68469887D01*
X164649521Y-68191452D01*
X164691105Y-68091060D01*
X164689928Y-68351200D01*
X164702188Y-68475682D01*
X164738498Y-68595380D01*
X164797463Y-68705694D01*
X164876815Y-68802385D01*
X164973506Y-68881737D01*
X165083820Y-68940702D01*
X165203518Y-68977012D01*
X165328000Y-68989272D01*
X165957250Y-68986200D01*
X166116000Y-68827450D01*
X166116000Y-67513200D01*
X166096000Y-67513200D01*
X166096000Y-67259200D01*
X166116000Y-67259200D01*
X166116000Y-65944950D01*
X165957250Y-65786200D01*
X165328000Y-65783128D01*
X165203518Y-65795388D01*
X165083820Y-65831698D01*
X164973506Y-65890663D01*
X164876815Y-65970015D01*
X164797463Y-66066706D01*
X164738498Y-66177020D01*
X164702188Y-66296718D01*
X164689928Y-66421200D01*
X164691105Y-66681340D01*
X164649521Y-66580948D01*
X164463477Y-66302513D01*
X164226687Y-66065723D01*
X163948252Y-65879679D01*
X163638872Y-65751530D01*
X163310435Y-65686200D01*
X162975565Y-65686200D01*
X162647128Y-65751530D01*
X162337748Y-65879679D01*
X162059313Y-66065723D01*
X161822523Y-66302513D01*
X161636479Y-66580948D01*
X161508330Y-66890328D01*
X161443000Y-67218765D01*
X161442400Y-67218765D01*
X161442400Y-65684400D01*
X161439544Y-65657618D01*
X161431934Y-65633913D01*
X161419845Y-65612149D01*
X161403743Y-65593161D01*
X161384245Y-65577679D01*
X161362102Y-65566299D01*
X161338164Y-65559457D01*
X161313352Y-65557417D01*
X158163752Y-65608217D01*
X158141024Y-65610640D01*
X158117199Y-65617867D01*
X158095243Y-65629603D01*
X158075997Y-65645397D01*
X158060203Y-65664643D01*
X158048467Y-65686599D01*
X158041240Y-65710424D01*
X158038800Y-65735200D01*
X155256776Y-65735200D01*
X155010435Y-65686200D01*
X154675565Y-65686200D01*
X154347128Y-65751530D01*
X154158999Y-65829455D01*
X154158999Y-64200031D01*
X154513158Y-63845872D01*
X156123600Y-63845872D01*
X156296854Y-63828808D01*
X156463450Y-63778272D01*
X156616986Y-63696205D01*
X156751562Y-63585762D01*
X156862005Y-63451186D01*
X156944072Y-63297650D01*
X156971327Y-63207800D01*
X157135528Y-63207800D01*
X157147788Y-63332282D01*
X157184098Y-63451980D01*
X157243063Y-63562294D01*
X157322415Y-63658985D01*
X157419106Y-63738337D01*
X157529420Y-63797302D01*
X157649118Y-63833612D01*
X157773600Y-63845872D01*
X158987850Y-63842800D01*
X159146600Y-63684050D01*
X159146600Y-62534800D01*
X159400600Y-62534800D01*
X159400600Y-63684050D01*
X159559350Y-63842800D01*
X160773600Y-63845872D01*
X160898082Y-63833612D01*
X161017780Y-63797302D01*
X161128094Y-63738337D01*
X161224785Y-63658985D01*
X161304137Y-63562294D01*
X161363102Y-63451980D01*
X161399412Y-63332282D01*
X161411672Y-63207800D01*
X161408600Y-62693550D01*
X161249850Y-62534800D01*
X159400600Y-62534800D01*
X159146600Y-62534800D01*
X157297350Y-62534800D01*
X157138600Y-62693550D01*
X157135528Y-63207800D01*
X156971327Y-63207800D01*
X156994608Y-63131054D01*
X157011672Y-62957800D01*
X157011672Y-61857800D01*
X156994608Y-61684546D01*
X156971328Y-61607800D01*
X157135528Y-61607800D01*
X157138600Y-62122050D01*
X157297350Y-62280800D01*
X159146600Y-62280800D01*
X159146600Y-61131550D01*
X159400600Y-61131550D01*
X159400600Y-62280800D01*
X161249850Y-62280800D01*
X161408600Y-62122050D01*
X161411672Y-61607800D01*
X161399412Y-61483318D01*
X161363102Y-61363620D01*
X161304137Y-61253306D01*
X161224785Y-61156615D01*
X161128094Y-61077263D01*
X161017780Y-61018298D01*
X160898082Y-60981988D01*
X160773600Y-60969728D01*
X159559350Y-60972800D01*
X159400600Y-61131550D01*
X159146600Y-61131550D01*
X158987850Y-60972800D01*
X157773600Y-60969728D01*
X157649118Y-60981988D01*
X157529420Y-61018298D01*
X157419106Y-61077263D01*
X157322415Y-61156615D01*
X157243063Y-61253306D01*
X157184098Y-61363620D01*
X157147788Y-61483318D01*
X157135528Y-61607800D01*
X156971328Y-61607800D01*
X156944072Y-61517950D01*
X156862005Y-61364414D01*
X156751562Y-61229838D01*
X156616986Y-61119395D01*
X156463450Y-61037328D01*
X156296854Y-60986792D01*
X156123600Y-60969728D01*
X154513158Y-60969728D01*
X154076391Y-60532961D01*
X154076391Y-58748727D01*
X154347128Y-58860870D01*
X154675565Y-58926200D01*
X155010435Y-58926200D01*
X155338872Y-58860870D01*
X155648252Y-58732721D01*
X155926687Y-58546677D01*
X156163477Y-58309887D01*
X156349521Y-58031452D01*
X156477670Y-57722072D01*
X156543000Y-57393635D01*
X156543000Y-57058765D01*
X156477670Y-56730328D01*
X156422029Y-56595999D01*
X157442828Y-55575200D01*
X158064200Y-55575200D01*
X158064200Y-58801000D01*
X158066844Y-58826780D01*
X158074263Y-58850545D01*
X158086176Y-58872407D01*
X158102125Y-58891524D01*
X158121496Y-58907162D01*
X158143547Y-58918721D01*
X158167429Y-58925755D01*
X158192224Y-58927996D01*
X161341824Y-58902596D01*
X161365576Y-58900160D01*
X161389401Y-58892933D01*
X161411357Y-58881197D01*
X161430603Y-58865403D01*
X161446397Y-58846157D01*
X161458133Y-58824201D01*
X161465360Y-58800376D01*
X161467800Y-58775600D01*
X161467800Y-57518313D01*
X161508330Y-57722072D01*
X161636479Y-58031452D01*
X161822523Y-58309887D01*
X162059313Y-58546677D01*
X162337748Y-58732721D01*
X162647128Y-58860870D01*
X162975565Y-58926200D01*
X163310435Y-58926200D01*
X163638872Y-58860870D01*
X163948252Y-58732721D01*
X164226687Y-58546677D01*
X164463477Y-58309887D01*
X164649521Y-58031452D01*
X164691105Y-57931060D01*
X164689928Y-58191200D01*
X164702188Y-58315682D01*
X164738498Y-58435380D01*
X164797463Y-58545694D01*
X164876815Y-58642385D01*
X164973506Y-58721737D01*
X165083820Y-58780702D01*
X165203518Y-58817012D01*
X165328000Y-58829272D01*
X165957250Y-58826200D01*
X166116000Y-58667450D01*
X166116000Y-57353200D01*
X166096000Y-57353200D01*
X166096000Y-57099200D01*
X166116000Y-57099200D01*
X166116000Y-55784950D01*
X165957250Y-55626200D01*
X165328000Y-55623128D01*
X165203518Y-55635388D01*
X165083820Y-55671698D01*
X164973506Y-55730663D01*
X164876815Y-55810015D01*
X164797463Y-55906706D01*
X164738498Y-56017020D01*
X164702188Y-56136718D01*
X164689928Y-56261200D01*
X164691105Y-56521340D01*
X164649521Y-56420948D01*
X164463477Y-56142513D01*
X164226687Y-55905723D01*
X163948252Y-55719679D01*
X163638872Y-55591530D01*
X163310435Y-55526200D01*
X162975565Y-55526200D01*
X162647128Y-55591530D01*
X162337748Y-55719679D01*
X162059313Y-55905723D01*
X161822523Y-56142513D01*
X161636479Y-56420948D01*
X161508330Y-56730328D01*
X161467800Y-56934087D01*
X161467800Y-55524400D01*
X161464944Y-55497618D01*
X161457334Y-55473913D01*
X161445245Y-55452149D01*
X161429143Y-55433161D01*
X161409645Y-55417679D01*
X161387502Y-55406299D01*
X161363564Y-55399457D01*
X161338752Y-55397417D01*
X158189152Y-55448217D01*
X158166424Y-55450640D01*
X158142599Y-55457867D01*
X158120643Y-55469603D01*
X158101397Y-55485397D01*
X158085603Y-55504643D01*
X158073867Y-55526599D01*
X158066640Y-55550424D01*
X158064200Y-55575200D01*
X157442828Y-55575200D01*
X158037420Y-54980609D01*
X158060399Y-54982872D01*
X158710401Y-54982872D01*
X158883655Y-54965808D01*
X159050251Y-54915272D01*
X159203787Y-54833205D01*
X159338362Y-54722762D01*
X159410400Y-54634984D01*
X159482438Y-54722762D01*
X159617013Y-54833205D01*
X159770549Y-54915272D01*
X159937145Y-54965808D01*
X160110399Y-54982872D01*
X160760401Y-54982872D01*
X160933655Y-54965808D01*
X161100251Y-54915272D01*
X161253787Y-54833205D01*
X161388362Y-54722762D01*
X161498805Y-54588187D01*
X161580872Y-54434651D01*
X161631408Y-54268055D01*
X161648472Y-54094801D01*
X161648472Y-53419555D01*
X162284156Y-52783872D01*
X162310802Y-52762004D01*
X162332672Y-52735356D01*
X162398090Y-52655645D01*
X162462950Y-52534300D01*
X162462951Y-52534298D01*
X162502892Y-52402631D01*
X162512999Y-52300010D01*
X162512999Y-52300000D01*
X162516377Y-52265702D01*
X162512999Y-52231404D01*
X162512999Y-48645312D01*
X162647128Y-48700870D01*
X162975565Y-48766200D01*
X163310435Y-48766200D01*
X163638872Y-48700870D01*
X163948252Y-48572721D01*
X164226687Y-48386677D01*
X164463477Y-48149887D01*
X164649521Y-47871452D01*
X164691105Y-47771060D01*
X164689928Y-48031200D01*
X164702188Y-48155682D01*
X164738498Y-48275380D01*
X164797463Y-48385694D01*
X164876815Y-48482385D01*
X164973506Y-48561737D01*
X165083820Y-48620702D01*
X165203518Y-48657012D01*
X165328000Y-48669272D01*
X165957250Y-48666200D01*
X166116000Y-48507450D01*
X166116000Y-47193200D01*
X166096000Y-47193200D01*
X166096000Y-46939200D01*
X166116000Y-46939200D01*
X166116000Y-45624950D01*
X165957250Y-45466200D01*
X165328000Y-45463128D01*
X165203518Y-45475388D01*
X165083820Y-45511698D01*
X164973506Y-45570663D01*
X164876815Y-45650015D01*
X164797463Y-45746706D01*
X164738498Y-45857020D01*
X164702188Y-45976718D01*
X164689928Y-46101200D01*
X164691105Y-46361340D01*
X164649521Y-46260948D01*
X164463477Y-45982513D01*
X164226687Y-45745723D01*
X163948252Y-45559679D01*
X163638872Y-45431530D01*
X163310435Y-45366200D01*
X162975565Y-45366200D01*
X162647128Y-45431530D01*
X162512999Y-45487088D01*
X162512999Y-44697672D01*
X163441000Y-44697672D01*
X163565482Y-44685412D01*
X163685180Y-44649102D01*
X163795494Y-44590137D01*
X163892185Y-44510785D01*
X163926207Y-44469329D01*
X164036347Y-44514951D01*
X164202497Y-44548000D01*
X164371903Y-44548000D01*
X164538053Y-44514951D01*
X164694563Y-44450122D01*
X164804866Y-44376419D01*
X164868949Y-44410672D01*
G36*
X167410992Y-25178961D02*
G01*
X167333282Y-25155388D01*
X167208800Y-25143128D01*
X166579550Y-25146200D01*
X166420800Y-25304950D01*
X166420800Y-26619200D01*
X166440800Y-26619200D01*
X166440800Y-26873200D01*
X166420800Y-26873200D01*
X166420800Y-28187450D01*
X166579550Y-28346200D01*
X167208800Y-28349272D01*
X167333282Y-28337012D01*
X167410266Y-28313659D01*
X167408637Y-35345952D01*
X167307882Y-35315388D01*
X167183400Y-35303128D01*
X166554150Y-35306200D01*
X166395400Y-35464950D01*
X166395400Y-36779200D01*
X166415400Y-36779200D01*
X166415400Y-37033200D01*
X166395400Y-37033200D01*
X166395400Y-38347450D01*
X166554150Y-38506200D01*
X167183400Y-38509272D01*
X167307882Y-38497012D01*
X167407914Y-38466668D01*
X167406647Y-43935417D01*
X166996872Y-43525642D01*
X166996872Y-42940199D01*
X166979808Y-42766945D01*
X166929272Y-42600349D01*
X166847205Y-42446813D01*
X166736762Y-42312238D01*
X166730206Y-42306858D01*
X166809985Y-42241385D01*
X166889337Y-42144694D01*
X166948302Y-42034380D01*
X166984612Y-41914682D01*
X166996872Y-41790200D01*
X166993800Y-41500950D01*
X166835050Y-41342200D01*
X165785800Y-41342200D01*
X165785800Y-41362200D01*
X165531800Y-41362200D01*
X165531800Y-41342200D01*
X165511800Y-41342200D01*
X165511800Y-41088200D01*
X165531800Y-41088200D01*
X165531800Y-40163950D01*
X165785800Y-40163950D01*
X165785800Y-41088200D01*
X166835050Y-41088200D01*
X166993800Y-40929450D01*
X166996872Y-40640200D01*
X166984612Y-40515718D01*
X166948302Y-40396020D01*
X166889337Y-40285706D01*
X166809985Y-40189015D01*
X166713294Y-40109663D01*
X166602980Y-40050698D01*
X166483282Y-40014388D01*
X166358800Y-40002128D01*
X165944550Y-40005200D01*
X165785800Y-40163950D01*
X165531800Y-40163950D01*
X165373050Y-40005200D01*
X165113043Y-40003272D01*
X165088751Y-39881147D01*
X165023922Y-39724637D01*
X164929805Y-39583782D01*
X164810018Y-39463995D01*
X164728741Y-39409687D01*
X165112462Y-39025966D01*
X165139102Y-39004103D01*
X165160967Y-38977461D01*
X165160974Y-38977454D01*
X165226391Y-38897744D01*
X165291251Y-38776398D01*
X165291252Y-38776397D01*
X165331193Y-38644730D01*
X165341300Y-38542109D01*
X165341300Y-38542098D01*
X165344618Y-38508407D01*
X165353400Y-38509272D01*
X165982650Y-38506200D01*
X166141400Y-38347450D01*
X166141400Y-37033200D01*
X166121400Y-37033200D01*
X166121400Y-36779200D01*
X166141400Y-36779200D01*
X166141400Y-35464950D01*
X165982650Y-35306200D01*
X165353400Y-35303128D01*
X165341300Y-35304320D01*
X165341300Y-34645498D01*
X165344678Y-34611200D01*
X165341300Y-34576902D01*
X165341300Y-34576891D01*
X165331193Y-34474270D01*
X165291252Y-34342603D01*
X165264445Y-34292451D01*
X165226391Y-34221256D01*
X165160974Y-34141546D01*
X165160971Y-34141543D01*
X165139103Y-34114897D01*
X165112457Y-34093029D01*
X161851672Y-30832245D01*
X161851672Y-30156999D01*
X161834608Y-29983745D01*
X161784072Y-29817149D01*
X161702005Y-29663613D01*
X161591562Y-29529038D01*
X161456987Y-29418595D01*
X161303451Y-29336528D01*
X161136855Y-29285992D01*
X160963601Y-29268928D01*
X160313599Y-29268928D01*
X160140345Y-29285992D01*
X159973749Y-29336528D01*
X159820213Y-29418595D01*
X159685638Y-29529038D01*
X159613600Y-29616816D01*
X159541562Y-29529038D01*
X159406987Y-29418595D01*
X159253451Y-29336528D01*
X159086855Y-29285992D01*
X158913601Y-29268928D01*
X158263599Y-29268928D01*
X158240620Y-29271191D01*
X156435632Y-27466204D01*
X156528470Y-27242072D01*
X156593800Y-26913635D01*
X156593800Y-26578765D01*
X156528470Y-26250328D01*
X156400321Y-25940948D01*
X156214277Y-25662513D01*
X155977487Y-25425723D01*
X155699052Y-25239679D01*
X155534212Y-25171400D01*
X158038800Y-25171400D01*
X158038800Y-28397200D01*
X158041444Y-28422980D01*
X158048863Y-28446745D01*
X158060776Y-28468607D01*
X158076725Y-28487724D01*
X158096096Y-28503362D01*
X158118147Y-28514921D01*
X158142029Y-28521955D01*
X158166824Y-28524196D01*
X161316424Y-28498796D01*
X161340176Y-28496360D01*
X161364001Y-28489133D01*
X161385957Y-28477397D01*
X161405203Y-28461603D01*
X161420997Y-28442357D01*
X161432733Y-28420401D01*
X161439960Y-28396576D01*
X161442400Y-28371800D01*
X161442400Y-26578765D01*
X161493800Y-26578765D01*
X161493800Y-26913635D01*
X161559130Y-27242072D01*
X161687279Y-27551452D01*
X161873323Y-27829887D01*
X162110113Y-28066677D01*
X162388548Y-28252721D01*
X162697928Y-28380870D01*
X163026365Y-28446200D01*
X163361235Y-28446200D01*
X163689672Y-28380870D01*
X163999052Y-28252721D01*
X164277487Y-28066677D01*
X164514277Y-27829887D01*
X164700321Y-27551452D01*
X164741905Y-27451060D01*
X164740728Y-27711200D01*
X164752988Y-27835682D01*
X164789298Y-27955380D01*
X164848263Y-28065694D01*
X164927615Y-28162385D01*
X165024306Y-28241737D01*
X165134620Y-28300702D01*
X165254318Y-28337012D01*
X165378800Y-28349272D01*
X166008050Y-28346200D01*
X166166800Y-28187450D01*
X166166800Y-26873200D01*
X166146800Y-26873200D01*
X166146800Y-26619200D01*
X166166800Y-26619200D01*
X166166800Y-25304950D01*
X166008050Y-25146200D01*
X165378800Y-25143128D01*
X165254318Y-25155388D01*
X165134620Y-25191698D01*
X165024306Y-25250663D01*
X164927615Y-25330015D01*
X164848263Y-25426706D01*
X164789298Y-25537020D01*
X164752988Y-25656718D01*
X164740728Y-25781200D01*
X164741905Y-26041340D01*
X164700321Y-25940948D01*
X164514277Y-25662513D01*
X164277487Y-25425723D01*
X163999052Y-25239679D01*
X163689672Y-25111530D01*
X163361235Y-25046200D01*
X163026365Y-25046200D01*
X162697928Y-25111530D01*
X162388548Y-25239679D01*
X162110113Y-25425723D01*
X161873323Y-25662513D01*
X161687279Y-25940948D01*
X161559130Y-26250328D01*
X161493800Y-26578765D01*
X161442400Y-26578765D01*
X161442400Y-25120600D01*
X161439544Y-25093818D01*
X161431934Y-25070113D01*
X161419845Y-25048349D01*
X161403743Y-25029361D01*
X161384245Y-25013879D01*
X161362102Y-25002499D01*
X161338164Y-24995657D01*
X161313352Y-24993617D01*
X158163752Y-25044417D01*
X158141024Y-25046840D01*
X158117199Y-25054067D01*
X158095243Y-25065803D01*
X158075997Y-25081597D01*
X158060203Y-25100843D01*
X158048467Y-25122799D01*
X158041240Y-25146624D01*
X158038800Y-25171400D01*
X155534212Y-25171400D01*
X155389672Y-25111530D01*
X155061235Y-25046200D01*
X154726365Y-25046200D01*
X154397928Y-25111530D01*
X154088548Y-25239679D01*
X153810113Y-25425723D01*
X153573323Y-25662513D01*
X153392131Y-25933687D01*
X153390470Y-22351600D01*
X167411648Y-22351600D01*
X167410992Y-25178961D01*
X167410992Y-25178961D01*
G37*
X167410992Y-25178961D02*
X167333282Y-25155388D01*
X167208800Y-25143128D01*
X166579550Y-25146200D01*
X166420800Y-25304950D01*
X166420800Y-26619200D01*
X166440800Y-26619200D01*
X166440800Y-26873200D01*
X166420800Y-26873200D01*
X166420800Y-28187450D01*
X166579550Y-28346200D01*
X167208800Y-28349272D01*
X167333282Y-28337012D01*
X167410266Y-28313659D01*
X167408637Y-35345952D01*
X167307882Y-35315388D01*
X167183400Y-35303128D01*
X166554150Y-35306200D01*
X166395400Y-35464950D01*
X166395400Y-36779200D01*
X166415400Y-36779200D01*
X166415400Y-37033200D01*
X166395400Y-37033200D01*
X166395400Y-38347450D01*
X166554150Y-38506200D01*
X167183400Y-38509272D01*
X167307882Y-38497012D01*
X167407914Y-38466668D01*
X167406647Y-43935417D01*
X166996872Y-43525642D01*
X166996872Y-42940199D01*
X166979808Y-42766945D01*
X166929272Y-42600349D01*
X166847205Y-42446813D01*
X166736762Y-42312238D01*
X166730206Y-42306858D01*
X166809985Y-42241385D01*
X166889337Y-42144694D01*
X166948302Y-42034380D01*
X166984612Y-41914682D01*
X166996872Y-41790200D01*
X166993800Y-41500950D01*
X166835050Y-41342200D01*
X165785800Y-41342200D01*
X165785800Y-41362200D01*
X165531800Y-41362200D01*
X165531800Y-41342200D01*
X165511800Y-41342200D01*
X165511800Y-41088200D01*
X165531800Y-41088200D01*
X165531800Y-40163950D01*
X165785800Y-40163950D01*
X165785800Y-41088200D01*
X166835050Y-41088200D01*
X166993800Y-40929450D01*
X166996872Y-40640200D01*
X166984612Y-40515718D01*
X166948302Y-40396020D01*
X166889337Y-40285706D01*
X166809985Y-40189015D01*
X166713294Y-40109663D01*
X166602980Y-40050698D01*
X166483282Y-40014388D01*
X166358800Y-40002128D01*
X165944550Y-40005200D01*
X165785800Y-40163950D01*
X165531800Y-40163950D01*
X165373050Y-40005200D01*
X165113043Y-40003272D01*
X165088751Y-39881147D01*
X165023922Y-39724637D01*
X164929805Y-39583782D01*
X164810018Y-39463995D01*
X164728741Y-39409687D01*
X165112462Y-39025966D01*
X165139102Y-39004103D01*
X165160967Y-38977461D01*
X165160974Y-38977454D01*
X165226391Y-38897744D01*
X165291251Y-38776398D01*
X165291252Y-38776397D01*
X165331193Y-38644730D01*
X165341300Y-38542109D01*
X165341300Y-38542098D01*
X165344618Y-38508407D01*
X165353400Y-38509272D01*
X165982650Y-38506200D01*
X166141400Y-38347450D01*
X166141400Y-37033200D01*
X166121400Y-37033200D01*
X166121400Y-36779200D01*
X166141400Y-36779200D01*
X166141400Y-35464950D01*
X165982650Y-35306200D01*
X165353400Y-35303128D01*
X165341300Y-35304320D01*
X165341300Y-34645498D01*
X165344678Y-34611200D01*
X165341300Y-34576902D01*
X165341300Y-34576891D01*
X165331193Y-34474270D01*
X165291252Y-34342603D01*
X165264445Y-34292451D01*
X165226391Y-34221256D01*
X165160974Y-34141546D01*
X165160971Y-34141543D01*
X165139103Y-34114897D01*
X165112457Y-34093029D01*
X161851672Y-30832245D01*
X161851672Y-30156999D01*
X161834608Y-29983745D01*
X161784072Y-29817149D01*
X161702005Y-29663613D01*
X161591562Y-29529038D01*
X161456987Y-29418595D01*
X161303451Y-29336528D01*
X161136855Y-29285992D01*
X160963601Y-29268928D01*
X160313599Y-29268928D01*
X160140345Y-29285992D01*
X159973749Y-29336528D01*
X159820213Y-29418595D01*
X159685638Y-29529038D01*
X159613600Y-29616816D01*
X159541562Y-29529038D01*
X159406987Y-29418595D01*
X159253451Y-29336528D01*
X159086855Y-29285992D01*
X158913601Y-29268928D01*
X158263599Y-29268928D01*
X158240620Y-29271191D01*
X156435632Y-27466204D01*
X156528470Y-27242072D01*
X156593800Y-26913635D01*
X156593800Y-26578765D01*
X156528470Y-26250328D01*
X156400321Y-25940948D01*
X156214277Y-25662513D01*
X155977487Y-25425723D01*
X155699052Y-25239679D01*
X155534212Y-25171400D01*
X158038800Y-25171400D01*
X158038800Y-28397200D01*
X158041444Y-28422980D01*
X158048863Y-28446745D01*
X158060776Y-28468607D01*
X158076725Y-28487724D01*
X158096096Y-28503362D01*
X158118147Y-28514921D01*
X158142029Y-28521955D01*
X158166824Y-28524196D01*
X161316424Y-28498796D01*
X161340176Y-28496360D01*
X161364001Y-28489133D01*
X161385957Y-28477397D01*
X161405203Y-28461603D01*
X161420997Y-28442357D01*
X161432733Y-28420401D01*
X161439960Y-28396576D01*
X161442400Y-28371800D01*
X161442400Y-26578765D01*
X161493800Y-26578765D01*
X161493800Y-26913635D01*
X161559130Y-27242072D01*
X161687279Y-27551452D01*
X161873323Y-27829887D01*
X162110113Y-28066677D01*
X162388548Y-28252721D01*
X162697928Y-28380870D01*
X163026365Y-28446200D01*
X163361235Y-28446200D01*
X163689672Y-28380870D01*
X163999052Y-28252721D01*
X164277487Y-28066677D01*
X164514277Y-27829887D01*
X164700321Y-27551452D01*
X164741905Y-27451060D01*
X164740728Y-27711200D01*
X164752988Y-27835682D01*
X164789298Y-27955380D01*
X164848263Y-28065694D01*
X164927615Y-28162385D01*
X165024306Y-28241737D01*
X165134620Y-28300702D01*
X165254318Y-28337012D01*
X165378800Y-28349272D01*
X166008050Y-28346200D01*
X166166800Y-28187450D01*
X166166800Y-26873200D01*
X166146800Y-26873200D01*
X166146800Y-26619200D01*
X166166800Y-26619200D01*
X166166800Y-25304950D01*
X166008050Y-25146200D01*
X165378800Y-25143128D01*
X165254318Y-25155388D01*
X165134620Y-25191698D01*
X165024306Y-25250663D01*
X164927615Y-25330015D01*
X164848263Y-25426706D01*
X164789298Y-25537020D01*
X164752988Y-25656718D01*
X164740728Y-25781200D01*
X164741905Y-26041340D01*
X164700321Y-25940948D01*
X164514277Y-25662513D01*
X164277487Y-25425723D01*
X163999052Y-25239679D01*
X163689672Y-25111530D01*
X163361235Y-25046200D01*
X163026365Y-25046200D01*
X162697928Y-25111530D01*
X162388548Y-25239679D01*
X162110113Y-25425723D01*
X161873323Y-25662513D01*
X161687279Y-25940948D01*
X161559130Y-26250328D01*
X161493800Y-26578765D01*
X161442400Y-26578765D01*
X161442400Y-25120600D01*
X161439544Y-25093818D01*
X161431934Y-25070113D01*
X161419845Y-25048349D01*
X161403743Y-25029361D01*
X161384245Y-25013879D01*
X161362102Y-25002499D01*
X161338164Y-24995657D01*
X161313352Y-24993617D01*
X158163752Y-25044417D01*
X158141024Y-25046840D01*
X158117199Y-25054067D01*
X158095243Y-25065803D01*
X158075997Y-25081597D01*
X158060203Y-25100843D01*
X158048467Y-25122799D01*
X158041240Y-25146624D01*
X158038800Y-25171400D01*
X155534212Y-25171400D01*
X155389672Y-25111530D01*
X155061235Y-25046200D01*
X154726365Y-25046200D01*
X154397928Y-25111530D01*
X154088548Y-25239679D01*
X153810113Y-25425723D01*
X153573323Y-25662513D01*
X153392131Y-25933687D01*
X153390470Y-22351600D01*
X167411648Y-22351600D01*
X167410992Y-25178961D01*
G36*
X159838038Y-34580562D02*
G01*
X159972613Y-34691005D01*
X160126149Y-34773072D01*
X160289409Y-34822596D01*
X160294698Y-34829041D01*
X160321343Y-34850909D01*
X160610399Y-35139965D01*
X158189152Y-35179017D01*
X158166424Y-35181440D01*
X158142599Y-35188667D01*
X158120643Y-35200403D01*
X158101397Y-35216197D01*
X158085603Y-35235443D01*
X158073867Y-35257399D01*
X158066640Y-35281224D01*
X158064200Y-35306000D01*
X158064200Y-38531800D01*
X158066844Y-38557580D01*
X158074263Y-38581345D01*
X158086176Y-38603207D01*
X158102125Y-38622324D01*
X158121496Y-38637962D01*
X158143547Y-38649521D01*
X158167429Y-38656555D01*
X158192224Y-38658796D01*
X160592596Y-38639438D01*
X160354806Y-38877229D01*
X160328159Y-38899098D01*
X160306291Y-38925744D01*
X160306288Y-38925747D01*
X160240871Y-39005457D01*
X160193724Y-39093663D01*
X160176010Y-39126804D01*
X160136069Y-39258471D01*
X160125962Y-39361092D01*
X160125962Y-39361102D01*
X160122584Y-39395400D01*
X160125962Y-39429698D01*
X160125963Y-41756736D01*
X159378111Y-41008884D01*
X159356241Y-40982235D01*
X159329590Y-40960363D01*
X159310279Y-40941051D01*
X159310274Y-40941046D01*
X158179072Y-39809845D01*
X158179072Y-39709600D01*
X158166812Y-39585118D01*
X158130502Y-39465420D01*
X158071537Y-39355106D01*
X157992185Y-39258415D01*
X157895494Y-39179063D01*
X157785180Y-39120098D01*
X157665482Y-39083788D01*
X157541000Y-39071528D01*
X156091000Y-39071528D01*
X155966518Y-39083788D01*
X155846820Y-39120098D01*
X155755793Y-39168754D01*
X155664294Y-39093663D01*
X155553980Y-39034698D01*
X155434282Y-38998388D01*
X155309800Y-38986128D01*
X154895550Y-38989200D01*
X154736800Y-39147950D01*
X154736800Y-40072200D01*
X154756800Y-40072200D01*
X154756800Y-40326200D01*
X154736800Y-40326200D01*
X154736800Y-40346200D01*
X154482800Y-40346200D01*
X154482800Y-40326200D01*
X154462800Y-40326200D01*
X154462800Y-40072200D01*
X154482800Y-40072200D01*
X154482800Y-39147950D01*
X154324050Y-38989200D01*
X153909800Y-38986128D01*
X153785318Y-38998388D01*
X153665620Y-39034698D01*
X153555306Y-39093663D01*
X153458615Y-39173015D01*
X153398304Y-39246504D01*
X153397617Y-37764938D01*
X153547923Y-37989887D01*
X153784713Y-38226677D01*
X154063148Y-38412721D01*
X154372528Y-38540870D01*
X154700965Y-38606200D01*
X155035835Y-38606200D01*
X155364272Y-38540870D01*
X155673652Y-38412721D01*
X155952087Y-38226677D01*
X156188877Y-37989887D01*
X156374921Y-37711452D01*
X156503070Y-37402072D01*
X156568400Y-37073635D01*
X156568400Y-36738765D01*
X156555834Y-36675593D01*
X158393020Y-34838409D01*
X158415999Y-34840672D01*
X159066001Y-34840672D01*
X159239255Y-34823608D01*
X159405851Y-34773072D01*
X159559387Y-34691005D01*
X159693962Y-34580562D01*
X159766000Y-34492784D01*
X159838038Y-34580562D01*
X159838038Y-34580562D01*
G37*
X159838038Y-34580562D02*
X159972613Y-34691005D01*
X160126149Y-34773072D01*
X160289409Y-34822596D01*
X160294698Y-34829041D01*
X160321343Y-34850909D01*
X160610399Y-35139965D01*
X158189152Y-35179017D01*
X158166424Y-35181440D01*
X158142599Y-35188667D01*
X158120643Y-35200403D01*
X158101397Y-35216197D01*
X158085603Y-35235443D01*
X158073867Y-35257399D01*
X158066640Y-35281224D01*
X158064200Y-35306000D01*
X158064200Y-38531800D01*
X158066844Y-38557580D01*
X158074263Y-38581345D01*
X158086176Y-38603207D01*
X158102125Y-38622324D01*
X158121496Y-38637962D01*
X158143547Y-38649521D01*
X158167429Y-38656555D01*
X158192224Y-38658796D01*
X160592596Y-38639438D01*
X160354806Y-38877229D01*
X160328159Y-38899098D01*
X160306291Y-38925744D01*
X160306288Y-38925747D01*
X160240871Y-39005457D01*
X160193724Y-39093663D01*
X160176010Y-39126804D01*
X160136069Y-39258471D01*
X160125962Y-39361092D01*
X160125962Y-39361102D01*
X160122584Y-39395400D01*
X160125962Y-39429698D01*
X160125963Y-41756736D01*
X159378111Y-41008884D01*
X159356241Y-40982235D01*
X159329590Y-40960363D01*
X159310279Y-40941051D01*
X159310274Y-40941046D01*
X158179072Y-39809845D01*
X158179072Y-39709600D01*
X158166812Y-39585118D01*
X158130502Y-39465420D01*
X158071537Y-39355106D01*
X157992185Y-39258415D01*
X157895494Y-39179063D01*
X157785180Y-39120098D01*
X157665482Y-39083788D01*
X157541000Y-39071528D01*
X156091000Y-39071528D01*
X155966518Y-39083788D01*
X155846820Y-39120098D01*
X155755793Y-39168754D01*
X155664294Y-39093663D01*
X155553980Y-39034698D01*
X155434282Y-38998388D01*
X155309800Y-38986128D01*
X154895550Y-38989200D01*
X154736800Y-39147950D01*
X154736800Y-40072200D01*
X154756800Y-40072200D01*
X154756800Y-40326200D01*
X154736800Y-40326200D01*
X154736800Y-40346200D01*
X154482800Y-40346200D01*
X154482800Y-40326200D01*
X154462800Y-40326200D01*
X154462800Y-40072200D01*
X154482800Y-40072200D01*
X154482800Y-39147950D01*
X154324050Y-38989200D01*
X153909800Y-38986128D01*
X153785318Y-38998388D01*
X153665620Y-39034698D01*
X153555306Y-39093663D01*
X153458615Y-39173015D01*
X153398304Y-39246504D01*
X153397617Y-37764938D01*
X153547923Y-37989887D01*
X153784713Y-38226677D01*
X154063148Y-38412721D01*
X154372528Y-38540870D01*
X154700965Y-38606200D01*
X155035835Y-38606200D01*
X155364272Y-38540870D01*
X155673652Y-38412721D01*
X155952087Y-38226677D01*
X156188877Y-37989887D01*
X156374921Y-37711452D01*
X156503070Y-37402072D01*
X156568400Y-37073635D01*
X156568400Y-36738765D01*
X156555834Y-36675593D01*
X158393020Y-34838409D01*
X158415999Y-34840672D01*
X159066001Y-34840672D01*
X159239255Y-34823608D01*
X159405851Y-34773072D01*
X159559387Y-34691005D01*
X159693962Y-34580562D01*
X159766000Y-34492784D01*
X159838038Y-34580562D01*
M02*
