G04 #@! TF.GenerationSoftware,KiCad,Pcbnew,(5.1.2-1)-1*
G04 #@! TF.CreationDate,2020-08-10T22:20:09-07:00*
G04 #@! TF.ProjectId,active_dual_mult,61637469-7665-45f6-9475-616c5f6d756c,rev?*
G04 #@! TF.SameCoordinates,Original*
G04 #@! TF.FileFunction,Legend,Top*
G04 #@! TF.FilePolarity,Positive*
%FSLAX46Y46*%
G04 Gerber Fmt 4.6, Leading zero omitted, Abs format (unit mm)*
G04 Created by KiCad (PCBNEW (5.1.2-1)-1) date 2020-08-10 22:20:09*
%MOMM*%
%LPD*%
G04 APERTURE LIST*
%ADD10C,0.150000*%
%ADD11C,0.375000*%
%ADD12C,0.300000*%
%ADD13C,0.120000*%
%ADD14C,0.203200*%
%ADD15C,0.100000*%
%ADD16C,1.252000*%
%ADD17R,1.102000X1.102000*%
%ADD18C,2.232000*%
%ADD19R,1.932000X2.032000*%
%ADD20O,1.802000X1.802000*%
%ADD21R,1.802000X1.802000*%
%ADD22C,1.702000*%
%ADD23R,1.552000X0.552000*%
G04 APERTURE END LIST*
D10*
X153151057Y-24912580D02*
X153151057Y-24245914D01*
X153151057Y-24436390D02*
X153198676Y-24341152D01*
X153246295Y-24293533D01*
X153341533Y-24245914D01*
X153436771Y-24245914D01*
X154151057Y-24864961D02*
X154055819Y-24912580D01*
X153865342Y-24912580D01*
X153770104Y-24864961D01*
X153722485Y-24769723D01*
X153722485Y-24388771D01*
X153770104Y-24293533D01*
X153865342Y-24245914D01*
X154055819Y-24245914D01*
X154151057Y-24293533D01*
X154198676Y-24388771D01*
X154198676Y-24484009D01*
X153722485Y-24579247D01*
X154532009Y-24245914D02*
X154770104Y-24912580D01*
X155008200Y-24245914D01*
X155579628Y-23912580D02*
X155674866Y-23912580D01*
X155770104Y-23960200D01*
X155817723Y-24007819D01*
X155865342Y-24103057D01*
X155912961Y-24293533D01*
X155912961Y-24531628D01*
X155865342Y-24722104D01*
X155817723Y-24817342D01*
X155770104Y-24864961D01*
X155674866Y-24912580D01*
X155579628Y-24912580D01*
X155484390Y-24864961D01*
X155436771Y-24817342D01*
X155389152Y-24722104D01*
X155341533Y-24531628D01*
X155341533Y-24293533D01*
X155389152Y-24103057D01*
X155436771Y-24007819D01*
X155484390Y-23960200D01*
X155579628Y-23912580D01*
X163944514Y-28325819D02*
X163992133Y-28278200D01*
X164087371Y-28230580D01*
X164325466Y-28230580D01*
X164420704Y-28278200D01*
X164468323Y-28325819D01*
X164515942Y-28421057D01*
X164515942Y-28516295D01*
X164468323Y-28659152D01*
X163896895Y-29230580D01*
X164515942Y-29230580D01*
X165134990Y-28230580D02*
X165230228Y-28230580D01*
X165325466Y-28278200D01*
X165373085Y-28325819D01*
X165420704Y-28421057D01*
X165468323Y-28611533D01*
X165468323Y-28849628D01*
X165420704Y-29040104D01*
X165373085Y-29135342D01*
X165325466Y-29182961D01*
X165230228Y-29230580D01*
X165134990Y-29230580D01*
X165039752Y-29182961D01*
X164992133Y-29135342D01*
X164944514Y-29040104D01*
X164896895Y-28849628D01*
X164896895Y-28611533D01*
X164944514Y-28421057D01*
X164992133Y-28325819D01*
X165039752Y-28278200D01*
X165134990Y-28230580D01*
X165849276Y-28325819D02*
X165896895Y-28278200D01*
X165992133Y-28230580D01*
X166230228Y-28230580D01*
X166325466Y-28278200D01*
X166373085Y-28325819D01*
X166420704Y-28421057D01*
X166420704Y-28516295D01*
X166373085Y-28659152D01*
X165801657Y-29230580D01*
X166420704Y-29230580D01*
X167039752Y-28230580D02*
X167134990Y-28230580D01*
X167230228Y-28278200D01*
X167277847Y-28325819D01*
X167325466Y-28421057D01*
X167373085Y-28611533D01*
X167373085Y-28849628D01*
X167325466Y-29040104D01*
X167277847Y-29135342D01*
X167230228Y-29182961D01*
X167134990Y-29230580D01*
X167039752Y-29230580D01*
X166944514Y-29182961D01*
X166896895Y-29135342D01*
X166849276Y-29040104D01*
X166801657Y-28849628D01*
X166801657Y-28611533D01*
X166849276Y-28421057D01*
X166896895Y-28325819D01*
X166944514Y-28278200D01*
X167039752Y-28230580D01*
X163898100Y-23223980D02*
X163564766Y-22747790D01*
X163326671Y-23223980D02*
X163326671Y-22223980D01*
X163707623Y-22223980D01*
X163802861Y-22271600D01*
X163850480Y-22319219D01*
X163898100Y-22414457D01*
X163898100Y-22557314D01*
X163850480Y-22652552D01*
X163802861Y-22700171D01*
X163707623Y-22747790D01*
X163326671Y-22747790D01*
X164755242Y-23223980D02*
X164755242Y-22700171D01*
X164707623Y-22604933D01*
X164612385Y-22557314D01*
X164421909Y-22557314D01*
X164326671Y-22604933D01*
X164755242Y-23176361D02*
X164660004Y-23223980D01*
X164421909Y-23223980D01*
X164326671Y-23176361D01*
X164279052Y-23081123D01*
X164279052Y-22985885D01*
X164326671Y-22890647D01*
X164421909Y-22843028D01*
X164660004Y-22843028D01*
X164755242Y-22795409D01*
X164326671Y-22223980D02*
X164374290Y-22271600D01*
X164326671Y-22319219D01*
X164279052Y-22271600D01*
X164326671Y-22223980D01*
X164326671Y-22319219D01*
X164707623Y-22223980D02*
X164755242Y-22271600D01*
X164707623Y-22319219D01*
X164660004Y-22271600D01*
X164707623Y-22223980D01*
X164707623Y-22319219D01*
X165660004Y-23223980D02*
X165660004Y-22223980D01*
X165660004Y-23176361D02*
X165564766Y-23223980D01*
X165374290Y-23223980D01*
X165279052Y-23176361D01*
X165231433Y-23128742D01*
X165183814Y-23033504D01*
X165183814Y-22747790D01*
X165231433Y-22652552D01*
X165279052Y-22604933D01*
X165374290Y-22557314D01*
X165564766Y-22557314D01*
X165660004Y-22604933D01*
X166279052Y-23223980D02*
X166183814Y-23176361D01*
X166136195Y-23081123D01*
X166136195Y-22223980D01*
X167040957Y-23176361D02*
X166945719Y-23223980D01*
X166755242Y-23223980D01*
X166660004Y-23176361D01*
X166612385Y-23081123D01*
X166612385Y-22700171D01*
X166660004Y-22604933D01*
X166755242Y-22557314D01*
X166945719Y-22557314D01*
X167040957Y-22604933D01*
X167088576Y-22700171D01*
X167088576Y-22795409D01*
X166612385Y-22890647D01*
X167517147Y-23223980D02*
X167517147Y-22557314D01*
X167517147Y-22747790D02*
X167564766Y-22652552D01*
X167612385Y-22604933D01*
X167707623Y-22557314D01*
X167802861Y-22557314D01*
X156898100Y-24588266D02*
X157374290Y-24588266D01*
X156802861Y-24873980D02*
X157136195Y-23873980D01*
X157469528Y-24873980D01*
X157802861Y-24207314D02*
X157802861Y-24873980D01*
X157802861Y-24302552D02*
X157850480Y-24254933D01*
X157945719Y-24207314D01*
X158088576Y-24207314D01*
X158183814Y-24254933D01*
X158231433Y-24350171D01*
X158231433Y-24873980D01*
X159136195Y-24873980D02*
X159136195Y-24350171D01*
X159088576Y-24254933D01*
X158993338Y-24207314D01*
X158802861Y-24207314D01*
X158707623Y-24254933D01*
X159136195Y-24826361D02*
X159040957Y-24873980D01*
X158802861Y-24873980D01*
X158707623Y-24826361D01*
X158660004Y-24731123D01*
X158660004Y-24635885D01*
X158707623Y-24540647D01*
X158802861Y-24493028D01*
X159040957Y-24493028D01*
X159136195Y-24445409D01*
X159755242Y-24873980D02*
X159660004Y-24826361D01*
X159612385Y-24731123D01*
X159612385Y-23873980D01*
X160279052Y-24873980D02*
X160183814Y-24826361D01*
X160136195Y-24778742D01*
X160088576Y-24683504D01*
X160088576Y-24397790D01*
X160136195Y-24302552D01*
X160183814Y-24254933D01*
X160279052Y-24207314D01*
X160421909Y-24207314D01*
X160517147Y-24254933D01*
X160564766Y-24302552D01*
X160612385Y-24397790D01*
X160612385Y-24683504D01*
X160564766Y-24778742D01*
X160517147Y-24826361D01*
X160421909Y-24873980D01*
X160279052Y-24873980D01*
X161469528Y-24207314D02*
X161469528Y-25016838D01*
X161421909Y-25112076D01*
X161374290Y-25159695D01*
X161279052Y-25207314D01*
X161136195Y-25207314D01*
X161040957Y-25159695D01*
X161469528Y-24826361D02*
X161374290Y-24873980D01*
X161183814Y-24873980D01*
X161088576Y-24826361D01*
X161040957Y-24778742D01*
X160993338Y-24683504D01*
X160993338Y-24397790D01*
X161040957Y-24302552D01*
X161088576Y-24254933D01*
X161183814Y-24207314D01*
X161374290Y-24207314D01*
X161469528Y-24254933D01*
X161945719Y-24873980D02*
X161945719Y-23873980D01*
X162183814Y-23873980D01*
X162326671Y-23921600D01*
X162421909Y-24016838D01*
X162469528Y-24112076D01*
X162517147Y-24302552D01*
X162517147Y-24445409D01*
X162469528Y-24635885D01*
X162421909Y-24731123D01*
X162326671Y-24826361D01*
X162183814Y-24873980D01*
X161945719Y-24873980D01*
X162850480Y-24207314D02*
X163088576Y-24873980D01*
X163326671Y-24207314D02*
X163088576Y-24873980D01*
X162993338Y-25112076D01*
X162945719Y-25159695D01*
X162850480Y-25207314D01*
X163707623Y-24207314D02*
X163707623Y-24873980D01*
X163707623Y-24302552D02*
X163755242Y-24254933D01*
X163850480Y-24207314D01*
X163993338Y-24207314D01*
X164088576Y-24254933D01*
X164136195Y-24350171D01*
X164136195Y-24873980D01*
X165040957Y-24873980D02*
X165040957Y-24350171D01*
X164993338Y-24254933D01*
X164898100Y-24207314D01*
X164707623Y-24207314D01*
X164612385Y-24254933D01*
X165040957Y-24826361D02*
X164945719Y-24873980D01*
X164707623Y-24873980D01*
X164612385Y-24826361D01*
X164564766Y-24731123D01*
X164564766Y-24635885D01*
X164612385Y-24540647D01*
X164707623Y-24493028D01*
X164945719Y-24493028D01*
X165040957Y-24445409D01*
X165517147Y-24873980D02*
X165517147Y-24207314D01*
X165517147Y-24302552D02*
X165564766Y-24254933D01*
X165660004Y-24207314D01*
X165802861Y-24207314D01*
X165898100Y-24254933D01*
X165945719Y-24350171D01*
X165945719Y-24873980D01*
X165945719Y-24350171D02*
X165993338Y-24254933D01*
X166088576Y-24207314D01*
X166231433Y-24207314D01*
X166326671Y-24254933D01*
X166374290Y-24350171D01*
X166374290Y-24873980D01*
X166850480Y-24873980D02*
X166850480Y-24207314D01*
X166850480Y-23873980D02*
X166802861Y-23921600D01*
X166850480Y-23969219D01*
X166898100Y-23921600D01*
X166850480Y-23873980D01*
X166850480Y-23969219D01*
X167326671Y-24873980D02*
X167326671Y-23873980D01*
X167421909Y-24493028D02*
X167707623Y-24873980D01*
X167707623Y-24207314D02*
X167326671Y-24588266D01*
D11*
X162994400Y-31344671D02*
X162994400Y-29844671D01*
X163351542Y-29844671D01*
X163565828Y-29916100D01*
X163708685Y-30058957D01*
X163780114Y-30201814D01*
X163851542Y-30487528D01*
X163851542Y-30701814D01*
X163780114Y-30987528D01*
X163708685Y-31130385D01*
X163565828Y-31273242D01*
X163351542Y-31344671D01*
X162994400Y-31344671D01*
X164994400Y-30558957D02*
X165208685Y-30630385D01*
X165280114Y-30701814D01*
X165351542Y-30844671D01*
X165351542Y-31058957D01*
X165280114Y-31201814D01*
X165208685Y-31273242D01*
X165065828Y-31344671D01*
X164494400Y-31344671D01*
X164494400Y-29844671D01*
X164994400Y-29844671D01*
X165137257Y-29916100D01*
X165208685Y-29987528D01*
X165280114Y-30130385D01*
X165280114Y-30273242D01*
X165208685Y-30416100D01*
X165137257Y-30487528D01*
X164994400Y-30558957D01*
X164494400Y-30558957D01*
X166708685Y-31344671D02*
X165994400Y-31344671D01*
X165994400Y-29844671D01*
X163065828Y-33969671D02*
X163065828Y-32469671D01*
X163565828Y-33541100D01*
X164065828Y-32469671D01*
X164065828Y-33969671D01*
X165494400Y-33969671D02*
X164780114Y-33969671D01*
X164780114Y-32469671D01*
X165780114Y-32469671D02*
X166637257Y-32469671D01*
X166208685Y-33969671D02*
X166208685Y-32469671D01*
D12*
X153639085Y-98663057D02*
X153639085Y-97463057D01*
X154324800Y-98663057D02*
X153810514Y-97977342D01*
X154324800Y-97463057D02*
X153639085Y-98148771D01*
X154839085Y-98663057D02*
X154839085Y-97463057D01*
X155981942Y-98663057D02*
X155410514Y-98663057D01*
X155410514Y-97463057D01*
X156953371Y-98663057D02*
X156381942Y-98663057D01*
X156381942Y-97463057D01*
X157296228Y-98605914D02*
X157467657Y-98663057D01*
X157753371Y-98663057D01*
X157867657Y-98605914D01*
X157924800Y-98548771D01*
X157981942Y-98434485D01*
X157981942Y-98320200D01*
X157924800Y-98205914D01*
X157867657Y-98148771D01*
X157753371Y-98091628D01*
X157524800Y-98034485D01*
X157410514Y-97977342D01*
X157353371Y-97920200D01*
X157296228Y-97805914D01*
X157296228Y-97691628D01*
X157353371Y-97577342D01*
X157410514Y-97520200D01*
X157524800Y-97463057D01*
X157810514Y-97463057D01*
X157981942Y-97520200D01*
X159810514Y-98034485D02*
X159410514Y-98034485D01*
X159410514Y-98663057D02*
X159410514Y-97463057D01*
X159981942Y-97463057D01*
X160381942Y-98320200D02*
X160953371Y-98320200D01*
X160267657Y-98663057D02*
X160667657Y-97463057D01*
X161067657Y-98663057D01*
X161410514Y-98605914D02*
X161581942Y-98663057D01*
X161867657Y-98663057D01*
X161981942Y-98605914D01*
X162039085Y-98548771D01*
X162096228Y-98434485D01*
X162096228Y-98320200D01*
X162039085Y-98205914D01*
X161981942Y-98148771D01*
X161867657Y-98091628D01*
X161639085Y-98034485D01*
X161524800Y-97977342D01*
X161467657Y-97920200D01*
X161410514Y-97805914D01*
X161410514Y-97691628D01*
X161467657Y-97577342D01*
X161524800Y-97520200D01*
X161639085Y-97463057D01*
X161924800Y-97463057D01*
X162096228Y-97520200D01*
X163296228Y-98548771D02*
X163239085Y-98605914D01*
X163067657Y-98663057D01*
X162953371Y-98663057D01*
X162781942Y-98605914D01*
X162667657Y-98491628D01*
X162610514Y-98377342D01*
X162553371Y-98148771D01*
X162553371Y-97977342D01*
X162610514Y-97748771D01*
X162667657Y-97634485D01*
X162781942Y-97520200D01*
X162953371Y-97463057D01*
X163067657Y-97463057D01*
X163239085Y-97520200D01*
X163296228Y-97577342D01*
X163810514Y-98663057D02*
X163810514Y-97463057D01*
X164324800Y-98605914D02*
X164496228Y-98663057D01*
X164781942Y-98663057D01*
X164896228Y-98605914D01*
X164953371Y-98548771D01*
X165010514Y-98434485D01*
X165010514Y-98320200D01*
X164953371Y-98205914D01*
X164896228Y-98148771D01*
X164781942Y-98091628D01*
X164553371Y-98034485D01*
X164439085Y-97977342D01*
X164381942Y-97920200D01*
X164324800Y-97805914D01*
X164324800Y-97691628D01*
X164381942Y-97577342D01*
X164439085Y-97520200D01*
X164553371Y-97463057D01*
X164839085Y-97463057D01*
X165010514Y-97520200D01*
X165353371Y-97463057D02*
X166039085Y-97463057D01*
X165696228Y-98663057D02*
X165696228Y-97463057D01*
X166381942Y-98605914D02*
X166553371Y-98663057D01*
X166839085Y-98663057D01*
X166953371Y-98605914D01*
X167010514Y-98548771D01*
X167067657Y-98434485D01*
X167067657Y-98320200D01*
X167010514Y-98205914D01*
X166953371Y-98148771D01*
X166839085Y-98091628D01*
X166610514Y-98034485D01*
X166496228Y-97977342D01*
X166439085Y-97920200D01*
X166381942Y-97805914D01*
X166381942Y-97691628D01*
X166439085Y-97577342D01*
X166496228Y-97520200D01*
X166610514Y-97463057D01*
X166896228Y-97463057D01*
X167067657Y-97520200D01*
X161950628Y-89910657D02*
X162636342Y-89910657D01*
X162293485Y-91110657D02*
X162293485Y-89910657D01*
X163036342Y-91110657D02*
X163036342Y-89910657D01*
X163036342Y-90482085D02*
X163722057Y-90482085D01*
X163722057Y-91110657D02*
X163722057Y-89910657D01*
X164293485Y-91110657D02*
X164293485Y-89910657D01*
X164807771Y-91053514D02*
X164979200Y-91110657D01*
X165264914Y-91110657D01*
X165379200Y-91053514D01*
X165436342Y-90996371D01*
X165493485Y-90882085D01*
X165493485Y-90767800D01*
X165436342Y-90653514D01*
X165379200Y-90596371D01*
X165264914Y-90539228D01*
X165036342Y-90482085D01*
X164922057Y-90424942D01*
X164864914Y-90367800D01*
X164807771Y-90253514D01*
X164807771Y-90139228D01*
X164864914Y-90024942D01*
X164922057Y-89967800D01*
X165036342Y-89910657D01*
X165322057Y-89910657D01*
X165493485Y-89967800D01*
X161293485Y-93096371D02*
X161236342Y-93153514D01*
X161064914Y-93210657D01*
X160950628Y-93210657D01*
X160779200Y-93153514D01*
X160664914Y-93039228D01*
X160607771Y-92924942D01*
X160550628Y-92696371D01*
X160550628Y-92524942D01*
X160607771Y-92296371D01*
X160664914Y-92182085D01*
X160779200Y-92067800D01*
X160950628Y-92010657D01*
X161064914Y-92010657D01*
X161236342Y-92067800D01*
X161293485Y-92124942D01*
X161807771Y-93210657D02*
X161807771Y-92010657D01*
X163064914Y-93210657D02*
X162664914Y-92639228D01*
X162379200Y-93210657D02*
X162379200Y-92010657D01*
X162836342Y-92010657D01*
X162950628Y-92067800D01*
X163007771Y-92124942D01*
X163064914Y-92239228D01*
X163064914Y-92410657D01*
X163007771Y-92524942D01*
X162950628Y-92582085D01*
X162836342Y-92639228D01*
X162379200Y-92639228D01*
X164264914Y-93096371D02*
X164207771Y-93153514D01*
X164036342Y-93210657D01*
X163922057Y-93210657D01*
X163750628Y-93153514D01*
X163636342Y-93039228D01*
X163579200Y-92924942D01*
X163522057Y-92696371D01*
X163522057Y-92524942D01*
X163579200Y-92296371D01*
X163636342Y-92182085D01*
X163750628Y-92067800D01*
X163922057Y-92010657D01*
X164036342Y-92010657D01*
X164207771Y-92067800D01*
X164264914Y-92124942D01*
X164779200Y-92010657D02*
X164779200Y-92982085D01*
X164836342Y-93096371D01*
X164893485Y-93153514D01*
X165007771Y-93210657D01*
X165236342Y-93210657D01*
X165350628Y-93153514D01*
X165407771Y-93096371D01*
X165464914Y-92982085D01*
X165464914Y-92010657D01*
X166036342Y-93210657D02*
X166036342Y-92010657D01*
X166436342Y-92010657D02*
X167122057Y-92010657D01*
X166779200Y-93210657D02*
X166779200Y-92010657D01*
D10*
X153771933Y-23058380D02*
X153438600Y-22582190D01*
X153200504Y-23058380D02*
X153200504Y-22058380D01*
X153581457Y-22058380D01*
X153676695Y-22106000D01*
X153724314Y-22153619D01*
X153771933Y-22248857D01*
X153771933Y-22391714D01*
X153724314Y-22486952D01*
X153676695Y-22534571D01*
X153581457Y-22582190D01*
X153200504Y-22582190D01*
X154152885Y-22772666D02*
X154629076Y-22772666D01*
X154057647Y-23058380D02*
X154390980Y-22058380D01*
X154724314Y-23058380D01*
X155057647Y-23058380D02*
X155057647Y-22058380D01*
X155295742Y-22058380D01*
X155438600Y-22106000D01*
X155533838Y-22201238D01*
X155581457Y-22296476D01*
X155629076Y-22486952D01*
X155629076Y-22629809D01*
X155581457Y-22820285D01*
X155533838Y-22915523D01*
X155438600Y-23010761D01*
X155295742Y-23058380D01*
X155057647Y-23058380D01*
X156057647Y-22677428D02*
X156819552Y-22677428D01*
X157819552Y-23058380D02*
X157248123Y-23058380D01*
X157533838Y-23058380D02*
X157533838Y-22058380D01*
X157438600Y-22201238D01*
X157343361Y-22296476D01*
X157248123Y-22344095D01*
X158200504Y-22153619D02*
X158248123Y-22106000D01*
X158343361Y-22058380D01*
X158581457Y-22058380D01*
X158676695Y-22106000D01*
X158724314Y-22153619D01*
X158771933Y-22248857D01*
X158771933Y-22344095D01*
X158724314Y-22486952D01*
X158152885Y-23058380D01*
X158771933Y-23058380D01*
X159629076Y-22391714D02*
X159629076Y-23058380D01*
X159390980Y-22010761D02*
X159152885Y-22725047D01*
X159771933Y-22725047D01*
X155353371Y-129099904D02*
X155353371Y-128299904D01*
X155658133Y-128299904D01*
X155734323Y-128338000D01*
X155772419Y-128376095D01*
X155810514Y-128452285D01*
X155810514Y-128566571D01*
X155772419Y-128642761D01*
X155734323Y-128680857D01*
X155658133Y-128718952D01*
X155353371Y-128718952D01*
X156305752Y-128299904D02*
X156458133Y-128299904D01*
X156534323Y-128338000D01*
X156610514Y-128414190D01*
X156648609Y-128566571D01*
X156648609Y-128833238D01*
X156610514Y-128985619D01*
X156534323Y-129061809D01*
X156458133Y-129099904D01*
X156305752Y-129099904D01*
X156229561Y-129061809D01*
X156153371Y-128985619D01*
X156115276Y-128833238D01*
X156115276Y-128566571D01*
X156153371Y-128414190D01*
X156229561Y-128338000D01*
X156305752Y-128299904D01*
X156991466Y-129099904D02*
X156991466Y-128299904D01*
X157372419Y-129099904D02*
X157372419Y-128299904D01*
X157829561Y-129099904D01*
X157829561Y-128299904D01*
X158096228Y-128299904D02*
X158553371Y-128299904D01*
X158324800Y-129099904D02*
X158324800Y-128299904D01*
X159315276Y-128299904D02*
X159772419Y-128299904D01*
X159543847Y-129099904D02*
X159543847Y-128299904D01*
X160039085Y-129099904D02*
X160039085Y-128299904D01*
X160039085Y-128680857D02*
X160496228Y-128680857D01*
X160496228Y-129099904D02*
X160496228Y-128299904D01*
X160877180Y-129099904D02*
X160877180Y-128299904D01*
X161220038Y-129061809D02*
X161334323Y-129099904D01*
X161524800Y-129099904D01*
X161600990Y-129061809D01*
X161639085Y-129023714D01*
X161677180Y-128947523D01*
X161677180Y-128871333D01*
X161639085Y-128795142D01*
X161600990Y-128757047D01*
X161524800Y-128718952D01*
X161372419Y-128680857D01*
X161296228Y-128642761D01*
X161258133Y-128604666D01*
X161220038Y-128528476D01*
X161220038Y-128452285D01*
X161258133Y-128376095D01*
X161296228Y-128338000D01*
X161372419Y-128299904D01*
X161562895Y-128299904D01*
X161677180Y-128338000D01*
X162629561Y-128680857D02*
X162896228Y-128680857D01*
X163010514Y-129099904D02*
X162629561Y-129099904D01*
X162629561Y-128299904D01*
X163010514Y-128299904D01*
X163353371Y-129099904D02*
X163353371Y-128299904D01*
X163543847Y-128299904D01*
X163658133Y-128338000D01*
X163734323Y-128414190D01*
X163772419Y-128490380D01*
X163810514Y-128642761D01*
X163810514Y-128757047D01*
X163772419Y-128909428D01*
X163734323Y-128985619D01*
X163658133Y-129061809D01*
X163543847Y-129099904D01*
X163353371Y-129099904D01*
X164572419Y-128338000D02*
X164496228Y-128299904D01*
X164381942Y-128299904D01*
X164267657Y-128338000D01*
X164191466Y-128414190D01*
X164153371Y-128490380D01*
X164115276Y-128642761D01*
X164115276Y-128757047D01*
X164153371Y-128909428D01*
X164191466Y-128985619D01*
X164267657Y-129061809D01*
X164381942Y-129099904D01*
X164458133Y-129099904D01*
X164572419Y-129061809D01*
X164610514Y-129023714D01*
X164610514Y-128757047D01*
X164458133Y-128757047D01*
X164953371Y-128680857D02*
X165220038Y-128680857D01*
X165334323Y-129099904D02*
X164953371Y-129099904D01*
X164953371Y-128299904D01*
X165334323Y-128299904D01*
X154058133Y-129649904D02*
X154515276Y-129649904D01*
X154286704Y-130449904D02*
X154286704Y-129649904D01*
X154934323Y-129649904D02*
X155086704Y-129649904D01*
X155162895Y-129688000D01*
X155239085Y-129764190D01*
X155277180Y-129916571D01*
X155277180Y-130183238D01*
X155239085Y-130335619D01*
X155162895Y-130411809D01*
X155086704Y-130449904D01*
X154934323Y-130449904D01*
X154858133Y-130411809D01*
X154781942Y-130335619D01*
X154743847Y-130183238D01*
X154743847Y-129916571D01*
X154781942Y-129764190D01*
X154858133Y-129688000D01*
X154934323Y-129649904D01*
X155543847Y-129649904D02*
X155734323Y-130449904D01*
X155886704Y-129878476D01*
X156039085Y-130449904D01*
X156229561Y-129649904D01*
X156496228Y-130221333D02*
X156877180Y-130221333D01*
X156420038Y-130449904D02*
X156686704Y-129649904D01*
X156953371Y-130449904D01*
X157677180Y-130449904D02*
X157410514Y-130068952D01*
X157220038Y-130449904D02*
X157220038Y-129649904D01*
X157524800Y-129649904D01*
X157600990Y-129688000D01*
X157639085Y-129726095D01*
X157677180Y-129802285D01*
X157677180Y-129916571D01*
X157639085Y-129992761D01*
X157600990Y-130030857D01*
X157524800Y-130068952D01*
X157220038Y-130068952D01*
X158020038Y-130449904D02*
X158020038Y-129649904D01*
X158210514Y-129649904D01*
X158324800Y-129688000D01*
X158400990Y-129764190D01*
X158439085Y-129840380D01*
X158477180Y-129992761D01*
X158477180Y-130107047D01*
X158439085Y-130259428D01*
X158400990Y-130335619D01*
X158324800Y-130411809D01*
X158210514Y-130449904D01*
X158020038Y-130449904D01*
X158781942Y-130411809D02*
X158896228Y-130449904D01*
X159086704Y-130449904D01*
X159162895Y-130411809D01*
X159200990Y-130373714D01*
X159239085Y-130297523D01*
X159239085Y-130221333D01*
X159200990Y-130145142D01*
X159162895Y-130107047D01*
X159086704Y-130068952D01*
X158934323Y-130030857D01*
X158858133Y-129992761D01*
X158820038Y-129954666D01*
X158781942Y-129878476D01*
X158781942Y-129802285D01*
X158820038Y-129726095D01*
X158858133Y-129688000D01*
X158934323Y-129649904D01*
X159124800Y-129649904D01*
X159239085Y-129688000D01*
X160077180Y-129649904D02*
X160534323Y-129649904D01*
X160305752Y-130449904D02*
X160305752Y-129649904D01*
X160800990Y-130449904D02*
X160800990Y-129649904D01*
X160800990Y-130030857D02*
X161258133Y-130030857D01*
X161258133Y-130449904D02*
X161258133Y-129649904D01*
X161639085Y-130030857D02*
X161905752Y-130030857D01*
X162020038Y-130449904D02*
X161639085Y-130449904D01*
X161639085Y-129649904D01*
X162020038Y-129649904D01*
X162972419Y-130030857D02*
X163239085Y-130030857D01*
X163353371Y-130449904D02*
X162972419Y-130449904D01*
X162972419Y-129649904D01*
X163353371Y-129649904D01*
X163696228Y-130449904D02*
X163696228Y-129649904D01*
X164153371Y-130449904D01*
X164153371Y-129649904D01*
X164534323Y-130030857D02*
X164800990Y-130030857D01*
X164915276Y-130449904D02*
X164534323Y-130449904D01*
X164534323Y-129649904D01*
X164915276Y-129649904D01*
X165258133Y-130449904D02*
X165258133Y-129649904D01*
X165524800Y-130221333D01*
X165791466Y-129649904D01*
X165791466Y-130449904D01*
X166324800Y-130068952D02*
X166324800Y-130449904D01*
X166058133Y-129649904D02*
X166324800Y-130068952D01*
X166591466Y-129649904D01*
D13*
X161475052Y-101474200D02*
X160952548Y-101474200D01*
X161475052Y-102894200D02*
X160952548Y-102894200D01*
X157830600Y-82638000D02*
X154680600Y-82638000D01*
X157830600Y-80938000D02*
X154680600Y-80938000D01*
X157830600Y-82638000D02*
X157830600Y-80938000D01*
X153899800Y-40962948D02*
X153899800Y-41485452D01*
X155319800Y-40962948D02*
X155319800Y-41485452D01*
X153827400Y-69939800D02*
X156977400Y-69939800D01*
X153827400Y-71639800D02*
X156977400Y-71639800D01*
X153827400Y-69939800D02*
X153827400Y-71639800D01*
X166836400Y-73498400D02*
X166836400Y-74828400D01*
X165506400Y-73498400D02*
X166836400Y-73498400D01*
X166836400Y-76098400D02*
X166836400Y-78698400D01*
X164236400Y-76098400D02*
X166836400Y-76098400D01*
X164236400Y-73498400D02*
X164236400Y-76098400D01*
X166836400Y-78698400D02*
X154016400Y-78698400D01*
X164236400Y-73498400D02*
X154016400Y-73498400D01*
X154016400Y-73498400D02*
X154016400Y-78698400D01*
X159833600Y-65167800D02*
X159833600Y-63467800D01*
X159833600Y-59647800D02*
X159833600Y-61347800D01*
X155378037Y-59647800D02*
X159833600Y-59647800D01*
X155378037Y-65167800D02*
X159833600Y-65167800D01*
X154313600Y-64103363D02*
X154313600Y-63467800D01*
X154313600Y-60712237D02*
X154313600Y-61347800D01*
X154313600Y-60712237D02*
X155378037Y-59647800D01*
X154313600Y-64103363D02*
X155378037Y-65167800D01*
X153448600Y-60722800D02*
X154073600Y-60722800D01*
X153761100Y-60410300D02*
X153761100Y-61035300D01*
X160563900Y-92142100D02*
X160563900Y-91517100D01*
X160876400Y-91829600D02*
X160251400Y-91829600D01*
X160011400Y-88449037D02*
X158946963Y-87384600D01*
X160011400Y-91840163D02*
X158946963Y-92904600D01*
X160011400Y-91840163D02*
X160011400Y-91204600D01*
X160011400Y-88449037D02*
X160011400Y-89084600D01*
X158946963Y-87384600D02*
X154491400Y-87384600D01*
X158946963Y-92904600D02*
X154491400Y-92904600D01*
X154491400Y-92904600D02*
X154491400Y-91204600D01*
X154491400Y-87384600D02*
X154491400Y-89084600D01*
X166368800Y-41978948D02*
X166368800Y-42501452D01*
X164948800Y-41978948D02*
X164948800Y-42501452D01*
X165406000Y-110497252D02*
X165406000Y-109974748D01*
X166826000Y-110497252D02*
X166826000Y-109974748D01*
X156005600Y-110471852D02*
X156005600Y-109949348D01*
X154585600Y-110471852D02*
X154585600Y-109949348D01*
X159149148Y-54354800D02*
X159671652Y-54354800D01*
X159149148Y-52934800D02*
X159671652Y-52934800D01*
X159022148Y-50623400D02*
X159544652Y-50623400D01*
X159022148Y-52043400D02*
X159544652Y-52043400D01*
X159504748Y-34212600D02*
X160027252Y-34212600D01*
X159504748Y-32792600D02*
X160027252Y-32792600D01*
X159352348Y-29897000D02*
X159874852Y-29897000D01*
X159352348Y-31317000D02*
X159874852Y-31317000D01*
X161424252Y-100811400D02*
X160901748Y-100811400D01*
X161424252Y-99391400D02*
X160901748Y-99391400D01*
X161398852Y-120699600D02*
X160876348Y-120699600D01*
X161398852Y-119279600D02*
X160876348Y-119279600D01*
X161398852Y-121667200D02*
X160876348Y-121667200D01*
X161398852Y-123087200D02*
X160876348Y-123087200D01*
D10*
X157441000Y-39259600D02*
X157441000Y-39384600D01*
X162091000Y-39259600D02*
X162091000Y-39484600D01*
X162091000Y-44509600D02*
X162091000Y-44284600D01*
X157441000Y-44509600D02*
X157441000Y-44284600D01*
X157441000Y-39259600D02*
X162091000Y-39259600D01*
X157441000Y-44509600D02*
X162091000Y-44509600D01*
X157441000Y-39384600D02*
X156091000Y-39384600D01*
X162726000Y-113726600D02*
X164076000Y-113726600D01*
X162726000Y-108601600D02*
X158076000Y-108601600D01*
X162726000Y-113851600D02*
X158076000Y-113851600D01*
X162726000Y-108601600D02*
X162726000Y-108826600D01*
X158076000Y-108601600D02*
X158076000Y-108826600D01*
X158076000Y-113851600D02*
X158076000Y-113626600D01*
X162726000Y-113851600D02*
X162726000Y-113726600D01*
D13*
X166898400Y-82587200D02*
X166898400Y-80887200D01*
X166898400Y-80887200D02*
X163748400Y-80887200D01*
X166898400Y-82587200D02*
X163748400Y-82587200D01*
X163428600Y-70016000D02*
X166578600Y-70016000D01*
X163428600Y-71716000D02*
X166578600Y-71716000D01*
X163428600Y-70016000D02*
X163428600Y-71716000D01*
D10*
X158100733Y-102661980D02*
X157767400Y-102185790D01*
X157529304Y-102661980D02*
X157529304Y-101661980D01*
X157910257Y-101661980D01*
X158005495Y-101709600D01*
X158053114Y-101757219D01*
X158100733Y-101852457D01*
X158100733Y-101995314D01*
X158053114Y-102090552D01*
X158005495Y-102138171D01*
X157910257Y-102185790D01*
X157529304Y-102185790D01*
X158957876Y-101661980D02*
X158767400Y-101661980D01*
X158672161Y-101709600D01*
X158624542Y-101757219D01*
X158529304Y-101900076D01*
X158481685Y-102090552D01*
X158481685Y-102471504D01*
X158529304Y-102566742D01*
X158576923Y-102614361D01*
X158672161Y-102661980D01*
X158862638Y-102661980D01*
X158957876Y-102614361D01*
X159005495Y-102566742D01*
X159053114Y-102471504D01*
X159053114Y-102233409D01*
X159005495Y-102138171D01*
X158957876Y-102090552D01*
X158862638Y-102042933D01*
X158672161Y-102042933D01*
X158576923Y-102090552D01*
X158529304Y-102138171D01*
X158481685Y-102233409D01*
X158164304Y-82341980D02*
X158164304Y-81341980D01*
X158402400Y-81341980D01*
X158545257Y-81389600D01*
X158640495Y-81484838D01*
X158688114Y-81580076D01*
X158735733Y-81770552D01*
X158735733Y-81913409D01*
X158688114Y-82103885D01*
X158640495Y-82199123D01*
X158545257Y-82294361D01*
X158402400Y-82341980D01*
X158164304Y-82341980D01*
X159116685Y-81437219D02*
X159164304Y-81389600D01*
X159259542Y-81341980D01*
X159497638Y-81341980D01*
X159592876Y-81389600D01*
X159640495Y-81437219D01*
X159688114Y-81532457D01*
X159688114Y-81627695D01*
X159640495Y-81770552D01*
X159069066Y-82341980D01*
X159688114Y-82341980D01*
X154941542Y-44286466D02*
X154989161Y-44334085D01*
X155036780Y-44476942D01*
X155036780Y-44572180D01*
X154989161Y-44715038D01*
X154893923Y-44810276D01*
X154798685Y-44857895D01*
X154608209Y-44905514D01*
X154465352Y-44905514D01*
X154274876Y-44857895D01*
X154179638Y-44810276D01*
X154084400Y-44715038D01*
X154036780Y-44572180D01*
X154036780Y-44476942D01*
X154084400Y-44334085D01*
X154132019Y-44286466D01*
X154036780Y-43953133D02*
X154036780Y-43334085D01*
X154417733Y-43667419D01*
X154417733Y-43524561D01*
X154465352Y-43429323D01*
X154512971Y-43381704D01*
X154608209Y-43334085D01*
X154846304Y-43334085D01*
X154941542Y-43381704D01*
X154989161Y-43429323D01*
X155036780Y-43524561D01*
X155036780Y-43810276D01*
X154989161Y-43905514D01*
X154941542Y-43953133D01*
X158164304Y-71267580D02*
X158164304Y-70267580D01*
X158402400Y-70267580D01*
X158545257Y-70315200D01*
X158640495Y-70410438D01*
X158688114Y-70505676D01*
X158735733Y-70696152D01*
X158735733Y-70839009D01*
X158688114Y-71029485D01*
X158640495Y-71124723D01*
X158545257Y-71219961D01*
X158402400Y-71267580D01*
X158164304Y-71267580D01*
X159688114Y-71267580D02*
X159116685Y-71267580D01*
X159402400Y-71267580D02*
X159402400Y-70267580D01*
X159307161Y-70410438D01*
X159211923Y-70505676D01*
X159116685Y-70553295D01*
D14*
X156269266Y-72705685D02*
X156692600Y-72705685D01*
X156874028Y-73370923D02*
X156269266Y-73370923D01*
X156269266Y-72100923D01*
X156874028Y-72100923D01*
X157418314Y-72100923D02*
X157418314Y-73129019D01*
X157478790Y-73249971D01*
X157539266Y-73310447D01*
X157660219Y-73370923D01*
X157902123Y-73370923D01*
X158023076Y-73310447D01*
X158083552Y-73249971D01*
X158144028Y-73129019D01*
X158144028Y-72100923D01*
X159474504Y-73370923D02*
X159051171Y-72766161D01*
X158748790Y-73370923D02*
X158748790Y-72100923D01*
X159232600Y-72100923D01*
X159353552Y-72161400D01*
X159414028Y-72221876D01*
X159474504Y-72342828D01*
X159474504Y-72524257D01*
X159414028Y-72645209D01*
X159353552Y-72705685D01*
X159232600Y-72766161D01*
X158748790Y-72766161D01*
X160260695Y-72100923D02*
X160502600Y-72100923D01*
X160623552Y-72161400D01*
X160744504Y-72282352D01*
X160804980Y-72524257D01*
X160804980Y-72947590D01*
X160744504Y-73189495D01*
X160623552Y-73310447D01*
X160502600Y-73370923D01*
X160260695Y-73370923D01*
X160139742Y-73310447D01*
X160018790Y-73189495D01*
X159958314Y-72947590D01*
X159958314Y-72524257D01*
X160018790Y-72282352D01*
X160139742Y-72161400D01*
X160260695Y-72100923D01*
X161349266Y-73370923D02*
X161349266Y-72100923D01*
X161833076Y-72100923D01*
X161954028Y-72161400D01*
X162014504Y-72221876D01*
X162074980Y-72342828D01*
X162074980Y-72524257D01*
X162014504Y-72645209D01*
X161954028Y-72705685D01*
X161833076Y-72766161D01*
X161349266Y-72766161D01*
X162498314Y-72100923D02*
X162800695Y-73370923D01*
X163042600Y-72463780D01*
X163284504Y-73370923D01*
X163586885Y-72100923D01*
X164796409Y-73370923D02*
X164373076Y-72766161D01*
X164070695Y-73370923D02*
X164070695Y-72100923D01*
X164554504Y-72100923D01*
X164675457Y-72161400D01*
X164735933Y-72221876D01*
X164796409Y-72342828D01*
X164796409Y-72524257D01*
X164735933Y-72645209D01*
X164675457Y-72705685D01*
X164554504Y-72766161D01*
X164070695Y-72766161D01*
D15*
X153288200Y-73775733D02*
X153288200Y-73242400D01*
X153554866Y-72542400D02*
X153554866Y-72942400D01*
X153554866Y-72742400D02*
X152854866Y-72742400D01*
X152954866Y-72809066D01*
X153021533Y-72875733D01*
X153054866Y-72942400D01*
X152921533Y-72275733D02*
X152888200Y-72242400D01*
X152854866Y-72175733D01*
X152854866Y-72009066D01*
X152888200Y-71942400D01*
X152921533Y-71909066D01*
X152988200Y-71875733D01*
X153054866Y-71875733D01*
X153154866Y-71909066D01*
X153554866Y-72309066D01*
X153554866Y-71875733D01*
X152854866Y-71675733D02*
X153554866Y-71442400D01*
X152854866Y-71209066D01*
D10*
X155941733Y-60809142D02*
X155894114Y-60856761D01*
X155751257Y-60904380D01*
X155656019Y-60904380D01*
X155513161Y-60856761D01*
X155417923Y-60761523D01*
X155370304Y-60666285D01*
X155322685Y-60475809D01*
X155322685Y-60332952D01*
X155370304Y-60142476D01*
X155417923Y-60047238D01*
X155513161Y-59952000D01*
X155656019Y-59904380D01*
X155751257Y-59904380D01*
X155894114Y-59952000D01*
X155941733Y-59999619D01*
X156894114Y-60904380D02*
X156322685Y-60904380D01*
X156608400Y-60904380D02*
X156608400Y-59904380D01*
X156513161Y-60047238D01*
X156417923Y-60142476D01*
X156322685Y-60190095D01*
X155382933Y-92432142D02*
X155335314Y-92479761D01*
X155192457Y-92527380D01*
X155097219Y-92527380D01*
X154954361Y-92479761D01*
X154859123Y-92384523D01*
X154811504Y-92289285D01*
X154763885Y-92098809D01*
X154763885Y-91955952D01*
X154811504Y-91765476D01*
X154859123Y-91670238D01*
X154954361Y-91575000D01*
X155097219Y-91527380D01*
X155192457Y-91527380D01*
X155335314Y-91575000D01*
X155382933Y-91622619D01*
X155763885Y-91622619D02*
X155811504Y-91575000D01*
X155906742Y-91527380D01*
X156144838Y-91527380D01*
X156240076Y-91575000D01*
X156287695Y-91622619D01*
X156335314Y-91717857D01*
X156335314Y-91813095D01*
X156287695Y-91955952D01*
X155716266Y-92527380D01*
X156335314Y-92527380D01*
X166066742Y-39485866D02*
X166114361Y-39533485D01*
X166161980Y-39676342D01*
X166161980Y-39771580D01*
X166114361Y-39914438D01*
X166019123Y-40009676D01*
X165923885Y-40057295D01*
X165733409Y-40104914D01*
X165590552Y-40104914D01*
X165400076Y-40057295D01*
X165304838Y-40009676D01*
X165209600Y-39914438D01*
X165161980Y-39771580D01*
X165161980Y-39676342D01*
X165209600Y-39533485D01*
X165257219Y-39485866D01*
X165495314Y-38628723D02*
X166161980Y-38628723D01*
X165114361Y-38866819D02*
X165828647Y-39104914D01*
X165828647Y-38485866D01*
X166600142Y-113374466D02*
X166647761Y-113422085D01*
X166695380Y-113564942D01*
X166695380Y-113660180D01*
X166647761Y-113803038D01*
X166552523Y-113898276D01*
X166457285Y-113945895D01*
X166266809Y-113993514D01*
X166123952Y-113993514D01*
X165933476Y-113945895D01*
X165838238Y-113898276D01*
X165743000Y-113803038D01*
X165695380Y-113660180D01*
X165695380Y-113564942D01*
X165743000Y-113422085D01*
X165790619Y-113374466D01*
X165695380Y-112469704D02*
X165695380Y-112945895D01*
X166171571Y-112993514D01*
X166123952Y-112945895D01*
X166076333Y-112850657D01*
X166076333Y-112612561D01*
X166123952Y-112517323D01*
X166171571Y-112469704D01*
X166266809Y-112422085D01*
X166504904Y-112422085D01*
X166600142Y-112469704D01*
X166647761Y-112517323D01*
X166695380Y-112612561D01*
X166695380Y-112850657D01*
X166647761Y-112945895D01*
X166600142Y-112993514D01*
X155678142Y-113374466D02*
X155725761Y-113422085D01*
X155773380Y-113564942D01*
X155773380Y-113660180D01*
X155725761Y-113803038D01*
X155630523Y-113898276D01*
X155535285Y-113945895D01*
X155344809Y-113993514D01*
X155201952Y-113993514D01*
X155011476Y-113945895D01*
X154916238Y-113898276D01*
X154821000Y-113803038D01*
X154773380Y-113660180D01*
X154773380Y-113564942D01*
X154821000Y-113422085D01*
X154868619Y-113374466D01*
X154773380Y-112517323D02*
X154773380Y-112707800D01*
X154821000Y-112803038D01*
X154868619Y-112850657D01*
X155011476Y-112945895D01*
X155201952Y-112993514D01*
X155582904Y-112993514D01*
X155678142Y-112945895D01*
X155725761Y-112898276D01*
X155773380Y-112803038D01*
X155773380Y-112612561D01*
X155725761Y-112517323D01*
X155678142Y-112469704D01*
X155582904Y-112422085D01*
X155344809Y-112422085D01*
X155249571Y-112469704D01*
X155201952Y-112517323D01*
X155154333Y-112612561D01*
X155154333Y-112803038D01*
X155201952Y-112898276D01*
X155249571Y-112945895D01*
X155344809Y-112993514D01*
X156475133Y-54173380D02*
X156141800Y-53697190D01*
X155903704Y-54173380D02*
X155903704Y-53173380D01*
X156284657Y-53173380D01*
X156379895Y-53221000D01*
X156427514Y-53268619D01*
X156475133Y-53363857D01*
X156475133Y-53506714D01*
X156427514Y-53601952D01*
X156379895Y-53649571D01*
X156284657Y-53697190D01*
X155903704Y-53697190D01*
X157427514Y-54173380D02*
X156856085Y-54173380D01*
X157141800Y-54173380D02*
X157141800Y-53173380D01*
X157046561Y-53316238D01*
X156951323Y-53411476D01*
X156856085Y-53459095D01*
X156373533Y-51760380D02*
X156040200Y-51284190D01*
X155802104Y-51760380D02*
X155802104Y-50760380D01*
X156183057Y-50760380D01*
X156278295Y-50808000D01*
X156325914Y-50855619D01*
X156373533Y-50950857D01*
X156373533Y-51093714D01*
X156325914Y-51188952D01*
X156278295Y-51236571D01*
X156183057Y-51284190D01*
X155802104Y-51284190D01*
X156754485Y-50855619D02*
X156802104Y-50808000D01*
X156897342Y-50760380D01*
X157135438Y-50760380D01*
X157230676Y-50808000D01*
X157278295Y-50855619D01*
X157325914Y-50950857D01*
X157325914Y-51046095D01*
X157278295Y-51188952D01*
X156706866Y-51760380D01*
X157325914Y-51760380D01*
X156678333Y-33878780D02*
X156345000Y-33402590D01*
X156106904Y-33878780D02*
X156106904Y-32878780D01*
X156487857Y-32878780D01*
X156583095Y-32926400D01*
X156630714Y-32974019D01*
X156678333Y-33069257D01*
X156678333Y-33212114D01*
X156630714Y-33307352D01*
X156583095Y-33354971D01*
X156487857Y-33402590D01*
X156106904Y-33402590D01*
X157011666Y-32878780D02*
X157630714Y-32878780D01*
X157297380Y-33259733D01*
X157440238Y-33259733D01*
X157535476Y-33307352D01*
X157583095Y-33354971D01*
X157630714Y-33450209D01*
X157630714Y-33688304D01*
X157583095Y-33783542D01*
X157535476Y-33831161D01*
X157440238Y-33878780D01*
X157154523Y-33878780D01*
X157059285Y-33831161D01*
X157011666Y-33783542D01*
X156678333Y-31084780D02*
X156345000Y-30608590D01*
X156106904Y-31084780D02*
X156106904Y-30084780D01*
X156487857Y-30084780D01*
X156583095Y-30132400D01*
X156630714Y-30180019D01*
X156678333Y-30275257D01*
X156678333Y-30418114D01*
X156630714Y-30513352D01*
X156583095Y-30560971D01*
X156487857Y-30608590D01*
X156106904Y-30608590D01*
X157535476Y-30418114D02*
X157535476Y-31084780D01*
X157297380Y-30037161D02*
X157059285Y-30751447D01*
X157678333Y-30751447D01*
X158049933Y-100604580D02*
X157716600Y-100128390D01*
X157478504Y-100604580D02*
X157478504Y-99604580D01*
X157859457Y-99604580D01*
X157954695Y-99652200D01*
X158002314Y-99699819D01*
X158049933Y-99795057D01*
X158049933Y-99937914D01*
X158002314Y-100033152D01*
X157954695Y-100080771D01*
X157859457Y-100128390D01*
X157478504Y-100128390D01*
X158954695Y-99604580D02*
X158478504Y-99604580D01*
X158430885Y-100080771D01*
X158478504Y-100033152D01*
X158573742Y-99985533D01*
X158811838Y-99985533D01*
X158907076Y-100033152D01*
X158954695Y-100080771D01*
X159002314Y-100176009D01*
X159002314Y-100414104D01*
X158954695Y-100509342D01*
X158907076Y-100556961D01*
X158811838Y-100604580D01*
X158573742Y-100604580D01*
X158478504Y-100556961D01*
X158430885Y-100509342D01*
X160970933Y-122091980D02*
X160637600Y-121615790D01*
X160399504Y-122091980D02*
X160399504Y-121091980D01*
X160780457Y-121091980D01*
X160875695Y-121139600D01*
X160923314Y-121187219D01*
X160970933Y-121282457D01*
X160970933Y-121425314D01*
X160923314Y-121520552D01*
X160875695Y-121568171D01*
X160780457Y-121615790D01*
X160399504Y-121615790D01*
X161304266Y-121091980D02*
X161970933Y-121091980D01*
X161542361Y-122091980D01*
X160970933Y-124479580D02*
X160637600Y-124003390D01*
X160399504Y-124479580D02*
X160399504Y-123479580D01*
X160780457Y-123479580D01*
X160875695Y-123527200D01*
X160923314Y-123574819D01*
X160970933Y-123670057D01*
X160970933Y-123812914D01*
X160923314Y-123908152D01*
X160875695Y-123955771D01*
X160780457Y-124003390D01*
X160399504Y-124003390D01*
X161542361Y-123908152D02*
X161447123Y-123860533D01*
X161399504Y-123812914D01*
X161351885Y-123717676D01*
X161351885Y-123670057D01*
X161399504Y-123574819D01*
X161447123Y-123527200D01*
X161542361Y-123479580D01*
X161732838Y-123479580D01*
X161828076Y-123527200D01*
X161875695Y-123574819D01*
X161923314Y-123670057D01*
X161923314Y-123717676D01*
X161875695Y-123812914D01*
X161828076Y-123860533D01*
X161732838Y-123908152D01*
X161542361Y-123908152D01*
X161447123Y-123955771D01*
X161399504Y-124003390D01*
X161351885Y-124098628D01*
X161351885Y-124289104D01*
X161399504Y-124384342D01*
X161447123Y-124431961D01*
X161542361Y-124479580D01*
X161732838Y-124479580D01*
X161828076Y-124431961D01*
X161875695Y-124384342D01*
X161923314Y-124289104D01*
X161923314Y-124098628D01*
X161875695Y-124003390D01*
X161828076Y-123955771D01*
X161732838Y-123908152D01*
X158064295Y-39533580D02*
X158064295Y-40343104D01*
X158111914Y-40438342D01*
X158159533Y-40485961D01*
X158254771Y-40533580D01*
X158445247Y-40533580D01*
X158540485Y-40485961D01*
X158588104Y-40438342D01*
X158635723Y-40343104D01*
X158635723Y-39533580D01*
X159635723Y-40533580D02*
X159064295Y-40533580D01*
X159350009Y-40533580D02*
X159350009Y-39533580D01*
X159254771Y-39676438D01*
X159159533Y-39771676D01*
X159064295Y-39819295D01*
X160807495Y-112634780D02*
X160807495Y-113444304D01*
X160855114Y-113539542D01*
X160902733Y-113587161D01*
X160997971Y-113634780D01*
X161188447Y-113634780D01*
X161283685Y-113587161D01*
X161331304Y-113539542D01*
X161378923Y-113444304D01*
X161378923Y-112634780D01*
X161807495Y-112730019D02*
X161855114Y-112682400D01*
X161950352Y-112634780D01*
X162188447Y-112634780D01*
X162283685Y-112682400D01*
X162331304Y-112730019D01*
X162378923Y-112825257D01*
X162378923Y-112920495D01*
X162331304Y-113063352D01*
X161759876Y-113634780D01*
X162378923Y-113634780D01*
X161237704Y-82240380D02*
X161237704Y-81240380D01*
X161475800Y-81240380D01*
X161618657Y-81288000D01*
X161713895Y-81383238D01*
X161761514Y-81478476D01*
X161809133Y-81668952D01*
X161809133Y-81811809D01*
X161761514Y-82002285D01*
X161713895Y-82097523D01*
X161618657Y-82192761D01*
X161475800Y-82240380D01*
X161237704Y-82240380D01*
X162142466Y-81240380D02*
X162761514Y-81240380D01*
X162428180Y-81621333D01*
X162571038Y-81621333D01*
X162666276Y-81668952D01*
X162713895Y-81716571D01*
X162761514Y-81811809D01*
X162761514Y-82049904D01*
X162713895Y-82145142D01*
X162666276Y-82192761D01*
X162571038Y-82240380D01*
X162285323Y-82240380D01*
X162190085Y-82192761D01*
X162142466Y-82145142D01*
X161567904Y-71318380D02*
X161567904Y-70318380D01*
X161806000Y-70318380D01*
X161948857Y-70366000D01*
X162044095Y-70461238D01*
X162091714Y-70556476D01*
X162139333Y-70746952D01*
X162139333Y-70889809D01*
X162091714Y-71080285D01*
X162044095Y-71175523D01*
X161948857Y-71270761D01*
X161806000Y-71318380D01*
X161567904Y-71318380D01*
X162996476Y-70651714D02*
X162996476Y-71318380D01*
X162758380Y-70270761D02*
X162520285Y-70985047D01*
X163139333Y-70985047D01*
%LPC*%
D15*
G36*
X160569305Y-101434511D02*
G01*
X160595725Y-101438430D01*
X160621635Y-101444920D01*
X160646783Y-101453918D01*
X160670928Y-101465338D01*
X160693838Y-101479069D01*
X160715292Y-101494980D01*
X160735082Y-101512918D01*
X160753020Y-101532708D01*
X160768931Y-101554162D01*
X160782662Y-101577072D01*
X160794082Y-101601217D01*
X160803080Y-101626365D01*
X160809570Y-101652275D01*
X160813489Y-101678695D01*
X160814800Y-101705373D01*
X160814800Y-102663027D01*
X160813489Y-102689705D01*
X160809570Y-102716125D01*
X160803080Y-102742035D01*
X160794082Y-102767183D01*
X160782662Y-102791328D01*
X160768931Y-102814238D01*
X160753020Y-102835692D01*
X160735082Y-102855482D01*
X160715292Y-102873420D01*
X160693838Y-102889331D01*
X160670928Y-102903062D01*
X160646783Y-102914482D01*
X160621635Y-102923480D01*
X160595725Y-102929970D01*
X160569305Y-102933889D01*
X160542627Y-102935200D01*
X159834973Y-102935200D01*
X159808295Y-102933889D01*
X159781875Y-102929970D01*
X159755965Y-102923480D01*
X159730817Y-102914482D01*
X159706672Y-102903062D01*
X159683762Y-102889331D01*
X159662308Y-102873420D01*
X159642518Y-102855482D01*
X159624580Y-102835692D01*
X159608669Y-102814238D01*
X159594938Y-102791328D01*
X159583518Y-102767183D01*
X159574520Y-102742035D01*
X159568030Y-102716125D01*
X159564111Y-102689705D01*
X159562800Y-102663027D01*
X159562800Y-101705373D01*
X159564111Y-101678695D01*
X159568030Y-101652275D01*
X159574520Y-101626365D01*
X159583518Y-101601217D01*
X159594938Y-101577072D01*
X159608669Y-101554162D01*
X159624580Y-101532708D01*
X159642518Y-101512918D01*
X159662308Y-101494980D01*
X159683762Y-101479069D01*
X159706672Y-101465338D01*
X159730817Y-101453918D01*
X159755965Y-101444920D01*
X159781875Y-101438430D01*
X159808295Y-101434511D01*
X159834973Y-101433200D01*
X160542627Y-101433200D01*
X160569305Y-101434511D01*
X160569305Y-101434511D01*
G37*
D16*
X160188800Y-102184200D03*
D15*
G36*
X162619305Y-101434511D02*
G01*
X162645725Y-101438430D01*
X162671635Y-101444920D01*
X162696783Y-101453918D01*
X162720928Y-101465338D01*
X162743838Y-101479069D01*
X162765292Y-101494980D01*
X162785082Y-101512918D01*
X162803020Y-101532708D01*
X162818931Y-101554162D01*
X162832662Y-101577072D01*
X162844082Y-101601217D01*
X162853080Y-101626365D01*
X162859570Y-101652275D01*
X162863489Y-101678695D01*
X162864800Y-101705373D01*
X162864800Y-102663027D01*
X162863489Y-102689705D01*
X162859570Y-102716125D01*
X162853080Y-102742035D01*
X162844082Y-102767183D01*
X162832662Y-102791328D01*
X162818931Y-102814238D01*
X162803020Y-102835692D01*
X162785082Y-102855482D01*
X162765292Y-102873420D01*
X162743838Y-102889331D01*
X162720928Y-102903062D01*
X162696783Y-102914482D01*
X162671635Y-102923480D01*
X162645725Y-102929970D01*
X162619305Y-102933889D01*
X162592627Y-102935200D01*
X161884973Y-102935200D01*
X161858295Y-102933889D01*
X161831875Y-102929970D01*
X161805965Y-102923480D01*
X161780817Y-102914482D01*
X161756672Y-102903062D01*
X161733762Y-102889331D01*
X161712308Y-102873420D01*
X161692518Y-102855482D01*
X161674580Y-102835692D01*
X161658669Y-102814238D01*
X161644938Y-102791328D01*
X161633518Y-102767183D01*
X161624520Y-102742035D01*
X161618030Y-102716125D01*
X161614111Y-102689705D01*
X161612800Y-102663027D01*
X161612800Y-101705373D01*
X161614111Y-101678695D01*
X161618030Y-101652275D01*
X161624520Y-101626365D01*
X161633518Y-101601217D01*
X161644938Y-101577072D01*
X161658669Y-101554162D01*
X161674580Y-101532708D01*
X161692518Y-101512918D01*
X161712308Y-101494980D01*
X161733762Y-101479069D01*
X161756672Y-101465338D01*
X161780817Y-101453918D01*
X161805965Y-101444920D01*
X161831875Y-101438430D01*
X161858295Y-101434511D01*
X161884973Y-101433200D01*
X162592627Y-101433200D01*
X162619305Y-101434511D01*
X162619305Y-101434511D01*
G37*
D16*
X162238800Y-102184200D03*
D17*
X154680600Y-81788000D03*
X157180600Y-81788000D03*
D15*
G36*
X155115305Y-41624511D02*
G01*
X155141725Y-41628430D01*
X155167635Y-41634920D01*
X155192783Y-41643918D01*
X155216928Y-41655338D01*
X155239838Y-41669069D01*
X155261292Y-41684980D01*
X155281082Y-41702918D01*
X155299020Y-41722708D01*
X155314931Y-41744162D01*
X155328662Y-41767072D01*
X155340082Y-41791217D01*
X155349080Y-41816365D01*
X155355570Y-41842275D01*
X155359489Y-41868695D01*
X155360800Y-41895373D01*
X155360800Y-42603027D01*
X155359489Y-42629705D01*
X155355570Y-42656125D01*
X155349080Y-42682035D01*
X155340082Y-42707183D01*
X155328662Y-42731328D01*
X155314931Y-42754238D01*
X155299020Y-42775692D01*
X155281082Y-42795482D01*
X155261292Y-42813420D01*
X155239838Y-42829331D01*
X155216928Y-42843062D01*
X155192783Y-42854482D01*
X155167635Y-42863480D01*
X155141725Y-42869970D01*
X155115305Y-42873889D01*
X155088627Y-42875200D01*
X154130973Y-42875200D01*
X154104295Y-42873889D01*
X154077875Y-42869970D01*
X154051965Y-42863480D01*
X154026817Y-42854482D01*
X154002672Y-42843062D01*
X153979762Y-42829331D01*
X153958308Y-42813420D01*
X153938518Y-42795482D01*
X153920580Y-42775692D01*
X153904669Y-42754238D01*
X153890938Y-42731328D01*
X153879518Y-42707183D01*
X153870520Y-42682035D01*
X153864030Y-42656125D01*
X153860111Y-42629705D01*
X153858800Y-42603027D01*
X153858800Y-41895373D01*
X153860111Y-41868695D01*
X153864030Y-41842275D01*
X153870520Y-41816365D01*
X153879518Y-41791217D01*
X153890938Y-41767072D01*
X153904669Y-41744162D01*
X153920580Y-41722708D01*
X153938518Y-41702918D01*
X153958308Y-41684980D01*
X153979762Y-41669069D01*
X154002672Y-41655338D01*
X154026817Y-41643918D01*
X154051965Y-41634920D01*
X154077875Y-41628430D01*
X154104295Y-41624511D01*
X154130973Y-41623200D01*
X155088627Y-41623200D01*
X155115305Y-41624511D01*
X155115305Y-41624511D01*
G37*
D16*
X154609800Y-42249200D03*
D15*
G36*
X155115305Y-39574511D02*
G01*
X155141725Y-39578430D01*
X155167635Y-39584920D01*
X155192783Y-39593918D01*
X155216928Y-39605338D01*
X155239838Y-39619069D01*
X155261292Y-39634980D01*
X155281082Y-39652918D01*
X155299020Y-39672708D01*
X155314931Y-39694162D01*
X155328662Y-39717072D01*
X155340082Y-39741217D01*
X155349080Y-39766365D01*
X155355570Y-39792275D01*
X155359489Y-39818695D01*
X155360800Y-39845373D01*
X155360800Y-40553027D01*
X155359489Y-40579705D01*
X155355570Y-40606125D01*
X155349080Y-40632035D01*
X155340082Y-40657183D01*
X155328662Y-40681328D01*
X155314931Y-40704238D01*
X155299020Y-40725692D01*
X155281082Y-40745482D01*
X155261292Y-40763420D01*
X155239838Y-40779331D01*
X155216928Y-40793062D01*
X155192783Y-40804482D01*
X155167635Y-40813480D01*
X155141725Y-40819970D01*
X155115305Y-40823889D01*
X155088627Y-40825200D01*
X154130973Y-40825200D01*
X154104295Y-40823889D01*
X154077875Y-40819970D01*
X154051965Y-40813480D01*
X154026817Y-40804482D01*
X154002672Y-40793062D01*
X153979762Y-40779331D01*
X153958308Y-40763420D01*
X153938518Y-40745482D01*
X153920580Y-40725692D01*
X153904669Y-40704238D01*
X153890938Y-40681328D01*
X153879518Y-40657183D01*
X153870520Y-40632035D01*
X153864030Y-40606125D01*
X153860111Y-40579705D01*
X153858800Y-40553027D01*
X153858800Y-39845373D01*
X153860111Y-39818695D01*
X153864030Y-39792275D01*
X153870520Y-39766365D01*
X153879518Y-39741217D01*
X153890938Y-39717072D01*
X153904669Y-39694162D01*
X153920580Y-39672708D01*
X153938518Y-39652918D01*
X153958308Y-39634980D01*
X153979762Y-39619069D01*
X154002672Y-39605338D01*
X154026817Y-39593918D01*
X154051965Y-39584920D01*
X154077875Y-39578430D01*
X154104295Y-39574511D01*
X154130973Y-39573200D01*
X155088627Y-39573200D01*
X155115305Y-39574511D01*
X155115305Y-39574511D01*
G37*
D16*
X154609800Y-40199200D03*
D17*
X156977400Y-70789800D03*
X154477400Y-70789800D03*
D18*
X165959000Y-85115400D03*
D19*
X154559000Y-85115400D03*
D18*
X157659000Y-85115400D03*
D20*
X155346400Y-77368400D03*
X155346400Y-74828400D03*
X157886400Y-77368400D03*
X157886400Y-74828400D03*
X160426400Y-77368400D03*
X160426400Y-74828400D03*
X162966400Y-77368400D03*
X162966400Y-74828400D03*
X165506400Y-77368400D03*
D21*
X165506400Y-74828400D03*
D18*
X163143000Y-67386200D03*
D19*
X166243000Y-67386200D03*
D18*
X154843000Y-67386200D03*
X163143000Y-57226200D03*
D19*
X166243000Y-57226200D03*
D18*
X154843000Y-57226200D03*
X154843000Y-47066200D03*
D19*
X166243000Y-47066200D03*
D18*
X163143000Y-47066200D03*
X154868400Y-36906200D03*
D19*
X166268400Y-36906200D03*
D18*
X163168400Y-36906200D03*
X163193800Y-26746200D03*
D19*
X166293800Y-26746200D03*
D18*
X154893800Y-26746200D03*
X166035200Y-95580200D03*
D19*
X154635200Y-95580200D03*
D18*
X157735200Y-95580200D03*
X157709800Y-116179600D03*
D19*
X154609800Y-116179600D03*
D18*
X166009800Y-116179600D03*
X166009800Y-126288800D03*
D19*
X154609800Y-126288800D03*
D18*
X157709800Y-126288800D03*
D15*
G36*
X156184729Y-61558081D02*
G01*
X156210545Y-61561910D01*
X156235860Y-61568251D01*
X156260433Y-61577043D01*
X156284025Y-61588202D01*
X156306410Y-61601618D01*
X156327372Y-61617165D01*
X156346709Y-61634691D01*
X156364235Y-61654028D01*
X156379782Y-61674990D01*
X156393198Y-61697375D01*
X156404357Y-61720967D01*
X156413149Y-61745540D01*
X156419490Y-61770855D01*
X156423319Y-61796671D01*
X156424600Y-61822737D01*
X156424600Y-62992863D01*
X156423319Y-63018929D01*
X156419490Y-63044745D01*
X156413149Y-63070060D01*
X156404357Y-63094633D01*
X156393198Y-63118225D01*
X156379782Y-63140610D01*
X156364235Y-63161572D01*
X156346709Y-63180909D01*
X156327372Y-63198435D01*
X156306410Y-63213982D01*
X156284025Y-63227398D01*
X156260433Y-63238557D01*
X156235860Y-63247349D01*
X156210545Y-63253690D01*
X156184729Y-63257519D01*
X156158663Y-63258800D01*
X153588537Y-63258800D01*
X153562471Y-63257519D01*
X153536655Y-63253690D01*
X153511340Y-63247349D01*
X153486767Y-63238557D01*
X153463175Y-63227398D01*
X153440790Y-63213982D01*
X153419828Y-63198435D01*
X153400491Y-63180909D01*
X153382965Y-63161572D01*
X153367418Y-63140610D01*
X153354002Y-63118225D01*
X153342843Y-63094633D01*
X153334051Y-63070060D01*
X153327710Y-63044745D01*
X153323881Y-63018929D01*
X153322600Y-62992863D01*
X153322600Y-61822737D01*
X153323881Y-61796671D01*
X153327710Y-61770855D01*
X153334051Y-61745540D01*
X153342843Y-61720967D01*
X153354002Y-61697375D01*
X153367418Y-61674990D01*
X153382965Y-61654028D01*
X153400491Y-61634691D01*
X153419828Y-61617165D01*
X153440790Y-61601618D01*
X153463175Y-61588202D01*
X153486767Y-61577043D01*
X153511340Y-61568251D01*
X153536655Y-61561910D01*
X153562471Y-61558081D01*
X153588537Y-61556800D01*
X156158663Y-61556800D01*
X156184729Y-61558081D01*
X156184729Y-61558081D01*
G37*
D22*
X154873600Y-62407800D03*
D15*
G36*
X160584729Y-61558081D02*
G01*
X160610545Y-61561910D01*
X160635860Y-61568251D01*
X160660433Y-61577043D01*
X160684025Y-61588202D01*
X160706410Y-61601618D01*
X160727372Y-61617165D01*
X160746709Y-61634691D01*
X160764235Y-61654028D01*
X160779782Y-61674990D01*
X160793198Y-61697375D01*
X160804357Y-61720967D01*
X160813149Y-61745540D01*
X160819490Y-61770855D01*
X160823319Y-61796671D01*
X160824600Y-61822737D01*
X160824600Y-62992863D01*
X160823319Y-63018929D01*
X160819490Y-63044745D01*
X160813149Y-63070060D01*
X160804357Y-63094633D01*
X160793198Y-63118225D01*
X160779782Y-63140610D01*
X160764235Y-63161572D01*
X160746709Y-63180909D01*
X160727372Y-63198435D01*
X160706410Y-63213982D01*
X160684025Y-63227398D01*
X160660433Y-63238557D01*
X160635860Y-63247349D01*
X160610545Y-63253690D01*
X160584729Y-63257519D01*
X160558663Y-63258800D01*
X157988537Y-63258800D01*
X157962471Y-63257519D01*
X157936655Y-63253690D01*
X157911340Y-63247349D01*
X157886767Y-63238557D01*
X157863175Y-63227398D01*
X157840790Y-63213982D01*
X157819828Y-63198435D01*
X157800491Y-63180909D01*
X157782965Y-63161572D01*
X157767418Y-63140610D01*
X157754002Y-63118225D01*
X157742843Y-63094633D01*
X157734051Y-63070060D01*
X157727710Y-63044745D01*
X157723881Y-63018929D01*
X157722600Y-62992863D01*
X157722600Y-61822737D01*
X157723881Y-61796671D01*
X157727710Y-61770855D01*
X157734051Y-61745540D01*
X157742843Y-61720967D01*
X157754002Y-61697375D01*
X157767418Y-61674990D01*
X157782965Y-61654028D01*
X157800491Y-61634691D01*
X157819828Y-61617165D01*
X157840790Y-61601618D01*
X157863175Y-61588202D01*
X157886767Y-61577043D01*
X157911340Y-61568251D01*
X157936655Y-61561910D01*
X157962471Y-61558081D01*
X157988537Y-61556800D01*
X160558663Y-61556800D01*
X160584729Y-61558081D01*
X160584729Y-61558081D01*
G37*
D22*
X159273600Y-62407800D03*
D15*
G36*
X156362529Y-89294881D02*
G01*
X156388345Y-89298710D01*
X156413660Y-89305051D01*
X156438233Y-89313843D01*
X156461825Y-89325002D01*
X156484210Y-89338418D01*
X156505172Y-89353965D01*
X156524509Y-89371491D01*
X156542035Y-89390828D01*
X156557582Y-89411790D01*
X156570998Y-89434175D01*
X156582157Y-89457767D01*
X156590949Y-89482340D01*
X156597290Y-89507655D01*
X156601119Y-89533471D01*
X156602400Y-89559537D01*
X156602400Y-90729663D01*
X156601119Y-90755729D01*
X156597290Y-90781545D01*
X156590949Y-90806860D01*
X156582157Y-90831433D01*
X156570998Y-90855025D01*
X156557582Y-90877410D01*
X156542035Y-90898372D01*
X156524509Y-90917709D01*
X156505172Y-90935235D01*
X156484210Y-90950782D01*
X156461825Y-90964198D01*
X156438233Y-90975357D01*
X156413660Y-90984149D01*
X156388345Y-90990490D01*
X156362529Y-90994319D01*
X156336463Y-90995600D01*
X153766337Y-90995600D01*
X153740271Y-90994319D01*
X153714455Y-90990490D01*
X153689140Y-90984149D01*
X153664567Y-90975357D01*
X153640975Y-90964198D01*
X153618590Y-90950782D01*
X153597628Y-90935235D01*
X153578291Y-90917709D01*
X153560765Y-90898372D01*
X153545218Y-90877410D01*
X153531802Y-90855025D01*
X153520643Y-90831433D01*
X153511851Y-90806860D01*
X153505510Y-90781545D01*
X153501681Y-90755729D01*
X153500400Y-90729663D01*
X153500400Y-89559537D01*
X153501681Y-89533471D01*
X153505510Y-89507655D01*
X153511851Y-89482340D01*
X153520643Y-89457767D01*
X153531802Y-89434175D01*
X153545218Y-89411790D01*
X153560765Y-89390828D01*
X153578291Y-89371491D01*
X153597628Y-89353965D01*
X153618590Y-89338418D01*
X153640975Y-89325002D01*
X153664567Y-89313843D01*
X153689140Y-89305051D01*
X153714455Y-89298710D01*
X153740271Y-89294881D01*
X153766337Y-89293600D01*
X156336463Y-89293600D01*
X156362529Y-89294881D01*
X156362529Y-89294881D01*
G37*
D22*
X155051400Y-90144600D03*
D15*
G36*
X160762529Y-89294881D02*
G01*
X160788345Y-89298710D01*
X160813660Y-89305051D01*
X160838233Y-89313843D01*
X160861825Y-89325002D01*
X160884210Y-89338418D01*
X160905172Y-89353965D01*
X160924509Y-89371491D01*
X160942035Y-89390828D01*
X160957582Y-89411790D01*
X160970998Y-89434175D01*
X160982157Y-89457767D01*
X160990949Y-89482340D01*
X160997290Y-89507655D01*
X161001119Y-89533471D01*
X161002400Y-89559537D01*
X161002400Y-90729663D01*
X161001119Y-90755729D01*
X160997290Y-90781545D01*
X160990949Y-90806860D01*
X160982157Y-90831433D01*
X160970998Y-90855025D01*
X160957582Y-90877410D01*
X160942035Y-90898372D01*
X160924509Y-90917709D01*
X160905172Y-90935235D01*
X160884210Y-90950782D01*
X160861825Y-90964198D01*
X160838233Y-90975357D01*
X160813660Y-90984149D01*
X160788345Y-90990490D01*
X160762529Y-90994319D01*
X160736463Y-90995600D01*
X158166337Y-90995600D01*
X158140271Y-90994319D01*
X158114455Y-90990490D01*
X158089140Y-90984149D01*
X158064567Y-90975357D01*
X158040975Y-90964198D01*
X158018590Y-90950782D01*
X157997628Y-90935235D01*
X157978291Y-90917709D01*
X157960765Y-90898372D01*
X157945218Y-90877410D01*
X157931802Y-90855025D01*
X157920643Y-90831433D01*
X157911851Y-90806860D01*
X157905510Y-90781545D01*
X157901681Y-90755729D01*
X157900400Y-90729663D01*
X157900400Y-89559537D01*
X157901681Y-89533471D01*
X157905510Y-89507655D01*
X157911851Y-89482340D01*
X157920643Y-89457767D01*
X157931802Y-89434175D01*
X157945218Y-89411790D01*
X157960765Y-89390828D01*
X157978291Y-89371491D01*
X157997628Y-89353965D01*
X158018590Y-89338418D01*
X158040975Y-89325002D01*
X158064567Y-89313843D01*
X158089140Y-89305051D01*
X158114455Y-89298710D01*
X158140271Y-89294881D01*
X158166337Y-89293600D01*
X160736463Y-89293600D01*
X160762529Y-89294881D01*
X160762529Y-89294881D01*
G37*
D22*
X159451400Y-90144600D03*
D15*
G36*
X166164305Y-40590511D02*
G01*
X166190725Y-40594430D01*
X166216635Y-40600920D01*
X166241783Y-40609918D01*
X166265928Y-40621338D01*
X166288838Y-40635069D01*
X166310292Y-40650980D01*
X166330082Y-40668918D01*
X166348020Y-40688708D01*
X166363931Y-40710162D01*
X166377662Y-40733072D01*
X166389082Y-40757217D01*
X166398080Y-40782365D01*
X166404570Y-40808275D01*
X166408489Y-40834695D01*
X166409800Y-40861373D01*
X166409800Y-41569027D01*
X166408489Y-41595705D01*
X166404570Y-41622125D01*
X166398080Y-41648035D01*
X166389082Y-41673183D01*
X166377662Y-41697328D01*
X166363931Y-41720238D01*
X166348020Y-41741692D01*
X166330082Y-41761482D01*
X166310292Y-41779420D01*
X166288838Y-41795331D01*
X166265928Y-41809062D01*
X166241783Y-41820482D01*
X166216635Y-41829480D01*
X166190725Y-41835970D01*
X166164305Y-41839889D01*
X166137627Y-41841200D01*
X165179973Y-41841200D01*
X165153295Y-41839889D01*
X165126875Y-41835970D01*
X165100965Y-41829480D01*
X165075817Y-41820482D01*
X165051672Y-41809062D01*
X165028762Y-41795331D01*
X165007308Y-41779420D01*
X164987518Y-41761482D01*
X164969580Y-41741692D01*
X164953669Y-41720238D01*
X164939938Y-41697328D01*
X164928518Y-41673183D01*
X164919520Y-41648035D01*
X164913030Y-41622125D01*
X164909111Y-41595705D01*
X164907800Y-41569027D01*
X164907800Y-40861373D01*
X164909111Y-40834695D01*
X164913030Y-40808275D01*
X164919520Y-40782365D01*
X164928518Y-40757217D01*
X164939938Y-40733072D01*
X164953669Y-40710162D01*
X164969580Y-40688708D01*
X164987518Y-40668918D01*
X165007308Y-40650980D01*
X165028762Y-40635069D01*
X165051672Y-40621338D01*
X165075817Y-40609918D01*
X165100965Y-40600920D01*
X165126875Y-40594430D01*
X165153295Y-40590511D01*
X165179973Y-40589200D01*
X166137627Y-40589200D01*
X166164305Y-40590511D01*
X166164305Y-40590511D01*
G37*
D16*
X165658800Y-41215200D03*
D15*
G36*
X166164305Y-42640511D02*
G01*
X166190725Y-42644430D01*
X166216635Y-42650920D01*
X166241783Y-42659918D01*
X166265928Y-42671338D01*
X166288838Y-42685069D01*
X166310292Y-42700980D01*
X166330082Y-42718918D01*
X166348020Y-42738708D01*
X166363931Y-42760162D01*
X166377662Y-42783072D01*
X166389082Y-42807217D01*
X166398080Y-42832365D01*
X166404570Y-42858275D01*
X166408489Y-42884695D01*
X166409800Y-42911373D01*
X166409800Y-43619027D01*
X166408489Y-43645705D01*
X166404570Y-43672125D01*
X166398080Y-43698035D01*
X166389082Y-43723183D01*
X166377662Y-43747328D01*
X166363931Y-43770238D01*
X166348020Y-43791692D01*
X166330082Y-43811482D01*
X166310292Y-43829420D01*
X166288838Y-43845331D01*
X166265928Y-43859062D01*
X166241783Y-43870482D01*
X166216635Y-43879480D01*
X166190725Y-43885970D01*
X166164305Y-43889889D01*
X166137627Y-43891200D01*
X165179973Y-43891200D01*
X165153295Y-43889889D01*
X165126875Y-43885970D01*
X165100965Y-43879480D01*
X165075817Y-43870482D01*
X165051672Y-43859062D01*
X165028762Y-43845331D01*
X165007308Y-43829420D01*
X164987518Y-43811482D01*
X164969580Y-43791692D01*
X164953669Y-43770238D01*
X164939938Y-43747328D01*
X164928518Y-43723183D01*
X164919520Y-43698035D01*
X164913030Y-43672125D01*
X164909111Y-43645705D01*
X164907800Y-43619027D01*
X164907800Y-42911373D01*
X164909111Y-42884695D01*
X164913030Y-42858275D01*
X164919520Y-42832365D01*
X164928518Y-42807217D01*
X164939938Y-42783072D01*
X164953669Y-42760162D01*
X164969580Y-42738708D01*
X164987518Y-42718918D01*
X165007308Y-42700980D01*
X165028762Y-42685069D01*
X165051672Y-42671338D01*
X165075817Y-42659918D01*
X165100965Y-42650920D01*
X165126875Y-42644430D01*
X165153295Y-42640511D01*
X165179973Y-42639200D01*
X166137627Y-42639200D01*
X166164305Y-42640511D01*
X166164305Y-42640511D01*
G37*
D16*
X165658800Y-43265200D03*
D15*
G36*
X166621505Y-110636311D02*
G01*
X166647925Y-110640230D01*
X166673835Y-110646720D01*
X166698983Y-110655718D01*
X166723128Y-110667138D01*
X166746038Y-110680869D01*
X166767492Y-110696780D01*
X166787282Y-110714718D01*
X166805220Y-110734508D01*
X166821131Y-110755962D01*
X166834862Y-110778872D01*
X166846282Y-110803017D01*
X166855280Y-110828165D01*
X166861770Y-110854075D01*
X166865689Y-110880495D01*
X166867000Y-110907173D01*
X166867000Y-111614827D01*
X166865689Y-111641505D01*
X166861770Y-111667925D01*
X166855280Y-111693835D01*
X166846282Y-111718983D01*
X166834862Y-111743128D01*
X166821131Y-111766038D01*
X166805220Y-111787492D01*
X166787282Y-111807282D01*
X166767492Y-111825220D01*
X166746038Y-111841131D01*
X166723128Y-111854862D01*
X166698983Y-111866282D01*
X166673835Y-111875280D01*
X166647925Y-111881770D01*
X166621505Y-111885689D01*
X166594827Y-111887000D01*
X165637173Y-111887000D01*
X165610495Y-111885689D01*
X165584075Y-111881770D01*
X165558165Y-111875280D01*
X165533017Y-111866282D01*
X165508872Y-111854862D01*
X165485962Y-111841131D01*
X165464508Y-111825220D01*
X165444718Y-111807282D01*
X165426780Y-111787492D01*
X165410869Y-111766038D01*
X165397138Y-111743128D01*
X165385718Y-111718983D01*
X165376720Y-111693835D01*
X165370230Y-111667925D01*
X165366311Y-111641505D01*
X165365000Y-111614827D01*
X165365000Y-110907173D01*
X165366311Y-110880495D01*
X165370230Y-110854075D01*
X165376720Y-110828165D01*
X165385718Y-110803017D01*
X165397138Y-110778872D01*
X165410869Y-110755962D01*
X165426780Y-110734508D01*
X165444718Y-110714718D01*
X165464508Y-110696780D01*
X165485962Y-110680869D01*
X165508872Y-110667138D01*
X165533017Y-110655718D01*
X165558165Y-110646720D01*
X165584075Y-110640230D01*
X165610495Y-110636311D01*
X165637173Y-110635000D01*
X166594827Y-110635000D01*
X166621505Y-110636311D01*
X166621505Y-110636311D01*
G37*
D16*
X166116000Y-111261000D03*
D15*
G36*
X166621505Y-108586311D02*
G01*
X166647925Y-108590230D01*
X166673835Y-108596720D01*
X166698983Y-108605718D01*
X166723128Y-108617138D01*
X166746038Y-108630869D01*
X166767492Y-108646780D01*
X166787282Y-108664718D01*
X166805220Y-108684508D01*
X166821131Y-108705962D01*
X166834862Y-108728872D01*
X166846282Y-108753017D01*
X166855280Y-108778165D01*
X166861770Y-108804075D01*
X166865689Y-108830495D01*
X166867000Y-108857173D01*
X166867000Y-109564827D01*
X166865689Y-109591505D01*
X166861770Y-109617925D01*
X166855280Y-109643835D01*
X166846282Y-109668983D01*
X166834862Y-109693128D01*
X166821131Y-109716038D01*
X166805220Y-109737492D01*
X166787282Y-109757282D01*
X166767492Y-109775220D01*
X166746038Y-109791131D01*
X166723128Y-109804862D01*
X166698983Y-109816282D01*
X166673835Y-109825280D01*
X166647925Y-109831770D01*
X166621505Y-109835689D01*
X166594827Y-109837000D01*
X165637173Y-109837000D01*
X165610495Y-109835689D01*
X165584075Y-109831770D01*
X165558165Y-109825280D01*
X165533017Y-109816282D01*
X165508872Y-109804862D01*
X165485962Y-109791131D01*
X165464508Y-109775220D01*
X165444718Y-109757282D01*
X165426780Y-109737492D01*
X165410869Y-109716038D01*
X165397138Y-109693128D01*
X165385718Y-109668983D01*
X165376720Y-109643835D01*
X165370230Y-109617925D01*
X165366311Y-109591505D01*
X165365000Y-109564827D01*
X165365000Y-108857173D01*
X165366311Y-108830495D01*
X165370230Y-108804075D01*
X165376720Y-108778165D01*
X165385718Y-108753017D01*
X165397138Y-108728872D01*
X165410869Y-108705962D01*
X165426780Y-108684508D01*
X165444718Y-108664718D01*
X165464508Y-108646780D01*
X165485962Y-108630869D01*
X165508872Y-108617138D01*
X165533017Y-108605718D01*
X165558165Y-108596720D01*
X165584075Y-108590230D01*
X165610495Y-108586311D01*
X165637173Y-108585000D01*
X166594827Y-108585000D01*
X166621505Y-108586311D01*
X166621505Y-108586311D01*
G37*
D16*
X166116000Y-109211000D03*
D15*
G36*
X155801105Y-108560911D02*
G01*
X155827525Y-108564830D01*
X155853435Y-108571320D01*
X155878583Y-108580318D01*
X155902728Y-108591738D01*
X155925638Y-108605469D01*
X155947092Y-108621380D01*
X155966882Y-108639318D01*
X155984820Y-108659108D01*
X156000731Y-108680562D01*
X156014462Y-108703472D01*
X156025882Y-108727617D01*
X156034880Y-108752765D01*
X156041370Y-108778675D01*
X156045289Y-108805095D01*
X156046600Y-108831773D01*
X156046600Y-109539427D01*
X156045289Y-109566105D01*
X156041370Y-109592525D01*
X156034880Y-109618435D01*
X156025882Y-109643583D01*
X156014462Y-109667728D01*
X156000731Y-109690638D01*
X155984820Y-109712092D01*
X155966882Y-109731882D01*
X155947092Y-109749820D01*
X155925638Y-109765731D01*
X155902728Y-109779462D01*
X155878583Y-109790882D01*
X155853435Y-109799880D01*
X155827525Y-109806370D01*
X155801105Y-109810289D01*
X155774427Y-109811600D01*
X154816773Y-109811600D01*
X154790095Y-109810289D01*
X154763675Y-109806370D01*
X154737765Y-109799880D01*
X154712617Y-109790882D01*
X154688472Y-109779462D01*
X154665562Y-109765731D01*
X154644108Y-109749820D01*
X154624318Y-109731882D01*
X154606380Y-109712092D01*
X154590469Y-109690638D01*
X154576738Y-109667728D01*
X154565318Y-109643583D01*
X154556320Y-109618435D01*
X154549830Y-109592525D01*
X154545911Y-109566105D01*
X154544600Y-109539427D01*
X154544600Y-108831773D01*
X154545911Y-108805095D01*
X154549830Y-108778675D01*
X154556320Y-108752765D01*
X154565318Y-108727617D01*
X154576738Y-108703472D01*
X154590469Y-108680562D01*
X154606380Y-108659108D01*
X154624318Y-108639318D01*
X154644108Y-108621380D01*
X154665562Y-108605469D01*
X154688472Y-108591738D01*
X154712617Y-108580318D01*
X154737765Y-108571320D01*
X154763675Y-108564830D01*
X154790095Y-108560911D01*
X154816773Y-108559600D01*
X155774427Y-108559600D01*
X155801105Y-108560911D01*
X155801105Y-108560911D01*
G37*
D16*
X155295600Y-109185600D03*
D15*
G36*
X155801105Y-110610911D02*
G01*
X155827525Y-110614830D01*
X155853435Y-110621320D01*
X155878583Y-110630318D01*
X155902728Y-110641738D01*
X155925638Y-110655469D01*
X155947092Y-110671380D01*
X155966882Y-110689318D01*
X155984820Y-110709108D01*
X156000731Y-110730562D01*
X156014462Y-110753472D01*
X156025882Y-110777617D01*
X156034880Y-110802765D01*
X156041370Y-110828675D01*
X156045289Y-110855095D01*
X156046600Y-110881773D01*
X156046600Y-111589427D01*
X156045289Y-111616105D01*
X156041370Y-111642525D01*
X156034880Y-111668435D01*
X156025882Y-111693583D01*
X156014462Y-111717728D01*
X156000731Y-111740638D01*
X155984820Y-111762092D01*
X155966882Y-111781882D01*
X155947092Y-111799820D01*
X155925638Y-111815731D01*
X155902728Y-111829462D01*
X155878583Y-111840882D01*
X155853435Y-111849880D01*
X155827525Y-111856370D01*
X155801105Y-111860289D01*
X155774427Y-111861600D01*
X154816773Y-111861600D01*
X154790095Y-111860289D01*
X154763675Y-111856370D01*
X154737765Y-111849880D01*
X154712617Y-111840882D01*
X154688472Y-111829462D01*
X154665562Y-111815731D01*
X154644108Y-111799820D01*
X154624318Y-111781882D01*
X154606380Y-111762092D01*
X154590469Y-111740638D01*
X154576738Y-111717728D01*
X154565318Y-111693583D01*
X154556320Y-111668435D01*
X154549830Y-111642525D01*
X154545911Y-111616105D01*
X154544600Y-111589427D01*
X154544600Y-110881773D01*
X154545911Y-110855095D01*
X154549830Y-110828675D01*
X154556320Y-110802765D01*
X154565318Y-110777617D01*
X154576738Y-110753472D01*
X154590469Y-110730562D01*
X154606380Y-110709108D01*
X154624318Y-110689318D01*
X154644108Y-110671380D01*
X154665562Y-110655469D01*
X154688472Y-110641738D01*
X154712617Y-110630318D01*
X154737765Y-110621320D01*
X154763675Y-110614830D01*
X154790095Y-110610911D01*
X154816773Y-110609600D01*
X155774427Y-110609600D01*
X155801105Y-110610911D01*
X155801105Y-110610911D01*
G37*
D16*
X155295600Y-111235600D03*
D18*
X157735200Y-106019600D03*
D19*
X154635200Y-106019600D03*
D18*
X166035200Y-106019600D03*
D15*
G36*
X160815905Y-52895111D02*
G01*
X160842325Y-52899030D01*
X160868235Y-52905520D01*
X160893383Y-52914518D01*
X160917528Y-52925938D01*
X160940438Y-52939669D01*
X160961892Y-52955580D01*
X160981682Y-52973518D01*
X160999620Y-52993308D01*
X161015531Y-53014762D01*
X161029262Y-53037672D01*
X161040682Y-53061817D01*
X161049680Y-53086965D01*
X161056170Y-53112875D01*
X161060089Y-53139295D01*
X161061400Y-53165973D01*
X161061400Y-54123627D01*
X161060089Y-54150305D01*
X161056170Y-54176725D01*
X161049680Y-54202635D01*
X161040682Y-54227783D01*
X161029262Y-54251928D01*
X161015531Y-54274838D01*
X160999620Y-54296292D01*
X160981682Y-54316082D01*
X160961892Y-54334020D01*
X160940438Y-54349931D01*
X160917528Y-54363662D01*
X160893383Y-54375082D01*
X160868235Y-54384080D01*
X160842325Y-54390570D01*
X160815905Y-54394489D01*
X160789227Y-54395800D01*
X160081573Y-54395800D01*
X160054895Y-54394489D01*
X160028475Y-54390570D01*
X160002565Y-54384080D01*
X159977417Y-54375082D01*
X159953272Y-54363662D01*
X159930362Y-54349931D01*
X159908908Y-54334020D01*
X159889118Y-54316082D01*
X159871180Y-54296292D01*
X159855269Y-54274838D01*
X159841538Y-54251928D01*
X159830118Y-54227783D01*
X159821120Y-54202635D01*
X159814630Y-54176725D01*
X159810711Y-54150305D01*
X159809400Y-54123627D01*
X159809400Y-53165973D01*
X159810711Y-53139295D01*
X159814630Y-53112875D01*
X159821120Y-53086965D01*
X159830118Y-53061817D01*
X159841538Y-53037672D01*
X159855269Y-53014762D01*
X159871180Y-52993308D01*
X159889118Y-52973518D01*
X159908908Y-52955580D01*
X159930362Y-52939669D01*
X159953272Y-52925938D01*
X159977417Y-52914518D01*
X160002565Y-52905520D01*
X160028475Y-52899030D01*
X160054895Y-52895111D01*
X160081573Y-52893800D01*
X160789227Y-52893800D01*
X160815905Y-52895111D01*
X160815905Y-52895111D01*
G37*
D16*
X160435400Y-53644800D03*
D15*
G36*
X158765905Y-52895111D02*
G01*
X158792325Y-52899030D01*
X158818235Y-52905520D01*
X158843383Y-52914518D01*
X158867528Y-52925938D01*
X158890438Y-52939669D01*
X158911892Y-52955580D01*
X158931682Y-52973518D01*
X158949620Y-52993308D01*
X158965531Y-53014762D01*
X158979262Y-53037672D01*
X158990682Y-53061817D01*
X158999680Y-53086965D01*
X159006170Y-53112875D01*
X159010089Y-53139295D01*
X159011400Y-53165973D01*
X159011400Y-54123627D01*
X159010089Y-54150305D01*
X159006170Y-54176725D01*
X158999680Y-54202635D01*
X158990682Y-54227783D01*
X158979262Y-54251928D01*
X158965531Y-54274838D01*
X158949620Y-54296292D01*
X158931682Y-54316082D01*
X158911892Y-54334020D01*
X158890438Y-54349931D01*
X158867528Y-54363662D01*
X158843383Y-54375082D01*
X158818235Y-54384080D01*
X158792325Y-54390570D01*
X158765905Y-54394489D01*
X158739227Y-54395800D01*
X158031573Y-54395800D01*
X158004895Y-54394489D01*
X157978475Y-54390570D01*
X157952565Y-54384080D01*
X157927417Y-54375082D01*
X157903272Y-54363662D01*
X157880362Y-54349931D01*
X157858908Y-54334020D01*
X157839118Y-54316082D01*
X157821180Y-54296292D01*
X157805269Y-54274838D01*
X157791538Y-54251928D01*
X157780118Y-54227783D01*
X157771120Y-54202635D01*
X157764630Y-54176725D01*
X157760711Y-54150305D01*
X157759400Y-54123627D01*
X157759400Y-53165973D01*
X157760711Y-53139295D01*
X157764630Y-53112875D01*
X157771120Y-53086965D01*
X157780118Y-53061817D01*
X157791538Y-53037672D01*
X157805269Y-53014762D01*
X157821180Y-52993308D01*
X157839118Y-52973518D01*
X157858908Y-52955580D01*
X157880362Y-52939669D01*
X157903272Y-52925938D01*
X157927417Y-52914518D01*
X157952565Y-52905520D01*
X157978475Y-52899030D01*
X158004895Y-52895111D01*
X158031573Y-52893800D01*
X158739227Y-52893800D01*
X158765905Y-52895111D01*
X158765905Y-52895111D01*
G37*
D16*
X158385400Y-53644800D03*
D15*
G36*
X158638905Y-50583711D02*
G01*
X158665325Y-50587630D01*
X158691235Y-50594120D01*
X158716383Y-50603118D01*
X158740528Y-50614538D01*
X158763438Y-50628269D01*
X158784892Y-50644180D01*
X158804682Y-50662118D01*
X158822620Y-50681908D01*
X158838531Y-50703362D01*
X158852262Y-50726272D01*
X158863682Y-50750417D01*
X158872680Y-50775565D01*
X158879170Y-50801475D01*
X158883089Y-50827895D01*
X158884400Y-50854573D01*
X158884400Y-51812227D01*
X158883089Y-51838905D01*
X158879170Y-51865325D01*
X158872680Y-51891235D01*
X158863682Y-51916383D01*
X158852262Y-51940528D01*
X158838531Y-51963438D01*
X158822620Y-51984892D01*
X158804682Y-52004682D01*
X158784892Y-52022620D01*
X158763438Y-52038531D01*
X158740528Y-52052262D01*
X158716383Y-52063682D01*
X158691235Y-52072680D01*
X158665325Y-52079170D01*
X158638905Y-52083089D01*
X158612227Y-52084400D01*
X157904573Y-52084400D01*
X157877895Y-52083089D01*
X157851475Y-52079170D01*
X157825565Y-52072680D01*
X157800417Y-52063682D01*
X157776272Y-52052262D01*
X157753362Y-52038531D01*
X157731908Y-52022620D01*
X157712118Y-52004682D01*
X157694180Y-51984892D01*
X157678269Y-51963438D01*
X157664538Y-51940528D01*
X157653118Y-51916383D01*
X157644120Y-51891235D01*
X157637630Y-51865325D01*
X157633711Y-51838905D01*
X157632400Y-51812227D01*
X157632400Y-50854573D01*
X157633711Y-50827895D01*
X157637630Y-50801475D01*
X157644120Y-50775565D01*
X157653118Y-50750417D01*
X157664538Y-50726272D01*
X157678269Y-50703362D01*
X157694180Y-50681908D01*
X157712118Y-50662118D01*
X157731908Y-50644180D01*
X157753362Y-50628269D01*
X157776272Y-50614538D01*
X157800417Y-50603118D01*
X157825565Y-50594120D01*
X157851475Y-50587630D01*
X157877895Y-50583711D01*
X157904573Y-50582400D01*
X158612227Y-50582400D01*
X158638905Y-50583711D01*
X158638905Y-50583711D01*
G37*
D16*
X158258400Y-51333400D03*
D15*
G36*
X160688905Y-50583711D02*
G01*
X160715325Y-50587630D01*
X160741235Y-50594120D01*
X160766383Y-50603118D01*
X160790528Y-50614538D01*
X160813438Y-50628269D01*
X160834892Y-50644180D01*
X160854682Y-50662118D01*
X160872620Y-50681908D01*
X160888531Y-50703362D01*
X160902262Y-50726272D01*
X160913682Y-50750417D01*
X160922680Y-50775565D01*
X160929170Y-50801475D01*
X160933089Y-50827895D01*
X160934400Y-50854573D01*
X160934400Y-51812227D01*
X160933089Y-51838905D01*
X160929170Y-51865325D01*
X160922680Y-51891235D01*
X160913682Y-51916383D01*
X160902262Y-51940528D01*
X160888531Y-51963438D01*
X160872620Y-51984892D01*
X160854682Y-52004682D01*
X160834892Y-52022620D01*
X160813438Y-52038531D01*
X160790528Y-52052262D01*
X160766383Y-52063682D01*
X160741235Y-52072680D01*
X160715325Y-52079170D01*
X160688905Y-52083089D01*
X160662227Y-52084400D01*
X159954573Y-52084400D01*
X159927895Y-52083089D01*
X159901475Y-52079170D01*
X159875565Y-52072680D01*
X159850417Y-52063682D01*
X159826272Y-52052262D01*
X159803362Y-52038531D01*
X159781908Y-52022620D01*
X159762118Y-52004682D01*
X159744180Y-51984892D01*
X159728269Y-51963438D01*
X159714538Y-51940528D01*
X159703118Y-51916383D01*
X159694120Y-51891235D01*
X159687630Y-51865325D01*
X159683711Y-51838905D01*
X159682400Y-51812227D01*
X159682400Y-50854573D01*
X159683711Y-50827895D01*
X159687630Y-50801475D01*
X159694120Y-50775565D01*
X159703118Y-50750417D01*
X159714538Y-50726272D01*
X159728269Y-50703362D01*
X159744180Y-50681908D01*
X159762118Y-50662118D01*
X159781908Y-50644180D01*
X159803362Y-50628269D01*
X159826272Y-50614538D01*
X159850417Y-50603118D01*
X159875565Y-50594120D01*
X159901475Y-50587630D01*
X159927895Y-50583711D01*
X159954573Y-50582400D01*
X160662227Y-50582400D01*
X160688905Y-50583711D01*
X160688905Y-50583711D01*
G37*
D16*
X160308400Y-51333400D03*
D15*
G36*
X161171505Y-32752911D02*
G01*
X161197925Y-32756830D01*
X161223835Y-32763320D01*
X161248983Y-32772318D01*
X161273128Y-32783738D01*
X161296038Y-32797469D01*
X161317492Y-32813380D01*
X161337282Y-32831318D01*
X161355220Y-32851108D01*
X161371131Y-32872562D01*
X161384862Y-32895472D01*
X161396282Y-32919617D01*
X161405280Y-32944765D01*
X161411770Y-32970675D01*
X161415689Y-32997095D01*
X161417000Y-33023773D01*
X161417000Y-33981427D01*
X161415689Y-34008105D01*
X161411770Y-34034525D01*
X161405280Y-34060435D01*
X161396282Y-34085583D01*
X161384862Y-34109728D01*
X161371131Y-34132638D01*
X161355220Y-34154092D01*
X161337282Y-34173882D01*
X161317492Y-34191820D01*
X161296038Y-34207731D01*
X161273128Y-34221462D01*
X161248983Y-34232882D01*
X161223835Y-34241880D01*
X161197925Y-34248370D01*
X161171505Y-34252289D01*
X161144827Y-34253600D01*
X160437173Y-34253600D01*
X160410495Y-34252289D01*
X160384075Y-34248370D01*
X160358165Y-34241880D01*
X160333017Y-34232882D01*
X160308872Y-34221462D01*
X160285962Y-34207731D01*
X160264508Y-34191820D01*
X160244718Y-34173882D01*
X160226780Y-34154092D01*
X160210869Y-34132638D01*
X160197138Y-34109728D01*
X160185718Y-34085583D01*
X160176720Y-34060435D01*
X160170230Y-34034525D01*
X160166311Y-34008105D01*
X160165000Y-33981427D01*
X160165000Y-33023773D01*
X160166311Y-32997095D01*
X160170230Y-32970675D01*
X160176720Y-32944765D01*
X160185718Y-32919617D01*
X160197138Y-32895472D01*
X160210869Y-32872562D01*
X160226780Y-32851108D01*
X160244718Y-32831318D01*
X160264508Y-32813380D01*
X160285962Y-32797469D01*
X160308872Y-32783738D01*
X160333017Y-32772318D01*
X160358165Y-32763320D01*
X160384075Y-32756830D01*
X160410495Y-32752911D01*
X160437173Y-32751600D01*
X161144827Y-32751600D01*
X161171505Y-32752911D01*
X161171505Y-32752911D01*
G37*
D16*
X160791000Y-33502600D03*
D15*
G36*
X159121505Y-32752911D02*
G01*
X159147925Y-32756830D01*
X159173835Y-32763320D01*
X159198983Y-32772318D01*
X159223128Y-32783738D01*
X159246038Y-32797469D01*
X159267492Y-32813380D01*
X159287282Y-32831318D01*
X159305220Y-32851108D01*
X159321131Y-32872562D01*
X159334862Y-32895472D01*
X159346282Y-32919617D01*
X159355280Y-32944765D01*
X159361770Y-32970675D01*
X159365689Y-32997095D01*
X159367000Y-33023773D01*
X159367000Y-33981427D01*
X159365689Y-34008105D01*
X159361770Y-34034525D01*
X159355280Y-34060435D01*
X159346282Y-34085583D01*
X159334862Y-34109728D01*
X159321131Y-34132638D01*
X159305220Y-34154092D01*
X159287282Y-34173882D01*
X159267492Y-34191820D01*
X159246038Y-34207731D01*
X159223128Y-34221462D01*
X159198983Y-34232882D01*
X159173835Y-34241880D01*
X159147925Y-34248370D01*
X159121505Y-34252289D01*
X159094827Y-34253600D01*
X158387173Y-34253600D01*
X158360495Y-34252289D01*
X158334075Y-34248370D01*
X158308165Y-34241880D01*
X158283017Y-34232882D01*
X158258872Y-34221462D01*
X158235962Y-34207731D01*
X158214508Y-34191820D01*
X158194718Y-34173882D01*
X158176780Y-34154092D01*
X158160869Y-34132638D01*
X158147138Y-34109728D01*
X158135718Y-34085583D01*
X158126720Y-34060435D01*
X158120230Y-34034525D01*
X158116311Y-34008105D01*
X158115000Y-33981427D01*
X158115000Y-33023773D01*
X158116311Y-32997095D01*
X158120230Y-32970675D01*
X158126720Y-32944765D01*
X158135718Y-32919617D01*
X158147138Y-32895472D01*
X158160869Y-32872562D01*
X158176780Y-32851108D01*
X158194718Y-32831318D01*
X158214508Y-32813380D01*
X158235962Y-32797469D01*
X158258872Y-32783738D01*
X158283017Y-32772318D01*
X158308165Y-32763320D01*
X158334075Y-32756830D01*
X158360495Y-32752911D01*
X158387173Y-32751600D01*
X159094827Y-32751600D01*
X159121505Y-32752911D01*
X159121505Y-32752911D01*
G37*
D16*
X158741000Y-33502600D03*
D15*
G36*
X158969105Y-29857311D02*
G01*
X158995525Y-29861230D01*
X159021435Y-29867720D01*
X159046583Y-29876718D01*
X159070728Y-29888138D01*
X159093638Y-29901869D01*
X159115092Y-29917780D01*
X159134882Y-29935718D01*
X159152820Y-29955508D01*
X159168731Y-29976962D01*
X159182462Y-29999872D01*
X159193882Y-30024017D01*
X159202880Y-30049165D01*
X159209370Y-30075075D01*
X159213289Y-30101495D01*
X159214600Y-30128173D01*
X159214600Y-31085827D01*
X159213289Y-31112505D01*
X159209370Y-31138925D01*
X159202880Y-31164835D01*
X159193882Y-31189983D01*
X159182462Y-31214128D01*
X159168731Y-31237038D01*
X159152820Y-31258492D01*
X159134882Y-31278282D01*
X159115092Y-31296220D01*
X159093638Y-31312131D01*
X159070728Y-31325862D01*
X159046583Y-31337282D01*
X159021435Y-31346280D01*
X158995525Y-31352770D01*
X158969105Y-31356689D01*
X158942427Y-31358000D01*
X158234773Y-31358000D01*
X158208095Y-31356689D01*
X158181675Y-31352770D01*
X158155765Y-31346280D01*
X158130617Y-31337282D01*
X158106472Y-31325862D01*
X158083562Y-31312131D01*
X158062108Y-31296220D01*
X158042318Y-31278282D01*
X158024380Y-31258492D01*
X158008469Y-31237038D01*
X157994738Y-31214128D01*
X157983318Y-31189983D01*
X157974320Y-31164835D01*
X157967830Y-31138925D01*
X157963911Y-31112505D01*
X157962600Y-31085827D01*
X157962600Y-30128173D01*
X157963911Y-30101495D01*
X157967830Y-30075075D01*
X157974320Y-30049165D01*
X157983318Y-30024017D01*
X157994738Y-29999872D01*
X158008469Y-29976962D01*
X158024380Y-29955508D01*
X158042318Y-29935718D01*
X158062108Y-29917780D01*
X158083562Y-29901869D01*
X158106472Y-29888138D01*
X158130617Y-29876718D01*
X158155765Y-29867720D01*
X158181675Y-29861230D01*
X158208095Y-29857311D01*
X158234773Y-29856000D01*
X158942427Y-29856000D01*
X158969105Y-29857311D01*
X158969105Y-29857311D01*
G37*
D16*
X158588600Y-30607000D03*
D15*
G36*
X161019105Y-29857311D02*
G01*
X161045525Y-29861230D01*
X161071435Y-29867720D01*
X161096583Y-29876718D01*
X161120728Y-29888138D01*
X161143638Y-29901869D01*
X161165092Y-29917780D01*
X161184882Y-29935718D01*
X161202820Y-29955508D01*
X161218731Y-29976962D01*
X161232462Y-29999872D01*
X161243882Y-30024017D01*
X161252880Y-30049165D01*
X161259370Y-30075075D01*
X161263289Y-30101495D01*
X161264600Y-30128173D01*
X161264600Y-31085827D01*
X161263289Y-31112505D01*
X161259370Y-31138925D01*
X161252880Y-31164835D01*
X161243882Y-31189983D01*
X161232462Y-31214128D01*
X161218731Y-31237038D01*
X161202820Y-31258492D01*
X161184882Y-31278282D01*
X161165092Y-31296220D01*
X161143638Y-31312131D01*
X161120728Y-31325862D01*
X161096583Y-31337282D01*
X161071435Y-31346280D01*
X161045525Y-31352770D01*
X161019105Y-31356689D01*
X160992427Y-31358000D01*
X160284773Y-31358000D01*
X160258095Y-31356689D01*
X160231675Y-31352770D01*
X160205765Y-31346280D01*
X160180617Y-31337282D01*
X160156472Y-31325862D01*
X160133562Y-31312131D01*
X160112108Y-31296220D01*
X160092318Y-31278282D01*
X160074380Y-31258492D01*
X160058469Y-31237038D01*
X160044738Y-31214128D01*
X160033318Y-31189983D01*
X160024320Y-31164835D01*
X160017830Y-31138925D01*
X160013911Y-31112505D01*
X160012600Y-31085827D01*
X160012600Y-30128173D01*
X160013911Y-30101495D01*
X160017830Y-30075075D01*
X160024320Y-30049165D01*
X160033318Y-30024017D01*
X160044738Y-29999872D01*
X160058469Y-29976962D01*
X160074380Y-29955508D01*
X160092318Y-29935718D01*
X160112108Y-29917780D01*
X160133562Y-29901869D01*
X160156472Y-29888138D01*
X160180617Y-29876718D01*
X160205765Y-29867720D01*
X160231675Y-29861230D01*
X160258095Y-29857311D01*
X160284773Y-29856000D01*
X160992427Y-29856000D01*
X161019105Y-29857311D01*
X161019105Y-29857311D01*
G37*
D16*
X160638600Y-30607000D03*
D15*
G36*
X162568505Y-99351711D02*
G01*
X162594925Y-99355630D01*
X162620835Y-99362120D01*
X162645983Y-99371118D01*
X162670128Y-99382538D01*
X162693038Y-99396269D01*
X162714492Y-99412180D01*
X162734282Y-99430118D01*
X162752220Y-99449908D01*
X162768131Y-99471362D01*
X162781862Y-99494272D01*
X162793282Y-99518417D01*
X162802280Y-99543565D01*
X162808770Y-99569475D01*
X162812689Y-99595895D01*
X162814000Y-99622573D01*
X162814000Y-100580227D01*
X162812689Y-100606905D01*
X162808770Y-100633325D01*
X162802280Y-100659235D01*
X162793282Y-100684383D01*
X162781862Y-100708528D01*
X162768131Y-100731438D01*
X162752220Y-100752892D01*
X162734282Y-100772682D01*
X162714492Y-100790620D01*
X162693038Y-100806531D01*
X162670128Y-100820262D01*
X162645983Y-100831682D01*
X162620835Y-100840680D01*
X162594925Y-100847170D01*
X162568505Y-100851089D01*
X162541827Y-100852400D01*
X161834173Y-100852400D01*
X161807495Y-100851089D01*
X161781075Y-100847170D01*
X161755165Y-100840680D01*
X161730017Y-100831682D01*
X161705872Y-100820262D01*
X161682962Y-100806531D01*
X161661508Y-100790620D01*
X161641718Y-100772682D01*
X161623780Y-100752892D01*
X161607869Y-100731438D01*
X161594138Y-100708528D01*
X161582718Y-100684383D01*
X161573720Y-100659235D01*
X161567230Y-100633325D01*
X161563311Y-100606905D01*
X161562000Y-100580227D01*
X161562000Y-99622573D01*
X161563311Y-99595895D01*
X161567230Y-99569475D01*
X161573720Y-99543565D01*
X161582718Y-99518417D01*
X161594138Y-99494272D01*
X161607869Y-99471362D01*
X161623780Y-99449908D01*
X161641718Y-99430118D01*
X161661508Y-99412180D01*
X161682962Y-99396269D01*
X161705872Y-99382538D01*
X161730017Y-99371118D01*
X161755165Y-99362120D01*
X161781075Y-99355630D01*
X161807495Y-99351711D01*
X161834173Y-99350400D01*
X162541827Y-99350400D01*
X162568505Y-99351711D01*
X162568505Y-99351711D01*
G37*
D16*
X162188000Y-100101400D03*
D15*
G36*
X160518505Y-99351711D02*
G01*
X160544925Y-99355630D01*
X160570835Y-99362120D01*
X160595983Y-99371118D01*
X160620128Y-99382538D01*
X160643038Y-99396269D01*
X160664492Y-99412180D01*
X160684282Y-99430118D01*
X160702220Y-99449908D01*
X160718131Y-99471362D01*
X160731862Y-99494272D01*
X160743282Y-99518417D01*
X160752280Y-99543565D01*
X160758770Y-99569475D01*
X160762689Y-99595895D01*
X160764000Y-99622573D01*
X160764000Y-100580227D01*
X160762689Y-100606905D01*
X160758770Y-100633325D01*
X160752280Y-100659235D01*
X160743282Y-100684383D01*
X160731862Y-100708528D01*
X160718131Y-100731438D01*
X160702220Y-100752892D01*
X160684282Y-100772682D01*
X160664492Y-100790620D01*
X160643038Y-100806531D01*
X160620128Y-100820262D01*
X160595983Y-100831682D01*
X160570835Y-100840680D01*
X160544925Y-100847170D01*
X160518505Y-100851089D01*
X160491827Y-100852400D01*
X159784173Y-100852400D01*
X159757495Y-100851089D01*
X159731075Y-100847170D01*
X159705165Y-100840680D01*
X159680017Y-100831682D01*
X159655872Y-100820262D01*
X159632962Y-100806531D01*
X159611508Y-100790620D01*
X159591718Y-100772682D01*
X159573780Y-100752892D01*
X159557869Y-100731438D01*
X159544138Y-100708528D01*
X159532718Y-100684383D01*
X159523720Y-100659235D01*
X159517230Y-100633325D01*
X159513311Y-100606905D01*
X159512000Y-100580227D01*
X159512000Y-99622573D01*
X159513311Y-99595895D01*
X159517230Y-99569475D01*
X159523720Y-99543565D01*
X159532718Y-99518417D01*
X159544138Y-99494272D01*
X159557869Y-99471362D01*
X159573780Y-99449908D01*
X159591718Y-99430118D01*
X159611508Y-99412180D01*
X159632962Y-99396269D01*
X159655872Y-99382538D01*
X159680017Y-99371118D01*
X159705165Y-99362120D01*
X159731075Y-99355630D01*
X159757495Y-99351711D01*
X159784173Y-99350400D01*
X160491827Y-99350400D01*
X160518505Y-99351711D01*
X160518505Y-99351711D01*
G37*
D16*
X160138000Y-100101400D03*
D15*
G36*
X162543105Y-119239911D02*
G01*
X162569525Y-119243830D01*
X162595435Y-119250320D01*
X162620583Y-119259318D01*
X162644728Y-119270738D01*
X162667638Y-119284469D01*
X162689092Y-119300380D01*
X162708882Y-119318318D01*
X162726820Y-119338108D01*
X162742731Y-119359562D01*
X162756462Y-119382472D01*
X162767882Y-119406617D01*
X162776880Y-119431765D01*
X162783370Y-119457675D01*
X162787289Y-119484095D01*
X162788600Y-119510773D01*
X162788600Y-120468427D01*
X162787289Y-120495105D01*
X162783370Y-120521525D01*
X162776880Y-120547435D01*
X162767882Y-120572583D01*
X162756462Y-120596728D01*
X162742731Y-120619638D01*
X162726820Y-120641092D01*
X162708882Y-120660882D01*
X162689092Y-120678820D01*
X162667638Y-120694731D01*
X162644728Y-120708462D01*
X162620583Y-120719882D01*
X162595435Y-120728880D01*
X162569525Y-120735370D01*
X162543105Y-120739289D01*
X162516427Y-120740600D01*
X161808773Y-120740600D01*
X161782095Y-120739289D01*
X161755675Y-120735370D01*
X161729765Y-120728880D01*
X161704617Y-120719882D01*
X161680472Y-120708462D01*
X161657562Y-120694731D01*
X161636108Y-120678820D01*
X161616318Y-120660882D01*
X161598380Y-120641092D01*
X161582469Y-120619638D01*
X161568738Y-120596728D01*
X161557318Y-120572583D01*
X161548320Y-120547435D01*
X161541830Y-120521525D01*
X161537911Y-120495105D01*
X161536600Y-120468427D01*
X161536600Y-119510773D01*
X161537911Y-119484095D01*
X161541830Y-119457675D01*
X161548320Y-119431765D01*
X161557318Y-119406617D01*
X161568738Y-119382472D01*
X161582469Y-119359562D01*
X161598380Y-119338108D01*
X161616318Y-119318318D01*
X161636108Y-119300380D01*
X161657562Y-119284469D01*
X161680472Y-119270738D01*
X161704617Y-119259318D01*
X161729765Y-119250320D01*
X161755675Y-119243830D01*
X161782095Y-119239911D01*
X161808773Y-119238600D01*
X162516427Y-119238600D01*
X162543105Y-119239911D01*
X162543105Y-119239911D01*
G37*
D16*
X162162600Y-119989600D03*
D15*
G36*
X160493105Y-119239911D02*
G01*
X160519525Y-119243830D01*
X160545435Y-119250320D01*
X160570583Y-119259318D01*
X160594728Y-119270738D01*
X160617638Y-119284469D01*
X160639092Y-119300380D01*
X160658882Y-119318318D01*
X160676820Y-119338108D01*
X160692731Y-119359562D01*
X160706462Y-119382472D01*
X160717882Y-119406617D01*
X160726880Y-119431765D01*
X160733370Y-119457675D01*
X160737289Y-119484095D01*
X160738600Y-119510773D01*
X160738600Y-120468427D01*
X160737289Y-120495105D01*
X160733370Y-120521525D01*
X160726880Y-120547435D01*
X160717882Y-120572583D01*
X160706462Y-120596728D01*
X160692731Y-120619638D01*
X160676820Y-120641092D01*
X160658882Y-120660882D01*
X160639092Y-120678820D01*
X160617638Y-120694731D01*
X160594728Y-120708462D01*
X160570583Y-120719882D01*
X160545435Y-120728880D01*
X160519525Y-120735370D01*
X160493105Y-120739289D01*
X160466427Y-120740600D01*
X159758773Y-120740600D01*
X159732095Y-120739289D01*
X159705675Y-120735370D01*
X159679765Y-120728880D01*
X159654617Y-120719882D01*
X159630472Y-120708462D01*
X159607562Y-120694731D01*
X159586108Y-120678820D01*
X159566318Y-120660882D01*
X159548380Y-120641092D01*
X159532469Y-120619638D01*
X159518738Y-120596728D01*
X159507318Y-120572583D01*
X159498320Y-120547435D01*
X159491830Y-120521525D01*
X159487911Y-120495105D01*
X159486600Y-120468427D01*
X159486600Y-119510773D01*
X159487911Y-119484095D01*
X159491830Y-119457675D01*
X159498320Y-119431765D01*
X159507318Y-119406617D01*
X159518738Y-119382472D01*
X159532469Y-119359562D01*
X159548380Y-119338108D01*
X159566318Y-119318318D01*
X159586108Y-119300380D01*
X159607562Y-119284469D01*
X159630472Y-119270738D01*
X159654617Y-119259318D01*
X159679765Y-119250320D01*
X159705675Y-119243830D01*
X159732095Y-119239911D01*
X159758773Y-119238600D01*
X160466427Y-119238600D01*
X160493105Y-119239911D01*
X160493105Y-119239911D01*
G37*
D16*
X160112600Y-119989600D03*
D15*
G36*
X160493105Y-121627511D02*
G01*
X160519525Y-121631430D01*
X160545435Y-121637920D01*
X160570583Y-121646918D01*
X160594728Y-121658338D01*
X160617638Y-121672069D01*
X160639092Y-121687980D01*
X160658882Y-121705918D01*
X160676820Y-121725708D01*
X160692731Y-121747162D01*
X160706462Y-121770072D01*
X160717882Y-121794217D01*
X160726880Y-121819365D01*
X160733370Y-121845275D01*
X160737289Y-121871695D01*
X160738600Y-121898373D01*
X160738600Y-122856027D01*
X160737289Y-122882705D01*
X160733370Y-122909125D01*
X160726880Y-122935035D01*
X160717882Y-122960183D01*
X160706462Y-122984328D01*
X160692731Y-123007238D01*
X160676820Y-123028692D01*
X160658882Y-123048482D01*
X160639092Y-123066420D01*
X160617638Y-123082331D01*
X160594728Y-123096062D01*
X160570583Y-123107482D01*
X160545435Y-123116480D01*
X160519525Y-123122970D01*
X160493105Y-123126889D01*
X160466427Y-123128200D01*
X159758773Y-123128200D01*
X159732095Y-123126889D01*
X159705675Y-123122970D01*
X159679765Y-123116480D01*
X159654617Y-123107482D01*
X159630472Y-123096062D01*
X159607562Y-123082331D01*
X159586108Y-123066420D01*
X159566318Y-123048482D01*
X159548380Y-123028692D01*
X159532469Y-123007238D01*
X159518738Y-122984328D01*
X159507318Y-122960183D01*
X159498320Y-122935035D01*
X159491830Y-122909125D01*
X159487911Y-122882705D01*
X159486600Y-122856027D01*
X159486600Y-121898373D01*
X159487911Y-121871695D01*
X159491830Y-121845275D01*
X159498320Y-121819365D01*
X159507318Y-121794217D01*
X159518738Y-121770072D01*
X159532469Y-121747162D01*
X159548380Y-121725708D01*
X159566318Y-121705918D01*
X159586108Y-121687980D01*
X159607562Y-121672069D01*
X159630472Y-121658338D01*
X159654617Y-121646918D01*
X159679765Y-121637920D01*
X159705675Y-121631430D01*
X159732095Y-121627511D01*
X159758773Y-121626200D01*
X160466427Y-121626200D01*
X160493105Y-121627511D01*
X160493105Y-121627511D01*
G37*
D16*
X160112600Y-122377200D03*
D15*
G36*
X162543105Y-121627511D02*
G01*
X162569525Y-121631430D01*
X162595435Y-121637920D01*
X162620583Y-121646918D01*
X162644728Y-121658338D01*
X162667638Y-121672069D01*
X162689092Y-121687980D01*
X162708882Y-121705918D01*
X162726820Y-121725708D01*
X162742731Y-121747162D01*
X162756462Y-121770072D01*
X162767882Y-121794217D01*
X162776880Y-121819365D01*
X162783370Y-121845275D01*
X162787289Y-121871695D01*
X162788600Y-121898373D01*
X162788600Y-122856027D01*
X162787289Y-122882705D01*
X162783370Y-122909125D01*
X162776880Y-122935035D01*
X162767882Y-122960183D01*
X162756462Y-122984328D01*
X162742731Y-123007238D01*
X162726820Y-123028692D01*
X162708882Y-123048482D01*
X162689092Y-123066420D01*
X162667638Y-123082331D01*
X162644728Y-123096062D01*
X162620583Y-123107482D01*
X162595435Y-123116480D01*
X162569525Y-123122970D01*
X162543105Y-123126889D01*
X162516427Y-123128200D01*
X161808773Y-123128200D01*
X161782095Y-123126889D01*
X161755675Y-123122970D01*
X161729765Y-123116480D01*
X161704617Y-123107482D01*
X161680472Y-123096062D01*
X161657562Y-123082331D01*
X161636108Y-123066420D01*
X161616318Y-123048482D01*
X161598380Y-123028692D01*
X161582469Y-123007238D01*
X161568738Y-122984328D01*
X161557318Y-122960183D01*
X161548320Y-122935035D01*
X161541830Y-122909125D01*
X161537911Y-122882705D01*
X161536600Y-122856027D01*
X161536600Y-121898373D01*
X161537911Y-121871695D01*
X161541830Y-121845275D01*
X161548320Y-121819365D01*
X161557318Y-121794217D01*
X161568738Y-121770072D01*
X161582469Y-121747162D01*
X161598380Y-121725708D01*
X161616318Y-121705918D01*
X161636108Y-121687980D01*
X161657562Y-121672069D01*
X161680472Y-121658338D01*
X161704617Y-121646918D01*
X161729765Y-121637920D01*
X161755675Y-121631430D01*
X161782095Y-121627511D01*
X161808773Y-121626200D01*
X162516427Y-121626200D01*
X162543105Y-121627511D01*
X162543105Y-121627511D01*
G37*
D16*
X162162600Y-122377200D03*
D23*
X156816000Y-39934600D03*
X156816000Y-40584600D03*
X156816000Y-41234600D03*
X156816000Y-41884600D03*
X156816000Y-42534600D03*
X156816000Y-43184600D03*
X156816000Y-43834600D03*
X162716000Y-43834600D03*
X162716000Y-43184600D03*
X162716000Y-42534600D03*
X162716000Y-41884600D03*
X162716000Y-41234600D03*
X162716000Y-40584600D03*
X162716000Y-39934600D03*
X157451000Y-113176600D03*
X157451000Y-112526600D03*
X157451000Y-111876600D03*
X157451000Y-111226600D03*
X157451000Y-110576600D03*
X157451000Y-109926600D03*
X157451000Y-109276600D03*
X163351000Y-109276600D03*
X163351000Y-109926600D03*
X163351000Y-110576600D03*
X163351000Y-111226600D03*
X163351000Y-111876600D03*
X163351000Y-112526600D03*
X163351000Y-113176600D03*
D17*
X166248400Y-81737200D03*
X163748400Y-81737200D03*
X166578600Y-70866000D03*
X164078600Y-70866000D03*
M02*
