G04 #@! TF.GenerationSoftware,KiCad,Pcbnew,(5.1.2-1)-1*
G04 #@! TF.CreationDate,2020-08-10T22:20:09-07:00*
G04 #@! TF.ProjectId,active_dual_mult,61637469-7665-45f6-9475-616c5f6d756c,rev?*
G04 #@! TF.SameCoordinates,Original*
G04 #@! TF.FileFunction,Legend,Bot*
G04 #@! TF.FilePolarity,Positive*
%FSLAX46Y46*%
G04 Gerber Fmt 4.6, Leading zero omitted, Abs format (unit mm)*
G04 Created by KiCad (PCBNEW (5.1.2-1)-1) date 2020-08-10 22:20:09*
%MOMM*%
%LPD*%
G04 APERTURE LIST*
%ADD10C,0.120000*%
%ADD11C,0.150000*%
%ADD12C,2.232000*%
%ADD13R,1.932000X2.032000*%
%ADD14O,1.802000X1.802000*%
%ADD15R,1.802000X1.802000*%
G04 APERTURE END LIST*
D10*
X153559000Y-84055400D02*
X153559000Y-84915400D01*
X153559000Y-84055400D02*
X154359000Y-84055400D01*
X162839000Y-85115400D02*
G75*
G03X162839000Y-85115400I-1800000J0D01*
G01*
X156539000Y-84765400D02*
X156539000Y-80615400D01*
X156539000Y-89615400D02*
X156539000Y-85465400D01*
X167039000Y-84615400D02*
X167039000Y-80615400D01*
X167039000Y-89615400D02*
X167039000Y-85615400D01*
X156539000Y-89615400D02*
X167039000Y-89615400D01*
X156539000Y-80615400D02*
X167039000Y-80615400D01*
X164263000Y-71886200D02*
X153763000Y-71886200D01*
X164263000Y-62886200D02*
X153763000Y-62886200D01*
X153763000Y-62886200D02*
X153763000Y-66886200D01*
X153763000Y-67886200D02*
X153763000Y-71886200D01*
X164263000Y-62886200D02*
X164263000Y-67036200D01*
X164263000Y-67736200D02*
X164263000Y-71886200D01*
X161563000Y-67386200D02*
G75*
G03X161563000Y-67386200I-1800000J0D01*
G01*
X167243000Y-68446200D02*
X166443000Y-68446200D01*
X167243000Y-68446200D02*
X167243000Y-67586200D01*
X164263000Y-61726200D02*
X153763000Y-61726200D01*
X164263000Y-52726200D02*
X153763000Y-52726200D01*
X153763000Y-52726200D02*
X153763000Y-56726200D01*
X153763000Y-57726200D02*
X153763000Y-61726200D01*
X164263000Y-52726200D02*
X164263000Y-56876200D01*
X164263000Y-57576200D02*
X164263000Y-61726200D01*
X161563000Y-57226200D02*
G75*
G03X161563000Y-57226200I-1800000J0D01*
G01*
X167243000Y-58286200D02*
X166443000Y-58286200D01*
X167243000Y-58286200D02*
X167243000Y-57426200D01*
X167243000Y-48126200D02*
X167243000Y-47266200D01*
X167243000Y-48126200D02*
X166443000Y-48126200D01*
X161563000Y-47066200D02*
G75*
G03X161563000Y-47066200I-1800000J0D01*
G01*
X164263000Y-47416200D02*
X164263000Y-51566200D01*
X164263000Y-42566200D02*
X164263000Y-46716200D01*
X153763000Y-47566200D02*
X153763000Y-51566200D01*
X153763000Y-42566200D02*
X153763000Y-46566200D01*
X164263000Y-42566200D02*
X153763000Y-42566200D01*
X164263000Y-51566200D02*
X153763000Y-51566200D01*
X167268400Y-37966200D02*
X167268400Y-37106200D01*
X167268400Y-37966200D02*
X166468400Y-37966200D01*
X161588400Y-36906200D02*
G75*
G03X161588400Y-36906200I-1800000J0D01*
G01*
X164288400Y-37256200D02*
X164288400Y-41406200D01*
X164288400Y-32406200D02*
X164288400Y-36556200D01*
X153788400Y-37406200D02*
X153788400Y-41406200D01*
X153788400Y-32406200D02*
X153788400Y-36406200D01*
X164288400Y-32406200D02*
X153788400Y-32406200D01*
X164288400Y-41406200D02*
X153788400Y-41406200D01*
X164313800Y-31246200D02*
X153813800Y-31246200D01*
X164313800Y-22246200D02*
X153813800Y-22246200D01*
X153813800Y-22246200D02*
X153813800Y-26246200D01*
X153813800Y-27246200D02*
X153813800Y-31246200D01*
X164313800Y-22246200D02*
X164313800Y-26396200D01*
X164313800Y-27096200D02*
X164313800Y-31246200D01*
X161613800Y-26746200D02*
G75*
G03X161613800Y-26746200I-1800000J0D01*
G01*
X167293800Y-27806200D02*
X166493800Y-27806200D01*
X167293800Y-27806200D02*
X167293800Y-26946200D01*
X153635200Y-94520200D02*
X153635200Y-95380200D01*
X153635200Y-94520200D02*
X154435200Y-94520200D01*
X162915200Y-95580200D02*
G75*
G03X162915200Y-95580200I-1800000J0D01*
G01*
X156615200Y-95230200D02*
X156615200Y-91080200D01*
X156615200Y-100080200D02*
X156615200Y-95930200D01*
X167115200Y-95080200D02*
X167115200Y-91080200D01*
X167115200Y-100080200D02*
X167115200Y-96080200D01*
X156615200Y-100080200D02*
X167115200Y-100080200D01*
X156615200Y-91080200D02*
X167115200Y-91080200D01*
X156589800Y-111679600D02*
X167089800Y-111679600D01*
X156589800Y-120679600D02*
X167089800Y-120679600D01*
X167089800Y-120679600D02*
X167089800Y-116679600D01*
X167089800Y-115679600D02*
X167089800Y-111679600D01*
X156589800Y-120679600D02*
X156589800Y-116529600D01*
X156589800Y-115829600D02*
X156589800Y-111679600D01*
X162889800Y-116179600D02*
G75*
G03X162889800Y-116179600I-1800000J0D01*
G01*
X153609800Y-115119600D02*
X154409800Y-115119600D01*
X153609800Y-115119600D02*
X153609800Y-115979600D01*
X153609800Y-125228800D02*
X153609800Y-126088800D01*
X153609800Y-125228800D02*
X154409800Y-125228800D01*
X162889800Y-126288800D02*
G75*
G03X162889800Y-126288800I-1800000J0D01*
G01*
X156589800Y-125938800D02*
X156589800Y-121788800D01*
X156589800Y-130788800D02*
X156589800Y-126638800D01*
X167089800Y-125788800D02*
X167089800Y-121788800D01*
X167089800Y-130788800D02*
X167089800Y-126788800D01*
X156589800Y-130788800D02*
X167089800Y-130788800D01*
X156589800Y-121788800D02*
X167089800Y-121788800D01*
X156615200Y-101519600D02*
X167115200Y-101519600D01*
X156615200Y-110519600D02*
X167115200Y-110519600D01*
X167115200Y-110519600D02*
X167115200Y-106519600D01*
X167115200Y-105519600D02*
X167115200Y-101519600D01*
X156615200Y-110519600D02*
X156615200Y-106369600D01*
X156615200Y-105669600D02*
X156615200Y-101519600D01*
X162915200Y-106019600D02*
G75*
G03X162915200Y-106019600I-1800000J0D01*
G01*
X153635200Y-104959600D02*
X154435200Y-104959600D01*
X153635200Y-104959600D02*
X153635200Y-105819600D01*
D11*
X155091380Y-80752066D02*
X155805666Y-80752066D01*
X155948523Y-80704447D01*
X156043761Y-80609209D01*
X156091380Y-80466352D01*
X156091380Y-80371114D01*
X155091380Y-81133019D02*
X155091380Y-81799685D01*
X156091380Y-81371114D01*
X164615380Y-71082866D02*
X165329666Y-71082866D01*
X165472523Y-71035247D01*
X165567761Y-70940009D01*
X165615380Y-70797152D01*
X165615380Y-70701914D01*
X164710619Y-71511438D02*
X164663000Y-71559057D01*
X164615380Y-71654295D01*
X164615380Y-71892390D01*
X164663000Y-71987628D01*
X164710619Y-72035247D01*
X164805857Y-72082866D01*
X164901095Y-72082866D01*
X165043952Y-72035247D01*
X165615380Y-71463819D01*
X165615380Y-72082866D01*
X164615380Y-60922866D02*
X165329666Y-60922866D01*
X165472523Y-60875247D01*
X165567761Y-60780009D01*
X165615380Y-60637152D01*
X165615380Y-60541914D01*
X164615380Y-61303819D02*
X164615380Y-61922866D01*
X164996333Y-61589533D01*
X164996333Y-61732390D01*
X165043952Y-61827628D01*
X165091571Y-61875247D01*
X165186809Y-61922866D01*
X165424904Y-61922866D01*
X165520142Y-61875247D01*
X165567761Y-61827628D01*
X165615380Y-61732390D01*
X165615380Y-61446676D01*
X165567761Y-61351438D01*
X165520142Y-61303819D01*
X164615380Y-50762866D02*
X165329666Y-50762866D01*
X165472523Y-50715247D01*
X165567761Y-50620009D01*
X165615380Y-50477152D01*
X165615380Y-50381914D01*
X164948714Y-51667628D02*
X165615380Y-51667628D01*
X164567761Y-51429533D02*
X165282047Y-51191438D01*
X165282047Y-51810485D01*
X164640780Y-40602866D02*
X165355066Y-40602866D01*
X165497923Y-40555247D01*
X165593161Y-40460009D01*
X165640780Y-40317152D01*
X165640780Y-40221914D01*
X164640780Y-41555247D02*
X164640780Y-41079057D01*
X165116971Y-41031438D01*
X165069352Y-41079057D01*
X165021733Y-41174295D01*
X165021733Y-41412390D01*
X165069352Y-41507628D01*
X165116971Y-41555247D01*
X165212209Y-41602866D01*
X165450304Y-41602866D01*
X165545542Y-41555247D01*
X165593161Y-41507628D01*
X165640780Y-41412390D01*
X165640780Y-41174295D01*
X165593161Y-41079057D01*
X165545542Y-41031438D01*
X164666180Y-30442866D02*
X165380466Y-30442866D01*
X165523323Y-30395247D01*
X165618561Y-30300009D01*
X165666180Y-30157152D01*
X165666180Y-30061914D01*
X164666180Y-31347628D02*
X164666180Y-31157152D01*
X164713800Y-31061914D01*
X164761419Y-31014295D01*
X164904276Y-30919057D01*
X165094752Y-30871438D01*
X165475704Y-30871438D01*
X165570942Y-30919057D01*
X165618561Y-30966676D01*
X165666180Y-31061914D01*
X165666180Y-31252390D01*
X165618561Y-31347628D01*
X165570942Y-31395247D01*
X165475704Y-31442866D01*
X165237609Y-31442866D01*
X165142371Y-31395247D01*
X165094752Y-31347628D01*
X165047133Y-31252390D01*
X165047133Y-31061914D01*
X165094752Y-30966676D01*
X165142371Y-30919057D01*
X165237609Y-30871438D01*
X155167580Y-91216866D02*
X155881866Y-91216866D01*
X156024723Y-91169247D01*
X156119961Y-91074009D01*
X156167580Y-90931152D01*
X156167580Y-90835914D01*
X155596152Y-91835914D02*
X155548533Y-91740676D01*
X155500914Y-91693057D01*
X155405676Y-91645438D01*
X155358057Y-91645438D01*
X155262819Y-91693057D01*
X155215200Y-91740676D01*
X155167580Y-91835914D01*
X155167580Y-92026390D01*
X155215200Y-92121628D01*
X155262819Y-92169247D01*
X155358057Y-92216866D01*
X155405676Y-92216866D01*
X155500914Y-92169247D01*
X155548533Y-92121628D01*
X155596152Y-92026390D01*
X155596152Y-91835914D01*
X155643771Y-91740676D01*
X155691390Y-91693057D01*
X155786628Y-91645438D01*
X155977104Y-91645438D01*
X156072342Y-91693057D01*
X156119961Y-91740676D01*
X156167580Y-91835914D01*
X156167580Y-92026390D01*
X156119961Y-92121628D01*
X156072342Y-92169247D01*
X155977104Y-92216866D01*
X155786628Y-92216866D01*
X155691390Y-92169247D01*
X155643771Y-92121628D01*
X155596152Y-92026390D01*
X155142180Y-111340076D02*
X155856466Y-111340076D01*
X155999323Y-111292457D01*
X156094561Y-111197219D01*
X156142180Y-111054361D01*
X156142180Y-110959123D01*
X156142180Y-112340076D02*
X156142180Y-111768647D01*
X156142180Y-112054361D02*
X155142180Y-112054361D01*
X155285038Y-111959123D01*
X155380276Y-111863885D01*
X155427895Y-111768647D01*
X155142180Y-112959123D02*
X155142180Y-113054361D01*
X155189800Y-113149600D01*
X155237419Y-113197219D01*
X155332657Y-113244838D01*
X155523133Y-113292457D01*
X155761228Y-113292457D01*
X155951704Y-113244838D01*
X156046942Y-113197219D01*
X156094561Y-113149600D01*
X156142180Y-113054361D01*
X156142180Y-112959123D01*
X156094561Y-112863885D01*
X156046942Y-112816266D01*
X155951704Y-112768647D01*
X155761228Y-112721028D01*
X155523133Y-112721028D01*
X155332657Y-112768647D01*
X155237419Y-112816266D01*
X155189800Y-112863885D01*
X155142180Y-112959123D01*
X155142180Y-121449276D02*
X155856466Y-121449276D01*
X155999323Y-121401657D01*
X156094561Y-121306419D01*
X156142180Y-121163561D01*
X156142180Y-121068323D01*
X156142180Y-122449276D02*
X156142180Y-121877847D01*
X156142180Y-122163561D02*
X155142180Y-122163561D01*
X155285038Y-122068323D01*
X155380276Y-121973085D01*
X155427895Y-121877847D01*
X156142180Y-123401657D02*
X156142180Y-122830228D01*
X156142180Y-123115942D02*
X155142180Y-123115942D01*
X155285038Y-123020704D01*
X155380276Y-122925466D01*
X155427895Y-122830228D01*
X155167580Y-101656266D02*
X155881866Y-101656266D01*
X156024723Y-101608647D01*
X156119961Y-101513409D01*
X156167580Y-101370552D01*
X156167580Y-101275314D01*
X156167580Y-102180076D02*
X156167580Y-102370552D01*
X156119961Y-102465790D01*
X156072342Y-102513409D01*
X155929485Y-102608647D01*
X155739009Y-102656266D01*
X155358057Y-102656266D01*
X155262819Y-102608647D01*
X155215200Y-102561028D01*
X155167580Y-102465790D01*
X155167580Y-102275314D01*
X155215200Y-102180076D01*
X155262819Y-102132457D01*
X155358057Y-102084838D01*
X155596152Y-102084838D01*
X155691390Y-102132457D01*
X155739009Y-102180076D01*
X155786628Y-102275314D01*
X155786628Y-102465790D01*
X155739009Y-102561028D01*
X155691390Y-102608647D01*
X155596152Y-102656266D01*
%LPC*%
D12*
X165959000Y-85115400D03*
D13*
X154559000Y-85115400D03*
D12*
X157659000Y-85115400D03*
D14*
X155346400Y-77368400D03*
X155346400Y-74828400D03*
X157886400Y-77368400D03*
X157886400Y-74828400D03*
X160426400Y-77368400D03*
X160426400Y-74828400D03*
X162966400Y-77368400D03*
X162966400Y-74828400D03*
X165506400Y-77368400D03*
D15*
X165506400Y-74828400D03*
D12*
X163143000Y-67386200D03*
D13*
X166243000Y-67386200D03*
D12*
X154843000Y-67386200D03*
X163143000Y-57226200D03*
D13*
X166243000Y-57226200D03*
D12*
X154843000Y-57226200D03*
X154843000Y-47066200D03*
D13*
X166243000Y-47066200D03*
D12*
X163143000Y-47066200D03*
X154868400Y-36906200D03*
D13*
X166268400Y-36906200D03*
D12*
X163168400Y-36906200D03*
X163193800Y-26746200D03*
D13*
X166293800Y-26746200D03*
D12*
X154893800Y-26746200D03*
X166035200Y-95580200D03*
D13*
X154635200Y-95580200D03*
D12*
X157735200Y-95580200D03*
X157709800Y-116179600D03*
D13*
X154609800Y-116179600D03*
D12*
X166009800Y-116179600D03*
X166009800Y-126288800D03*
D13*
X154609800Y-126288800D03*
D12*
X157709800Y-126288800D03*
X157735200Y-106019600D03*
D13*
X154635200Y-106019600D03*
D12*
X166035200Y-106019600D03*
M02*
