G04 #@! TF.GenerationSoftware,KiCad,Pcbnew,(5.1.2-1)-1*
G04 #@! TF.CreationDate,2020-08-10T22:20:09-07:00*
G04 #@! TF.ProjectId,active_dual_mult,61637469-7665-45f6-9475-616c5f6d756c,rev?*
G04 #@! TF.SameCoordinates,Original*
G04 #@! TF.FileFunction,Paste,Top*
G04 #@! TF.FilePolarity,Positive*
%FSLAX46Y46*%
G04 Gerber Fmt 4.6, Leading zero omitted, Abs format (unit mm)*
G04 Created by KiCad (PCBNEW (5.1.2-1)-1) date 2020-08-10 22:20:09*
%MOMM*%
%LPD*%
G04 APERTURE LIST*
%ADD10C,0.100000*%
%ADD11C,1.150000*%
%ADD12R,1.000000X1.000000*%
%ADD13C,1.600000*%
%ADD14R,1.450000X0.450000*%
G04 APERTURE END LIST*
D10*
G36*
X160538305Y-101485404D02*
G01*
X160562573Y-101489004D01*
X160586372Y-101494965D01*
X160609471Y-101503230D01*
X160631650Y-101513720D01*
X160652693Y-101526332D01*
X160672399Y-101540947D01*
X160690577Y-101557423D01*
X160707053Y-101575601D01*
X160721668Y-101595307D01*
X160734280Y-101616350D01*
X160744770Y-101638529D01*
X160753035Y-101661628D01*
X160758996Y-101685427D01*
X160762596Y-101709695D01*
X160763800Y-101734199D01*
X160763800Y-102634201D01*
X160762596Y-102658705D01*
X160758996Y-102682973D01*
X160753035Y-102706772D01*
X160744770Y-102729871D01*
X160734280Y-102752050D01*
X160721668Y-102773093D01*
X160707053Y-102792799D01*
X160690577Y-102810977D01*
X160672399Y-102827453D01*
X160652693Y-102842068D01*
X160631650Y-102854680D01*
X160609471Y-102865170D01*
X160586372Y-102873435D01*
X160562573Y-102879396D01*
X160538305Y-102882996D01*
X160513801Y-102884200D01*
X159863799Y-102884200D01*
X159839295Y-102882996D01*
X159815027Y-102879396D01*
X159791228Y-102873435D01*
X159768129Y-102865170D01*
X159745950Y-102854680D01*
X159724907Y-102842068D01*
X159705201Y-102827453D01*
X159687023Y-102810977D01*
X159670547Y-102792799D01*
X159655932Y-102773093D01*
X159643320Y-102752050D01*
X159632830Y-102729871D01*
X159624565Y-102706772D01*
X159618604Y-102682973D01*
X159615004Y-102658705D01*
X159613800Y-102634201D01*
X159613800Y-101734199D01*
X159615004Y-101709695D01*
X159618604Y-101685427D01*
X159624565Y-101661628D01*
X159632830Y-101638529D01*
X159643320Y-101616350D01*
X159655932Y-101595307D01*
X159670547Y-101575601D01*
X159687023Y-101557423D01*
X159705201Y-101540947D01*
X159724907Y-101526332D01*
X159745950Y-101513720D01*
X159768129Y-101503230D01*
X159791228Y-101494965D01*
X159815027Y-101489004D01*
X159839295Y-101485404D01*
X159863799Y-101484200D01*
X160513801Y-101484200D01*
X160538305Y-101485404D01*
X160538305Y-101485404D01*
G37*
D11*
X160188800Y-102184200D03*
D10*
G36*
X162588305Y-101485404D02*
G01*
X162612573Y-101489004D01*
X162636372Y-101494965D01*
X162659471Y-101503230D01*
X162681650Y-101513720D01*
X162702693Y-101526332D01*
X162722399Y-101540947D01*
X162740577Y-101557423D01*
X162757053Y-101575601D01*
X162771668Y-101595307D01*
X162784280Y-101616350D01*
X162794770Y-101638529D01*
X162803035Y-101661628D01*
X162808996Y-101685427D01*
X162812596Y-101709695D01*
X162813800Y-101734199D01*
X162813800Y-102634201D01*
X162812596Y-102658705D01*
X162808996Y-102682973D01*
X162803035Y-102706772D01*
X162794770Y-102729871D01*
X162784280Y-102752050D01*
X162771668Y-102773093D01*
X162757053Y-102792799D01*
X162740577Y-102810977D01*
X162722399Y-102827453D01*
X162702693Y-102842068D01*
X162681650Y-102854680D01*
X162659471Y-102865170D01*
X162636372Y-102873435D01*
X162612573Y-102879396D01*
X162588305Y-102882996D01*
X162563801Y-102884200D01*
X161913799Y-102884200D01*
X161889295Y-102882996D01*
X161865027Y-102879396D01*
X161841228Y-102873435D01*
X161818129Y-102865170D01*
X161795950Y-102854680D01*
X161774907Y-102842068D01*
X161755201Y-102827453D01*
X161737023Y-102810977D01*
X161720547Y-102792799D01*
X161705932Y-102773093D01*
X161693320Y-102752050D01*
X161682830Y-102729871D01*
X161674565Y-102706772D01*
X161668604Y-102682973D01*
X161665004Y-102658705D01*
X161663800Y-102634201D01*
X161663800Y-101734199D01*
X161665004Y-101709695D01*
X161668604Y-101685427D01*
X161674565Y-101661628D01*
X161682830Y-101638529D01*
X161693320Y-101616350D01*
X161705932Y-101595307D01*
X161720547Y-101575601D01*
X161737023Y-101557423D01*
X161755201Y-101540947D01*
X161774907Y-101526332D01*
X161795950Y-101513720D01*
X161818129Y-101503230D01*
X161841228Y-101494965D01*
X161865027Y-101489004D01*
X161889295Y-101485404D01*
X161913799Y-101484200D01*
X162563801Y-101484200D01*
X162588305Y-101485404D01*
X162588305Y-101485404D01*
G37*
D11*
X162238800Y-102184200D03*
D12*
X154680600Y-81788000D03*
X157180600Y-81788000D03*
D10*
G36*
X155084305Y-41675404D02*
G01*
X155108573Y-41679004D01*
X155132372Y-41684965D01*
X155155471Y-41693230D01*
X155177650Y-41703720D01*
X155198693Y-41716332D01*
X155218399Y-41730947D01*
X155236577Y-41747423D01*
X155253053Y-41765601D01*
X155267668Y-41785307D01*
X155280280Y-41806350D01*
X155290770Y-41828529D01*
X155299035Y-41851628D01*
X155304996Y-41875427D01*
X155308596Y-41899695D01*
X155309800Y-41924199D01*
X155309800Y-42574201D01*
X155308596Y-42598705D01*
X155304996Y-42622973D01*
X155299035Y-42646772D01*
X155290770Y-42669871D01*
X155280280Y-42692050D01*
X155267668Y-42713093D01*
X155253053Y-42732799D01*
X155236577Y-42750977D01*
X155218399Y-42767453D01*
X155198693Y-42782068D01*
X155177650Y-42794680D01*
X155155471Y-42805170D01*
X155132372Y-42813435D01*
X155108573Y-42819396D01*
X155084305Y-42822996D01*
X155059801Y-42824200D01*
X154159799Y-42824200D01*
X154135295Y-42822996D01*
X154111027Y-42819396D01*
X154087228Y-42813435D01*
X154064129Y-42805170D01*
X154041950Y-42794680D01*
X154020907Y-42782068D01*
X154001201Y-42767453D01*
X153983023Y-42750977D01*
X153966547Y-42732799D01*
X153951932Y-42713093D01*
X153939320Y-42692050D01*
X153928830Y-42669871D01*
X153920565Y-42646772D01*
X153914604Y-42622973D01*
X153911004Y-42598705D01*
X153909800Y-42574201D01*
X153909800Y-41924199D01*
X153911004Y-41899695D01*
X153914604Y-41875427D01*
X153920565Y-41851628D01*
X153928830Y-41828529D01*
X153939320Y-41806350D01*
X153951932Y-41785307D01*
X153966547Y-41765601D01*
X153983023Y-41747423D01*
X154001201Y-41730947D01*
X154020907Y-41716332D01*
X154041950Y-41703720D01*
X154064129Y-41693230D01*
X154087228Y-41684965D01*
X154111027Y-41679004D01*
X154135295Y-41675404D01*
X154159799Y-41674200D01*
X155059801Y-41674200D01*
X155084305Y-41675404D01*
X155084305Y-41675404D01*
G37*
D11*
X154609800Y-42249200D03*
D10*
G36*
X155084305Y-39625404D02*
G01*
X155108573Y-39629004D01*
X155132372Y-39634965D01*
X155155471Y-39643230D01*
X155177650Y-39653720D01*
X155198693Y-39666332D01*
X155218399Y-39680947D01*
X155236577Y-39697423D01*
X155253053Y-39715601D01*
X155267668Y-39735307D01*
X155280280Y-39756350D01*
X155290770Y-39778529D01*
X155299035Y-39801628D01*
X155304996Y-39825427D01*
X155308596Y-39849695D01*
X155309800Y-39874199D01*
X155309800Y-40524201D01*
X155308596Y-40548705D01*
X155304996Y-40572973D01*
X155299035Y-40596772D01*
X155290770Y-40619871D01*
X155280280Y-40642050D01*
X155267668Y-40663093D01*
X155253053Y-40682799D01*
X155236577Y-40700977D01*
X155218399Y-40717453D01*
X155198693Y-40732068D01*
X155177650Y-40744680D01*
X155155471Y-40755170D01*
X155132372Y-40763435D01*
X155108573Y-40769396D01*
X155084305Y-40772996D01*
X155059801Y-40774200D01*
X154159799Y-40774200D01*
X154135295Y-40772996D01*
X154111027Y-40769396D01*
X154087228Y-40763435D01*
X154064129Y-40755170D01*
X154041950Y-40744680D01*
X154020907Y-40732068D01*
X154001201Y-40717453D01*
X153983023Y-40700977D01*
X153966547Y-40682799D01*
X153951932Y-40663093D01*
X153939320Y-40642050D01*
X153928830Y-40619871D01*
X153920565Y-40596772D01*
X153914604Y-40572973D01*
X153911004Y-40548705D01*
X153909800Y-40524201D01*
X153909800Y-39874199D01*
X153911004Y-39849695D01*
X153914604Y-39825427D01*
X153920565Y-39801628D01*
X153928830Y-39778529D01*
X153939320Y-39756350D01*
X153951932Y-39735307D01*
X153966547Y-39715601D01*
X153983023Y-39697423D01*
X154001201Y-39680947D01*
X154020907Y-39666332D01*
X154041950Y-39653720D01*
X154064129Y-39643230D01*
X154087228Y-39634965D01*
X154111027Y-39629004D01*
X154135295Y-39625404D01*
X154159799Y-39624200D01*
X155059801Y-39624200D01*
X155084305Y-39625404D01*
X155084305Y-39625404D01*
G37*
D11*
X154609800Y-40199200D03*
D12*
X156977400Y-70789800D03*
X154477400Y-70789800D03*
D10*
G36*
X156148104Y-61609004D02*
G01*
X156172373Y-61612604D01*
X156196171Y-61618565D01*
X156219271Y-61626830D01*
X156241449Y-61637320D01*
X156262493Y-61649933D01*
X156282198Y-61664547D01*
X156300377Y-61681023D01*
X156316853Y-61699202D01*
X156331467Y-61718907D01*
X156344080Y-61739951D01*
X156354570Y-61762129D01*
X156362835Y-61785229D01*
X156368796Y-61809027D01*
X156372396Y-61833296D01*
X156373600Y-61857800D01*
X156373600Y-62957800D01*
X156372396Y-62982304D01*
X156368796Y-63006573D01*
X156362835Y-63030371D01*
X156354570Y-63053471D01*
X156344080Y-63075649D01*
X156331467Y-63096693D01*
X156316853Y-63116398D01*
X156300377Y-63134577D01*
X156282198Y-63151053D01*
X156262493Y-63165667D01*
X156241449Y-63178280D01*
X156219271Y-63188770D01*
X156196171Y-63197035D01*
X156172373Y-63202996D01*
X156148104Y-63206596D01*
X156123600Y-63207800D01*
X153623600Y-63207800D01*
X153599096Y-63206596D01*
X153574827Y-63202996D01*
X153551029Y-63197035D01*
X153527929Y-63188770D01*
X153505751Y-63178280D01*
X153484707Y-63165667D01*
X153465002Y-63151053D01*
X153446823Y-63134577D01*
X153430347Y-63116398D01*
X153415733Y-63096693D01*
X153403120Y-63075649D01*
X153392630Y-63053471D01*
X153384365Y-63030371D01*
X153378404Y-63006573D01*
X153374804Y-62982304D01*
X153373600Y-62957800D01*
X153373600Y-61857800D01*
X153374804Y-61833296D01*
X153378404Y-61809027D01*
X153384365Y-61785229D01*
X153392630Y-61762129D01*
X153403120Y-61739951D01*
X153415733Y-61718907D01*
X153430347Y-61699202D01*
X153446823Y-61681023D01*
X153465002Y-61664547D01*
X153484707Y-61649933D01*
X153505751Y-61637320D01*
X153527929Y-61626830D01*
X153551029Y-61618565D01*
X153574827Y-61612604D01*
X153599096Y-61609004D01*
X153623600Y-61607800D01*
X156123600Y-61607800D01*
X156148104Y-61609004D01*
X156148104Y-61609004D01*
G37*
D13*
X154873600Y-62407800D03*
D10*
G36*
X160548104Y-61609004D02*
G01*
X160572373Y-61612604D01*
X160596171Y-61618565D01*
X160619271Y-61626830D01*
X160641449Y-61637320D01*
X160662493Y-61649933D01*
X160682198Y-61664547D01*
X160700377Y-61681023D01*
X160716853Y-61699202D01*
X160731467Y-61718907D01*
X160744080Y-61739951D01*
X160754570Y-61762129D01*
X160762835Y-61785229D01*
X160768796Y-61809027D01*
X160772396Y-61833296D01*
X160773600Y-61857800D01*
X160773600Y-62957800D01*
X160772396Y-62982304D01*
X160768796Y-63006573D01*
X160762835Y-63030371D01*
X160754570Y-63053471D01*
X160744080Y-63075649D01*
X160731467Y-63096693D01*
X160716853Y-63116398D01*
X160700377Y-63134577D01*
X160682198Y-63151053D01*
X160662493Y-63165667D01*
X160641449Y-63178280D01*
X160619271Y-63188770D01*
X160596171Y-63197035D01*
X160572373Y-63202996D01*
X160548104Y-63206596D01*
X160523600Y-63207800D01*
X158023600Y-63207800D01*
X157999096Y-63206596D01*
X157974827Y-63202996D01*
X157951029Y-63197035D01*
X157927929Y-63188770D01*
X157905751Y-63178280D01*
X157884707Y-63165667D01*
X157865002Y-63151053D01*
X157846823Y-63134577D01*
X157830347Y-63116398D01*
X157815733Y-63096693D01*
X157803120Y-63075649D01*
X157792630Y-63053471D01*
X157784365Y-63030371D01*
X157778404Y-63006573D01*
X157774804Y-62982304D01*
X157773600Y-62957800D01*
X157773600Y-61857800D01*
X157774804Y-61833296D01*
X157778404Y-61809027D01*
X157784365Y-61785229D01*
X157792630Y-61762129D01*
X157803120Y-61739951D01*
X157815733Y-61718907D01*
X157830347Y-61699202D01*
X157846823Y-61681023D01*
X157865002Y-61664547D01*
X157884707Y-61649933D01*
X157905751Y-61637320D01*
X157927929Y-61626830D01*
X157951029Y-61618565D01*
X157974827Y-61612604D01*
X157999096Y-61609004D01*
X158023600Y-61607800D01*
X160523600Y-61607800D01*
X160548104Y-61609004D01*
X160548104Y-61609004D01*
G37*
D13*
X159273600Y-62407800D03*
D10*
G36*
X156325904Y-89345804D02*
G01*
X156350173Y-89349404D01*
X156373971Y-89355365D01*
X156397071Y-89363630D01*
X156419249Y-89374120D01*
X156440293Y-89386733D01*
X156459998Y-89401347D01*
X156478177Y-89417823D01*
X156494653Y-89436002D01*
X156509267Y-89455707D01*
X156521880Y-89476751D01*
X156532370Y-89498929D01*
X156540635Y-89522029D01*
X156546596Y-89545827D01*
X156550196Y-89570096D01*
X156551400Y-89594600D01*
X156551400Y-90694600D01*
X156550196Y-90719104D01*
X156546596Y-90743373D01*
X156540635Y-90767171D01*
X156532370Y-90790271D01*
X156521880Y-90812449D01*
X156509267Y-90833493D01*
X156494653Y-90853198D01*
X156478177Y-90871377D01*
X156459998Y-90887853D01*
X156440293Y-90902467D01*
X156419249Y-90915080D01*
X156397071Y-90925570D01*
X156373971Y-90933835D01*
X156350173Y-90939796D01*
X156325904Y-90943396D01*
X156301400Y-90944600D01*
X153801400Y-90944600D01*
X153776896Y-90943396D01*
X153752627Y-90939796D01*
X153728829Y-90933835D01*
X153705729Y-90925570D01*
X153683551Y-90915080D01*
X153662507Y-90902467D01*
X153642802Y-90887853D01*
X153624623Y-90871377D01*
X153608147Y-90853198D01*
X153593533Y-90833493D01*
X153580920Y-90812449D01*
X153570430Y-90790271D01*
X153562165Y-90767171D01*
X153556204Y-90743373D01*
X153552604Y-90719104D01*
X153551400Y-90694600D01*
X153551400Y-89594600D01*
X153552604Y-89570096D01*
X153556204Y-89545827D01*
X153562165Y-89522029D01*
X153570430Y-89498929D01*
X153580920Y-89476751D01*
X153593533Y-89455707D01*
X153608147Y-89436002D01*
X153624623Y-89417823D01*
X153642802Y-89401347D01*
X153662507Y-89386733D01*
X153683551Y-89374120D01*
X153705729Y-89363630D01*
X153728829Y-89355365D01*
X153752627Y-89349404D01*
X153776896Y-89345804D01*
X153801400Y-89344600D01*
X156301400Y-89344600D01*
X156325904Y-89345804D01*
X156325904Y-89345804D01*
G37*
D13*
X155051400Y-90144600D03*
D10*
G36*
X160725904Y-89345804D02*
G01*
X160750173Y-89349404D01*
X160773971Y-89355365D01*
X160797071Y-89363630D01*
X160819249Y-89374120D01*
X160840293Y-89386733D01*
X160859998Y-89401347D01*
X160878177Y-89417823D01*
X160894653Y-89436002D01*
X160909267Y-89455707D01*
X160921880Y-89476751D01*
X160932370Y-89498929D01*
X160940635Y-89522029D01*
X160946596Y-89545827D01*
X160950196Y-89570096D01*
X160951400Y-89594600D01*
X160951400Y-90694600D01*
X160950196Y-90719104D01*
X160946596Y-90743373D01*
X160940635Y-90767171D01*
X160932370Y-90790271D01*
X160921880Y-90812449D01*
X160909267Y-90833493D01*
X160894653Y-90853198D01*
X160878177Y-90871377D01*
X160859998Y-90887853D01*
X160840293Y-90902467D01*
X160819249Y-90915080D01*
X160797071Y-90925570D01*
X160773971Y-90933835D01*
X160750173Y-90939796D01*
X160725904Y-90943396D01*
X160701400Y-90944600D01*
X158201400Y-90944600D01*
X158176896Y-90943396D01*
X158152627Y-90939796D01*
X158128829Y-90933835D01*
X158105729Y-90925570D01*
X158083551Y-90915080D01*
X158062507Y-90902467D01*
X158042802Y-90887853D01*
X158024623Y-90871377D01*
X158008147Y-90853198D01*
X157993533Y-90833493D01*
X157980920Y-90812449D01*
X157970430Y-90790271D01*
X157962165Y-90767171D01*
X157956204Y-90743373D01*
X157952604Y-90719104D01*
X157951400Y-90694600D01*
X157951400Y-89594600D01*
X157952604Y-89570096D01*
X157956204Y-89545827D01*
X157962165Y-89522029D01*
X157970430Y-89498929D01*
X157980920Y-89476751D01*
X157993533Y-89455707D01*
X158008147Y-89436002D01*
X158024623Y-89417823D01*
X158042802Y-89401347D01*
X158062507Y-89386733D01*
X158083551Y-89374120D01*
X158105729Y-89363630D01*
X158128829Y-89355365D01*
X158152627Y-89349404D01*
X158176896Y-89345804D01*
X158201400Y-89344600D01*
X160701400Y-89344600D01*
X160725904Y-89345804D01*
X160725904Y-89345804D01*
G37*
D13*
X159451400Y-90144600D03*
D10*
G36*
X166133305Y-40641404D02*
G01*
X166157573Y-40645004D01*
X166181372Y-40650965D01*
X166204471Y-40659230D01*
X166226650Y-40669720D01*
X166247693Y-40682332D01*
X166267399Y-40696947D01*
X166285577Y-40713423D01*
X166302053Y-40731601D01*
X166316668Y-40751307D01*
X166329280Y-40772350D01*
X166339770Y-40794529D01*
X166348035Y-40817628D01*
X166353996Y-40841427D01*
X166357596Y-40865695D01*
X166358800Y-40890199D01*
X166358800Y-41540201D01*
X166357596Y-41564705D01*
X166353996Y-41588973D01*
X166348035Y-41612772D01*
X166339770Y-41635871D01*
X166329280Y-41658050D01*
X166316668Y-41679093D01*
X166302053Y-41698799D01*
X166285577Y-41716977D01*
X166267399Y-41733453D01*
X166247693Y-41748068D01*
X166226650Y-41760680D01*
X166204471Y-41771170D01*
X166181372Y-41779435D01*
X166157573Y-41785396D01*
X166133305Y-41788996D01*
X166108801Y-41790200D01*
X165208799Y-41790200D01*
X165184295Y-41788996D01*
X165160027Y-41785396D01*
X165136228Y-41779435D01*
X165113129Y-41771170D01*
X165090950Y-41760680D01*
X165069907Y-41748068D01*
X165050201Y-41733453D01*
X165032023Y-41716977D01*
X165015547Y-41698799D01*
X165000932Y-41679093D01*
X164988320Y-41658050D01*
X164977830Y-41635871D01*
X164969565Y-41612772D01*
X164963604Y-41588973D01*
X164960004Y-41564705D01*
X164958800Y-41540201D01*
X164958800Y-40890199D01*
X164960004Y-40865695D01*
X164963604Y-40841427D01*
X164969565Y-40817628D01*
X164977830Y-40794529D01*
X164988320Y-40772350D01*
X165000932Y-40751307D01*
X165015547Y-40731601D01*
X165032023Y-40713423D01*
X165050201Y-40696947D01*
X165069907Y-40682332D01*
X165090950Y-40669720D01*
X165113129Y-40659230D01*
X165136228Y-40650965D01*
X165160027Y-40645004D01*
X165184295Y-40641404D01*
X165208799Y-40640200D01*
X166108801Y-40640200D01*
X166133305Y-40641404D01*
X166133305Y-40641404D01*
G37*
D11*
X165658800Y-41215200D03*
D10*
G36*
X166133305Y-42691404D02*
G01*
X166157573Y-42695004D01*
X166181372Y-42700965D01*
X166204471Y-42709230D01*
X166226650Y-42719720D01*
X166247693Y-42732332D01*
X166267399Y-42746947D01*
X166285577Y-42763423D01*
X166302053Y-42781601D01*
X166316668Y-42801307D01*
X166329280Y-42822350D01*
X166339770Y-42844529D01*
X166348035Y-42867628D01*
X166353996Y-42891427D01*
X166357596Y-42915695D01*
X166358800Y-42940199D01*
X166358800Y-43590201D01*
X166357596Y-43614705D01*
X166353996Y-43638973D01*
X166348035Y-43662772D01*
X166339770Y-43685871D01*
X166329280Y-43708050D01*
X166316668Y-43729093D01*
X166302053Y-43748799D01*
X166285577Y-43766977D01*
X166267399Y-43783453D01*
X166247693Y-43798068D01*
X166226650Y-43810680D01*
X166204471Y-43821170D01*
X166181372Y-43829435D01*
X166157573Y-43835396D01*
X166133305Y-43838996D01*
X166108801Y-43840200D01*
X165208799Y-43840200D01*
X165184295Y-43838996D01*
X165160027Y-43835396D01*
X165136228Y-43829435D01*
X165113129Y-43821170D01*
X165090950Y-43810680D01*
X165069907Y-43798068D01*
X165050201Y-43783453D01*
X165032023Y-43766977D01*
X165015547Y-43748799D01*
X165000932Y-43729093D01*
X164988320Y-43708050D01*
X164977830Y-43685871D01*
X164969565Y-43662772D01*
X164963604Y-43638973D01*
X164960004Y-43614705D01*
X164958800Y-43590201D01*
X164958800Y-42940199D01*
X164960004Y-42915695D01*
X164963604Y-42891427D01*
X164969565Y-42867628D01*
X164977830Y-42844529D01*
X164988320Y-42822350D01*
X165000932Y-42801307D01*
X165015547Y-42781601D01*
X165032023Y-42763423D01*
X165050201Y-42746947D01*
X165069907Y-42732332D01*
X165090950Y-42719720D01*
X165113129Y-42709230D01*
X165136228Y-42700965D01*
X165160027Y-42695004D01*
X165184295Y-42691404D01*
X165208799Y-42690200D01*
X166108801Y-42690200D01*
X166133305Y-42691404D01*
X166133305Y-42691404D01*
G37*
D11*
X165658800Y-43265200D03*
D10*
G36*
X166590505Y-110687204D02*
G01*
X166614773Y-110690804D01*
X166638572Y-110696765D01*
X166661671Y-110705030D01*
X166683850Y-110715520D01*
X166704893Y-110728132D01*
X166724599Y-110742747D01*
X166742777Y-110759223D01*
X166759253Y-110777401D01*
X166773868Y-110797107D01*
X166786480Y-110818150D01*
X166796970Y-110840329D01*
X166805235Y-110863428D01*
X166811196Y-110887227D01*
X166814796Y-110911495D01*
X166816000Y-110935999D01*
X166816000Y-111586001D01*
X166814796Y-111610505D01*
X166811196Y-111634773D01*
X166805235Y-111658572D01*
X166796970Y-111681671D01*
X166786480Y-111703850D01*
X166773868Y-111724893D01*
X166759253Y-111744599D01*
X166742777Y-111762777D01*
X166724599Y-111779253D01*
X166704893Y-111793868D01*
X166683850Y-111806480D01*
X166661671Y-111816970D01*
X166638572Y-111825235D01*
X166614773Y-111831196D01*
X166590505Y-111834796D01*
X166566001Y-111836000D01*
X165665999Y-111836000D01*
X165641495Y-111834796D01*
X165617227Y-111831196D01*
X165593428Y-111825235D01*
X165570329Y-111816970D01*
X165548150Y-111806480D01*
X165527107Y-111793868D01*
X165507401Y-111779253D01*
X165489223Y-111762777D01*
X165472747Y-111744599D01*
X165458132Y-111724893D01*
X165445520Y-111703850D01*
X165435030Y-111681671D01*
X165426765Y-111658572D01*
X165420804Y-111634773D01*
X165417204Y-111610505D01*
X165416000Y-111586001D01*
X165416000Y-110935999D01*
X165417204Y-110911495D01*
X165420804Y-110887227D01*
X165426765Y-110863428D01*
X165435030Y-110840329D01*
X165445520Y-110818150D01*
X165458132Y-110797107D01*
X165472747Y-110777401D01*
X165489223Y-110759223D01*
X165507401Y-110742747D01*
X165527107Y-110728132D01*
X165548150Y-110715520D01*
X165570329Y-110705030D01*
X165593428Y-110696765D01*
X165617227Y-110690804D01*
X165641495Y-110687204D01*
X165665999Y-110686000D01*
X166566001Y-110686000D01*
X166590505Y-110687204D01*
X166590505Y-110687204D01*
G37*
D11*
X166116000Y-111261000D03*
D10*
G36*
X166590505Y-108637204D02*
G01*
X166614773Y-108640804D01*
X166638572Y-108646765D01*
X166661671Y-108655030D01*
X166683850Y-108665520D01*
X166704893Y-108678132D01*
X166724599Y-108692747D01*
X166742777Y-108709223D01*
X166759253Y-108727401D01*
X166773868Y-108747107D01*
X166786480Y-108768150D01*
X166796970Y-108790329D01*
X166805235Y-108813428D01*
X166811196Y-108837227D01*
X166814796Y-108861495D01*
X166816000Y-108885999D01*
X166816000Y-109536001D01*
X166814796Y-109560505D01*
X166811196Y-109584773D01*
X166805235Y-109608572D01*
X166796970Y-109631671D01*
X166786480Y-109653850D01*
X166773868Y-109674893D01*
X166759253Y-109694599D01*
X166742777Y-109712777D01*
X166724599Y-109729253D01*
X166704893Y-109743868D01*
X166683850Y-109756480D01*
X166661671Y-109766970D01*
X166638572Y-109775235D01*
X166614773Y-109781196D01*
X166590505Y-109784796D01*
X166566001Y-109786000D01*
X165665999Y-109786000D01*
X165641495Y-109784796D01*
X165617227Y-109781196D01*
X165593428Y-109775235D01*
X165570329Y-109766970D01*
X165548150Y-109756480D01*
X165527107Y-109743868D01*
X165507401Y-109729253D01*
X165489223Y-109712777D01*
X165472747Y-109694599D01*
X165458132Y-109674893D01*
X165445520Y-109653850D01*
X165435030Y-109631671D01*
X165426765Y-109608572D01*
X165420804Y-109584773D01*
X165417204Y-109560505D01*
X165416000Y-109536001D01*
X165416000Y-108885999D01*
X165417204Y-108861495D01*
X165420804Y-108837227D01*
X165426765Y-108813428D01*
X165435030Y-108790329D01*
X165445520Y-108768150D01*
X165458132Y-108747107D01*
X165472747Y-108727401D01*
X165489223Y-108709223D01*
X165507401Y-108692747D01*
X165527107Y-108678132D01*
X165548150Y-108665520D01*
X165570329Y-108655030D01*
X165593428Y-108646765D01*
X165617227Y-108640804D01*
X165641495Y-108637204D01*
X165665999Y-108636000D01*
X166566001Y-108636000D01*
X166590505Y-108637204D01*
X166590505Y-108637204D01*
G37*
D11*
X166116000Y-109211000D03*
D10*
G36*
X155770105Y-108611804D02*
G01*
X155794373Y-108615404D01*
X155818172Y-108621365D01*
X155841271Y-108629630D01*
X155863450Y-108640120D01*
X155884493Y-108652732D01*
X155904199Y-108667347D01*
X155922377Y-108683823D01*
X155938853Y-108702001D01*
X155953468Y-108721707D01*
X155966080Y-108742750D01*
X155976570Y-108764929D01*
X155984835Y-108788028D01*
X155990796Y-108811827D01*
X155994396Y-108836095D01*
X155995600Y-108860599D01*
X155995600Y-109510601D01*
X155994396Y-109535105D01*
X155990796Y-109559373D01*
X155984835Y-109583172D01*
X155976570Y-109606271D01*
X155966080Y-109628450D01*
X155953468Y-109649493D01*
X155938853Y-109669199D01*
X155922377Y-109687377D01*
X155904199Y-109703853D01*
X155884493Y-109718468D01*
X155863450Y-109731080D01*
X155841271Y-109741570D01*
X155818172Y-109749835D01*
X155794373Y-109755796D01*
X155770105Y-109759396D01*
X155745601Y-109760600D01*
X154845599Y-109760600D01*
X154821095Y-109759396D01*
X154796827Y-109755796D01*
X154773028Y-109749835D01*
X154749929Y-109741570D01*
X154727750Y-109731080D01*
X154706707Y-109718468D01*
X154687001Y-109703853D01*
X154668823Y-109687377D01*
X154652347Y-109669199D01*
X154637732Y-109649493D01*
X154625120Y-109628450D01*
X154614630Y-109606271D01*
X154606365Y-109583172D01*
X154600404Y-109559373D01*
X154596804Y-109535105D01*
X154595600Y-109510601D01*
X154595600Y-108860599D01*
X154596804Y-108836095D01*
X154600404Y-108811827D01*
X154606365Y-108788028D01*
X154614630Y-108764929D01*
X154625120Y-108742750D01*
X154637732Y-108721707D01*
X154652347Y-108702001D01*
X154668823Y-108683823D01*
X154687001Y-108667347D01*
X154706707Y-108652732D01*
X154727750Y-108640120D01*
X154749929Y-108629630D01*
X154773028Y-108621365D01*
X154796827Y-108615404D01*
X154821095Y-108611804D01*
X154845599Y-108610600D01*
X155745601Y-108610600D01*
X155770105Y-108611804D01*
X155770105Y-108611804D01*
G37*
D11*
X155295600Y-109185600D03*
D10*
G36*
X155770105Y-110661804D02*
G01*
X155794373Y-110665404D01*
X155818172Y-110671365D01*
X155841271Y-110679630D01*
X155863450Y-110690120D01*
X155884493Y-110702732D01*
X155904199Y-110717347D01*
X155922377Y-110733823D01*
X155938853Y-110752001D01*
X155953468Y-110771707D01*
X155966080Y-110792750D01*
X155976570Y-110814929D01*
X155984835Y-110838028D01*
X155990796Y-110861827D01*
X155994396Y-110886095D01*
X155995600Y-110910599D01*
X155995600Y-111560601D01*
X155994396Y-111585105D01*
X155990796Y-111609373D01*
X155984835Y-111633172D01*
X155976570Y-111656271D01*
X155966080Y-111678450D01*
X155953468Y-111699493D01*
X155938853Y-111719199D01*
X155922377Y-111737377D01*
X155904199Y-111753853D01*
X155884493Y-111768468D01*
X155863450Y-111781080D01*
X155841271Y-111791570D01*
X155818172Y-111799835D01*
X155794373Y-111805796D01*
X155770105Y-111809396D01*
X155745601Y-111810600D01*
X154845599Y-111810600D01*
X154821095Y-111809396D01*
X154796827Y-111805796D01*
X154773028Y-111799835D01*
X154749929Y-111791570D01*
X154727750Y-111781080D01*
X154706707Y-111768468D01*
X154687001Y-111753853D01*
X154668823Y-111737377D01*
X154652347Y-111719199D01*
X154637732Y-111699493D01*
X154625120Y-111678450D01*
X154614630Y-111656271D01*
X154606365Y-111633172D01*
X154600404Y-111609373D01*
X154596804Y-111585105D01*
X154595600Y-111560601D01*
X154595600Y-110910599D01*
X154596804Y-110886095D01*
X154600404Y-110861827D01*
X154606365Y-110838028D01*
X154614630Y-110814929D01*
X154625120Y-110792750D01*
X154637732Y-110771707D01*
X154652347Y-110752001D01*
X154668823Y-110733823D01*
X154687001Y-110717347D01*
X154706707Y-110702732D01*
X154727750Y-110690120D01*
X154749929Y-110679630D01*
X154773028Y-110671365D01*
X154796827Y-110665404D01*
X154821095Y-110661804D01*
X154845599Y-110660600D01*
X155745601Y-110660600D01*
X155770105Y-110661804D01*
X155770105Y-110661804D01*
G37*
D11*
X155295600Y-111235600D03*
D10*
G36*
X160784905Y-52946004D02*
G01*
X160809173Y-52949604D01*
X160832972Y-52955565D01*
X160856071Y-52963830D01*
X160878250Y-52974320D01*
X160899293Y-52986932D01*
X160918999Y-53001547D01*
X160937177Y-53018023D01*
X160953653Y-53036201D01*
X160968268Y-53055907D01*
X160980880Y-53076950D01*
X160991370Y-53099129D01*
X160999635Y-53122228D01*
X161005596Y-53146027D01*
X161009196Y-53170295D01*
X161010400Y-53194799D01*
X161010400Y-54094801D01*
X161009196Y-54119305D01*
X161005596Y-54143573D01*
X160999635Y-54167372D01*
X160991370Y-54190471D01*
X160980880Y-54212650D01*
X160968268Y-54233693D01*
X160953653Y-54253399D01*
X160937177Y-54271577D01*
X160918999Y-54288053D01*
X160899293Y-54302668D01*
X160878250Y-54315280D01*
X160856071Y-54325770D01*
X160832972Y-54334035D01*
X160809173Y-54339996D01*
X160784905Y-54343596D01*
X160760401Y-54344800D01*
X160110399Y-54344800D01*
X160085895Y-54343596D01*
X160061627Y-54339996D01*
X160037828Y-54334035D01*
X160014729Y-54325770D01*
X159992550Y-54315280D01*
X159971507Y-54302668D01*
X159951801Y-54288053D01*
X159933623Y-54271577D01*
X159917147Y-54253399D01*
X159902532Y-54233693D01*
X159889920Y-54212650D01*
X159879430Y-54190471D01*
X159871165Y-54167372D01*
X159865204Y-54143573D01*
X159861604Y-54119305D01*
X159860400Y-54094801D01*
X159860400Y-53194799D01*
X159861604Y-53170295D01*
X159865204Y-53146027D01*
X159871165Y-53122228D01*
X159879430Y-53099129D01*
X159889920Y-53076950D01*
X159902532Y-53055907D01*
X159917147Y-53036201D01*
X159933623Y-53018023D01*
X159951801Y-53001547D01*
X159971507Y-52986932D01*
X159992550Y-52974320D01*
X160014729Y-52963830D01*
X160037828Y-52955565D01*
X160061627Y-52949604D01*
X160085895Y-52946004D01*
X160110399Y-52944800D01*
X160760401Y-52944800D01*
X160784905Y-52946004D01*
X160784905Y-52946004D01*
G37*
D11*
X160435400Y-53644800D03*
D10*
G36*
X158734905Y-52946004D02*
G01*
X158759173Y-52949604D01*
X158782972Y-52955565D01*
X158806071Y-52963830D01*
X158828250Y-52974320D01*
X158849293Y-52986932D01*
X158868999Y-53001547D01*
X158887177Y-53018023D01*
X158903653Y-53036201D01*
X158918268Y-53055907D01*
X158930880Y-53076950D01*
X158941370Y-53099129D01*
X158949635Y-53122228D01*
X158955596Y-53146027D01*
X158959196Y-53170295D01*
X158960400Y-53194799D01*
X158960400Y-54094801D01*
X158959196Y-54119305D01*
X158955596Y-54143573D01*
X158949635Y-54167372D01*
X158941370Y-54190471D01*
X158930880Y-54212650D01*
X158918268Y-54233693D01*
X158903653Y-54253399D01*
X158887177Y-54271577D01*
X158868999Y-54288053D01*
X158849293Y-54302668D01*
X158828250Y-54315280D01*
X158806071Y-54325770D01*
X158782972Y-54334035D01*
X158759173Y-54339996D01*
X158734905Y-54343596D01*
X158710401Y-54344800D01*
X158060399Y-54344800D01*
X158035895Y-54343596D01*
X158011627Y-54339996D01*
X157987828Y-54334035D01*
X157964729Y-54325770D01*
X157942550Y-54315280D01*
X157921507Y-54302668D01*
X157901801Y-54288053D01*
X157883623Y-54271577D01*
X157867147Y-54253399D01*
X157852532Y-54233693D01*
X157839920Y-54212650D01*
X157829430Y-54190471D01*
X157821165Y-54167372D01*
X157815204Y-54143573D01*
X157811604Y-54119305D01*
X157810400Y-54094801D01*
X157810400Y-53194799D01*
X157811604Y-53170295D01*
X157815204Y-53146027D01*
X157821165Y-53122228D01*
X157829430Y-53099129D01*
X157839920Y-53076950D01*
X157852532Y-53055907D01*
X157867147Y-53036201D01*
X157883623Y-53018023D01*
X157901801Y-53001547D01*
X157921507Y-52986932D01*
X157942550Y-52974320D01*
X157964729Y-52963830D01*
X157987828Y-52955565D01*
X158011627Y-52949604D01*
X158035895Y-52946004D01*
X158060399Y-52944800D01*
X158710401Y-52944800D01*
X158734905Y-52946004D01*
X158734905Y-52946004D01*
G37*
D11*
X158385400Y-53644800D03*
D10*
G36*
X158607905Y-50634604D02*
G01*
X158632173Y-50638204D01*
X158655972Y-50644165D01*
X158679071Y-50652430D01*
X158701250Y-50662920D01*
X158722293Y-50675532D01*
X158741999Y-50690147D01*
X158760177Y-50706623D01*
X158776653Y-50724801D01*
X158791268Y-50744507D01*
X158803880Y-50765550D01*
X158814370Y-50787729D01*
X158822635Y-50810828D01*
X158828596Y-50834627D01*
X158832196Y-50858895D01*
X158833400Y-50883399D01*
X158833400Y-51783401D01*
X158832196Y-51807905D01*
X158828596Y-51832173D01*
X158822635Y-51855972D01*
X158814370Y-51879071D01*
X158803880Y-51901250D01*
X158791268Y-51922293D01*
X158776653Y-51941999D01*
X158760177Y-51960177D01*
X158741999Y-51976653D01*
X158722293Y-51991268D01*
X158701250Y-52003880D01*
X158679071Y-52014370D01*
X158655972Y-52022635D01*
X158632173Y-52028596D01*
X158607905Y-52032196D01*
X158583401Y-52033400D01*
X157933399Y-52033400D01*
X157908895Y-52032196D01*
X157884627Y-52028596D01*
X157860828Y-52022635D01*
X157837729Y-52014370D01*
X157815550Y-52003880D01*
X157794507Y-51991268D01*
X157774801Y-51976653D01*
X157756623Y-51960177D01*
X157740147Y-51941999D01*
X157725532Y-51922293D01*
X157712920Y-51901250D01*
X157702430Y-51879071D01*
X157694165Y-51855972D01*
X157688204Y-51832173D01*
X157684604Y-51807905D01*
X157683400Y-51783401D01*
X157683400Y-50883399D01*
X157684604Y-50858895D01*
X157688204Y-50834627D01*
X157694165Y-50810828D01*
X157702430Y-50787729D01*
X157712920Y-50765550D01*
X157725532Y-50744507D01*
X157740147Y-50724801D01*
X157756623Y-50706623D01*
X157774801Y-50690147D01*
X157794507Y-50675532D01*
X157815550Y-50662920D01*
X157837729Y-50652430D01*
X157860828Y-50644165D01*
X157884627Y-50638204D01*
X157908895Y-50634604D01*
X157933399Y-50633400D01*
X158583401Y-50633400D01*
X158607905Y-50634604D01*
X158607905Y-50634604D01*
G37*
D11*
X158258400Y-51333400D03*
D10*
G36*
X160657905Y-50634604D02*
G01*
X160682173Y-50638204D01*
X160705972Y-50644165D01*
X160729071Y-50652430D01*
X160751250Y-50662920D01*
X160772293Y-50675532D01*
X160791999Y-50690147D01*
X160810177Y-50706623D01*
X160826653Y-50724801D01*
X160841268Y-50744507D01*
X160853880Y-50765550D01*
X160864370Y-50787729D01*
X160872635Y-50810828D01*
X160878596Y-50834627D01*
X160882196Y-50858895D01*
X160883400Y-50883399D01*
X160883400Y-51783401D01*
X160882196Y-51807905D01*
X160878596Y-51832173D01*
X160872635Y-51855972D01*
X160864370Y-51879071D01*
X160853880Y-51901250D01*
X160841268Y-51922293D01*
X160826653Y-51941999D01*
X160810177Y-51960177D01*
X160791999Y-51976653D01*
X160772293Y-51991268D01*
X160751250Y-52003880D01*
X160729071Y-52014370D01*
X160705972Y-52022635D01*
X160682173Y-52028596D01*
X160657905Y-52032196D01*
X160633401Y-52033400D01*
X159983399Y-52033400D01*
X159958895Y-52032196D01*
X159934627Y-52028596D01*
X159910828Y-52022635D01*
X159887729Y-52014370D01*
X159865550Y-52003880D01*
X159844507Y-51991268D01*
X159824801Y-51976653D01*
X159806623Y-51960177D01*
X159790147Y-51941999D01*
X159775532Y-51922293D01*
X159762920Y-51901250D01*
X159752430Y-51879071D01*
X159744165Y-51855972D01*
X159738204Y-51832173D01*
X159734604Y-51807905D01*
X159733400Y-51783401D01*
X159733400Y-50883399D01*
X159734604Y-50858895D01*
X159738204Y-50834627D01*
X159744165Y-50810828D01*
X159752430Y-50787729D01*
X159762920Y-50765550D01*
X159775532Y-50744507D01*
X159790147Y-50724801D01*
X159806623Y-50706623D01*
X159824801Y-50690147D01*
X159844507Y-50675532D01*
X159865550Y-50662920D01*
X159887729Y-50652430D01*
X159910828Y-50644165D01*
X159934627Y-50638204D01*
X159958895Y-50634604D01*
X159983399Y-50633400D01*
X160633401Y-50633400D01*
X160657905Y-50634604D01*
X160657905Y-50634604D01*
G37*
D11*
X160308400Y-51333400D03*
D10*
G36*
X161140505Y-32803804D02*
G01*
X161164773Y-32807404D01*
X161188572Y-32813365D01*
X161211671Y-32821630D01*
X161233850Y-32832120D01*
X161254893Y-32844732D01*
X161274599Y-32859347D01*
X161292777Y-32875823D01*
X161309253Y-32894001D01*
X161323868Y-32913707D01*
X161336480Y-32934750D01*
X161346970Y-32956929D01*
X161355235Y-32980028D01*
X161361196Y-33003827D01*
X161364796Y-33028095D01*
X161366000Y-33052599D01*
X161366000Y-33952601D01*
X161364796Y-33977105D01*
X161361196Y-34001373D01*
X161355235Y-34025172D01*
X161346970Y-34048271D01*
X161336480Y-34070450D01*
X161323868Y-34091493D01*
X161309253Y-34111199D01*
X161292777Y-34129377D01*
X161274599Y-34145853D01*
X161254893Y-34160468D01*
X161233850Y-34173080D01*
X161211671Y-34183570D01*
X161188572Y-34191835D01*
X161164773Y-34197796D01*
X161140505Y-34201396D01*
X161116001Y-34202600D01*
X160465999Y-34202600D01*
X160441495Y-34201396D01*
X160417227Y-34197796D01*
X160393428Y-34191835D01*
X160370329Y-34183570D01*
X160348150Y-34173080D01*
X160327107Y-34160468D01*
X160307401Y-34145853D01*
X160289223Y-34129377D01*
X160272747Y-34111199D01*
X160258132Y-34091493D01*
X160245520Y-34070450D01*
X160235030Y-34048271D01*
X160226765Y-34025172D01*
X160220804Y-34001373D01*
X160217204Y-33977105D01*
X160216000Y-33952601D01*
X160216000Y-33052599D01*
X160217204Y-33028095D01*
X160220804Y-33003827D01*
X160226765Y-32980028D01*
X160235030Y-32956929D01*
X160245520Y-32934750D01*
X160258132Y-32913707D01*
X160272747Y-32894001D01*
X160289223Y-32875823D01*
X160307401Y-32859347D01*
X160327107Y-32844732D01*
X160348150Y-32832120D01*
X160370329Y-32821630D01*
X160393428Y-32813365D01*
X160417227Y-32807404D01*
X160441495Y-32803804D01*
X160465999Y-32802600D01*
X161116001Y-32802600D01*
X161140505Y-32803804D01*
X161140505Y-32803804D01*
G37*
D11*
X160791000Y-33502600D03*
D10*
G36*
X159090505Y-32803804D02*
G01*
X159114773Y-32807404D01*
X159138572Y-32813365D01*
X159161671Y-32821630D01*
X159183850Y-32832120D01*
X159204893Y-32844732D01*
X159224599Y-32859347D01*
X159242777Y-32875823D01*
X159259253Y-32894001D01*
X159273868Y-32913707D01*
X159286480Y-32934750D01*
X159296970Y-32956929D01*
X159305235Y-32980028D01*
X159311196Y-33003827D01*
X159314796Y-33028095D01*
X159316000Y-33052599D01*
X159316000Y-33952601D01*
X159314796Y-33977105D01*
X159311196Y-34001373D01*
X159305235Y-34025172D01*
X159296970Y-34048271D01*
X159286480Y-34070450D01*
X159273868Y-34091493D01*
X159259253Y-34111199D01*
X159242777Y-34129377D01*
X159224599Y-34145853D01*
X159204893Y-34160468D01*
X159183850Y-34173080D01*
X159161671Y-34183570D01*
X159138572Y-34191835D01*
X159114773Y-34197796D01*
X159090505Y-34201396D01*
X159066001Y-34202600D01*
X158415999Y-34202600D01*
X158391495Y-34201396D01*
X158367227Y-34197796D01*
X158343428Y-34191835D01*
X158320329Y-34183570D01*
X158298150Y-34173080D01*
X158277107Y-34160468D01*
X158257401Y-34145853D01*
X158239223Y-34129377D01*
X158222747Y-34111199D01*
X158208132Y-34091493D01*
X158195520Y-34070450D01*
X158185030Y-34048271D01*
X158176765Y-34025172D01*
X158170804Y-34001373D01*
X158167204Y-33977105D01*
X158166000Y-33952601D01*
X158166000Y-33052599D01*
X158167204Y-33028095D01*
X158170804Y-33003827D01*
X158176765Y-32980028D01*
X158185030Y-32956929D01*
X158195520Y-32934750D01*
X158208132Y-32913707D01*
X158222747Y-32894001D01*
X158239223Y-32875823D01*
X158257401Y-32859347D01*
X158277107Y-32844732D01*
X158298150Y-32832120D01*
X158320329Y-32821630D01*
X158343428Y-32813365D01*
X158367227Y-32807404D01*
X158391495Y-32803804D01*
X158415999Y-32802600D01*
X159066001Y-32802600D01*
X159090505Y-32803804D01*
X159090505Y-32803804D01*
G37*
D11*
X158741000Y-33502600D03*
D10*
G36*
X158938105Y-29908204D02*
G01*
X158962373Y-29911804D01*
X158986172Y-29917765D01*
X159009271Y-29926030D01*
X159031450Y-29936520D01*
X159052493Y-29949132D01*
X159072199Y-29963747D01*
X159090377Y-29980223D01*
X159106853Y-29998401D01*
X159121468Y-30018107D01*
X159134080Y-30039150D01*
X159144570Y-30061329D01*
X159152835Y-30084428D01*
X159158796Y-30108227D01*
X159162396Y-30132495D01*
X159163600Y-30156999D01*
X159163600Y-31057001D01*
X159162396Y-31081505D01*
X159158796Y-31105773D01*
X159152835Y-31129572D01*
X159144570Y-31152671D01*
X159134080Y-31174850D01*
X159121468Y-31195893D01*
X159106853Y-31215599D01*
X159090377Y-31233777D01*
X159072199Y-31250253D01*
X159052493Y-31264868D01*
X159031450Y-31277480D01*
X159009271Y-31287970D01*
X158986172Y-31296235D01*
X158962373Y-31302196D01*
X158938105Y-31305796D01*
X158913601Y-31307000D01*
X158263599Y-31307000D01*
X158239095Y-31305796D01*
X158214827Y-31302196D01*
X158191028Y-31296235D01*
X158167929Y-31287970D01*
X158145750Y-31277480D01*
X158124707Y-31264868D01*
X158105001Y-31250253D01*
X158086823Y-31233777D01*
X158070347Y-31215599D01*
X158055732Y-31195893D01*
X158043120Y-31174850D01*
X158032630Y-31152671D01*
X158024365Y-31129572D01*
X158018404Y-31105773D01*
X158014804Y-31081505D01*
X158013600Y-31057001D01*
X158013600Y-30156999D01*
X158014804Y-30132495D01*
X158018404Y-30108227D01*
X158024365Y-30084428D01*
X158032630Y-30061329D01*
X158043120Y-30039150D01*
X158055732Y-30018107D01*
X158070347Y-29998401D01*
X158086823Y-29980223D01*
X158105001Y-29963747D01*
X158124707Y-29949132D01*
X158145750Y-29936520D01*
X158167929Y-29926030D01*
X158191028Y-29917765D01*
X158214827Y-29911804D01*
X158239095Y-29908204D01*
X158263599Y-29907000D01*
X158913601Y-29907000D01*
X158938105Y-29908204D01*
X158938105Y-29908204D01*
G37*
D11*
X158588600Y-30607000D03*
D10*
G36*
X160988105Y-29908204D02*
G01*
X161012373Y-29911804D01*
X161036172Y-29917765D01*
X161059271Y-29926030D01*
X161081450Y-29936520D01*
X161102493Y-29949132D01*
X161122199Y-29963747D01*
X161140377Y-29980223D01*
X161156853Y-29998401D01*
X161171468Y-30018107D01*
X161184080Y-30039150D01*
X161194570Y-30061329D01*
X161202835Y-30084428D01*
X161208796Y-30108227D01*
X161212396Y-30132495D01*
X161213600Y-30156999D01*
X161213600Y-31057001D01*
X161212396Y-31081505D01*
X161208796Y-31105773D01*
X161202835Y-31129572D01*
X161194570Y-31152671D01*
X161184080Y-31174850D01*
X161171468Y-31195893D01*
X161156853Y-31215599D01*
X161140377Y-31233777D01*
X161122199Y-31250253D01*
X161102493Y-31264868D01*
X161081450Y-31277480D01*
X161059271Y-31287970D01*
X161036172Y-31296235D01*
X161012373Y-31302196D01*
X160988105Y-31305796D01*
X160963601Y-31307000D01*
X160313599Y-31307000D01*
X160289095Y-31305796D01*
X160264827Y-31302196D01*
X160241028Y-31296235D01*
X160217929Y-31287970D01*
X160195750Y-31277480D01*
X160174707Y-31264868D01*
X160155001Y-31250253D01*
X160136823Y-31233777D01*
X160120347Y-31215599D01*
X160105732Y-31195893D01*
X160093120Y-31174850D01*
X160082630Y-31152671D01*
X160074365Y-31129572D01*
X160068404Y-31105773D01*
X160064804Y-31081505D01*
X160063600Y-31057001D01*
X160063600Y-30156999D01*
X160064804Y-30132495D01*
X160068404Y-30108227D01*
X160074365Y-30084428D01*
X160082630Y-30061329D01*
X160093120Y-30039150D01*
X160105732Y-30018107D01*
X160120347Y-29998401D01*
X160136823Y-29980223D01*
X160155001Y-29963747D01*
X160174707Y-29949132D01*
X160195750Y-29936520D01*
X160217929Y-29926030D01*
X160241028Y-29917765D01*
X160264827Y-29911804D01*
X160289095Y-29908204D01*
X160313599Y-29907000D01*
X160963601Y-29907000D01*
X160988105Y-29908204D01*
X160988105Y-29908204D01*
G37*
D11*
X160638600Y-30607000D03*
D10*
G36*
X162537505Y-99402604D02*
G01*
X162561773Y-99406204D01*
X162585572Y-99412165D01*
X162608671Y-99420430D01*
X162630850Y-99430920D01*
X162651893Y-99443532D01*
X162671599Y-99458147D01*
X162689777Y-99474623D01*
X162706253Y-99492801D01*
X162720868Y-99512507D01*
X162733480Y-99533550D01*
X162743970Y-99555729D01*
X162752235Y-99578828D01*
X162758196Y-99602627D01*
X162761796Y-99626895D01*
X162763000Y-99651399D01*
X162763000Y-100551401D01*
X162761796Y-100575905D01*
X162758196Y-100600173D01*
X162752235Y-100623972D01*
X162743970Y-100647071D01*
X162733480Y-100669250D01*
X162720868Y-100690293D01*
X162706253Y-100709999D01*
X162689777Y-100728177D01*
X162671599Y-100744653D01*
X162651893Y-100759268D01*
X162630850Y-100771880D01*
X162608671Y-100782370D01*
X162585572Y-100790635D01*
X162561773Y-100796596D01*
X162537505Y-100800196D01*
X162513001Y-100801400D01*
X161862999Y-100801400D01*
X161838495Y-100800196D01*
X161814227Y-100796596D01*
X161790428Y-100790635D01*
X161767329Y-100782370D01*
X161745150Y-100771880D01*
X161724107Y-100759268D01*
X161704401Y-100744653D01*
X161686223Y-100728177D01*
X161669747Y-100709999D01*
X161655132Y-100690293D01*
X161642520Y-100669250D01*
X161632030Y-100647071D01*
X161623765Y-100623972D01*
X161617804Y-100600173D01*
X161614204Y-100575905D01*
X161613000Y-100551401D01*
X161613000Y-99651399D01*
X161614204Y-99626895D01*
X161617804Y-99602627D01*
X161623765Y-99578828D01*
X161632030Y-99555729D01*
X161642520Y-99533550D01*
X161655132Y-99512507D01*
X161669747Y-99492801D01*
X161686223Y-99474623D01*
X161704401Y-99458147D01*
X161724107Y-99443532D01*
X161745150Y-99430920D01*
X161767329Y-99420430D01*
X161790428Y-99412165D01*
X161814227Y-99406204D01*
X161838495Y-99402604D01*
X161862999Y-99401400D01*
X162513001Y-99401400D01*
X162537505Y-99402604D01*
X162537505Y-99402604D01*
G37*
D11*
X162188000Y-100101400D03*
D10*
G36*
X160487505Y-99402604D02*
G01*
X160511773Y-99406204D01*
X160535572Y-99412165D01*
X160558671Y-99420430D01*
X160580850Y-99430920D01*
X160601893Y-99443532D01*
X160621599Y-99458147D01*
X160639777Y-99474623D01*
X160656253Y-99492801D01*
X160670868Y-99512507D01*
X160683480Y-99533550D01*
X160693970Y-99555729D01*
X160702235Y-99578828D01*
X160708196Y-99602627D01*
X160711796Y-99626895D01*
X160713000Y-99651399D01*
X160713000Y-100551401D01*
X160711796Y-100575905D01*
X160708196Y-100600173D01*
X160702235Y-100623972D01*
X160693970Y-100647071D01*
X160683480Y-100669250D01*
X160670868Y-100690293D01*
X160656253Y-100709999D01*
X160639777Y-100728177D01*
X160621599Y-100744653D01*
X160601893Y-100759268D01*
X160580850Y-100771880D01*
X160558671Y-100782370D01*
X160535572Y-100790635D01*
X160511773Y-100796596D01*
X160487505Y-100800196D01*
X160463001Y-100801400D01*
X159812999Y-100801400D01*
X159788495Y-100800196D01*
X159764227Y-100796596D01*
X159740428Y-100790635D01*
X159717329Y-100782370D01*
X159695150Y-100771880D01*
X159674107Y-100759268D01*
X159654401Y-100744653D01*
X159636223Y-100728177D01*
X159619747Y-100709999D01*
X159605132Y-100690293D01*
X159592520Y-100669250D01*
X159582030Y-100647071D01*
X159573765Y-100623972D01*
X159567804Y-100600173D01*
X159564204Y-100575905D01*
X159563000Y-100551401D01*
X159563000Y-99651399D01*
X159564204Y-99626895D01*
X159567804Y-99602627D01*
X159573765Y-99578828D01*
X159582030Y-99555729D01*
X159592520Y-99533550D01*
X159605132Y-99512507D01*
X159619747Y-99492801D01*
X159636223Y-99474623D01*
X159654401Y-99458147D01*
X159674107Y-99443532D01*
X159695150Y-99430920D01*
X159717329Y-99420430D01*
X159740428Y-99412165D01*
X159764227Y-99406204D01*
X159788495Y-99402604D01*
X159812999Y-99401400D01*
X160463001Y-99401400D01*
X160487505Y-99402604D01*
X160487505Y-99402604D01*
G37*
D11*
X160138000Y-100101400D03*
D10*
G36*
X162512105Y-119290804D02*
G01*
X162536373Y-119294404D01*
X162560172Y-119300365D01*
X162583271Y-119308630D01*
X162605450Y-119319120D01*
X162626493Y-119331732D01*
X162646199Y-119346347D01*
X162664377Y-119362823D01*
X162680853Y-119381001D01*
X162695468Y-119400707D01*
X162708080Y-119421750D01*
X162718570Y-119443929D01*
X162726835Y-119467028D01*
X162732796Y-119490827D01*
X162736396Y-119515095D01*
X162737600Y-119539599D01*
X162737600Y-120439601D01*
X162736396Y-120464105D01*
X162732796Y-120488373D01*
X162726835Y-120512172D01*
X162718570Y-120535271D01*
X162708080Y-120557450D01*
X162695468Y-120578493D01*
X162680853Y-120598199D01*
X162664377Y-120616377D01*
X162646199Y-120632853D01*
X162626493Y-120647468D01*
X162605450Y-120660080D01*
X162583271Y-120670570D01*
X162560172Y-120678835D01*
X162536373Y-120684796D01*
X162512105Y-120688396D01*
X162487601Y-120689600D01*
X161837599Y-120689600D01*
X161813095Y-120688396D01*
X161788827Y-120684796D01*
X161765028Y-120678835D01*
X161741929Y-120670570D01*
X161719750Y-120660080D01*
X161698707Y-120647468D01*
X161679001Y-120632853D01*
X161660823Y-120616377D01*
X161644347Y-120598199D01*
X161629732Y-120578493D01*
X161617120Y-120557450D01*
X161606630Y-120535271D01*
X161598365Y-120512172D01*
X161592404Y-120488373D01*
X161588804Y-120464105D01*
X161587600Y-120439601D01*
X161587600Y-119539599D01*
X161588804Y-119515095D01*
X161592404Y-119490827D01*
X161598365Y-119467028D01*
X161606630Y-119443929D01*
X161617120Y-119421750D01*
X161629732Y-119400707D01*
X161644347Y-119381001D01*
X161660823Y-119362823D01*
X161679001Y-119346347D01*
X161698707Y-119331732D01*
X161719750Y-119319120D01*
X161741929Y-119308630D01*
X161765028Y-119300365D01*
X161788827Y-119294404D01*
X161813095Y-119290804D01*
X161837599Y-119289600D01*
X162487601Y-119289600D01*
X162512105Y-119290804D01*
X162512105Y-119290804D01*
G37*
D11*
X162162600Y-119989600D03*
D10*
G36*
X160462105Y-119290804D02*
G01*
X160486373Y-119294404D01*
X160510172Y-119300365D01*
X160533271Y-119308630D01*
X160555450Y-119319120D01*
X160576493Y-119331732D01*
X160596199Y-119346347D01*
X160614377Y-119362823D01*
X160630853Y-119381001D01*
X160645468Y-119400707D01*
X160658080Y-119421750D01*
X160668570Y-119443929D01*
X160676835Y-119467028D01*
X160682796Y-119490827D01*
X160686396Y-119515095D01*
X160687600Y-119539599D01*
X160687600Y-120439601D01*
X160686396Y-120464105D01*
X160682796Y-120488373D01*
X160676835Y-120512172D01*
X160668570Y-120535271D01*
X160658080Y-120557450D01*
X160645468Y-120578493D01*
X160630853Y-120598199D01*
X160614377Y-120616377D01*
X160596199Y-120632853D01*
X160576493Y-120647468D01*
X160555450Y-120660080D01*
X160533271Y-120670570D01*
X160510172Y-120678835D01*
X160486373Y-120684796D01*
X160462105Y-120688396D01*
X160437601Y-120689600D01*
X159787599Y-120689600D01*
X159763095Y-120688396D01*
X159738827Y-120684796D01*
X159715028Y-120678835D01*
X159691929Y-120670570D01*
X159669750Y-120660080D01*
X159648707Y-120647468D01*
X159629001Y-120632853D01*
X159610823Y-120616377D01*
X159594347Y-120598199D01*
X159579732Y-120578493D01*
X159567120Y-120557450D01*
X159556630Y-120535271D01*
X159548365Y-120512172D01*
X159542404Y-120488373D01*
X159538804Y-120464105D01*
X159537600Y-120439601D01*
X159537600Y-119539599D01*
X159538804Y-119515095D01*
X159542404Y-119490827D01*
X159548365Y-119467028D01*
X159556630Y-119443929D01*
X159567120Y-119421750D01*
X159579732Y-119400707D01*
X159594347Y-119381001D01*
X159610823Y-119362823D01*
X159629001Y-119346347D01*
X159648707Y-119331732D01*
X159669750Y-119319120D01*
X159691929Y-119308630D01*
X159715028Y-119300365D01*
X159738827Y-119294404D01*
X159763095Y-119290804D01*
X159787599Y-119289600D01*
X160437601Y-119289600D01*
X160462105Y-119290804D01*
X160462105Y-119290804D01*
G37*
D11*
X160112600Y-119989600D03*
D10*
G36*
X160462105Y-121678404D02*
G01*
X160486373Y-121682004D01*
X160510172Y-121687965D01*
X160533271Y-121696230D01*
X160555450Y-121706720D01*
X160576493Y-121719332D01*
X160596199Y-121733947D01*
X160614377Y-121750423D01*
X160630853Y-121768601D01*
X160645468Y-121788307D01*
X160658080Y-121809350D01*
X160668570Y-121831529D01*
X160676835Y-121854628D01*
X160682796Y-121878427D01*
X160686396Y-121902695D01*
X160687600Y-121927199D01*
X160687600Y-122827201D01*
X160686396Y-122851705D01*
X160682796Y-122875973D01*
X160676835Y-122899772D01*
X160668570Y-122922871D01*
X160658080Y-122945050D01*
X160645468Y-122966093D01*
X160630853Y-122985799D01*
X160614377Y-123003977D01*
X160596199Y-123020453D01*
X160576493Y-123035068D01*
X160555450Y-123047680D01*
X160533271Y-123058170D01*
X160510172Y-123066435D01*
X160486373Y-123072396D01*
X160462105Y-123075996D01*
X160437601Y-123077200D01*
X159787599Y-123077200D01*
X159763095Y-123075996D01*
X159738827Y-123072396D01*
X159715028Y-123066435D01*
X159691929Y-123058170D01*
X159669750Y-123047680D01*
X159648707Y-123035068D01*
X159629001Y-123020453D01*
X159610823Y-123003977D01*
X159594347Y-122985799D01*
X159579732Y-122966093D01*
X159567120Y-122945050D01*
X159556630Y-122922871D01*
X159548365Y-122899772D01*
X159542404Y-122875973D01*
X159538804Y-122851705D01*
X159537600Y-122827201D01*
X159537600Y-121927199D01*
X159538804Y-121902695D01*
X159542404Y-121878427D01*
X159548365Y-121854628D01*
X159556630Y-121831529D01*
X159567120Y-121809350D01*
X159579732Y-121788307D01*
X159594347Y-121768601D01*
X159610823Y-121750423D01*
X159629001Y-121733947D01*
X159648707Y-121719332D01*
X159669750Y-121706720D01*
X159691929Y-121696230D01*
X159715028Y-121687965D01*
X159738827Y-121682004D01*
X159763095Y-121678404D01*
X159787599Y-121677200D01*
X160437601Y-121677200D01*
X160462105Y-121678404D01*
X160462105Y-121678404D01*
G37*
D11*
X160112600Y-122377200D03*
D10*
G36*
X162512105Y-121678404D02*
G01*
X162536373Y-121682004D01*
X162560172Y-121687965D01*
X162583271Y-121696230D01*
X162605450Y-121706720D01*
X162626493Y-121719332D01*
X162646199Y-121733947D01*
X162664377Y-121750423D01*
X162680853Y-121768601D01*
X162695468Y-121788307D01*
X162708080Y-121809350D01*
X162718570Y-121831529D01*
X162726835Y-121854628D01*
X162732796Y-121878427D01*
X162736396Y-121902695D01*
X162737600Y-121927199D01*
X162737600Y-122827201D01*
X162736396Y-122851705D01*
X162732796Y-122875973D01*
X162726835Y-122899772D01*
X162718570Y-122922871D01*
X162708080Y-122945050D01*
X162695468Y-122966093D01*
X162680853Y-122985799D01*
X162664377Y-123003977D01*
X162646199Y-123020453D01*
X162626493Y-123035068D01*
X162605450Y-123047680D01*
X162583271Y-123058170D01*
X162560172Y-123066435D01*
X162536373Y-123072396D01*
X162512105Y-123075996D01*
X162487601Y-123077200D01*
X161837599Y-123077200D01*
X161813095Y-123075996D01*
X161788827Y-123072396D01*
X161765028Y-123066435D01*
X161741929Y-123058170D01*
X161719750Y-123047680D01*
X161698707Y-123035068D01*
X161679001Y-123020453D01*
X161660823Y-123003977D01*
X161644347Y-122985799D01*
X161629732Y-122966093D01*
X161617120Y-122945050D01*
X161606630Y-122922871D01*
X161598365Y-122899772D01*
X161592404Y-122875973D01*
X161588804Y-122851705D01*
X161587600Y-122827201D01*
X161587600Y-121927199D01*
X161588804Y-121902695D01*
X161592404Y-121878427D01*
X161598365Y-121854628D01*
X161606630Y-121831529D01*
X161617120Y-121809350D01*
X161629732Y-121788307D01*
X161644347Y-121768601D01*
X161660823Y-121750423D01*
X161679001Y-121733947D01*
X161698707Y-121719332D01*
X161719750Y-121706720D01*
X161741929Y-121696230D01*
X161765028Y-121687965D01*
X161788827Y-121682004D01*
X161813095Y-121678404D01*
X161837599Y-121677200D01*
X162487601Y-121677200D01*
X162512105Y-121678404D01*
X162512105Y-121678404D01*
G37*
D11*
X162162600Y-122377200D03*
D14*
X156816000Y-39934600D03*
X156816000Y-40584600D03*
X156816000Y-41234600D03*
X156816000Y-41884600D03*
X156816000Y-42534600D03*
X156816000Y-43184600D03*
X156816000Y-43834600D03*
X162716000Y-43834600D03*
X162716000Y-43184600D03*
X162716000Y-42534600D03*
X162716000Y-41884600D03*
X162716000Y-41234600D03*
X162716000Y-40584600D03*
X162716000Y-39934600D03*
X157451000Y-113176600D03*
X157451000Y-112526600D03*
X157451000Y-111876600D03*
X157451000Y-111226600D03*
X157451000Y-110576600D03*
X157451000Y-109926600D03*
X157451000Y-109276600D03*
X163351000Y-109276600D03*
X163351000Y-109926600D03*
X163351000Y-110576600D03*
X163351000Y-111226600D03*
X163351000Y-111876600D03*
X163351000Y-112526600D03*
X163351000Y-113176600D03*
D12*
X166248400Y-81737200D03*
X163748400Y-81737200D03*
X166578600Y-70866000D03*
X164078600Y-70866000D03*
M02*
