G04 #@! TF.GenerationSoftware,KiCad,Pcbnew,(5.1.2-1)-1*
G04 #@! TF.CreationDate,2020-08-10T22:20:09-07:00*
G04 #@! TF.ProjectId,active_dual_mult,61637469-7665-45f6-9475-616c5f6d756c,rev?*
G04 #@! TF.SameCoordinates,Original*
G04 #@! TF.FileFunction,Soldermask,Top*
G04 #@! TF.FilePolarity,Negative*
%FSLAX46Y46*%
G04 Gerber Fmt 4.6, Leading zero omitted, Abs format (unit mm)*
G04 Created by KiCad (PCBNEW (5.1.2-1)-1) date 2020-08-10 22:20:09*
%MOMM*%
%LPD*%
G04 APERTURE LIST*
%ADD10C,0.100000*%
G04 APERTURE END LIST*
D10*
G36*
X166263455Y-125201391D02*
G01*
X166335325Y-125215687D01*
X166538424Y-125299813D01*
X166721209Y-125421946D01*
X166876654Y-125577391D01*
X166998787Y-125760176D01*
X167082913Y-125963275D01*
X167125800Y-126178884D01*
X167125800Y-126398716D01*
X167082913Y-126614325D01*
X166998787Y-126817424D01*
X166876654Y-127000209D01*
X166721209Y-127155654D01*
X166538424Y-127277787D01*
X166335325Y-127361913D01*
X166263455Y-127376209D01*
X166119718Y-127404800D01*
X165899882Y-127404800D01*
X165756145Y-127376209D01*
X165684275Y-127361913D01*
X165481176Y-127277787D01*
X165298391Y-127155654D01*
X165142946Y-127000209D01*
X165020813Y-126817424D01*
X164936687Y-126614325D01*
X164893800Y-126398716D01*
X164893800Y-126178884D01*
X164936687Y-125963275D01*
X165020813Y-125760176D01*
X165142946Y-125577391D01*
X165298391Y-125421946D01*
X165481176Y-125299813D01*
X165684275Y-125215687D01*
X165756145Y-125201391D01*
X165899882Y-125172800D01*
X166119718Y-125172800D01*
X166263455Y-125201391D01*
X166263455Y-125201391D01*
G37*
G36*
X157963455Y-125201391D02*
G01*
X158035325Y-125215687D01*
X158238424Y-125299813D01*
X158421209Y-125421946D01*
X158576654Y-125577391D01*
X158698787Y-125760176D01*
X158782913Y-125963275D01*
X158825800Y-126178884D01*
X158825800Y-126398716D01*
X158782913Y-126614325D01*
X158698787Y-126817424D01*
X158576654Y-127000209D01*
X158421209Y-127155654D01*
X158238424Y-127277787D01*
X158035325Y-127361913D01*
X157963455Y-127376209D01*
X157819718Y-127404800D01*
X157599882Y-127404800D01*
X157456145Y-127376209D01*
X157384275Y-127361913D01*
X157181176Y-127277787D01*
X156998391Y-127155654D01*
X156842946Y-127000209D01*
X156720813Y-126817424D01*
X156636687Y-126614325D01*
X156593800Y-126398716D01*
X156593800Y-126178884D01*
X156636687Y-125963275D01*
X156720813Y-125760176D01*
X156842946Y-125577391D01*
X156998391Y-125421946D01*
X157181176Y-125299813D01*
X157384275Y-125215687D01*
X157456145Y-125201391D01*
X157599882Y-125172800D01*
X157819718Y-125172800D01*
X157963455Y-125201391D01*
X157963455Y-125201391D01*
G37*
G36*
X155575800Y-127304800D02*
G01*
X153643800Y-127304800D01*
X153643800Y-125272800D01*
X155575800Y-125272800D01*
X155575800Y-127304800D01*
X155575800Y-127304800D01*
G37*
G36*
X160576274Y-121630665D02*
G01*
X160613967Y-121642099D01*
X160648703Y-121660666D01*
X160679148Y-121685652D01*
X160704134Y-121716097D01*
X160722701Y-121750833D01*
X160734135Y-121788526D01*
X160738600Y-121833861D01*
X160738600Y-122920539D01*
X160734135Y-122965874D01*
X160722701Y-123003567D01*
X160704134Y-123038303D01*
X160679148Y-123068748D01*
X160648703Y-123093734D01*
X160613967Y-123112301D01*
X160576274Y-123123735D01*
X160530939Y-123128200D01*
X159694261Y-123128200D01*
X159648926Y-123123735D01*
X159611233Y-123112301D01*
X159576497Y-123093734D01*
X159546052Y-123068748D01*
X159521066Y-123038303D01*
X159502499Y-123003567D01*
X159491065Y-122965874D01*
X159486600Y-122920539D01*
X159486600Y-121833861D01*
X159491065Y-121788526D01*
X159502499Y-121750833D01*
X159521066Y-121716097D01*
X159546052Y-121685652D01*
X159576497Y-121660666D01*
X159611233Y-121642099D01*
X159648926Y-121630665D01*
X159694261Y-121626200D01*
X160530939Y-121626200D01*
X160576274Y-121630665D01*
X160576274Y-121630665D01*
G37*
G36*
X162626274Y-121630665D02*
G01*
X162663967Y-121642099D01*
X162698703Y-121660666D01*
X162729148Y-121685652D01*
X162754134Y-121716097D01*
X162772701Y-121750833D01*
X162784135Y-121788526D01*
X162788600Y-121833861D01*
X162788600Y-122920539D01*
X162784135Y-122965874D01*
X162772701Y-123003567D01*
X162754134Y-123038303D01*
X162729148Y-123068748D01*
X162698703Y-123093734D01*
X162663967Y-123112301D01*
X162626274Y-123123735D01*
X162580939Y-123128200D01*
X161744261Y-123128200D01*
X161698926Y-123123735D01*
X161661233Y-123112301D01*
X161626497Y-123093734D01*
X161596052Y-123068748D01*
X161571066Y-123038303D01*
X161552499Y-123003567D01*
X161541065Y-122965874D01*
X161536600Y-122920539D01*
X161536600Y-121833861D01*
X161541065Y-121788526D01*
X161552499Y-121750833D01*
X161571066Y-121716097D01*
X161596052Y-121685652D01*
X161626497Y-121660666D01*
X161661233Y-121642099D01*
X161698926Y-121630665D01*
X161744261Y-121626200D01*
X162580939Y-121626200D01*
X162626274Y-121630665D01*
X162626274Y-121630665D01*
G37*
G36*
X162626274Y-119243065D02*
G01*
X162663967Y-119254499D01*
X162698703Y-119273066D01*
X162729148Y-119298052D01*
X162754134Y-119328497D01*
X162772701Y-119363233D01*
X162784135Y-119400926D01*
X162788600Y-119446261D01*
X162788600Y-120532939D01*
X162784135Y-120578274D01*
X162772701Y-120615967D01*
X162754134Y-120650703D01*
X162729148Y-120681148D01*
X162698703Y-120706134D01*
X162663967Y-120724701D01*
X162626274Y-120736135D01*
X162580939Y-120740600D01*
X161744261Y-120740600D01*
X161698926Y-120736135D01*
X161661233Y-120724701D01*
X161626497Y-120706134D01*
X161596052Y-120681148D01*
X161571066Y-120650703D01*
X161552499Y-120615967D01*
X161541065Y-120578274D01*
X161536600Y-120532939D01*
X161536600Y-119446261D01*
X161541065Y-119400926D01*
X161552499Y-119363233D01*
X161571066Y-119328497D01*
X161596052Y-119298052D01*
X161626497Y-119273066D01*
X161661233Y-119254499D01*
X161698926Y-119243065D01*
X161744261Y-119238600D01*
X162580939Y-119238600D01*
X162626274Y-119243065D01*
X162626274Y-119243065D01*
G37*
G36*
X160576274Y-119243065D02*
G01*
X160613967Y-119254499D01*
X160648703Y-119273066D01*
X160679148Y-119298052D01*
X160704134Y-119328497D01*
X160722701Y-119363233D01*
X160734135Y-119400926D01*
X160738600Y-119446261D01*
X160738600Y-120532939D01*
X160734135Y-120578274D01*
X160722701Y-120615967D01*
X160704134Y-120650703D01*
X160679148Y-120681148D01*
X160648703Y-120706134D01*
X160613967Y-120724701D01*
X160576274Y-120736135D01*
X160530939Y-120740600D01*
X159694261Y-120740600D01*
X159648926Y-120736135D01*
X159611233Y-120724701D01*
X159576497Y-120706134D01*
X159546052Y-120681148D01*
X159521066Y-120650703D01*
X159502499Y-120615967D01*
X159491065Y-120578274D01*
X159486600Y-120532939D01*
X159486600Y-119446261D01*
X159491065Y-119400926D01*
X159502499Y-119363233D01*
X159521066Y-119328497D01*
X159546052Y-119298052D01*
X159576497Y-119273066D01*
X159611233Y-119254499D01*
X159648926Y-119243065D01*
X159694261Y-119238600D01*
X160530939Y-119238600D01*
X160576274Y-119243065D01*
X160576274Y-119243065D01*
G37*
G36*
X166263455Y-115092191D02*
G01*
X166335325Y-115106487D01*
X166538424Y-115190613D01*
X166721209Y-115312746D01*
X166876654Y-115468191D01*
X166998787Y-115650976D01*
X167082913Y-115854075D01*
X167125800Y-116069684D01*
X167125800Y-116289516D01*
X167082913Y-116505125D01*
X166998787Y-116708224D01*
X166876654Y-116891009D01*
X166721209Y-117046454D01*
X166538424Y-117168587D01*
X166335325Y-117252713D01*
X166263455Y-117267009D01*
X166119718Y-117295600D01*
X165899882Y-117295600D01*
X165756145Y-117267009D01*
X165684275Y-117252713D01*
X165481176Y-117168587D01*
X165298391Y-117046454D01*
X165142946Y-116891009D01*
X165020813Y-116708224D01*
X164936687Y-116505125D01*
X164893800Y-116289516D01*
X164893800Y-116069684D01*
X164936687Y-115854075D01*
X165020813Y-115650976D01*
X165142946Y-115468191D01*
X165298391Y-115312746D01*
X165481176Y-115190613D01*
X165684275Y-115106487D01*
X165756145Y-115092191D01*
X165899882Y-115063600D01*
X166119718Y-115063600D01*
X166263455Y-115092191D01*
X166263455Y-115092191D01*
G37*
G36*
X157963455Y-115092191D02*
G01*
X158035325Y-115106487D01*
X158238424Y-115190613D01*
X158421209Y-115312746D01*
X158576654Y-115468191D01*
X158698787Y-115650976D01*
X158782913Y-115854075D01*
X158825800Y-116069684D01*
X158825800Y-116289516D01*
X158782913Y-116505125D01*
X158698787Y-116708224D01*
X158576654Y-116891009D01*
X158421209Y-117046454D01*
X158238424Y-117168587D01*
X158035325Y-117252713D01*
X157963455Y-117267009D01*
X157819718Y-117295600D01*
X157599882Y-117295600D01*
X157456145Y-117267009D01*
X157384275Y-117252713D01*
X157181176Y-117168587D01*
X156998391Y-117046454D01*
X156842946Y-116891009D01*
X156720813Y-116708224D01*
X156636687Y-116505125D01*
X156593800Y-116289516D01*
X156593800Y-116069684D01*
X156636687Y-115854075D01*
X156720813Y-115650976D01*
X156842946Y-115468191D01*
X156998391Y-115312746D01*
X157181176Y-115190613D01*
X157384275Y-115106487D01*
X157456145Y-115092191D01*
X157599882Y-115063600D01*
X157819718Y-115063600D01*
X157963455Y-115092191D01*
X157963455Y-115092191D01*
G37*
G36*
X155575800Y-117195600D02*
G01*
X153643800Y-117195600D01*
X153643800Y-115163600D01*
X155575800Y-115163600D01*
X155575800Y-117195600D01*
X155575800Y-117195600D01*
G37*
G36*
X164127000Y-113452600D02*
G01*
X162575000Y-113452600D01*
X162575000Y-109000600D01*
X164127000Y-109000600D01*
X164127000Y-113452600D01*
X164127000Y-113452600D01*
G37*
G36*
X158227000Y-113452600D02*
G01*
X156675000Y-113452600D01*
X156675000Y-109000600D01*
X158227000Y-109000600D01*
X158227000Y-113452600D01*
X158227000Y-113452600D01*
G37*
G36*
X166704674Y-110639465D02*
G01*
X166742367Y-110650899D01*
X166777103Y-110669466D01*
X166807548Y-110694452D01*
X166832534Y-110724897D01*
X166851101Y-110759633D01*
X166862535Y-110797326D01*
X166867000Y-110842661D01*
X166867000Y-111679339D01*
X166862535Y-111724674D01*
X166851101Y-111762367D01*
X166832534Y-111797103D01*
X166807548Y-111827548D01*
X166777103Y-111852534D01*
X166742367Y-111871101D01*
X166704674Y-111882535D01*
X166659339Y-111887000D01*
X165572661Y-111887000D01*
X165527326Y-111882535D01*
X165489633Y-111871101D01*
X165454897Y-111852534D01*
X165424452Y-111827548D01*
X165399466Y-111797103D01*
X165380899Y-111762367D01*
X165369465Y-111724674D01*
X165365000Y-111679339D01*
X165365000Y-110842661D01*
X165369465Y-110797326D01*
X165380899Y-110759633D01*
X165399466Y-110724897D01*
X165424452Y-110694452D01*
X165454897Y-110669466D01*
X165489633Y-110650899D01*
X165527326Y-110639465D01*
X165572661Y-110635000D01*
X166659339Y-110635000D01*
X166704674Y-110639465D01*
X166704674Y-110639465D01*
G37*
G36*
X155884274Y-110614065D02*
G01*
X155921967Y-110625499D01*
X155956703Y-110644066D01*
X155987148Y-110669052D01*
X156012134Y-110699497D01*
X156030701Y-110734233D01*
X156042135Y-110771926D01*
X156046600Y-110817261D01*
X156046600Y-111653939D01*
X156042135Y-111699274D01*
X156030701Y-111736967D01*
X156012134Y-111771703D01*
X155987148Y-111802148D01*
X155956703Y-111827134D01*
X155921967Y-111845701D01*
X155884274Y-111857135D01*
X155838939Y-111861600D01*
X154752261Y-111861600D01*
X154706926Y-111857135D01*
X154669233Y-111845701D01*
X154634497Y-111827134D01*
X154604052Y-111802148D01*
X154579066Y-111771703D01*
X154560499Y-111736967D01*
X154549065Y-111699274D01*
X154544600Y-111653939D01*
X154544600Y-110817261D01*
X154549065Y-110771926D01*
X154560499Y-110734233D01*
X154579066Y-110699497D01*
X154604052Y-110669052D01*
X154634497Y-110644066D01*
X154669233Y-110625499D01*
X154706926Y-110614065D01*
X154752261Y-110609600D01*
X155838939Y-110609600D01*
X155884274Y-110614065D01*
X155884274Y-110614065D01*
G37*
G36*
X166704674Y-108589465D02*
G01*
X166742367Y-108600899D01*
X166777103Y-108619466D01*
X166807548Y-108644452D01*
X166832534Y-108674897D01*
X166851101Y-108709633D01*
X166862535Y-108747326D01*
X166867000Y-108792661D01*
X166867000Y-109629339D01*
X166862535Y-109674674D01*
X166851101Y-109712367D01*
X166832534Y-109747103D01*
X166807548Y-109777548D01*
X166777103Y-109802534D01*
X166742367Y-109821101D01*
X166704674Y-109832535D01*
X166659339Y-109837000D01*
X165572661Y-109837000D01*
X165527326Y-109832535D01*
X165489633Y-109821101D01*
X165454897Y-109802534D01*
X165424452Y-109777548D01*
X165399466Y-109747103D01*
X165380899Y-109712367D01*
X165369465Y-109674674D01*
X165365000Y-109629339D01*
X165365000Y-108792661D01*
X165369465Y-108747326D01*
X165380899Y-108709633D01*
X165399466Y-108674897D01*
X165424452Y-108644452D01*
X165454897Y-108619466D01*
X165489633Y-108600899D01*
X165527326Y-108589465D01*
X165572661Y-108585000D01*
X166659339Y-108585000D01*
X166704674Y-108589465D01*
X166704674Y-108589465D01*
G37*
G36*
X155884274Y-108564065D02*
G01*
X155921967Y-108575499D01*
X155956703Y-108594066D01*
X155987148Y-108619052D01*
X156012134Y-108649497D01*
X156030701Y-108684233D01*
X156042135Y-108721926D01*
X156046600Y-108767261D01*
X156046600Y-109603939D01*
X156042135Y-109649274D01*
X156030701Y-109686967D01*
X156012134Y-109721703D01*
X155987148Y-109752148D01*
X155956703Y-109777134D01*
X155921967Y-109795701D01*
X155884274Y-109807135D01*
X155838939Y-109811600D01*
X154752261Y-109811600D01*
X154706926Y-109807135D01*
X154669233Y-109795701D01*
X154634497Y-109777134D01*
X154604052Y-109752148D01*
X154579066Y-109721703D01*
X154560499Y-109686967D01*
X154549065Y-109649274D01*
X154544600Y-109603939D01*
X154544600Y-108767261D01*
X154549065Y-108721926D01*
X154560499Y-108684233D01*
X154579066Y-108649497D01*
X154604052Y-108619052D01*
X154634497Y-108594066D01*
X154669233Y-108575499D01*
X154706926Y-108564065D01*
X154752261Y-108559600D01*
X155838939Y-108559600D01*
X155884274Y-108564065D01*
X155884274Y-108564065D01*
G37*
G36*
X166288855Y-104932191D02*
G01*
X166360725Y-104946487D01*
X166563824Y-105030613D01*
X166746609Y-105152746D01*
X166902054Y-105308191D01*
X167024187Y-105490976D01*
X167108313Y-105694075D01*
X167151200Y-105909684D01*
X167151200Y-106129516D01*
X167108313Y-106345125D01*
X167024187Y-106548224D01*
X166902054Y-106731009D01*
X166746609Y-106886454D01*
X166563824Y-107008587D01*
X166360725Y-107092713D01*
X166288855Y-107107009D01*
X166145118Y-107135600D01*
X165925282Y-107135600D01*
X165781545Y-107107009D01*
X165709675Y-107092713D01*
X165506576Y-107008587D01*
X165323791Y-106886454D01*
X165168346Y-106731009D01*
X165046213Y-106548224D01*
X164962087Y-106345125D01*
X164919200Y-106129516D01*
X164919200Y-105909684D01*
X164962087Y-105694075D01*
X165046213Y-105490976D01*
X165168346Y-105308191D01*
X165323791Y-105152746D01*
X165506576Y-105030613D01*
X165709675Y-104946487D01*
X165781545Y-104932191D01*
X165925282Y-104903600D01*
X166145118Y-104903600D01*
X166288855Y-104932191D01*
X166288855Y-104932191D01*
G37*
G36*
X157988855Y-104932191D02*
G01*
X158060725Y-104946487D01*
X158263824Y-105030613D01*
X158446609Y-105152746D01*
X158602054Y-105308191D01*
X158724187Y-105490976D01*
X158808313Y-105694075D01*
X158851200Y-105909684D01*
X158851200Y-106129516D01*
X158808313Y-106345125D01*
X158724187Y-106548224D01*
X158602054Y-106731009D01*
X158446609Y-106886454D01*
X158263824Y-107008587D01*
X158060725Y-107092713D01*
X157988855Y-107107009D01*
X157845118Y-107135600D01*
X157625282Y-107135600D01*
X157481545Y-107107009D01*
X157409675Y-107092713D01*
X157206576Y-107008587D01*
X157023791Y-106886454D01*
X156868346Y-106731009D01*
X156746213Y-106548224D01*
X156662087Y-106345125D01*
X156619200Y-106129516D01*
X156619200Y-105909684D01*
X156662087Y-105694075D01*
X156746213Y-105490976D01*
X156868346Y-105308191D01*
X157023791Y-105152746D01*
X157206576Y-105030613D01*
X157409675Y-104946487D01*
X157481545Y-104932191D01*
X157625282Y-104903600D01*
X157845118Y-104903600D01*
X157988855Y-104932191D01*
X157988855Y-104932191D01*
G37*
G36*
X155601200Y-107035600D02*
G01*
X153669200Y-107035600D01*
X153669200Y-105003600D01*
X155601200Y-105003600D01*
X155601200Y-107035600D01*
X155601200Y-107035600D01*
G37*
G36*
X162702474Y-101437665D02*
G01*
X162740167Y-101449099D01*
X162774903Y-101467666D01*
X162805348Y-101492652D01*
X162830334Y-101523097D01*
X162848901Y-101557833D01*
X162860335Y-101595526D01*
X162864800Y-101640861D01*
X162864800Y-102727539D01*
X162860335Y-102772874D01*
X162848901Y-102810567D01*
X162830334Y-102845303D01*
X162805348Y-102875748D01*
X162774903Y-102900734D01*
X162740167Y-102919301D01*
X162702474Y-102930735D01*
X162657139Y-102935200D01*
X161820461Y-102935200D01*
X161775126Y-102930735D01*
X161737433Y-102919301D01*
X161702697Y-102900734D01*
X161672252Y-102875748D01*
X161647266Y-102845303D01*
X161628699Y-102810567D01*
X161617265Y-102772874D01*
X161612800Y-102727539D01*
X161612800Y-101640861D01*
X161617265Y-101595526D01*
X161628699Y-101557833D01*
X161647266Y-101523097D01*
X161672252Y-101492652D01*
X161702697Y-101467666D01*
X161737433Y-101449099D01*
X161775126Y-101437665D01*
X161820461Y-101433200D01*
X162657139Y-101433200D01*
X162702474Y-101437665D01*
X162702474Y-101437665D01*
G37*
G36*
X160652474Y-101437665D02*
G01*
X160690167Y-101449099D01*
X160724903Y-101467666D01*
X160755348Y-101492652D01*
X160780334Y-101523097D01*
X160798901Y-101557833D01*
X160810335Y-101595526D01*
X160814800Y-101640861D01*
X160814800Y-102727539D01*
X160810335Y-102772874D01*
X160798901Y-102810567D01*
X160780334Y-102845303D01*
X160755348Y-102875748D01*
X160724903Y-102900734D01*
X160690167Y-102919301D01*
X160652474Y-102930735D01*
X160607139Y-102935200D01*
X159770461Y-102935200D01*
X159725126Y-102930735D01*
X159687433Y-102919301D01*
X159652697Y-102900734D01*
X159622252Y-102875748D01*
X159597266Y-102845303D01*
X159578699Y-102810567D01*
X159567265Y-102772874D01*
X159562800Y-102727539D01*
X159562800Y-101640861D01*
X159567265Y-101595526D01*
X159578699Y-101557833D01*
X159597266Y-101523097D01*
X159622252Y-101492652D01*
X159652697Y-101467666D01*
X159687433Y-101449099D01*
X159725126Y-101437665D01*
X159770461Y-101433200D01*
X160607139Y-101433200D01*
X160652474Y-101437665D01*
X160652474Y-101437665D01*
G37*
G36*
X160601674Y-99354865D02*
G01*
X160639367Y-99366299D01*
X160674103Y-99384866D01*
X160704548Y-99409852D01*
X160729534Y-99440297D01*
X160748101Y-99475033D01*
X160759535Y-99512726D01*
X160764000Y-99558061D01*
X160764000Y-100644739D01*
X160759535Y-100690074D01*
X160748101Y-100727767D01*
X160729534Y-100762503D01*
X160704548Y-100792948D01*
X160674103Y-100817934D01*
X160639367Y-100836501D01*
X160601674Y-100847935D01*
X160556339Y-100852400D01*
X159719661Y-100852400D01*
X159674326Y-100847935D01*
X159636633Y-100836501D01*
X159601897Y-100817934D01*
X159571452Y-100792948D01*
X159546466Y-100762503D01*
X159527899Y-100727767D01*
X159516465Y-100690074D01*
X159512000Y-100644739D01*
X159512000Y-99558061D01*
X159516465Y-99512726D01*
X159527899Y-99475033D01*
X159546466Y-99440297D01*
X159571452Y-99409852D01*
X159601897Y-99384866D01*
X159636633Y-99366299D01*
X159674326Y-99354865D01*
X159719661Y-99350400D01*
X160556339Y-99350400D01*
X160601674Y-99354865D01*
X160601674Y-99354865D01*
G37*
G36*
X162651674Y-99354865D02*
G01*
X162689367Y-99366299D01*
X162724103Y-99384866D01*
X162754548Y-99409852D01*
X162779534Y-99440297D01*
X162798101Y-99475033D01*
X162809535Y-99512726D01*
X162814000Y-99558061D01*
X162814000Y-100644739D01*
X162809535Y-100690074D01*
X162798101Y-100727767D01*
X162779534Y-100762503D01*
X162754548Y-100792948D01*
X162724103Y-100817934D01*
X162689367Y-100836501D01*
X162651674Y-100847935D01*
X162606339Y-100852400D01*
X161769661Y-100852400D01*
X161724326Y-100847935D01*
X161686633Y-100836501D01*
X161651897Y-100817934D01*
X161621452Y-100792948D01*
X161596466Y-100762503D01*
X161577899Y-100727767D01*
X161566465Y-100690074D01*
X161562000Y-100644739D01*
X161562000Y-99558061D01*
X161566465Y-99512726D01*
X161577899Y-99475033D01*
X161596466Y-99440297D01*
X161621452Y-99409852D01*
X161651897Y-99384866D01*
X161686633Y-99366299D01*
X161724326Y-99354865D01*
X161769661Y-99350400D01*
X162606339Y-99350400D01*
X162651674Y-99354865D01*
X162651674Y-99354865D01*
G37*
G36*
X166288855Y-94492791D02*
G01*
X166360725Y-94507087D01*
X166563824Y-94591213D01*
X166746609Y-94713346D01*
X166902054Y-94868791D01*
X167024187Y-95051576D01*
X167108313Y-95254675D01*
X167151200Y-95470284D01*
X167151200Y-95690116D01*
X167108313Y-95905725D01*
X167024187Y-96108824D01*
X166902054Y-96291609D01*
X166746609Y-96447054D01*
X166563824Y-96569187D01*
X166360725Y-96653313D01*
X166288855Y-96667609D01*
X166145118Y-96696200D01*
X165925282Y-96696200D01*
X165781545Y-96667609D01*
X165709675Y-96653313D01*
X165506576Y-96569187D01*
X165323791Y-96447054D01*
X165168346Y-96291609D01*
X165046213Y-96108824D01*
X164962087Y-95905725D01*
X164919200Y-95690116D01*
X164919200Y-95470284D01*
X164962087Y-95254675D01*
X165046213Y-95051576D01*
X165168346Y-94868791D01*
X165323791Y-94713346D01*
X165506576Y-94591213D01*
X165709675Y-94507087D01*
X165781545Y-94492791D01*
X165925282Y-94464200D01*
X166145118Y-94464200D01*
X166288855Y-94492791D01*
X166288855Y-94492791D01*
G37*
G36*
X157988855Y-94492791D02*
G01*
X158060725Y-94507087D01*
X158263824Y-94591213D01*
X158446609Y-94713346D01*
X158602054Y-94868791D01*
X158724187Y-95051576D01*
X158808313Y-95254675D01*
X158851200Y-95470284D01*
X158851200Y-95690116D01*
X158808313Y-95905725D01*
X158724187Y-96108824D01*
X158602054Y-96291609D01*
X158446609Y-96447054D01*
X158263824Y-96569187D01*
X158060725Y-96653313D01*
X157988855Y-96667609D01*
X157845118Y-96696200D01*
X157625282Y-96696200D01*
X157481545Y-96667609D01*
X157409675Y-96653313D01*
X157206576Y-96569187D01*
X157023791Y-96447054D01*
X156868346Y-96291609D01*
X156746213Y-96108824D01*
X156662087Y-95905725D01*
X156619200Y-95690116D01*
X156619200Y-95470284D01*
X156662087Y-95254675D01*
X156746213Y-95051576D01*
X156868346Y-94868791D01*
X157023791Y-94713346D01*
X157206576Y-94591213D01*
X157409675Y-94507087D01*
X157481545Y-94492791D01*
X157625282Y-94464200D01*
X157845118Y-94464200D01*
X157988855Y-94492791D01*
X157988855Y-94492791D01*
G37*
G36*
X155601200Y-96596200D02*
G01*
X153669200Y-96596200D01*
X153669200Y-94564200D01*
X155601200Y-94564200D01*
X155601200Y-96596200D01*
X155601200Y-96596200D01*
G37*
G36*
X156457397Y-89297651D02*
G01*
X156491052Y-89307861D01*
X156522065Y-89324438D01*
X156549251Y-89346749D01*
X156571562Y-89373935D01*
X156588139Y-89404948D01*
X156598349Y-89438603D01*
X156602400Y-89479738D01*
X156602400Y-90809462D01*
X156598349Y-90850597D01*
X156588139Y-90884252D01*
X156571562Y-90915265D01*
X156549251Y-90942451D01*
X156522065Y-90964762D01*
X156491052Y-90981339D01*
X156457397Y-90991549D01*
X156416262Y-90995600D01*
X153686538Y-90995600D01*
X153645403Y-90991549D01*
X153611748Y-90981339D01*
X153580735Y-90964762D01*
X153553549Y-90942451D01*
X153531238Y-90915265D01*
X153514661Y-90884252D01*
X153504451Y-90850597D01*
X153500400Y-90809462D01*
X153500400Y-89479738D01*
X153504451Y-89438603D01*
X153514661Y-89404948D01*
X153531238Y-89373935D01*
X153553549Y-89346749D01*
X153580735Y-89324438D01*
X153611748Y-89307861D01*
X153645403Y-89297651D01*
X153686538Y-89293600D01*
X156416262Y-89293600D01*
X156457397Y-89297651D01*
X156457397Y-89297651D01*
G37*
G36*
X160857397Y-89297651D02*
G01*
X160891052Y-89307861D01*
X160922065Y-89324438D01*
X160949251Y-89346749D01*
X160971562Y-89373935D01*
X160988139Y-89404948D01*
X160998349Y-89438603D01*
X161002400Y-89479738D01*
X161002400Y-90809462D01*
X160998349Y-90850597D01*
X160988139Y-90884252D01*
X160971562Y-90915265D01*
X160949251Y-90942451D01*
X160922065Y-90964762D01*
X160891052Y-90981339D01*
X160857397Y-90991549D01*
X160816262Y-90995600D01*
X158086538Y-90995600D01*
X158045403Y-90991549D01*
X158011748Y-90981339D01*
X157980735Y-90964762D01*
X157953549Y-90942451D01*
X157931238Y-90915265D01*
X157914661Y-90884252D01*
X157904451Y-90850597D01*
X157900400Y-90809462D01*
X157900400Y-89479738D01*
X157904451Y-89438603D01*
X157914661Y-89404948D01*
X157931238Y-89373935D01*
X157953549Y-89346749D01*
X157980735Y-89324438D01*
X158011748Y-89307861D01*
X158045403Y-89297651D01*
X158086538Y-89293600D01*
X160816262Y-89293600D01*
X160857397Y-89297651D01*
X160857397Y-89297651D01*
G37*
G36*
X157912655Y-84027991D02*
G01*
X157984525Y-84042287D01*
X158187624Y-84126413D01*
X158370409Y-84248546D01*
X158525854Y-84403991D01*
X158647987Y-84586776D01*
X158732113Y-84789875D01*
X158775000Y-85005484D01*
X158775000Y-85225316D01*
X158732113Y-85440925D01*
X158647987Y-85644024D01*
X158525854Y-85826809D01*
X158370409Y-85982254D01*
X158187624Y-86104387D01*
X157984525Y-86188513D01*
X157912655Y-86202809D01*
X157768918Y-86231400D01*
X157549082Y-86231400D01*
X157405345Y-86202809D01*
X157333475Y-86188513D01*
X157130376Y-86104387D01*
X156947591Y-85982254D01*
X156792146Y-85826809D01*
X156670013Y-85644024D01*
X156585887Y-85440925D01*
X156543000Y-85225316D01*
X156543000Y-85005484D01*
X156585887Y-84789875D01*
X156670013Y-84586776D01*
X156792146Y-84403991D01*
X156947591Y-84248546D01*
X157130376Y-84126413D01*
X157333475Y-84042287D01*
X157405345Y-84027991D01*
X157549082Y-83999400D01*
X157768918Y-83999400D01*
X157912655Y-84027991D01*
X157912655Y-84027991D01*
G37*
G36*
X166212655Y-84027991D02*
G01*
X166284525Y-84042287D01*
X166487624Y-84126413D01*
X166670409Y-84248546D01*
X166825854Y-84403991D01*
X166947987Y-84586776D01*
X167032113Y-84789875D01*
X167075000Y-85005484D01*
X167075000Y-85225316D01*
X167032113Y-85440925D01*
X166947987Y-85644024D01*
X166825854Y-85826809D01*
X166670409Y-85982254D01*
X166487624Y-86104387D01*
X166284525Y-86188513D01*
X166212655Y-86202809D01*
X166068918Y-86231400D01*
X165849082Y-86231400D01*
X165705345Y-86202809D01*
X165633475Y-86188513D01*
X165430376Y-86104387D01*
X165247591Y-85982254D01*
X165092146Y-85826809D01*
X164970013Y-85644024D01*
X164885887Y-85440925D01*
X164843000Y-85225316D01*
X164843000Y-85005484D01*
X164885887Y-84789875D01*
X164970013Y-84586776D01*
X165092146Y-84403991D01*
X165247591Y-84248546D01*
X165430376Y-84126413D01*
X165633475Y-84042287D01*
X165705345Y-84027991D01*
X165849082Y-83999400D01*
X166068918Y-83999400D01*
X166212655Y-84027991D01*
X166212655Y-84027991D01*
G37*
G36*
X155525000Y-86131400D02*
G01*
X153593000Y-86131400D01*
X153593000Y-84099400D01*
X155525000Y-84099400D01*
X155525000Y-86131400D01*
X155525000Y-86131400D01*
G37*
G36*
X157731600Y-82339000D02*
G01*
X156629600Y-82339000D01*
X156629600Y-81237000D01*
X157731600Y-81237000D01*
X157731600Y-82339000D01*
X157731600Y-82339000D01*
G37*
G36*
X155231600Y-82339000D02*
G01*
X154129600Y-82339000D01*
X154129600Y-81237000D01*
X155231600Y-81237000D01*
X155231600Y-82339000D01*
X155231600Y-82339000D01*
G37*
G36*
X166799400Y-82288200D02*
G01*
X165697400Y-82288200D01*
X165697400Y-81186200D01*
X166799400Y-81186200D01*
X166799400Y-82288200D01*
X166799400Y-82288200D01*
G37*
G36*
X164299400Y-82288200D02*
G01*
X163197400Y-82288200D01*
X163197400Y-81186200D01*
X164299400Y-81186200D01*
X164299400Y-82288200D01*
X164299400Y-82288200D01*
G37*
G36*
X165616843Y-76473919D02*
G01*
X165683027Y-76480437D01*
X165852866Y-76531957D01*
X166009391Y-76615622D01*
X166045129Y-76644952D01*
X166146586Y-76728214D01*
X166229848Y-76829671D01*
X166259178Y-76865409D01*
X166342843Y-77021934D01*
X166394363Y-77191773D01*
X166411759Y-77368400D01*
X166394363Y-77545027D01*
X166342843Y-77714866D01*
X166259178Y-77871391D01*
X166229848Y-77907129D01*
X166146586Y-78008586D01*
X166045129Y-78091848D01*
X166009391Y-78121178D01*
X165852866Y-78204843D01*
X165683027Y-78256363D01*
X165616842Y-78262882D01*
X165550660Y-78269400D01*
X165462140Y-78269400D01*
X165395958Y-78262882D01*
X165329773Y-78256363D01*
X165159934Y-78204843D01*
X165003409Y-78121178D01*
X164967671Y-78091848D01*
X164866214Y-78008586D01*
X164782952Y-77907129D01*
X164753622Y-77871391D01*
X164669957Y-77714866D01*
X164618437Y-77545027D01*
X164601041Y-77368400D01*
X164618437Y-77191773D01*
X164669957Y-77021934D01*
X164753622Y-76865409D01*
X164782952Y-76829671D01*
X164866214Y-76728214D01*
X164967671Y-76644952D01*
X165003409Y-76615622D01*
X165159934Y-76531957D01*
X165329773Y-76480437D01*
X165395957Y-76473919D01*
X165462140Y-76467400D01*
X165550660Y-76467400D01*
X165616843Y-76473919D01*
X165616843Y-76473919D01*
G37*
G36*
X155456843Y-76473919D02*
G01*
X155523027Y-76480437D01*
X155692866Y-76531957D01*
X155849391Y-76615622D01*
X155885129Y-76644952D01*
X155986586Y-76728214D01*
X156069848Y-76829671D01*
X156099178Y-76865409D01*
X156182843Y-77021934D01*
X156234363Y-77191773D01*
X156251759Y-77368400D01*
X156234363Y-77545027D01*
X156182843Y-77714866D01*
X156099178Y-77871391D01*
X156069848Y-77907129D01*
X155986586Y-78008586D01*
X155885129Y-78091848D01*
X155849391Y-78121178D01*
X155692866Y-78204843D01*
X155523027Y-78256363D01*
X155456842Y-78262882D01*
X155390660Y-78269400D01*
X155302140Y-78269400D01*
X155235958Y-78262882D01*
X155169773Y-78256363D01*
X154999934Y-78204843D01*
X154843409Y-78121178D01*
X154807671Y-78091848D01*
X154706214Y-78008586D01*
X154622952Y-77907129D01*
X154593622Y-77871391D01*
X154509957Y-77714866D01*
X154458437Y-77545027D01*
X154441041Y-77368400D01*
X154458437Y-77191773D01*
X154509957Y-77021934D01*
X154593622Y-76865409D01*
X154622952Y-76829671D01*
X154706214Y-76728214D01*
X154807671Y-76644952D01*
X154843409Y-76615622D01*
X154999934Y-76531957D01*
X155169773Y-76480437D01*
X155235957Y-76473919D01*
X155302140Y-76467400D01*
X155390660Y-76467400D01*
X155456843Y-76473919D01*
X155456843Y-76473919D01*
G37*
G36*
X163076843Y-76473919D02*
G01*
X163143027Y-76480437D01*
X163312866Y-76531957D01*
X163469391Y-76615622D01*
X163505129Y-76644952D01*
X163606586Y-76728214D01*
X163689848Y-76829671D01*
X163719178Y-76865409D01*
X163802843Y-77021934D01*
X163854363Y-77191773D01*
X163871759Y-77368400D01*
X163854363Y-77545027D01*
X163802843Y-77714866D01*
X163719178Y-77871391D01*
X163689848Y-77907129D01*
X163606586Y-78008586D01*
X163505129Y-78091848D01*
X163469391Y-78121178D01*
X163312866Y-78204843D01*
X163143027Y-78256363D01*
X163076842Y-78262882D01*
X163010660Y-78269400D01*
X162922140Y-78269400D01*
X162855958Y-78262882D01*
X162789773Y-78256363D01*
X162619934Y-78204843D01*
X162463409Y-78121178D01*
X162427671Y-78091848D01*
X162326214Y-78008586D01*
X162242952Y-77907129D01*
X162213622Y-77871391D01*
X162129957Y-77714866D01*
X162078437Y-77545027D01*
X162061041Y-77368400D01*
X162078437Y-77191773D01*
X162129957Y-77021934D01*
X162213622Y-76865409D01*
X162242952Y-76829671D01*
X162326214Y-76728214D01*
X162427671Y-76644952D01*
X162463409Y-76615622D01*
X162619934Y-76531957D01*
X162789773Y-76480437D01*
X162855957Y-76473919D01*
X162922140Y-76467400D01*
X163010660Y-76467400D01*
X163076843Y-76473919D01*
X163076843Y-76473919D01*
G37*
G36*
X160536843Y-76473919D02*
G01*
X160603027Y-76480437D01*
X160772866Y-76531957D01*
X160929391Y-76615622D01*
X160965129Y-76644952D01*
X161066586Y-76728214D01*
X161149848Y-76829671D01*
X161179178Y-76865409D01*
X161262843Y-77021934D01*
X161314363Y-77191773D01*
X161331759Y-77368400D01*
X161314363Y-77545027D01*
X161262843Y-77714866D01*
X161179178Y-77871391D01*
X161149848Y-77907129D01*
X161066586Y-78008586D01*
X160965129Y-78091848D01*
X160929391Y-78121178D01*
X160772866Y-78204843D01*
X160603027Y-78256363D01*
X160536842Y-78262882D01*
X160470660Y-78269400D01*
X160382140Y-78269400D01*
X160315958Y-78262882D01*
X160249773Y-78256363D01*
X160079934Y-78204843D01*
X159923409Y-78121178D01*
X159887671Y-78091848D01*
X159786214Y-78008586D01*
X159702952Y-77907129D01*
X159673622Y-77871391D01*
X159589957Y-77714866D01*
X159538437Y-77545027D01*
X159521041Y-77368400D01*
X159538437Y-77191773D01*
X159589957Y-77021934D01*
X159673622Y-76865409D01*
X159702952Y-76829671D01*
X159786214Y-76728214D01*
X159887671Y-76644952D01*
X159923409Y-76615622D01*
X160079934Y-76531957D01*
X160249773Y-76480437D01*
X160315957Y-76473919D01*
X160382140Y-76467400D01*
X160470660Y-76467400D01*
X160536843Y-76473919D01*
X160536843Y-76473919D01*
G37*
G36*
X157996843Y-76473919D02*
G01*
X158063027Y-76480437D01*
X158232866Y-76531957D01*
X158389391Y-76615622D01*
X158425129Y-76644952D01*
X158526586Y-76728214D01*
X158609848Y-76829671D01*
X158639178Y-76865409D01*
X158722843Y-77021934D01*
X158774363Y-77191773D01*
X158791759Y-77368400D01*
X158774363Y-77545027D01*
X158722843Y-77714866D01*
X158639178Y-77871391D01*
X158609848Y-77907129D01*
X158526586Y-78008586D01*
X158425129Y-78091848D01*
X158389391Y-78121178D01*
X158232866Y-78204843D01*
X158063027Y-78256363D01*
X157996842Y-78262882D01*
X157930660Y-78269400D01*
X157842140Y-78269400D01*
X157775958Y-78262882D01*
X157709773Y-78256363D01*
X157539934Y-78204843D01*
X157383409Y-78121178D01*
X157347671Y-78091848D01*
X157246214Y-78008586D01*
X157162952Y-77907129D01*
X157133622Y-77871391D01*
X157049957Y-77714866D01*
X156998437Y-77545027D01*
X156981041Y-77368400D01*
X156998437Y-77191773D01*
X157049957Y-77021934D01*
X157133622Y-76865409D01*
X157162952Y-76829671D01*
X157246214Y-76728214D01*
X157347671Y-76644952D01*
X157383409Y-76615622D01*
X157539934Y-76531957D01*
X157709773Y-76480437D01*
X157775957Y-76473919D01*
X157842140Y-76467400D01*
X157930660Y-76467400D01*
X157996843Y-76473919D01*
X157996843Y-76473919D01*
G37*
G36*
X155456842Y-73933918D02*
G01*
X155523027Y-73940437D01*
X155692866Y-73991957D01*
X155849391Y-74075622D01*
X155885129Y-74104952D01*
X155986586Y-74188214D01*
X156069848Y-74289671D01*
X156099178Y-74325409D01*
X156182843Y-74481934D01*
X156234363Y-74651773D01*
X156251759Y-74828400D01*
X156234363Y-75005027D01*
X156182843Y-75174866D01*
X156099178Y-75331391D01*
X156069848Y-75367129D01*
X155986586Y-75468586D01*
X155885129Y-75551848D01*
X155849391Y-75581178D01*
X155692866Y-75664843D01*
X155523027Y-75716363D01*
X155456843Y-75722881D01*
X155390660Y-75729400D01*
X155302140Y-75729400D01*
X155235957Y-75722881D01*
X155169773Y-75716363D01*
X154999934Y-75664843D01*
X154843409Y-75581178D01*
X154807671Y-75551848D01*
X154706214Y-75468586D01*
X154622952Y-75367129D01*
X154593622Y-75331391D01*
X154509957Y-75174866D01*
X154458437Y-75005027D01*
X154441041Y-74828400D01*
X154458437Y-74651773D01*
X154509957Y-74481934D01*
X154593622Y-74325409D01*
X154622952Y-74289671D01*
X154706214Y-74188214D01*
X154807671Y-74104952D01*
X154843409Y-74075622D01*
X154999934Y-73991957D01*
X155169773Y-73940437D01*
X155235958Y-73933918D01*
X155302140Y-73927400D01*
X155390660Y-73927400D01*
X155456842Y-73933918D01*
X155456842Y-73933918D01*
G37*
G36*
X157996842Y-73933918D02*
G01*
X158063027Y-73940437D01*
X158232866Y-73991957D01*
X158389391Y-74075622D01*
X158425129Y-74104952D01*
X158526586Y-74188214D01*
X158609848Y-74289671D01*
X158639178Y-74325409D01*
X158722843Y-74481934D01*
X158774363Y-74651773D01*
X158791759Y-74828400D01*
X158774363Y-75005027D01*
X158722843Y-75174866D01*
X158639178Y-75331391D01*
X158609848Y-75367129D01*
X158526586Y-75468586D01*
X158425129Y-75551848D01*
X158389391Y-75581178D01*
X158232866Y-75664843D01*
X158063027Y-75716363D01*
X157996843Y-75722881D01*
X157930660Y-75729400D01*
X157842140Y-75729400D01*
X157775957Y-75722881D01*
X157709773Y-75716363D01*
X157539934Y-75664843D01*
X157383409Y-75581178D01*
X157347671Y-75551848D01*
X157246214Y-75468586D01*
X157162952Y-75367129D01*
X157133622Y-75331391D01*
X157049957Y-75174866D01*
X156998437Y-75005027D01*
X156981041Y-74828400D01*
X156998437Y-74651773D01*
X157049957Y-74481934D01*
X157133622Y-74325409D01*
X157162952Y-74289671D01*
X157246214Y-74188214D01*
X157347671Y-74104952D01*
X157383409Y-74075622D01*
X157539934Y-73991957D01*
X157709773Y-73940437D01*
X157775958Y-73933918D01*
X157842140Y-73927400D01*
X157930660Y-73927400D01*
X157996842Y-73933918D01*
X157996842Y-73933918D01*
G37*
G36*
X160536842Y-73933918D02*
G01*
X160603027Y-73940437D01*
X160772866Y-73991957D01*
X160929391Y-74075622D01*
X160965129Y-74104952D01*
X161066586Y-74188214D01*
X161149848Y-74289671D01*
X161179178Y-74325409D01*
X161262843Y-74481934D01*
X161314363Y-74651773D01*
X161331759Y-74828400D01*
X161314363Y-75005027D01*
X161262843Y-75174866D01*
X161179178Y-75331391D01*
X161149848Y-75367129D01*
X161066586Y-75468586D01*
X160965129Y-75551848D01*
X160929391Y-75581178D01*
X160772866Y-75664843D01*
X160603027Y-75716363D01*
X160536843Y-75722881D01*
X160470660Y-75729400D01*
X160382140Y-75729400D01*
X160315957Y-75722881D01*
X160249773Y-75716363D01*
X160079934Y-75664843D01*
X159923409Y-75581178D01*
X159887671Y-75551848D01*
X159786214Y-75468586D01*
X159702952Y-75367129D01*
X159673622Y-75331391D01*
X159589957Y-75174866D01*
X159538437Y-75005027D01*
X159521041Y-74828400D01*
X159538437Y-74651773D01*
X159589957Y-74481934D01*
X159673622Y-74325409D01*
X159702952Y-74289671D01*
X159786214Y-74188214D01*
X159887671Y-74104952D01*
X159923409Y-74075622D01*
X160079934Y-73991957D01*
X160249773Y-73940437D01*
X160315958Y-73933918D01*
X160382140Y-73927400D01*
X160470660Y-73927400D01*
X160536842Y-73933918D01*
X160536842Y-73933918D01*
G37*
G36*
X166407400Y-75729400D02*
G01*
X164605400Y-75729400D01*
X164605400Y-73927400D01*
X166407400Y-73927400D01*
X166407400Y-75729400D01*
X166407400Y-75729400D01*
G37*
G36*
X163076842Y-73933918D02*
G01*
X163143027Y-73940437D01*
X163312866Y-73991957D01*
X163469391Y-74075622D01*
X163505129Y-74104952D01*
X163606586Y-74188214D01*
X163689848Y-74289671D01*
X163719178Y-74325409D01*
X163802843Y-74481934D01*
X163854363Y-74651773D01*
X163871759Y-74828400D01*
X163854363Y-75005027D01*
X163802843Y-75174866D01*
X163719178Y-75331391D01*
X163689848Y-75367129D01*
X163606586Y-75468586D01*
X163505129Y-75551848D01*
X163469391Y-75581178D01*
X163312866Y-75664843D01*
X163143027Y-75716363D01*
X163076843Y-75722881D01*
X163010660Y-75729400D01*
X162922140Y-75729400D01*
X162855957Y-75722881D01*
X162789773Y-75716363D01*
X162619934Y-75664843D01*
X162463409Y-75581178D01*
X162427671Y-75551848D01*
X162326214Y-75468586D01*
X162242952Y-75367129D01*
X162213622Y-75331391D01*
X162129957Y-75174866D01*
X162078437Y-75005027D01*
X162061041Y-74828400D01*
X162078437Y-74651773D01*
X162129957Y-74481934D01*
X162213622Y-74325409D01*
X162242952Y-74289671D01*
X162326214Y-74188214D01*
X162427671Y-74104952D01*
X162463409Y-74075622D01*
X162619934Y-73991957D01*
X162789773Y-73940437D01*
X162855958Y-73933918D01*
X162922140Y-73927400D01*
X163010660Y-73927400D01*
X163076842Y-73933918D01*
X163076842Y-73933918D01*
G37*
G36*
X164629600Y-71417000D02*
G01*
X163527600Y-71417000D01*
X163527600Y-70315000D01*
X164629600Y-70315000D01*
X164629600Y-71417000D01*
X164629600Y-71417000D01*
G37*
G36*
X167129600Y-71417000D02*
G01*
X166027600Y-71417000D01*
X166027600Y-70315000D01*
X167129600Y-70315000D01*
X167129600Y-71417000D01*
X167129600Y-71417000D01*
G37*
G36*
X155028400Y-71340800D02*
G01*
X153926400Y-71340800D01*
X153926400Y-70238800D01*
X155028400Y-70238800D01*
X155028400Y-71340800D01*
X155028400Y-71340800D01*
G37*
G36*
X157528400Y-71340800D02*
G01*
X156426400Y-71340800D01*
X156426400Y-70238800D01*
X157528400Y-70238800D01*
X157528400Y-71340800D01*
X157528400Y-71340800D01*
G37*
G36*
X163396655Y-66298791D02*
G01*
X163468525Y-66313087D01*
X163671624Y-66397213D01*
X163854409Y-66519346D01*
X164009854Y-66674791D01*
X164131987Y-66857576D01*
X164216113Y-67060675D01*
X164259000Y-67276284D01*
X164259000Y-67496116D01*
X164216113Y-67711725D01*
X164131987Y-67914824D01*
X164009854Y-68097609D01*
X163854409Y-68253054D01*
X163671624Y-68375187D01*
X163468525Y-68459313D01*
X163396655Y-68473609D01*
X163252918Y-68502200D01*
X163033082Y-68502200D01*
X162889345Y-68473609D01*
X162817475Y-68459313D01*
X162614376Y-68375187D01*
X162431591Y-68253054D01*
X162276146Y-68097609D01*
X162154013Y-67914824D01*
X162069887Y-67711725D01*
X162027000Y-67496116D01*
X162027000Y-67276284D01*
X162069887Y-67060675D01*
X162154013Y-66857576D01*
X162276146Y-66674791D01*
X162431591Y-66519346D01*
X162614376Y-66397213D01*
X162817475Y-66313087D01*
X162889345Y-66298791D01*
X163033082Y-66270200D01*
X163252918Y-66270200D01*
X163396655Y-66298791D01*
X163396655Y-66298791D01*
G37*
G36*
X155096655Y-66298791D02*
G01*
X155168525Y-66313087D01*
X155371624Y-66397213D01*
X155554409Y-66519346D01*
X155709854Y-66674791D01*
X155831987Y-66857576D01*
X155916113Y-67060675D01*
X155959000Y-67276284D01*
X155959000Y-67496116D01*
X155916113Y-67711725D01*
X155831987Y-67914824D01*
X155709854Y-68097609D01*
X155554409Y-68253054D01*
X155371624Y-68375187D01*
X155168525Y-68459313D01*
X155096655Y-68473609D01*
X154952918Y-68502200D01*
X154733082Y-68502200D01*
X154589345Y-68473609D01*
X154517475Y-68459313D01*
X154314376Y-68375187D01*
X154131591Y-68253054D01*
X153976146Y-68097609D01*
X153854013Y-67914824D01*
X153769887Y-67711725D01*
X153727000Y-67496116D01*
X153727000Y-67276284D01*
X153769887Y-67060675D01*
X153854013Y-66857576D01*
X153976146Y-66674791D01*
X154131591Y-66519346D01*
X154314376Y-66397213D01*
X154517475Y-66313087D01*
X154589345Y-66298791D01*
X154733082Y-66270200D01*
X154952918Y-66270200D01*
X155096655Y-66298791D01*
X155096655Y-66298791D01*
G37*
G36*
X167209000Y-68402200D02*
G01*
X165277000Y-68402200D01*
X165277000Y-66370200D01*
X167209000Y-66370200D01*
X167209000Y-68402200D01*
X167209000Y-68402200D01*
G37*
G36*
X160679597Y-61560851D02*
G01*
X160713252Y-61571061D01*
X160744265Y-61587638D01*
X160771451Y-61609949D01*
X160793762Y-61637135D01*
X160810339Y-61668148D01*
X160820549Y-61701803D01*
X160824600Y-61742938D01*
X160824600Y-63072662D01*
X160820549Y-63113797D01*
X160810339Y-63147452D01*
X160793762Y-63178465D01*
X160771451Y-63205651D01*
X160744265Y-63227962D01*
X160713252Y-63244539D01*
X160679597Y-63254749D01*
X160638462Y-63258800D01*
X157908738Y-63258800D01*
X157867603Y-63254749D01*
X157833948Y-63244539D01*
X157802935Y-63227962D01*
X157775749Y-63205651D01*
X157753438Y-63178465D01*
X157736861Y-63147452D01*
X157726651Y-63113797D01*
X157722600Y-63072662D01*
X157722600Y-61742938D01*
X157726651Y-61701803D01*
X157736861Y-61668148D01*
X157753438Y-61637135D01*
X157775749Y-61609949D01*
X157802935Y-61587638D01*
X157833948Y-61571061D01*
X157867603Y-61560851D01*
X157908738Y-61556800D01*
X160638462Y-61556800D01*
X160679597Y-61560851D01*
X160679597Y-61560851D01*
G37*
G36*
X156279597Y-61560851D02*
G01*
X156313252Y-61571061D01*
X156344265Y-61587638D01*
X156371451Y-61609949D01*
X156393762Y-61637135D01*
X156410339Y-61668148D01*
X156420549Y-61701803D01*
X156424600Y-61742938D01*
X156424600Y-63072662D01*
X156420549Y-63113797D01*
X156410339Y-63147452D01*
X156393762Y-63178465D01*
X156371451Y-63205651D01*
X156344265Y-63227962D01*
X156313252Y-63244539D01*
X156279597Y-63254749D01*
X156238462Y-63258800D01*
X153508738Y-63258800D01*
X153467603Y-63254749D01*
X153433948Y-63244539D01*
X153402935Y-63227962D01*
X153375749Y-63205651D01*
X153353438Y-63178465D01*
X153336861Y-63147452D01*
X153326651Y-63113797D01*
X153322600Y-63072662D01*
X153322600Y-61742938D01*
X153326651Y-61701803D01*
X153336861Y-61668148D01*
X153353438Y-61637135D01*
X153375749Y-61609949D01*
X153402935Y-61587638D01*
X153433948Y-61571061D01*
X153467603Y-61560851D01*
X153508738Y-61556800D01*
X156238462Y-61556800D01*
X156279597Y-61560851D01*
X156279597Y-61560851D01*
G37*
G36*
X163396655Y-56138791D02*
G01*
X163468525Y-56153087D01*
X163671624Y-56237213D01*
X163854409Y-56359346D01*
X164009854Y-56514791D01*
X164131987Y-56697576D01*
X164216113Y-56900675D01*
X164259000Y-57116284D01*
X164259000Y-57336116D01*
X164216113Y-57551725D01*
X164131987Y-57754824D01*
X164009854Y-57937609D01*
X163854409Y-58093054D01*
X163671624Y-58215187D01*
X163468525Y-58299313D01*
X163396655Y-58313609D01*
X163252918Y-58342200D01*
X163033082Y-58342200D01*
X162889345Y-58313609D01*
X162817475Y-58299313D01*
X162614376Y-58215187D01*
X162431591Y-58093054D01*
X162276146Y-57937609D01*
X162154013Y-57754824D01*
X162069887Y-57551725D01*
X162027000Y-57336116D01*
X162027000Y-57116284D01*
X162069887Y-56900675D01*
X162154013Y-56697576D01*
X162276146Y-56514791D01*
X162431591Y-56359346D01*
X162614376Y-56237213D01*
X162817475Y-56153087D01*
X162889345Y-56138791D01*
X163033082Y-56110200D01*
X163252918Y-56110200D01*
X163396655Y-56138791D01*
X163396655Y-56138791D01*
G37*
G36*
X155096655Y-56138791D02*
G01*
X155168525Y-56153087D01*
X155371624Y-56237213D01*
X155554409Y-56359346D01*
X155709854Y-56514791D01*
X155831987Y-56697576D01*
X155916113Y-56900675D01*
X155959000Y-57116284D01*
X155959000Y-57336116D01*
X155916113Y-57551725D01*
X155831987Y-57754824D01*
X155709854Y-57937609D01*
X155554409Y-58093054D01*
X155371624Y-58215187D01*
X155168525Y-58299313D01*
X155096655Y-58313609D01*
X154952918Y-58342200D01*
X154733082Y-58342200D01*
X154589345Y-58313609D01*
X154517475Y-58299313D01*
X154314376Y-58215187D01*
X154131591Y-58093054D01*
X153976146Y-57937609D01*
X153854013Y-57754824D01*
X153769887Y-57551725D01*
X153727000Y-57336116D01*
X153727000Y-57116284D01*
X153769887Y-56900675D01*
X153854013Y-56697576D01*
X153976146Y-56514791D01*
X154131591Y-56359346D01*
X154314376Y-56237213D01*
X154517475Y-56153087D01*
X154589345Y-56138791D01*
X154733082Y-56110200D01*
X154952918Y-56110200D01*
X155096655Y-56138791D01*
X155096655Y-56138791D01*
G37*
G36*
X167209000Y-58242200D02*
G01*
X165277000Y-58242200D01*
X165277000Y-56210200D01*
X167209000Y-56210200D01*
X167209000Y-58242200D01*
X167209000Y-58242200D01*
G37*
G36*
X160899074Y-52898265D02*
G01*
X160936767Y-52909699D01*
X160971503Y-52928266D01*
X161001948Y-52953252D01*
X161026934Y-52983697D01*
X161045501Y-53018433D01*
X161056935Y-53056126D01*
X161061400Y-53101461D01*
X161061400Y-54188139D01*
X161056935Y-54233474D01*
X161045501Y-54271167D01*
X161026934Y-54305903D01*
X161001948Y-54336348D01*
X160971503Y-54361334D01*
X160936767Y-54379901D01*
X160899074Y-54391335D01*
X160853739Y-54395800D01*
X160017061Y-54395800D01*
X159971726Y-54391335D01*
X159934033Y-54379901D01*
X159899297Y-54361334D01*
X159868852Y-54336348D01*
X159843866Y-54305903D01*
X159825299Y-54271167D01*
X159813865Y-54233474D01*
X159809400Y-54188139D01*
X159809400Y-53101461D01*
X159813865Y-53056126D01*
X159825299Y-53018433D01*
X159843866Y-52983697D01*
X159868852Y-52953252D01*
X159899297Y-52928266D01*
X159934033Y-52909699D01*
X159971726Y-52898265D01*
X160017061Y-52893800D01*
X160853739Y-52893800D01*
X160899074Y-52898265D01*
X160899074Y-52898265D01*
G37*
G36*
X158849074Y-52898265D02*
G01*
X158886767Y-52909699D01*
X158921503Y-52928266D01*
X158951948Y-52953252D01*
X158976934Y-52983697D01*
X158995501Y-53018433D01*
X159006935Y-53056126D01*
X159011400Y-53101461D01*
X159011400Y-54188139D01*
X159006935Y-54233474D01*
X158995501Y-54271167D01*
X158976934Y-54305903D01*
X158951948Y-54336348D01*
X158921503Y-54361334D01*
X158886767Y-54379901D01*
X158849074Y-54391335D01*
X158803739Y-54395800D01*
X157967061Y-54395800D01*
X157921726Y-54391335D01*
X157884033Y-54379901D01*
X157849297Y-54361334D01*
X157818852Y-54336348D01*
X157793866Y-54305903D01*
X157775299Y-54271167D01*
X157763865Y-54233474D01*
X157759400Y-54188139D01*
X157759400Y-53101461D01*
X157763865Y-53056126D01*
X157775299Y-53018433D01*
X157793866Y-52983697D01*
X157818852Y-52953252D01*
X157849297Y-52928266D01*
X157884033Y-52909699D01*
X157921726Y-52898265D01*
X157967061Y-52893800D01*
X158803739Y-52893800D01*
X158849074Y-52898265D01*
X158849074Y-52898265D01*
G37*
G36*
X160772074Y-50586865D02*
G01*
X160809767Y-50598299D01*
X160844503Y-50616866D01*
X160874948Y-50641852D01*
X160899934Y-50672297D01*
X160918501Y-50707033D01*
X160929935Y-50744726D01*
X160934400Y-50790061D01*
X160934400Y-51876739D01*
X160929935Y-51922074D01*
X160918501Y-51959767D01*
X160899934Y-51994503D01*
X160874948Y-52024948D01*
X160844503Y-52049934D01*
X160809767Y-52068501D01*
X160772074Y-52079935D01*
X160726739Y-52084400D01*
X159890061Y-52084400D01*
X159844726Y-52079935D01*
X159807033Y-52068501D01*
X159772297Y-52049934D01*
X159741852Y-52024948D01*
X159716866Y-51994503D01*
X159698299Y-51959767D01*
X159686865Y-51922074D01*
X159682400Y-51876739D01*
X159682400Y-50790061D01*
X159686865Y-50744726D01*
X159698299Y-50707033D01*
X159716866Y-50672297D01*
X159741852Y-50641852D01*
X159772297Y-50616866D01*
X159807033Y-50598299D01*
X159844726Y-50586865D01*
X159890061Y-50582400D01*
X160726739Y-50582400D01*
X160772074Y-50586865D01*
X160772074Y-50586865D01*
G37*
G36*
X158722074Y-50586865D02*
G01*
X158759767Y-50598299D01*
X158794503Y-50616866D01*
X158824948Y-50641852D01*
X158849934Y-50672297D01*
X158868501Y-50707033D01*
X158879935Y-50744726D01*
X158884400Y-50790061D01*
X158884400Y-51876739D01*
X158879935Y-51922074D01*
X158868501Y-51959767D01*
X158849934Y-51994503D01*
X158824948Y-52024948D01*
X158794503Y-52049934D01*
X158759767Y-52068501D01*
X158722074Y-52079935D01*
X158676739Y-52084400D01*
X157840061Y-52084400D01*
X157794726Y-52079935D01*
X157757033Y-52068501D01*
X157722297Y-52049934D01*
X157691852Y-52024948D01*
X157666866Y-51994503D01*
X157648299Y-51959767D01*
X157636865Y-51922074D01*
X157632400Y-51876739D01*
X157632400Y-50790061D01*
X157636865Y-50744726D01*
X157648299Y-50707033D01*
X157666866Y-50672297D01*
X157691852Y-50641852D01*
X157722297Y-50616866D01*
X157757033Y-50598299D01*
X157794726Y-50586865D01*
X157840061Y-50582400D01*
X158676739Y-50582400D01*
X158722074Y-50586865D01*
X158722074Y-50586865D01*
G37*
G36*
X155096655Y-45978791D02*
G01*
X155168525Y-45993087D01*
X155371624Y-46077213D01*
X155554409Y-46199346D01*
X155709854Y-46354791D01*
X155831987Y-46537576D01*
X155916113Y-46740675D01*
X155959000Y-46956284D01*
X155959000Y-47176116D01*
X155916113Y-47391725D01*
X155831987Y-47594824D01*
X155709854Y-47777609D01*
X155554409Y-47933054D01*
X155371624Y-48055187D01*
X155168525Y-48139313D01*
X155096655Y-48153609D01*
X154952918Y-48182200D01*
X154733082Y-48182200D01*
X154589345Y-48153609D01*
X154517475Y-48139313D01*
X154314376Y-48055187D01*
X154131591Y-47933054D01*
X153976146Y-47777609D01*
X153854013Y-47594824D01*
X153769887Y-47391725D01*
X153727000Y-47176116D01*
X153727000Y-46956284D01*
X153769887Y-46740675D01*
X153854013Y-46537576D01*
X153976146Y-46354791D01*
X154131591Y-46199346D01*
X154314376Y-46077213D01*
X154517475Y-45993087D01*
X154589345Y-45978791D01*
X154733082Y-45950200D01*
X154952918Y-45950200D01*
X155096655Y-45978791D01*
X155096655Y-45978791D01*
G37*
G36*
X163396655Y-45978791D02*
G01*
X163468525Y-45993087D01*
X163671624Y-46077213D01*
X163854409Y-46199346D01*
X164009854Y-46354791D01*
X164131987Y-46537576D01*
X164216113Y-46740675D01*
X164259000Y-46956284D01*
X164259000Y-47176116D01*
X164216113Y-47391725D01*
X164131987Y-47594824D01*
X164009854Y-47777609D01*
X163854409Y-47933054D01*
X163671624Y-48055187D01*
X163468525Y-48139313D01*
X163396655Y-48153609D01*
X163252918Y-48182200D01*
X163033082Y-48182200D01*
X162889345Y-48153609D01*
X162817475Y-48139313D01*
X162614376Y-48055187D01*
X162431591Y-47933054D01*
X162276146Y-47777609D01*
X162154013Y-47594824D01*
X162069887Y-47391725D01*
X162027000Y-47176116D01*
X162027000Y-46956284D01*
X162069887Y-46740675D01*
X162154013Y-46537576D01*
X162276146Y-46354791D01*
X162431591Y-46199346D01*
X162614376Y-46077213D01*
X162817475Y-45993087D01*
X162889345Y-45978791D01*
X163033082Y-45950200D01*
X163252918Y-45950200D01*
X163396655Y-45978791D01*
X163396655Y-45978791D01*
G37*
G36*
X167209000Y-48082200D02*
G01*
X165277000Y-48082200D01*
X165277000Y-46050200D01*
X167209000Y-46050200D01*
X167209000Y-48082200D01*
X167209000Y-48082200D01*
G37*
G36*
X163492000Y-44110600D02*
G01*
X161940000Y-44110600D01*
X161940000Y-39658600D01*
X163492000Y-39658600D01*
X163492000Y-44110600D01*
X163492000Y-44110600D01*
G37*
G36*
X157592000Y-44110600D02*
G01*
X156040000Y-44110600D01*
X156040000Y-39658600D01*
X157592000Y-39658600D01*
X157592000Y-44110600D01*
X157592000Y-44110600D01*
G37*
G36*
X166247474Y-42643665D02*
G01*
X166285167Y-42655099D01*
X166319903Y-42673666D01*
X166350348Y-42698652D01*
X166375334Y-42729097D01*
X166393901Y-42763833D01*
X166405335Y-42801526D01*
X166409800Y-42846861D01*
X166409800Y-43683539D01*
X166405335Y-43728874D01*
X166393901Y-43766567D01*
X166375334Y-43801303D01*
X166350348Y-43831748D01*
X166319903Y-43856734D01*
X166285167Y-43875301D01*
X166247474Y-43886735D01*
X166202139Y-43891200D01*
X165115461Y-43891200D01*
X165070126Y-43886735D01*
X165032433Y-43875301D01*
X164997697Y-43856734D01*
X164967252Y-43831748D01*
X164942266Y-43801303D01*
X164923699Y-43766567D01*
X164912265Y-43728874D01*
X164907800Y-43683539D01*
X164907800Y-42846861D01*
X164912265Y-42801526D01*
X164923699Y-42763833D01*
X164942266Y-42729097D01*
X164967252Y-42698652D01*
X164997697Y-42673666D01*
X165032433Y-42655099D01*
X165070126Y-42643665D01*
X165115461Y-42639200D01*
X166202139Y-42639200D01*
X166247474Y-42643665D01*
X166247474Y-42643665D01*
G37*
G36*
X155198474Y-41627665D02*
G01*
X155236167Y-41639099D01*
X155270903Y-41657666D01*
X155301348Y-41682652D01*
X155326334Y-41713097D01*
X155344901Y-41747833D01*
X155356335Y-41785526D01*
X155360800Y-41830861D01*
X155360800Y-42667539D01*
X155356335Y-42712874D01*
X155344901Y-42750567D01*
X155326334Y-42785303D01*
X155301348Y-42815748D01*
X155270903Y-42840734D01*
X155236167Y-42859301D01*
X155198474Y-42870735D01*
X155153139Y-42875200D01*
X154066461Y-42875200D01*
X154021126Y-42870735D01*
X153983433Y-42859301D01*
X153948697Y-42840734D01*
X153918252Y-42815748D01*
X153893266Y-42785303D01*
X153874699Y-42750567D01*
X153863265Y-42712874D01*
X153858800Y-42667539D01*
X153858800Y-41830861D01*
X153863265Y-41785526D01*
X153874699Y-41747833D01*
X153893266Y-41713097D01*
X153918252Y-41682652D01*
X153948697Y-41657666D01*
X153983433Y-41639099D01*
X154021126Y-41627665D01*
X154066461Y-41623200D01*
X155153139Y-41623200D01*
X155198474Y-41627665D01*
X155198474Y-41627665D01*
G37*
G36*
X166247474Y-40593665D02*
G01*
X166285167Y-40605099D01*
X166319903Y-40623666D01*
X166350348Y-40648652D01*
X166375334Y-40679097D01*
X166393901Y-40713833D01*
X166405335Y-40751526D01*
X166409800Y-40796861D01*
X166409800Y-41633539D01*
X166405335Y-41678874D01*
X166393901Y-41716567D01*
X166375334Y-41751303D01*
X166350348Y-41781748D01*
X166319903Y-41806734D01*
X166285167Y-41825301D01*
X166247474Y-41836735D01*
X166202139Y-41841200D01*
X165115461Y-41841200D01*
X165070126Y-41836735D01*
X165032433Y-41825301D01*
X164997697Y-41806734D01*
X164967252Y-41781748D01*
X164942266Y-41751303D01*
X164923699Y-41716567D01*
X164912265Y-41678874D01*
X164907800Y-41633539D01*
X164907800Y-40796861D01*
X164912265Y-40751526D01*
X164923699Y-40713833D01*
X164942266Y-40679097D01*
X164967252Y-40648652D01*
X164997697Y-40623666D01*
X165032433Y-40605099D01*
X165070126Y-40593665D01*
X165115461Y-40589200D01*
X166202139Y-40589200D01*
X166247474Y-40593665D01*
X166247474Y-40593665D01*
G37*
G36*
X155198474Y-39577665D02*
G01*
X155236167Y-39589099D01*
X155270903Y-39607666D01*
X155301348Y-39632652D01*
X155326334Y-39663097D01*
X155344901Y-39697833D01*
X155356335Y-39735526D01*
X155360800Y-39780861D01*
X155360800Y-40617539D01*
X155356335Y-40662874D01*
X155344901Y-40700567D01*
X155326334Y-40735303D01*
X155301348Y-40765748D01*
X155270903Y-40790734D01*
X155236167Y-40809301D01*
X155198474Y-40820735D01*
X155153139Y-40825200D01*
X154066461Y-40825200D01*
X154021126Y-40820735D01*
X153983433Y-40809301D01*
X153948697Y-40790734D01*
X153918252Y-40765748D01*
X153893266Y-40735303D01*
X153874699Y-40700567D01*
X153863265Y-40662874D01*
X153858800Y-40617539D01*
X153858800Y-39780861D01*
X153863265Y-39735526D01*
X153874699Y-39697833D01*
X153893266Y-39663097D01*
X153918252Y-39632652D01*
X153948697Y-39607666D01*
X153983433Y-39589099D01*
X154021126Y-39577665D01*
X154066461Y-39573200D01*
X155153139Y-39573200D01*
X155198474Y-39577665D01*
X155198474Y-39577665D01*
G37*
G36*
X155122055Y-35818791D02*
G01*
X155193925Y-35833087D01*
X155397024Y-35917213D01*
X155579809Y-36039346D01*
X155735254Y-36194791D01*
X155857387Y-36377576D01*
X155941513Y-36580675D01*
X155984400Y-36796284D01*
X155984400Y-37016116D01*
X155941513Y-37231725D01*
X155857387Y-37434824D01*
X155735254Y-37617609D01*
X155579809Y-37773054D01*
X155397024Y-37895187D01*
X155193925Y-37979313D01*
X155122055Y-37993609D01*
X154978318Y-38022200D01*
X154758482Y-38022200D01*
X154614745Y-37993609D01*
X154542875Y-37979313D01*
X154339776Y-37895187D01*
X154156991Y-37773054D01*
X154001546Y-37617609D01*
X153879413Y-37434824D01*
X153795287Y-37231725D01*
X153752400Y-37016116D01*
X153752400Y-36796284D01*
X153795287Y-36580675D01*
X153879413Y-36377576D01*
X154001546Y-36194791D01*
X154156991Y-36039346D01*
X154339776Y-35917213D01*
X154542875Y-35833087D01*
X154614745Y-35818791D01*
X154758482Y-35790200D01*
X154978318Y-35790200D01*
X155122055Y-35818791D01*
X155122055Y-35818791D01*
G37*
G36*
X163422055Y-35818791D02*
G01*
X163493925Y-35833087D01*
X163697024Y-35917213D01*
X163879809Y-36039346D01*
X164035254Y-36194791D01*
X164157387Y-36377576D01*
X164241513Y-36580675D01*
X164284400Y-36796284D01*
X164284400Y-37016116D01*
X164241513Y-37231725D01*
X164157387Y-37434824D01*
X164035254Y-37617609D01*
X163879809Y-37773054D01*
X163697024Y-37895187D01*
X163493925Y-37979313D01*
X163422055Y-37993609D01*
X163278318Y-38022200D01*
X163058482Y-38022200D01*
X162914745Y-37993609D01*
X162842875Y-37979313D01*
X162639776Y-37895187D01*
X162456991Y-37773054D01*
X162301546Y-37617609D01*
X162179413Y-37434824D01*
X162095287Y-37231725D01*
X162052400Y-37016116D01*
X162052400Y-36796284D01*
X162095287Y-36580675D01*
X162179413Y-36377576D01*
X162301546Y-36194791D01*
X162456991Y-36039346D01*
X162639776Y-35917213D01*
X162842875Y-35833087D01*
X162914745Y-35818791D01*
X163058482Y-35790200D01*
X163278318Y-35790200D01*
X163422055Y-35818791D01*
X163422055Y-35818791D01*
G37*
G36*
X167234400Y-37922200D02*
G01*
X165302400Y-37922200D01*
X165302400Y-35890200D01*
X167234400Y-35890200D01*
X167234400Y-37922200D01*
X167234400Y-37922200D01*
G37*
G36*
X161254674Y-32756065D02*
G01*
X161292367Y-32767499D01*
X161327103Y-32786066D01*
X161357548Y-32811052D01*
X161382534Y-32841497D01*
X161401101Y-32876233D01*
X161412535Y-32913926D01*
X161417000Y-32959261D01*
X161417000Y-34045939D01*
X161412535Y-34091274D01*
X161401101Y-34128967D01*
X161382534Y-34163703D01*
X161357548Y-34194148D01*
X161327103Y-34219134D01*
X161292367Y-34237701D01*
X161254674Y-34249135D01*
X161209339Y-34253600D01*
X160372661Y-34253600D01*
X160327326Y-34249135D01*
X160289633Y-34237701D01*
X160254897Y-34219134D01*
X160224452Y-34194148D01*
X160199466Y-34163703D01*
X160180899Y-34128967D01*
X160169465Y-34091274D01*
X160165000Y-34045939D01*
X160165000Y-32959261D01*
X160169465Y-32913926D01*
X160180899Y-32876233D01*
X160199466Y-32841497D01*
X160224452Y-32811052D01*
X160254897Y-32786066D01*
X160289633Y-32767499D01*
X160327326Y-32756065D01*
X160372661Y-32751600D01*
X161209339Y-32751600D01*
X161254674Y-32756065D01*
X161254674Y-32756065D01*
G37*
G36*
X159204674Y-32756065D02*
G01*
X159242367Y-32767499D01*
X159277103Y-32786066D01*
X159307548Y-32811052D01*
X159332534Y-32841497D01*
X159351101Y-32876233D01*
X159362535Y-32913926D01*
X159367000Y-32959261D01*
X159367000Y-34045939D01*
X159362535Y-34091274D01*
X159351101Y-34128967D01*
X159332534Y-34163703D01*
X159307548Y-34194148D01*
X159277103Y-34219134D01*
X159242367Y-34237701D01*
X159204674Y-34249135D01*
X159159339Y-34253600D01*
X158322661Y-34253600D01*
X158277326Y-34249135D01*
X158239633Y-34237701D01*
X158204897Y-34219134D01*
X158174452Y-34194148D01*
X158149466Y-34163703D01*
X158130899Y-34128967D01*
X158119465Y-34091274D01*
X158115000Y-34045939D01*
X158115000Y-32959261D01*
X158119465Y-32913926D01*
X158130899Y-32876233D01*
X158149466Y-32841497D01*
X158174452Y-32811052D01*
X158204897Y-32786066D01*
X158239633Y-32767499D01*
X158277326Y-32756065D01*
X158322661Y-32751600D01*
X159159339Y-32751600D01*
X159204674Y-32756065D01*
X159204674Y-32756065D01*
G37*
G36*
X161102274Y-29860465D02*
G01*
X161139967Y-29871899D01*
X161174703Y-29890466D01*
X161205148Y-29915452D01*
X161230134Y-29945897D01*
X161248701Y-29980633D01*
X161260135Y-30018326D01*
X161264600Y-30063661D01*
X161264600Y-31150339D01*
X161260135Y-31195674D01*
X161248701Y-31233367D01*
X161230134Y-31268103D01*
X161205148Y-31298548D01*
X161174703Y-31323534D01*
X161139967Y-31342101D01*
X161102274Y-31353535D01*
X161056939Y-31358000D01*
X160220261Y-31358000D01*
X160174926Y-31353535D01*
X160137233Y-31342101D01*
X160102497Y-31323534D01*
X160072052Y-31298548D01*
X160047066Y-31268103D01*
X160028499Y-31233367D01*
X160017065Y-31195674D01*
X160012600Y-31150339D01*
X160012600Y-30063661D01*
X160017065Y-30018326D01*
X160028499Y-29980633D01*
X160047066Y-29945897D01*
X160072052Y-29915452D01*
X160102497Y-29890466D01*
X160137233Y-29871899D01*
X160174926Y-29860465D01*
X160220261Y-29856000D01*
X161056939Y-29856000D01*
X161102274Y-29860465D01*
X161102274Y-29860465D01*
G37*
G36*
X159052274Y-29860465D02*
G01*
X159089967Y-29871899D01*
X159124703Y-29890466D01*
X159155148Y-29915452D01*
X159180134Y-29945897D01*
X159198701Y-29980633D01*
X159210135Y-30018326D01*
X159214600Y-30063661D01*
X159214600Y-31150339D01*
X159210135Y-31195674D01*
X159198701Y-31233367D01*
X159180134Y-31268103D01*
X159155148Y-31298548D01*
X159124703Y-31323534D01*
X159089967Y-31342101D01*
X159052274Y-31353535D01*
X159006939Y-31358000D01*
X158170261Y-31358000D01*
X158124926Y-31353535D01*
X158087233Y-31342101D01*
X158052497Y-31323534D01*
X158022052Y-31298548D01*
X157997066Y-31268103D01*
X157978499Y-31233367D01*
X157967065Y-31195674D01*
X157962600Y-31150339D01*
X157962600Y-30063661D01*
X157967065Y-30018326D01*
X157978499Y-29980633D01*
X157997066Y-29945897D01*
X158022052Y-29915452D01*
X158052497Y-29890466D01*
X158087233Y-29871899D01*
X158124926Y-29860465D01*
X158170261Y-29856000D01*
X159006939Y-29856000D01*
X159052274Y-29860465D01*
X159052274Y-29860465D01*
G37*
G36*
X163447455Y-25658791D02*
G01*
X163519325Y-25673087D01*
X163722424Y-25757213D01*
X163905209Y-25879346D01*
X164060654Y-26034791D01*
X164182787Y-26217576D01*
X164266913Y-26420675D01*
X164309800Y-26636284D01*
X164309800Y-26856116D01*
X164266913Y-27071725D01*
X164182787Y-27274824D01*
X164060654Y-27457609D01*
X163905209Y-27613054D01*
X163722424Y-27735187D01*
X163519325Y-27819313D01*
X163447455Y-27833609D01*
X163303718Y-27862200D01*
X163083882Y-27862200D01*
X162940145Y-27833609D01*
X162868275Y-27819313D01*
X162665176Y-27735187D01*
X162482391Y-27613054D01*
X162326946Y-27457609D01*
X162204813Y-27274824D01*
X162120687Y-27071725D01*
X162077800Y-26856116D01*
X162077800Y-26636284D01*
X162120687Y-26420675D01*
X162204813Y-26217576D01*
X162326946Y-26034791D01*
X162482391Y-25879346D01*
X162665176Y-25757213D01*
X162868275Y-25673087D01*
X162940145Y-25658791D01*
X163083882Y-25630200D01*
X163303718Y-25630200D01*
X163447455Y-25658791D01*
X163447455Y-25658791D01*
G37*
G36*
X155147455Y-25658791D02*
G01*
X155219325Y-25673087D01*
X155422424Y-25757213D01*
X155605209Y-25879346D01*
X155760654Y-26034791D01*
X155882787Y-26217576D01*
X155966913Y-26420675D01*
X156009800Y-26636284D01*
X156009800Y-26856116D01*
X155966913Y-27071725D01*
X155882787Y-27274824D01*
X155760654Y-27457609D01*
X155605209Y-27613054D01*
X155422424Y-27735187D01*
X155219325Y-27819313D01*
X155147455Y-27833609D01*
X155003718Y-27862200D01*
X154783882Y-27862200D01*
X154640145Y-27833609D01*
X154568275Y-27819313D01*
X154365176Y-27735187D01*
X154182391Y-27613054D01*
X154026946Y-27457609D01*
X153904813Y-27274824D01*
X153820687Y-27071725D01*
X153777800Y-26856116D01*
X153777800Y-26636284D01*
X153820687Y-26420675D01*
X153904813Y-26217576D01*
X154026946Y-26034791D01*
X154182391Y-25879346D01*
X154365176Y-25757213D01*
X154568275Y-25673087D01*
X154640145Y-25658791D01*
X154783882Y-25630200D01*
X155003718Y-25630200D01*
X155147455Y-25658791D01*
X155147455Y-25658791D01*
G37*
G36*
X167259800Y-27762200D02*
G01*
X165327800Y-27762200D01*
X165327800Y-25730200D01*
X167259800Y-25730200D01*
X167259800Y-27762200D01*
X167259800Y-27762200D01*
G37*
M02*
